M48
;Layer_Color=9474304
;FILE_FORMAT=2:5
INCH,LZ
;TYPE=PLATED
T1F00S00C0.00984
T2F00S00C0.01000
T3F00S00C0.01968
T4F00S00C0.02756
T5F00S00C0.03000
T6F00S00C0.03937
T7F00S00C0.05906
T8F00S00C0.08661
T9F00S00C0.22441
T10F00S00C0.23622
%
T01
X0564016Y0249213
X0551024Y0263386
X055811Y0424803
X0555354Y0430315
X0560866Y0458464
X052878Y0454984
X0517953Y0440551
X0506299Y0441339
T02
X0527402Y0259055
X0531732
X0538031Y025689
X054748
X0549055Y0265748
X0547087Y026811
X0545118Y0270472
X054315Y0272835
X0541181Y0275197
X0541968Y0281496
X0545512Y0279921
X0551811Y0283858
Y0288583
X0554961
X054748
X0549449Y0286221
X0541181Y0288583
X0538787Y0298622
X0535638
X0547874Y0298425
X0551024
X0555512Y0302756
Y0306299
Y0310236
X0546693Y0310433
X0546457Y0305906
X0529764Y0308465
X0523465Y031063
Y0306299
X0514803
Y031063
X0521102Y0299213
X0519528Y0287795
X0527008Y0286614
X0525039Y0281496
X0526614Y0274409
Y0270472
Y0264567
X0514803Y0272835
X0513228Y0282677
X0509055Y0290158
X0505583Y0297638
X0567559Y0294094
X0569134Y0281693
X055811Y028248
X0586457Y0281496
Y0285039
Y0288583
Y0292126
Y0303543
X059
X0593543
X0582913Y0303937
X057937
X0575827
X0578583Y025748
X0581339Y0253543
X0571102Y0253346
X0566378Y0251575
X0547874Y0244488
X0549055Y0315945
X055378Y0319685
X0552205Y032185
X0545905Y0321654
X0543543Y0318898
X0533898Y032185
X0532126Y032559
X0529764Y0323622
X0527795Y031352
X0512835Y0323622
Y0335433
X0509685Y0340748
X0513228Y0343701
X0509291Y0347638
X0508898Y0351969
Y0355906
X0505354Y0364961
X0512047Y0371654
X0519134Y0395276
X0524646
X0531339Y0398031
Y0400787
X0528976Y040315
Y0409449
X0535669Y0407874
X055063Y0409055
X0548661Y0411417
X0545118Y0414961
X054315Y0416929
X0541181Y0418898
X0545118Y0422835
X0542756Y0425197
X054748
X0549449Y0427559
X0551811Y0430315
X0547087Y0430709
X0540394
X0538787Y0440354
X0535638
X0524252Y0439764
X0523465Y0448032
Y0452362
X0514803
X0514803Y0447638
Y0444095
X0523858Y0431102
X0525827Y0427165
X0524646Y0423622
X0525433Y0418898
X0524252Y0416142
X0514803Y0414567
X0513622Y0406299
X0512441Y0424016
X0513228Y0465354
X0530945Y0465354
X0533898Y0463583
X0530386Y0460827
X0537047Y0460433
X0545118Y0461024
X0545905Y0463779
X0552598Y0463386
X0552992Y0460236
X0548661Y0457874
X0546693Y0452165
X0546457Y0447638
X0547874Y0440158
X0551417
X0557717Y0440945
X0555512Y0448032
Y0451968
X0559291Y0455512
X0562047Y0461811
X0562441Y0465748
X0557323Y0465354
X0560079Y043189
X055811Y042126
X0554567Y0409842
X0552598Y0406693
X0559291Y0393701
X0553386Y0385039
X0565197Y0375984
X0573465
X0569685Y0366535
X0569528Y0362598
X0569528Y0351969
X0580945Y0350362
X0553386Y034685
X053685Y0346949
X053685Y0330217
X0553583
X0557717Y032559
X0561654Y0329528
X0563622Y0333465
X0562441Y0322441
X0565984Y0322047
X0561654Y0318898
Y0315748
X0586457Y0319685
X059Y0322047
X0589606Y0375984
X0570315Y038937
X058252Y0414961
X0584882Y0417323
X0545276Y0360236
X0504961Y0333071
Y0329921
X050811Y0474016
X0504961Y0477559
Y0484252
X0510079Y048189
X0512835Y0477165
X0509291Y0489764
Y0494095
X0509654Y0498228
X0505354Y0506693
X0528583Y0500394
X0542756Y0504331
X0545118Y0488583
X053685Y0488681
X053685Y0471949
X0561654Y047126
X0563622Y0475197
X0569528Y0481071
Y0493701
X0580945Y0492095
X0560079Y0508661
Y0511811
X055378Y0481496
X0424409Y0540945
T03
X0475433Y0239764
Y0245276
X047937Y024252
X0483307Y0245276
Y0239764
X0487244Y024252
X0491181Y0239764
Y0245276
X0495118Y024252
X0499055Y0245276
Y0239764
X0502992Y024252
X0494724Y0284252
Y0289764
X0490787Y029252
Y0287008
X048685Y0284252
Y0289764
X0482913Y0287008
Y029252
X0478976Y0289764
Y0284252
X0475039Y0287008
Y029252
X0552205Y027559
X0581339Y0274409
X0582913Y0235039
X0458504Y0273622
Y027874
X0454173Y0275984
Y0270866
X0449843Y0273622
Y027874
X0445512Y0275984
Y0270866
X0441181Y0273622
Y027874
Y0320866
Y0325984
X0445512Y0323228
Y031811
X0449843Y0320866
Y0325984
X0454173Y0323228
Y031811
X0458504Y0320866
Y0325984
Y036811
Y0373228
X0454173Y0370472
Y0365354
X0449843Y036811
Y0373228
X0445512Y0370472
Y0365354
X0441181Y036811
Y0373228
Y0414961
Y0420079
X0445512Y0417323
Y0412205
X0449843Y0414961
Y0420079
X0454173Y0417323
Y0412205
X0458504Y0414961
Y0420079
Y0461811
Y0466929
X0454173Y0464173
Y0459055
X0449843Y0461811
Y0466929
X0445512Y0464173
Y0459055
X0441181Y0461811
Y0466929
X0475039Y0433858
Y0428346
X0478976Y0431102
Y0425591
X0482913Y0428346
Y0433858
X048685Y0431102
Y0425591
X0490787Y0428346
Y0433858
X0494724Y0431102
Y0425591
Y0384252
Y037874
X0490787Y0381496
Y0387008
X048685Y0384252
Y037874
X0482913Y0381496
Y0387008
X0478976Y0384252
Y037874
X0475039Y0381496
Y0387008
X051559Y0388976
X0527008Y0385039
X052937Y0374803
X0555354Y0380709
X0585669Y0390945
X0585276Y0341732
X0580551Y033937
X0569528Y0338689
X0570315Y0346063
X0575039
X0494724Y0337008
Y0331496
X0490787Y0334252
Y0339764
X048685Y0337008
Y0331496
X0482913Y0334252
Y0339764
X0478976Y0337008
Y0331496
X0475039Y0334252
Y0339764
X055378Y0424803
X0567165Y0439764
X0573071Y0433858
X0575039Y0462598
X0568347Y0461811
X0587638Y0462598
X0588031Y0485433
X0581732Y0481102
X0575039Y0487795
X0570315
X0572441Y0512598
X0527402Y0519685
X0494724Y0477953
Y0472441
X0490787Y0475197
Y0480709
X048685Y0477953
Y0472441
X0482913Y0475197
Y0480709
X0478976Y0477953
Y0472441
X0475039Y0475197
Y0480709
X0458504Y0509055
Y0514173
X0454173Y0511417
Y0506299
X0449843Y0509055
Y0514173
X0445512Y0511417
Y0506299
X0441181Y0509055
Y0514173
T04
X0512441Y022126
X0520315
X0528189
X0536063
X0543937
X0565748Y0217717
X0573622
X0581496
X058937
X0597244
T05
X0601181Y0241575
Y0251575
Y0261575
Y0271575
Y0281575
Y0291575
Y0301575
Y0311575
Y0321575
Y0331575
Y0341575
Y0351575
Y0361575
Y0371575
Y0387244
Y0397244
Y0407244
Y0417244
Y0427244
Y0437244
Y0447244
Y0457244
Y0467244
Y0477244
Y0487244
Y0497244
Y0507244
Y0517244
X0601142Y0531496
X0591142
X0581142
X0571142
X0561142
X0551142
X0541142
X0531142
X0521142
X0511142
X0501142
X0491142
X0481142
X0471142
T06
X0363976Y0238976
X0393504
T07
X0445709Y0260236
X0465787Y0260433
X0465787Y0307677
X0445709Y030748
X0445709Y0354331
X0465787Y0354528
Y0401772
X0445709Y0401575
Y0448425
X0465787Y0448622
Y0495866
X0445709Y0495669
T08
X0471496Y0220079
X0491181
T09
X0479921Y0161024
X0597638Y0577165
T10
X0362598Y0577559
M30
