G04 Layer_Color=32768*
%FSLAX26Y26*%
%MOIN*%
%TF.FileFunction,Mechanical*%
%TF.Part,Single*%
G01*
G75*
%TA.AperFunction,NonConductor*%
%ADD75C,0.003937*%
%ADD251C,0.001968*%
D75*
X3787183Y2370073D02*
Y2409443D01*
X3767497Y2389758D02*
X3806868D01*
X5756112Y3655354D02*
Y3675354D01*
X5745905Y3665354D02*
X5765905D01*
X4238032Y5248238D02*
X4258032D01*
X4248032Y5238032D02*
Y5258032D01*
X4293150Y5247825D02*
X4313150D01*
X4303150Y5238032D02*
Y5258032D01*
X4350394Y5238032D02*
Y5258032D01*
X4340394Y5247825D02*
X4360394D01*
X5407874Y3682913D02*
Y3702913D01*
X5397874Y3693119D02*
X5417874D01*
X5403937Y5092362D02*
Y5112362D01*
X5393937Y5102156D02*
X5413937D01*
X4490544Y2243888D02*
X4529914D01*
X4510229Y2224203D02*
Y2263573D01*
X4648025Y3759636D02*
X4687395D01*
X4667710Y3739951D02*
Y3779321D01*
X4651962Y2810817D02*
X4691332D01*
X4671647Y2791132D02*
Y2830502D01*
X4651962Y4228140D02*
X4691332D01*
X4671647Y4208455D02*
Y4247825D01*
X4651962Y3275384D02*
X4691332D01*
X4671647Y3255699D02*
Y3295069D01*
X4651962Y4692707D02*
X4691332D01*
X4671647Y4673022D02*
Y4712392D01*
X5817330Y3740364D02*
Y3779734D01*
X5797645Y3760049D02*
X5837015D01*
X5655913Y3740364D02*
Y3779734D01*
X5636227Y3760049D02*
X5675597D01*
X5118346Y2779321D02*
X5138346D01*
X5128346Y2769528D02*
Y2789528D01*
X5118346Y4196644D02*
X5138346D01*
X5128346Y4186850D02*
Y4206850D01*
X5179734Y3226220D02*
Y3246220D01*
X5169528Y3236220D02*
X5189528D01*
X5179322Y3271496D02*
Y3291496D01*
X5169528Y3281496D02*
X5189528D01*
X5179322Y3326614D02*
Y3346614D01*
X5169528Y3336614D02*
X5189528D01*
X5730503Y2720315D02*
Y2740315D01*
X5720709Y2730315D02*
X5740709D01*
X5730503Y2763622D02*
Y2783622D01*
X5720709Y2773622D02*
X5740709D01*
X5179322Y3425039D02*
Y3445039D01*
X5169528Y3435039D02*
X5189528D01*
X5179322Y3369921D02*
Y3389921D01*
X5169528Y3379921D02*
X5189528D01*
X5277747Y3096299D02*
Y3116299D01*
X5267953Y3106299D02*
X5287953D01*
X5191133Y3096299D02*
Y3116299D01*
X5181339Y3106299D02*
X5201339D01*
X5179007Y3680945D02*
Y3700945D01*
X5169213Y3690945D02*
X5189213D01*
X5277747Y3052992D02*
Y3072992D01*
X5267953Y3062992D02*
X5287953D01*
X5191133Y3052992D02*
Y3072992D01*
X5181339Y3062992D02*
X5201339D01*
X5277747Y3009685D02*
Y3029685D01*
X5267953Y3019685D02*
X5287953D01*
X5191133Y3009685D02*
Y3029685D01*
X5181339Y3019685D02*
X5201339D01*
X5597057Y3094330D02*
Y3114330D01*
X5586850Y3104330D02*
X5606850D01*
X5597057Y3051023D02*
Y3071023D01*
X5586850Y3061023D02*
X5606850D01*
X5597057Y3007716D02*
Y3027716D01*
X5586850Y3017716D02*
X5606850D01*
X5510030Y3007716D02*
Y3027716D01*
X5500236Y3017716D02*
X5520236D01*
X5510030Y3051023D02*
Y3071023D01*
X5500236Y3061023D02*
X5520236D01*
X5510030Y3094330D02*
Y3114330D01*
X5500236Y3104330D02*
X5520236D01*
X5364567Y2399449D02*
Y2419449D01*
X5354567Y2409243D02*
X5374567D01*
X5801575Y2883701D02*
Y2903701D01*
X5791575Y2893494D02*
X5811575D01*
X5407874Y2399449D02*
Y2419449D01*
X5397874Y2409243D02*
X5417874D01*
X5724646Y2921260D02*
X5744646D01*
X5734852Y2911260D02*
Y2931260D01*
X5330945Y3153543D02*
X5350945D01*
X5341151Y3143543D02*
Y3163543D01*
X5557480Y3726220D02*
Y3746220D01*
X5547480Y3736427D02*
X5567480D01*
X5362599Y3028031D02*
Y3048031D01*
X5352599Y3038237D02*
X5372599D01*
X5724646Y2875984D02*
X5744646D01*
X5734852Y2865984D02*
Y2885984D01*
X5321260Y2399449D02*
Y2419449D01*
X5311260Y2409243D02*
X5331260D01*
X5711024Y2570708D02*
Y2590708D01*
X5701024Y2580502D02*
X5721024D01*
X5126378Y2567401D02*
Y2587401D01*
X5116378Y2577607D02*
X5136378D01*
X5181339Y2960630D02*
X5201339D01*
X5191132Y2950630D02*
Y2970630D01*
X5510236Y2401417D02*
Y2421417D01*
X5500236Y2411211D02*
X5520236D01*
X5087008Y2567401D02*
Y2587401D01*
X5077008Y2577607D02*
X5097008D01*
X5413622Y3104330D02*
X5433622D01*
X5423828Y3094330D02*
Y3114330D01*
X5413622Y3061023D02*
X5433622D01*
X5423828Y3051023D02*
Y3071023D01*
X5413622Y3017716D02*
X5433622D01*
X5423828Y3007716D02*
Y3027716D01*
X5423416Y3143543D02*
Y3163543D01*
X5413622Y3153543D02*
X5433622D01*
X5139951Y3641575D02*
Y3661575D01*
X5130158Y3651575D02*
X5150158D01*
X5179007Y3728189D02*
Y3748189D01*
X5169213Y3738189D02*
X5189213D01*
X5432480Y3385827D02*
X5471850D01*
X5452165Y3366141D02*
Y3405512D01*
X5246772Y3161260D02*
Y3181260D01*
X5236772Y3171466D02*
X5256772D01*
X5203150Y3535275D02*
Y3555275D01*
X5193150Y3545069D02*
X5213150D01*
X5203150Y3621890D02*
Y3641890D01*
X5193150Y3632096D02*
X5213150D01*
X5179322Y3139606D02*
Y3159606D01*
X5169528Y3149606D02*
X5189528D01*
X5179322Y3182913D02*
Y3202913D01*
X5169528Y3192913D02*
X5189528D01*
X5139951Y3554960D02*
Y3574960D01*
X5130158Y3564960D02*
X5150158D01*
X5139951Y3511653D02*
Y3531653D01*
X5130158Y3521653D02*
X5150158D01*
X5139951Y3598267D02*
Y3618267D01*
X5130158Y3608267D02*
X5150158D01*
X4427353Y3342527D02*
Y3381897D01*
X4407668Y3362212D02*
X4447038D01*
X4427353Y2870086D02*
Y2909456D01*
X4407668Y2889771D02*
X4447038D01*
X4427353Y2397645D02*
Y2437015D01*
X4407668Y2417330D02*
X4447038D01*
X5070788Y3671466D02*
X5090788D01*
X5080788Y3661260D02*
Y3681260D01*
X5140364Y3468346D02*
Y3488346D01*
X5130158Y3478346D02*
X5150158D01*
X5462985Y3696644D02*
Y3736014D01*
X5443300Y3716329D02*
X5482670D01*
X5317001Y3690738D02*
X5356371D01*
X5336686Y3671053D02*
Y3710423D01*
X5730709Y4930945D02*
Y4950945D01*
X5720709Y4941151D02*
X5740709D01*
X5777953Y4930630D02*
Y4950630D01*
X5767953Y4940424D02*
X5787953D01*
X5648238Y5041181D02*
Y5061181D01*
X5638032Y5051181D02*
X5658032D01*
X5313379Y5117904D02*
X5352749D01*
X5333064Y5098219D02*
Y5137589D01*
X5466922Y5113967D02*
Y5153337D01*
X5447237Y5133652D02*
X5486607D01*
X5140364Y4885669D02*
Y4905669D01*
X5130158Y4895669D02*
X5150158D01*
X5070787Y5088789D02*
X5090787D01*
X5080787Y5078583D02*
Y5098583D01*
X4427353Y3814968D02*
Y3854338D01*
X4407668Y3834653D02*
X4447038D01*
X4427353Y4283471D02*
Y4322842D01*
X4407668Y4303157D02*
X4447038D01*
X4427353Y4751975D02*
Y4791346D01*
X4407668Y4771660D02*
X4447038D01*
X5139951Y5015591D02*
Y5035591D01*
X5130158Y5025591D02*
X5150158D01*
X5139951Y4928976D02*
Y4948976D01*
X5130158Y4938976D02*
X5150158D01*
X5139951Y4972283D02*
Y4992283D01*
X5130158Y4982283D02*
X5150158D01*
X5179322Y4600236D02*
Y4620236D01*
X5169528Y4610236D02*
X5189528D01*
X5179322Y4556929D02*
Y4576929D01*
X5169528Y4566929D02*
X5189528D01*
X5203150Y5039212D02*
Y5059212D01*
X5193150Y5049419D02*
X5213150D01*
X5203150Y4952598D02*
Y4972598D01*
X5193150Y4962392D02*
X5213150D01*
X5246772Y4578583D02*
Y4598583D01*
X5236772Y4588789D02*
X5256772D01*
X5551417Y5070660D02*
X5571417D01*
X5561417Y5060866D02*
Y5080866D01*
X5870315Y4940424D02*
X5890315D01*
X5880315Y4930630D02*
Y4950630D01*
X5432480Y4803150D02*
X5471850D01*
X5452165Y4783464D02*
Y4822834D01*
X5179006Y5145512D02*
Y5165512D01*
X5169213Y5155512D02*
X5189213D01*
X5139951Y5058898D02*
Y5078898D01*
X5130158Y5068898D02*
X5150158D01*
X5819134Y4940424D02*
X5839134D01*
X5829134Y4930630D02*
Y4950630D01*
X5423416Y4560866D02*
Y4580866D01*
X5413622Y4570866D02*
X5433622D01*
X5413622Y4435039D02*
X5433622D01*
X5423828Y4425039D02*
Y4445039D01*
X5413622Y4478346D02*
X5433622D01*
X5423828Y4468346D02*
Y4488346D01*
X5413622Y4521653D02*
X5433622D01*
X5423828Y4511653D02*
Y4531653D01*
X5087008Y3984724D02*
Y4004724D01*
X5077008Y3994930D02*
X5097008D01*
X5502362Y3816772D02*
Y3836772D01*
X5492362Y3826565D02*
X5512362D01*
X5171654Y4344331D02*
Y4364331D01*
X5161654Y4354537D02*
X5181654D01*
X5126378Y3984724D02*
Y4004724D01*
X5116378Y3994930D02*
X5136378D01*
X5711024Y3988031D02*
Y4008031D01*
X5701024Y3997825D02*
X5721024D01*
X5321260Y3816772D02*
Y3836772D01*
X5311260Y3826565D02*
X5331260D01*
X5724646Y4295275D02*
X5744646D01*
X5734852Y4285275D02*
Y4305275D01*
X5362598Y4445354D02*
Y4465354D01*
X5352598Y4455560D02*
X5372598D01*
X5561417Y5143543D02*
Y5163543D01*
X5551417Y5153337D02*
X5571417D01*
X5527795Y4570866D02*
X5547795D01*
X5538002Y4560866D02*
Y4580866D01*
X5330945Y4570866D02*
X5350945D01*
X5341151Y4560866D02*
Y4580866D01*
X5850630Y4244094D02*
X5870630D01*
X5860424Y4234094D02*
Y4254094D01*
X5407874Y3816772D02*
Y3836772D01*
X5397874Y3826565D02*
X5417874D01*
X5781684Y4377960D02*
Y4417330D01*
X5761998Y4397645D02*
X5801369D01*
X5850630Y4295275D02*
X5870630D01*
X5860424Y4285275D02*
Y4305275D01*
X5364567Y3816772D02*
Y3836772D01*
X5354567Y3826565D02*
X5374567D01*
X5777953Y4818898D02*
Y4858268D01*
X5758268Y4838583D02*
X5797638D01*
X5762198Y4625778D02*
X5801568D01*
X5781883Y4606093D02*
Y4645463D01*
X5510030Y4511653D02*
Y4531653D01*
X5500236Y4521653D02*
X5520236D01*
X5510030Y4468346D02*
Y4488346D01*
X5500236Y4478346D02*
X5520236D01*
X5510030Y4425039D02*
Y4445039D01*
X5500236Y4435039D02*
X5520236D01*
X5597057Y4425039D02*
Y4445039D01*
X5586850Y4435039D02*
X5606850D01*
X5597057Y4468346D02*
Y4488346D01*
X5586850Y4478346D02*
X5606850D01*
X5597057Y4511653D02*
Y4531653D01*
X5586850Y4521653D02*
X5606850D01*
X5191132Y4427008D02*
Y4447008D01*
X5181339Y4437008D02*
X5201339D01*
X5277747Y4427008D02*
Y4447008D01*
X5267953Y4437008D02*
X5287953D01*
X5191132Y4470315D02*
Y4490315D01*
X5181339Y4480315D02*
X5201339D01*
X5277747Y4470315D02*
Y4490315D01*
X5267953Y4480315D02*
X5287953D01*
X5179006Y5098268D02*
Y5118268D01*
X5169213Y5108268D02*
X5189213D01*
X5191132Y4513622D02*
Y4533622D01*
X5181339Y4523622D02*
X5201339D01*
X5277747Y4513622D02*
Y4533622D01*
X5267953Y4523622D02*
X5287953D01*
X5179321Y4787244D02*
Y4807244D01*
X5169528Y4797244D02*
X5189528D01*
X5179321Y4842362D02*
Y4862362D01*
X5169528Y4852362D02*
X5189528D01*
X5730502Y4180945D02*
Y4200945D01*
X5720709Y4190945D02*
X5740709D01*
X5730502Y4137638D02*
Y4157638D01*
X5720709Y4147638D02*
X5740709D01*
X5179321Y4743937D02*
Y4763937D01*
X5169528Y4753937D02*
X5189528D01*
X5179321Y4688819D02*
Y4708819D01*
X5169528Y4698819D02*
X5189528D01*
X5179734Y4643543D02*
Y4663543D01*
X5169528Y4653543D02*
X5189528D01*
X5758474Y2976371D02*
Y3015741D01*
X5738789Y2996056D02*
X5778159D01*
X5762198Y3208455D02*
X5801568D01*
X5781883Y3188770D02*
Y3228140D01*
X5547480Y3653337D02*
X5567480D01*
X5557480Y3643543D02*
Y3663543D01*
X5644301Y3623858D02*
Y3643858D01*
X5634095Y3633858D02*
X5654095D01*
X5535669Y3153543D02*
X5555669D01*
X5545876Y3143543D02*
Y3163543D01*
X5726772Y3513622D02*
Y3533622D01*
X5716772Y3523828D02*
X5736772D01*
X5777953Y3513622D02*
Y3533622D01*
X5767953Y3523416D02*
X5787953D01*
X5777953Y3397638D02*
Y3437008D01*
X5758268Y3417323D02*
X5797638D01*
X5870315Y3523416D02*
X5890315D01*
X5880315Y3513622D02*
Y3533622D01*
X5819134Y3523416D02*
X5839134D01*
X5829134Y3513622D02*
Y3533622D01*
D251*
X3472428Y2294751D02*
X4102349Y2294751D01*
X3472428Y4279515D02*
X4102349Y4279515D01*
Y2294751D02*
Y4279515D01*
X3472428Y2294751D02*
Y4279515D01*
X5795276Y3645669D02*
Y3685039D01*
X5716535Y3685039D02*
X5795276Y3685039D01*
X5716535Y3645669D02*
X5795276Y3645669D01*
X5716535Y3645669D02*
Y3685039D01*
X4228346Y5287402D02*
X4267717D01*
X4228346D02*
X4228346Y5208661D01*
X4267717D02*
X4267717Y5287402D01*
X4228346Y5208661D02*
X4267717D01*
X4283465D02*
X4322835D01*
X4322835Y5287402D02*
X4322835Y5208661D01*
X4283465D02*
X4283465Y5287402D01*
X4322835D01*
X4332394Y5286032D02*
X4368394D01*
X4332394Y5210032D02*
X4332394Y5286032D01*
X4368394D02*
X4368394Y5210032D01*
X4332394D02*
X4368394D01*
X5389874Y3654913D02*
X5425874D01*
X5425874Y3730913D01*
X5389874D02*
X5389874Y3654913D01*
X5389874Y3730913D02*
X5425874D01*
X5385937Y5140362D02*
X5421937D01*
X5385937Y5064362D02*
X5385937Y5140362D01*
X5421937D02*
X5421937Y5064362D01*
X5385937D02*
X5421937D01*
X4445236Y2144094D02*
X4575236D01*
X4575236Y2344094D02*
X4575236Y2144094D01*
X4445236D02*
Y2344094D01*
X4575236D01*
X4602717Y3659843D02*
X4732717D01*
X4732717Y3859843D02*
X4732717Y3659843D01*
X4602717D02*
Y3859843D01*
X4732717D01*
X4606654Y2711024D02*
X4736654D01*
X4736654Y2911024D02*
X4736654Y2711024D01*
X4606654D02*
Y2911024D01*
X4736654D01*
X4606654Y4128346D02*
X4736654D01*
X4736654Y4328346D02*
X4736654Y4128346D01*
X4606654D02*
Y4328346D01*
X4736654D01*
X4606654Y3175590D02*
X4736654D01*
X4736654Y3375590D02*
X4736654Y3175590D01*
X4606654D02*
Y3375590D01*
X4736654D01*
X4606654Y4592913D02*
X4736654D01*
X4736654Y4792913D02*
X4736654Y4592913D01*
X4606654D02*
Y4792913D01*
X4736654D01*
X5742323Y3689843D02*
X5892323D01*
X5892323Y3829843D01*
X5742323D02*
X5742323Y3689843D01*
X5742323Y3829843D02*
X5892323D01*
X5580906Y3689843D02*
X5730905D01*
X5730905Y3829843D01*
X5580905D02*
X5580906Y3689843D01*
X5580905Y3829843D02*
X5730905D01*
X5108661Y2740157D02*
X5148032D01*
X5148032Y2818898D02*
X5148032Y2740157D01*
X5108661D02*
X5108662Y2818898D01*
X5148032D01*
X5108661Y4157480D02*
X5148032D01*
X5148032Y4236220D02*
X5148032Y4157480D01*
X5108661D02*
X5108662Y4236220D01*
X5148032D01*
X5155748Y2454567D02*
X5675748D01*
Y2974567D01*
X5155748Y2454567D02*
Y2974567D01*
X5675748D01*
X5415748Y2699567D02*
Y2729567D01*
X5400748Y2714567D02*
X5430748D01*
X5218898Y3216535D02*
Y3255905D01*
X5140158Y3255905D02*
X5218898Y3255905D01*
X5140158Y3216535D02*
X5218898Y3216535D01*
X5140158Y3216535D02*
Y3255905D01*
X5140158Y3261811D02*
Y3301181D01*
Y3261811D02*
X5218898Y3261811D01*
X5140158Y3301181D02*
X5218898Y3301181D01*
Y3261811D02*
Y3301181D01*
X5140158Y3316929D02*
Y3356299D01*
Y3316929D02*
X5218898Y3316929D01*
X5140158Y3356299D02*
X5218898Y3356299D01*
Y3316929D02*
Y3356299D01*
X5691339Y2710630D02*
Y2750000D01*
Y2710630D02*
X5770079Y2710630D01*
X5691339Y2750000D02*
X5770079Y2750000D01*
Y2710630D02*
Y2750000D01*
X5691339Y2753937D02*
Y2793307D01*
Y2753937D02*
X5770079Y2753937D01*
X5691339Y2793307D02*
X5770079Y2793307D01*
Y2753937D02*
Y2793307D01*
X5140158Y3415354D02*
Y3454724D01*
Y3415354D02*
X5218898Y3415354D01*
X5140158Y3454724D02*
X5218898Y3454724D01*
Y3415354D02*
Y3454724D01*
X5140158Y3360236D02*
Y3399606D01*
Y3360236D02*
X5218898Y3360236D01*
X5140158Y3399606D02*
X5218898Y3399606D01*
Y3360236D02*
Y3399606D01*
X5238583Y3086614D02*
Y3125984D01*
Y3086614D02*
X5317323Y3086614D01*
X5238583Y3125984D02*
X5317323Y3125984D01*
Y3086614D02*
Y3125984D01*
X5151969Y3086614D02*
Y3125984D01*
Y3086614D02*
X5230709Y3086614D01*
X5151969Y3125984D02*
X5230709Y3125984D01*
Y3086614D02*
Y3125984D01*
X5139843Y3671260D02*
Y3710630D01*
Y3671260D02*
X5218583Y3671260D01*
X5139843Y3710630D02*
X5218583Y3710630D01*
Y3671260D02*
Y3710630D01*
X5238583Y3043307D02*
Y3082677D01*
Y3043307D02*
X5317323Y3043307D01*
X5238583Y3082677D02*
X5317323Y3082677D01*
Y3043307D02*
Y3082677D01*
X5151969Y3043307D02*
Y3082677D01*
Y3043307D02*
X5230709Y3043307D01*
X5151969Y3082677D02*
X5230709Y3082677D01*
Y3043307D02*
Y3082677D01*
X5238583Y3000000D02*
Y3039370D01*
Y3000000D02*
X5317323Y3000000D01*
X5238583Y3039370D02*
X5317323Y3039370D01*
Y3000000D02*
Y3039370D01*
X5151969Y3000000D02*
Y3039370D01*
Y3000000D02*
X5230709Y3000000D01*
X5151969Y3039370D02*
X5230709Y3039370D01*
Y3000000D02*
Y3039370D01*
X5636221Y3084645D02*
Y3124015D01*
X5557480Y3124015D02*
X5636221Y3124015D01*
X5557480Y3084645D02*
X5636221Y3084645D01*
X5557480Y3084645D02*
Y3124015D01*
X5636221Y3041338D02*
Y3080709D01*
X5557480Y3080708D02*
X5636221Y3080709D01*
X5557480Y3041338D02*
X5636221Y3041338D01*
X5557480Y3041338D02*
Y3080708D01*
X5636221Y2998031D02*
Y3037401D01*
X5557480Y3037401D02*
X5636221Y3037401D01*
X5557480Y2998031D02*
X5636221Y2998031D01*
X5557480Y2998031D02*
Y3037401D01*
X5470866Y2998031D02*
Y3037401D01*
Y2998031D02*
X5549606Y2998031D01*
X5470866Y3037401D02*
X5549606Y3037401D01*
Y2998031D02*
Y3037401D01*
X5470866Y3041338D02*
Y3080709D01*
Y3041338D02*
X5549606Y3041338D01*
X5470866Y3080709D02*
X5549606Y3080708D01*
Y3041338D02*
Y3080708D01*
X5470866Y3084645D02*
Y3124015D01*
Y3084645D02*
X5549606Y3084645D01*
X5470866Y3124015D02*
X5549606Y3124015D01*
Y3084645D02*
Y3124015D01*
X5751709Y2822834D02*
X5764701D01*
X5821260Y2799213D02*
Y2846457D01*
X5758205Y2816338D02*
Y2829330D01*
X5699213Y2846457D02*
X5821260D01*
X5699213Y2799213D02*
X5821260D01*
X5699213D02*
Y2846457D01*
X5751709Y2681102D02*
X5764701D01*
X5821260Y2657480D02*
Y2704724D01*
X5758205Y2674606D02*
Y2687598D01*
X5699213Y2704724D02*
X5821260D01*
X5699213Y2657480D02*
X5821260D01*
X5699213D02*
Y2704724D01*
X5346567Y2447449D02*
X5382567D01*
X5346567Y2371449D02*
X5346567Y2447449D01*
X5382567D02*
X5382567Y2371449D01*
X5346567D02*
X5382567D01*
X5783575Y2931701D02*
X5819575D01*
X5783575Y2855701D02*
X5783575Y2931701D01*
X5819575D02*
X5819575Y2855701D01*
X5783575D02*
X5819575D01*
X5389874Y2447449D02*
X5425874D01*
X5389874Y2371449D02*
X5389874Y2447449D01*
X5425874D02*
X5425874Y2371449D01*
X5389874D02*
X5425874D01*
X5696646Y2903260D02*
Y2939260D01*
Y2903260D02*
X5772646Y2903260D01*
X5696646Y2939260D02*
X5772646Y2939260D01*
Y2903260D02*
Y2939260D01*
X5302945Y3135543D02*
Y3171543D01*
Y3135543D02*
X5378945Y3135543D01*
X5302945Y3171543D02*
X5378945Y3171543D01*
Y3135543D02*
Y3171543D01*
X5539480Y3698220D02*
X5575480D01*
X5575480Y3774220D01*
X5539480D02*
X5539480Y3698220D01*
X5539480Y3774220D02*
X5575480D01*
X5344599Y3000031D02*
X5380599D01*
X5380599Y3076031D01*
X5344598D02*
X5344599Y3000031D01*
X5344598Y3076031D02*
X5380599D01*
X5696646Y2857984D02*
Y2893984D01*
Y2857984D02*
X5772646Y2857984D01*
X5696646Y2893984D02*
X5772646Y2893984D01*
Y2857984D02*
Y2893984D01*
X5303260Y2447449D02*
X5339260D01*
X5303260Y2371449D02*
X5303260Y2447449D01*
X5339260D02*
X5339260Y2371449D01*
X5303260D02*
X5339260D01*
X5693024Y2618708D02*
X5729024D01*
X5693024Y2542708D02*
X5693024Y2618708D01*
X5729024D02*
X5729024Y2542708D01*
X5693024D02*
X5729024D01*
X5108378Y2539401D02*
X5144378D01*
X5144378Y2615401D01*
X5108378D02*
X5108378Y2539401D01*
X5108378Y2615401D02*
X5144378D01*
X5229339Y2942630D02*
Y2978630D01*
X5153339Y2978630D02*
X5229339Y2978630D01*
X5153339Y2942630D02*
X5229339Y2942630D01*
X5153339Y2942630D02*
Y2978630D01*
X5492236Y2449417D02*
X5528236D01*
X5492236Y2373417D02*
X5492236Y2449417D01*
X5528236D02*
X5528236Y2373417D01*
X5492236D02*
X5528236D01*
X5069008Y2539401D02*
X5105008D01*
X5105008Y2615401D01*
X5069008D02*
X5069008Y2539401D01*
X5069008Y2615401D02*
X5105008D01*
X5385622Y3086330D02*
Y3122330D01*
Y3086330D02*
X5461622Y3086330D01*
X5385622Y3122330D02*
X5461622Y3122331D01*
Y3086330D02*
Y3122331D01*
X5385622Y3043023D02*
Y3079023D01*
Y3043023D02*
X5461622Y3043023D01*
X5385622Y3079023D02*
X5461622Y3079023D01*
Y3043023D02*
Y3079023D01*
X5385622Y2999716D02*
Y3035716D01*
Y2999716D02*
X5461622Y2999716D01*
X5385622Y3035716D02*
X5461622Y3035716D01*
Y2999716D02*
Y3035716D01*
X5384252Y3133858D02*
Y3173228D01*
Y3133858D02*
X5462992Y3133858D01*
X5384252Y3173228D02*
X5462992Y3173228D01*
Y3133858D02*
Y3173228D01*
X5100788Y3631889D02*
Y3671260D01*
Y3631889D02*
X5179528Y3631890D01*
X5100788Y3671260D02*
X5179528Y3671260D01*
Y3631890D02*
Y3671260D01*
X5139843Y3718504D02*
Y3757874D01*
Y3718504D02*
X5218583Y3718504D01*
X5139843Y3757874D02*
X5218583Y3757874D01*
Y3718504D02*
Y3757874D01*
X5290748Y3547244D02*
X5613583D01*
X5290748Y3224409D02*
Y3547244D01*
X5613583Y3224409D02*
Y3547244D01*
X5290748Y3224409D02*
X5613583D01*
X5228772Y3133260D02*
X5264772D01*
X5264772Y3209260D01*
X5228772D02*
X5228772Y3133260D01*
X5228772Y3209260D02*
X5264772D01*
X5185150Y3583275D02*
X5221150D01*
X5185150Y3507275D02*
X5185150Y3583275D01*
X5221150D02*
X5221150Y3507275D01*
X5185150D02*
X5221150D01*
X5185150Y3593890D02*
X5221150D01*
X5221150Y3669890D01*
X5185150D02*
X5185150Y3593890D01*
X5185150Y3669890D02*
X5221150D01*
X5140158Y3129921D02*
Y3169291D01*
Y3129921D02*
X5218898Y3129921D01*
X5140158Y3169291D02*
X5218898Y3169291D01*
Y3129921D02*
Y3169291D01*
X5140158Y3173228D02*
Y3212598D01*
Y3173228D02*
X5218898Y3173228D01*
X5140158Y3212598D02*
X5218898Y3212598D01*
Y3173228D02*
Y3212598D01*
X5100788Y3545275D02*
Y3584646D01*
Y3545275D02*
X5179528Y3545275D01*
X5100788Y3584646D02*
X5179528Y3584645D01*
Y3545275D02*
Y3584645D01*
X5100788Y3501968D02*
Y3541338D01*
Y3501968D02*
X5179528Y3501968D01*
X5100788Y3541338D02*
X5179528Y3541338D01*
Y3501968D02*
Y3541338D01*
X5100788Y3588582D02*
Y3627953D01*
Y3588582D02*
X5179528Y3588582D01*
X5100788Y3627953D02*
X5179528Y3627952D01*
Y3588582D02*
Y3627952D01*
X4285827Y3291338D02*
Y3433071D01*
Y3291338D02*
X4569291Y3291339D01*
X4285827Y3433071D02*
X4569291Y3433071D01*
Y3291339D02*
Y3433071D01*
X4285827Y2818898D02*
Y2960630D01*
Y2818898D02*
X4569291Y2818898D01*
X4285827Y2960630D02*
X4569291Y2960630D01*
Y2818898D02*
Y2960630D01*
X4285827Y2346456D02*
Y2488189D01*
Y2346456D02*
X4569292Y2346457D01*
X4285827Y2488189D02*
X4569292Y2488189D01*
Y2346457D02*
Y2488189D01*
X5061102Y3710630D02*
X5100473D01*
X5061102D02*
X5061102Y3631890D01*
X5100472D02*
X5100473Y3710630D01*
X5061102Y3631890D02*
X5100472D01*
X5179528Y3458661D02*
Y3498031D01*
X5100788Y3498031D02*
X5179528Y3498031D01*
X5100788Y3458661D02*
X5179528Y3458661D01*
X5100788Y3458661D02*
Y3498031D01*
X5427992Y3791535D02*
X5497992D01*
X5427992Y3646535D02*
X5427992Y3791535D01*
X5497992D02*
X5497992Y3646535D01*
X5427992D02*
X5497992D01*
X5296693Y3600945D02*
X5376693D01*
X5376693Y3780945D02*
X5376693Y3600945D01*
X5296693D02*
X5296693Y3780945D01*
X5376693D01*
X5712709Y4902945D02*
X5748709D01*
X5748709Y4978945D01*
X5712709D02*
X5712709Y4902945D01*
X5712709Y4978945D02*
X5748709D01*
X5759953Y4978630D02*
X5795953D01*
X5759953Y4902630D02*
X5759953Y4978630D01*
X5795953D02*
X5795953Y4902630D01*
X5759953D02*
X5795953D01*
X5687402Y5031496D02*
Y5070866D01*
X5608661Y5070866D02*
X5687402Y5070866D01*
X5608661Y5031496D02*
X5687402Y5031496D01*
X5608661Y5031496D02*
Y5070866D01*
X5293071Y5028110D02*
X5373071D01*
X5373071Y5208110D02*
X5373071Y5028110D01*
X5293071D02*
X5293071Y5208110D01*
X5373071D01*
X5431929Y5208858D02*
X5501929D01*
X5431929Y5063858D02*
X5431929Y5208858D01*
X5501929D02*
X5501929Y5063858D01*
X5431929D02*
X5501929D01*
X5179528Y4875984D02*
Y4915354D01*
X5100787Y4915354D02*
X5179528Y4915354D01*
X5100787Y4875984D02*
X5179528Y4875984D01*
X5100787Y4875984D02*
Y4915354D01*
X5061102Y5127953D02*
X5100472D01*
X5061102D02*
X5061102Y5049213D01*
X5100472D02*
X5100472Y5127953D01*
X5061102Y5049213D02*
X5100472D01*
X4285827Y3763779D02*
Y3905512D01*
Y3763779D02*
X4569292Y3763780D01*
X4285827Y3905512D02*
X4569292Y3905512D01*
Y3763780D02*
Y3905512D01*
X4285827Y4232283D02*
Y4374016D01*
Y4232283D02*
X4569292Y4232283D01*
X4285827Y4374016D02*
X4569292Y4374016D01*
Y4232283D02*
Y4374016D01*
X4285827Y4700787D02*
Y4842520D01*
Y4700787D02*
X4569291Y4700787D01*
X4285827Y4842520D02*
X4569291Y4842520D01*
Y4700787D02*
Y4842520D01*
X5100787Y5005905D02*
Y5045276D01*
Y5005905D02*
X5179528Y5005905D01*
X5100787Y5045276D02*
X5179528Y5045275D01*
Y5005905D02*
Y5045275D01*
X5100787Y4919291D02*
Y4958661D01*
Y4919291D02*
X5179528Y4919291D01*
X5100787Y4958661D02*
X5179528Y4958661D01*
Y4919291D02*
Y4958661D01*
X5100787Y4962598D02*
Y5001968D01*
Y4962598D02*
X5179528Y4962598D01*
X5100787Y5001968D02*
X5179528Y5001968D01*
Y4962598D02*
Y5001968D01*
X5140158Y4590551D02*
Y4629921D01*
Y4590551D02*
X5218898Y4590551D01*
X5140158Y4629921D02*
X5218898Y4629921D01*
Y4590551D02*
Y4629921D01*
X5140158Y4547244D02*
Y4586614D01*
Y4547244D02*
X5218898Y4547244D01*
X5140158Y4586614D02*
X5218898Y4586614D01*
Y4547244D02*
Y4586614D01*
X5185150Y5011212D02*
X5221150D01*
X5221150Y5087212D01*
X5185150D02*
X5185150Y5011212D01*
X5185150Y5087212D02*
X5221150D01*
X5185150Y5000598D02*
X5221150D01*
X5185150Y4924598D02*
X5185150Y5000598D01*
X5221150D02*
X5221150Y4924598D01*
X5185150D02*
X5221150D01*
X5228772Y4550583D02*
X5264772D01*
X5264772Y4626583D01*
X5228772D02*
X5228772Y4550583D01*
X5228772Y4626583D02*
X5264772D01*
X5541732Y5031496D02*
X5581102D01*
X5581102Y5110236D02*
X5581102Y5031496D01*
X5541732D02*
X5541732Y5110236D01*
X5581102D01*
X5860630Y4901260D02*
X5900000D01*
X5900000Y4980000D02*
X5900000Y4901260D01*
X5860630D02*
X5860630Y4980000D01*
X5900000D01*
X5290748Y4964567D02*
X5613583D01*
X5290748Y4641732D02*
Y4964567D01*
X5613583Y4641732D02*
Y4964567D01*
X5290748Y4641732D02*
X5613583D01*
X5139842Y5135827D02*
Y5175197D01*
Y5135827D02*
X5218583Y5135827D01*
X5139842Y5175197D02*
X5218583Y5175197D01*
Y5135827D02*
Y5175197D01*
X5100787Y5049212D02*
Y5088583D01*
Y5049212D02*
X5179528Y5049212D01*
X5100787Y5088583D02*
X5179528Y5088583D01*
Y5049212D02*
Y5088583D01*
X5809449Y4901260D02*
X5848819D01*
X5848819Y4980000D02*
X5848819Y4901260D01*
X5809449D02*
X5809449Y4980000D01*
X5848819D01*
X5384252Y4551181D02*
Y4590551D01*
Y4551181D02*
X5462992Y4551181D01*
X5384252Y4590551D02*
X5462992Y4590551D01*
Y4551181D02*
Y4590551D01*
X5385622Y4417039D02*
Y4453039D01*
Y4417039D02*
X5461622Y4417039D01*
X5385622Y4453039D02*
X5461622Y4453039D01*
Y4417039D02*
Y4453039D01*
X5385622Y4460346D02*
Y4496346D01*
Y4460346D02*
X5461622Y4460346D01*
X5385622Y4496346D02*
X5461622Y4496346D01*
Y4460346D02*
Y4496346D01*
X5385622Y4503653D02*
Y4539653D01*
Y4503653D02*
X5461622Y4503653D01*
X5385622Y4539653D02*
X5461622Y4539654D01*
Y4503653D02*
Y4539654D01*
X5069008Y3956724D02*
X5105008D01*
X5105008Y4032724D01*
X5069008D02*
X5069008Y3956724D01*
X5069008Y4032724D02*
X5105008D01*
X5484362Y3864772D02*
X5520362D01*
X5484362Y3788772D02*
X5484362Y3864772D01*
X5520362D02*
X5520362Y3788772D01*
X5484362D02*
X5520362D01*
X5153654Y4316331D02*
X5189654D01*
X5189654Y4392331D01*
X5153654D02*
X5153654Y4316331D01*
X5153654Y4392331D02*
X5189654D01*
X5108378Y3956724D02*
X5144378D01*
X5144378Y4032724D01*
X5108378D02*
X5108378Y3956724D01*
X5108378Y4032724D02*
X5144378D01*
X5693024Y4036031D02*
X5729024D01*
X5693024Y3960031D02*
X5693024Y4036031D01*
X5729024D02*
X5729024Y3960031D01*
X5693024D02*
X5729024D01*
X5303260Y3864772D02*
X5339260D01*
X5303260Y3788772D02*
X5303260Y3864772D01*
X5339260D02*
X5339260Y3788772D01*
X5303260D02*
X5339260D01*
X5696646Y4277275D02*
Y4313275D01*
Y4277275D02*
X5772646Y4277275D01*
X5696646Y4313275D02*
X5772646Y4313276D01*
Y4277275D02*
Y4313276D01*
X5344598Y4417354D02*
X5380598D01*
X5380599Y4493354D01*
X5344598D02*
X5344598Y4417354D01*
X5344598Y4493354D02*
X5380599D01*
X5543417Y5191543D02*
X5579417D01*
X5543417Y5115543D02*
X5543417Y5191543D01*
X5579417D02*
X5579417Y5115543D01*
X5543417D02*
X5579417D01*
X5499795Y4552866D02*
Y4588866D01*
Y4552866D02*
X5575795Y4552866D01*
X5499795Y4588866D02*
X5575795Y4588866D01*
Y4552866D02*
Y4588866D01*
X5302945Y4552866D02*
Y4588866D01*
Y4552866D02*
X5378945Y4552866D01*
X5302945Y4588866D02*
X5378945Y4588866D01*
Y4552866D02*
Y4588866D01*
X5898630Y4226094D02*
Y4262094D01*
X5822630Y4262095D02*
X5898630Y4262094D01*
X5822630Y4226094D02*
X5898630Y4226094D01*
X5822630Y4226094D02*
Y4262095D01*
X5389874Y3864772D02*
X5425874D01*
X5389874Y3788772D02*
X5389874Y3864772D01*
X5425874D02*
X5425874Y3788772D01*
X5389874D02*
X5425874D01*
X5691890Y4357638D02*
Y4437638D01*
Y4357638D02*
X5871890Y4357638D01*
X5691890Y4437638D02*
X5871890Y4437638D01*
Y4357638D02*
Y4437638D01*
X5898630Y4277275D02*
Y4313275D01*
X5822630Y4313276D02*
X5898630Y4313275D01*
X5822630Y4277275D02*
X5898630Y4277275D01*
X5822630Y4277275D02*
Y4313276D01*
X5346567Y3864772D02*
X5382567D01*
X5346567Y3788772D02*
X5346567Y3864772D01*
X5382567D02*
X5382567Y3788772D01*
X5346567D02*
X5382567D01*
X5739898Y4098425D02*
X5752890D01*
X5809449Y4074803D02*
Y4122047D01*
X5746394Y4091929D02*
Y4104921D01*
X5687402Y4122047D02*
X5809449D01*
X5687402Y4074803D02*
X5809449D01*
X5687402D02*
Y4122047D01*
X5739898Y4244094D02*
X5752890D01*
X5809449Y4220472D02*
Y4267716D01*
X5746394Y4237598D02*
Y4250590D01*
X5687402Y4267716D02*
X5809449D01*
X5687402Y4220472D02*
X5809449D01*
X5687402D02*
Y4267716D01*
X5742953Y4805118D02*
Y4872047D01*
X5711024D02*
X5844882D01*
X5711024Y4805118D02*
X5844882D01*
X5711024D02*
Y4872047D01*
X5844882Y4805118D02*
Y4872047D01*
X5640157Y4468504D02*
X5923622Y4468504D01*
X5923622Y4783465D02*
X5923622Y4468504D01*
X5640157Y4468504D02*
X5640158Y4783465D01*
X5923622D01*
X5470866Y4501968D02*
Y4541338D01*
Y4501968D02*
X5549606Y4501968D01*
X5470866Y4541338D02*
X5549606Y4541338D01*
Y4501968D02*
Y4541338D01*
X5470866Y4458661D02*
Y4498032D01*
Y4458661D02*
X5549606Y4458661D01*
X5470866Y4498032D02*
X5549606Y4498031D01*
Y4458661D02*
Y4498031D01*
X5470866Y4415354D02*
Y4454724D01*
Y4415354D02*
X5549606Y4415354D01*
X5470866Y4454724D02*
X5549606Y4454724D01*
Y4415354D02*
Y4454724D01*
X5636221Y4415354D02*
Y4454724D01*
X5557480Y4454724D02*
X5636221Y4454724D01*
X5557480Y4415354D02*
X5636221Y4415354D01*
X5557480Y4415354D02*
Y4454724D01*
X5636221Y4458661D02*
Y4498032D01*
X5557480Y4498031D02*
X5636221Y4498032D01*
X5557480Y4458661D02*
X5636221Y4458661D01*
X5557480Y4458661D02*
Y4498031D01*
X5636221Y4501968D02*
Y4541338D01*
X5557480Y4541338D02*
X5636221Y4541338D01*
X5557480Y4501968D02*
X5636221Y4501968D01*
X5557480Y4501968D02*
Y4541338D01*
X5151969Y4417323D02*
Y4456693D01*
Y4417323D02*
X5230709Y4417323D01*
X5151969Y4456693D02*
X5230709Y4456693D01*
Y4417323D02*
Y4456693D01*
X5238583Y4417323D02*
Y4456693D01*
Y4417323D02*
X5317323Y4417323D01*
X5238583Y4456693D02*
X5317323Y4456693D01*
Y4417323D02*
Y4456693D01*
X5151969Y4460630D02*
Y4500000D01*
Y4460630D02*
X5230709Y4460630D01*
X5151969Y4500000D02*
X5230709Y4500000D01*
Y4460630D02*
Y4500000D01*
X5238583Y4460630D02*
Y4500000D01*
Y4460630D02*
X5317323Y4460630D01*
X5238583Y4500000D02*
X5317323Y4500000D01*
Y4460630D02*
Y4500000D01*
X5139842Y5088583D02*
Y5127953D01*
Y5088583D02*
X5218583Y5088583D01*
X5139842Y5127953D02*
X5218583Y5127953D01*
Y5088583D02*
Y5127953D01*
X5151969Y4503937D02*
Y4543307D01*
Y4503937D02*
X5230709Y4503937D01*
X5151969Y4543307D02*
X5230709Y4543307D01*
Y4503937D02*
Y4543307D01*
X5238583Y4503937D02*
Y4543307D01*
Y4503937D02*
X5317323Y4503937D01*
X5238583Y4543307D02*
X5317323Y4543307D01*
Y4503937D02*
Y4543307D01*
X5140158Y4777559D02*
Y4816929D01*
Y4777559D02*
X5218898Y4777559D01*
X5140158Y4816929D02*
X5218898Y4816929D01*
Y4777559D02*
Y4816929D01*
X5140158Y4832677D02*
Y4872047D01*
Y4832677D02*
X5218898Y4832677D01*
X5140158Y4872047D02*
X5218898Y4872047D01*
Y4832677D02*
Y4872047D01*
X5691339Y4171260D02*
Y4210630D01*
Y4171260D02*
X5770079Y4171260D01*
X5691339Y4210630D02*
X5770079Y4210630D01*
Y4171260D02*
Y4210630D01*
X5691339Y4127953D02*
Y4167323D01*
Y4127953D02*
X5770079Y4127953D01*
X5691339Y4167323D02*
X5770079Y4167323D01*
Y4127953D02*
Y4167323D01*
X5140158Y4734252D02*
Y4773622D01*
Y4734252D02*
X5218898Y4734252D01*
X5140158Y4773622D02*
X5218898Y4773622D01*
Y4734252D02*
Y4773622D01*
X5140158Y4679134D02*
Y4718504D01*
Y4679134D02*
X5218898Y4679134D01*
X5140158Y4718504D02*
X5218898Y4718504D01*
Y4679134D02*
Y4718504D01*
X5218898Y4633858D02*
Y4673228D01*
X5140158Y4673228D02*
X5218898Y4673228D01*
X5140158Y4633858D02*
X5218898Y4633858D01*
X5140158Y4633858D02*
Y4673228D01*
X5155748Y3871890D02*
X5675748D01*
Y4391890D01*
X5155748Y3871890D02*
Y4391890D01*
X5675748D01*
X5415748Y4116890D02*
Y4146890D01*
X5400748Y4131890D02*
X5430748D01*
X5848268Y2956063D02*
Y3036063D01*
X5668268Y3036063D02*
X5848268Y3036063D01*
X5668268Y2956063D02*
X5848268Y2956063D01*
X5668268Y2956063D02*
Y3036063D01*
X5640157Y3051181D02*
X5923622Y3051181D01*
X5923622Y3366142D02*
X5923622Y3051181D01*
X5640157Y3051181D02*
X5640158Y3366142D01*
X5923622D01*
X5537795Y3614173D02*
X5577165D01*
X5577165Y3692913D02*
X5577165Y3614173D01*
X5537795D02*
X5537795Y3692913D01*
X5577165D01*
X5683465Y3614173D02*
Y3653543D01*
X5604724Y3653543D02*
X5683465Y3653543D01*
X5604724Y3614173D02*
X5683465Y3614173D01*
X5604724Y3614173D02*
Y3653543D01*
X5507669Y3135543D02*
Y3171543D01*
Y3135543D02*
X5583669Y3135543D01*
X5507669Y3171543D02*
X5583669Y3171543D01*
Y3135543D02*
Y3171543D01*
X5708772Y3485622D02*
X5744772D01*
X5744772Y3561622D01*
X5708772D02*
X5708772Y3485622D01*
X5708772Y3561622D02*
X5744772D01*
X5759953D02*
X5795953D01*
X5759953Y3485622D02*
X5759953Y3561622D01*
X5795953D02*
X5795953Y3485622D01*
X5759953D02*
X5795953D01*
X5742953Y3383858D02*
Y3450787D01*
X5711024D02*
X5844882D01*
X5711024Y3383858D02*
X5844882D01*
X5711024D02*
Y3450787D01*
X5844882Y3383858D02*
Y3450787D01*
X5860630Y3484252D02*
X5900000D01*
X5900000Y3562992D02*
X5900000Y3484252D01*
X5860630D02*
X5860630Y3562992D01*
X5900000D01*
X5809449Y3484252D02*
X5848819D01*
X5848819Y3562992D02*
X5848819Y3484252D01*
X5809449D02*
X5809449Y3562992D01*
X5848819D01*
%TF.MD5,9EDF6E1E5F6D719B1E970DCAFDE4C17D*%
M02*
