G04 Layer_Color=16711935*
%FSLAX26Y26*%
%MOIN*%
%TF.FileFunction,Soldermask,Bot*%
%TF.Part,Single*%
G01*
G75*
%TA.AperFunction,Conductor*%
%ADD67R,0.279527X0.106299*%
%ADD68R,0.244094X0.165354*%
%TA.AperFunction,ComponentPad*%
%ADD131R,0.082740X0.082740*%
%ADD132C,0.082740*%
%ADD133C,0.064000*%
%ADD134R,0.064000X0.064000*%
%ADD135O,0.064000X0.047307*%
%ADD136R,0.064000X0.064000*%
%ADD137O,0.051244X0.082740*%
%ADD138R,0.051244X0.082740*%
%ADD139C,0.161480*%
%ADD140R,0.122110X0.161480*%
%ADD141R,0.082740X0.122110*%
%TA.AperFunction,ViaPad*%
%ADD142C,0.279591*%
G36*
X5401574Y5389764D02*
X5405840Y5389764D01*
X5414207Y5388100D01*
X5422088Y5384835D01*
X5429182Y5380096D01*
X5435214Y5374064D01*
X5439953Y5366970D01*
X5443218Y5359089D01*
X5444882Y5350721D01*
X5444882Y5346456D01*
X5444882Y5314961D01*
X5444881Y5314960D01*
X5444881Y5310695D01*
X5443217Y5302328D01*
X5439953Y5294446D01*
X5435213Y5287353D01*
X5429181Y5281321D01*
X5422088Y5276582D01*
X5414206Y5273317D01*
X5405839Y5271653D01*
X5401574Y5271653D01*
X5035433Y5271654D01*
X5035433Y5271653D01*
X5029760Y5271375D01*
X5018633Y5269161D01*
X5008151Y5264820D01*
X4998718Y5258517D01*
X4990696Y5250494D01*
X4984393Y5241061D01*
X4980051Y5230580D01*
X4977838Y5219452D01*
X4977559Y5213780D01*
X4977559Y2895742D01*
Y2895741D01*
X4977935Y2888084D01*
X4980923Y2873066D01*
X4986783Y2858919D01*
X4995290Y2846186D01*
X5000438Y2840506D01*
X5035588Y2805352D01*
X5035588Y2805351D01*
X5041730Y2799211D01*
X5051381Y2784770D01*
X5058029Y2768724D01*
X5061417Y2751688D01*
X5061417Y2743004D01*
X5061419Y2122047D01*
X5061417D01*
X5061417Y2010236D01*
X5061414Y2010233D01*
Y2004126D01*
X5059031Y1992147D01*
X5054357Y1980863D01*
X5047572Y1970707D01*
X5038935Y1962071D01*
X5028779Y1955285D01*
X5017495Y1950611D01*
X5005516Y1948228D01*
X4999409D01*
X4333765Y1948228D01*
X4333765Y1948228D01*
X4329434D01*
X4320939Y1949918D01*
X4312936Y1953233D01*
X4305735Y1958045D01*
X4302672Y1961107D01*
X4213076Y2050703D01*
X4213075Y2050702D01*
X4209340Y2054088D01*
X4200968Y2059682D01*
X4191666Y2063536D01*
X4181790Y2065501D01*
X4176755Y2065748D01*
X3860444Y2065748D01*
X3860443Y2065748D01*
X3851782D01*
X3834791Y2069128D01*
X3818787Y2075757D01*
X3804383Y2085381D01*
X3798258Y2091506D01*
X3620218Y2269546D01*
X3616233Y2273532D01*
X3609081Y2282246D01*
X3602818Y2291619D01*
X3597504Y2301561D01*
X3593190Y2311976D01*
X3589918Y2322764D01*
X3587718Y2333820D01*
X3586613Y2345039D01*
Y2350676D01*
X3586613Y2444882D01*
X3685040Y2444882D01*
X3887655Y2242266D01*
X3887655Y2242266D01*
X3893065Y2237362D01*
X3905193Y2229258D01*
X3918670Y2223676D01*
X3932976Y2220831D01*
X3940269Y2220472D01*
X4226812Y2220472D01*
X4226811Y2220470D01*
X4234665Y2220471D01*
X4250071Y2217407D01*
X4264584Y2211397D01*
X4277644Y2202670D01*
X4283198Y2197116D01*
X4390439Y2089876D01*
X4390438Y2089876D01*
X4396428Y2084447D01*
X4409855Y2075475D01*
X4424775Y2069295D01*
X4440614Y2066144D01*
X4448689Y2065748D01*
X4805904D01*
X4810743Y2066224D01*
X4819685Y2069927D01*
X4826528Y2076770D01*
X4830232Y2085712D01*
X4830708Y2090551D01*
X4830708Y2131767D01*
X4830708Y2323284D01*
X4830708Y2323283D01*
X4830325Y2328330D01*
X4827315Y2337965D01*
X4821565Y2346261D01*
X4813602Y2352463D01*
X4809011Y2354593D01*
X4750546Y2376518D01*
X4750545D01*
X4747389Y2377701D01*
X4742071Y2381843D01*
X4738231Y2387384D01*
X4736220Y2393818D01*
X4736220Y2397189D01*
X4736220Y5173228D01*
Y5173227D01*
X4736219Y5179432D01*
X4738639Y5191603D01*
X4743386Y5203067D01*
X4750280Y5213385D01*
X4759054Y5222160D01*
X4769372Y5229054D01*
X4780837Y5233802D01*
X4793008Y5236221D01*
X4799212Y5236220D01*
X4811024Y5236221D01*
X4811023D01*
X4816426Y5236485D01*
X4827024Y5238592D01*
X4837007Y5242726D01*
X4845992Y5248729D01*
X4853633Y5256370D01*
X4859636Y5265354D01*
X4863770Y5275337D01*
X4865877Y5285935D01*
X4866141Y5291338D01*
X4866141Y5350393D01*
Y5350392D01*
X4866141Y5354270D01*
X4867653Y5361877D01*
X4870621Y5369042D01*
X4874929Y5375490D01*
X4880413Y5380975D01*
X4886862Y5385283D01*
X4894027Y5388251D01*
X4901634Y5389764D01*
X4905511Y5389763D01*
X5401575Y5389764D01*
X5401574Y5389764D01*
D02*
G37*
G36*
X4255905Y5165354D02*
X4362239Y5165354D01*
X4366080Y2561711D01*
Y2561711D01*
X4366582Y2551765D01*
X4370485Y2532258D01*
X4378112Y2513884D01*
X4389170Y2497347D01*
X4395859Y2489968D01*
X4571063Y2314763D01*
X4575340Y2310691D01*
X4584466Y2303202D01*
X4594282Y2296643D01*
X4604693Y2291078D01*
X4615601Y2286560D01*
X4626898Y2283133D01*
X4638477Y2280830D01*
X4650226Y2279672D01*
X4656129Y2279528D01*
X4775590Y2279528D01*
X4775591Y2141732D01*
X4458435D01*
X4447732Y2143861D01*
X4437650Y2148037D01*
X4428577Y2154100D01*
X4424719Y2157958D01*
X4404379Y2178298D01*
Y2178297D01*
X4309194Y2273482D01*
X4309193Y2273482D01*
X4301828Y2280157D01*
X4285319Y2291189D01*
X4266974Y2298788D01*
X4247499Y2302662D01*
X4237571Y2303149D01*
X3940942Y2303149D01*
X3940942D01*
X3934792Y2303149D01*
X3922728Y2305549D01*
X3911365Y2310256D01*
X3901138Y2317089D01*
X3892441Y2325787D01*
X3885608Y2336014D01*
X3880902Y2347378D01*
X3878503Y2359441D01*
X3878503Y2365591D01*
X3878503Y2417873D01*
X3878503Y2424023D01*
X3880901Y2436087D01*
X3885608Y2447451D01*
X3892441Y2457679D01*
X3901139Y2466376D01*
X3911366Y2473210D01*
X3922731Y2477916D01*
X3934795Y2480315D01*
X3940945Y2480315D01*
X4102362Y2480315D01*
X4102362D01*
X4109694Y2480675D01*
X4124077Y2483535D01*
X4137624Y2489147D01*
X4149817Y2497294D01*
X4160186Y2507663D01*
X4168333Y2519856D01*
X4173945Y2533403D01*
X4176805Y2547786D01*
X4177165Y2555118D01*
X4177165Y2590551D01*
D01*
X4177166Y5071348D01*
D01*
Y5071348D01*
Y5071348D01*
X4175627Y5079980D01*
X4176365Y5097501D01*
X4180881Y5114446D01*
X4188961Y5130010D01*
X4200221Y5143453D01*
X4214127Y5154138D01*
X4230017Y5161556D01*
X4247137Y5165354D01*
X4255905Y5165354D01*
D02*
G37*
G36*
X3620218Y2269546D02*
D01*
X3620218Y2269546D01*
X3620218Y2269546D01*
D02*
G37*
%LPC*%
G36*
X3878503Y2417873D02*
Y2417873D01*
D01*
Y2417873D01*
D02*
G37*
%LPD*%
D67*
X4464961Y5112204D02*
D03*
D68*
X4482677Y4665354D02*
D03*
Y4196850D02*
D03*
Y3732283D02*
D03*
Y3259842D02*
D03*
Y2787401D02*
D03*
D131*
X3639764Y2389764D02*
D03*
D132*
X3935039D02*
D03*
D133*
X6011811Y4472441D02*
D03*
Y4572441D02*
D03*
Y4072441D02*
D03*
Y4272441D02*
D03*
Y4172441D02*
D03*
Y3972441D02*
D03*
Y4972441D02*
D03*
Y5172441D02*
D03*
Y5072441D02*
D03*
Y4672441D02*
D03*
Y4372441D02*
D03*
Y3615748D02*
D03*
Y3715748D02*
D03*
Y2715748D02*
D03*
Y2615748D02*
D03*
Y2515748D02*
D03*
Y2815748D02*
D03*
Y2915748D02*
D03*
Y3015748D02*
D03*
Y3115748D02*
D03*
Y3215748D02*
D03*
Y3315748D02*
D03*
Y3515748D02*
D03*
Y3415748D02*
D03*
X5911417Y5314961D02*
D03*
X6011417D02*
D03*
X5011417D02*
D03*
X4911417D02*
D03*
X4811417D02*
D03*
X5111417D02*
D03*
X5211417D02*
D03*
X5311417D02*
D03*
X5411417D02*
D03*
X5511417D02*
D03*
X5611417D02*
D03*
X5811417D02*
D03*
X5711417D02*
D03*
D134*
X6011811Y3872441D02*
D03*
Y2415748D02*
D03*
D135*
Y4872441D02*
D03*
Y4772441D02*
D03*
D136*
X4711417Y5314961D02*
D03*
D137*
X5972441Y2177165D02*
D03*
X5893701D02*
D03*
X5814961D02*
D03*
X5736220D02*
D03*
X5124409Y2212598D02*
D03*
X5203150D02*
D03*
X5281890D02*
D03*
X5360630D02*
D03*
D138*
X5657480Y2177165D02*
D03*
X5439370Y2212598D02*
D03*
D139*
X4911811Y2200787D02*
D03*
D140*
X4714961D02*
D03*
D141*
X4657874Y3545276D02*
D03*
X4457087Y3543307D02*
D03*
X4657874Y3076771D02*
D03*
X4457087Y3074803D02*
D03*
X4657874Y2604331D02*
D03*
X4457087Y2602362D02*
D03*
X4657874Y4017716D02*
D03*
X4457087Y4015748D02*
D03*
X4657874Y4486220D02*
D03*
X4457087Y4484252D02*
D03*
X4657874Y4958661D02*
D03*
X4457087Y4956693D02*
D03*
D142*
X3625984Y5775591D02*
D03*
X5976378Y5771654D02*
D03*
X4799213Y1610236D02*
D03*
%TF.MD5,801FFC0DE8F3C20D005436F45B042257*%
M02*
