G04 Layer_Physical_Order=1*
G04 Layer_Color=255*
%FSLAX26Y26*%
%MOIN*%
%TF.FileFunction,Copper,L1,Top,Signal*%
%TF.Part,Single*%
G01*
G75*
%TA.AperFunction,SMDPad,SMDef*%
G04:AMPARAMS|DCode=10|XSize=33.858mil|YSize=20.079mil|CornerRadius=3.915mil|HoleSize=0mil|Usage=FLASHONLY|Rotation=90.000|XOffset=0mil|YOffset=0mil|HoleType=Round|Shape=RoundedRectangle|*
%AMROUNDEDRECTD10*
21,1,0.033858,0.012248,0,0,90.0*
21,1,0.026028,0.020079,0,0,90.0*
1,1,0.007831,0.006124,0.013014*
1,1,0.007831,0.006124,-0.013014*
1,1,0.007831,-0.006124,-0.013014*
1,1,0.007831,-0.006124,0.013014*
%
%ADD10ROUNDEDRECTD10*%
G04:AMPARAMS|DCode=11|XSize=170.866mil|YSize=212.598mil|CornerRadius=4.272mil|HoleSize=0mil|Usage=FLASHONLY|Rotation=90.000|XOffset=0mil|YOffset=0mil|HoleType=Round|Shape=RoundedRectangle|*
%AMROUNDEDRECTD11*
21,1,0.170866,0.204055,0,0,90.0*
21,1,0.162323,0.212598,0,0,90.0*
1,1,0.008543,0.102028,0.081162*
1,1,0.008543,0.102028,-0.081162*
1,1,0.008543,-0.102028,-0.081162*
1,1,0.008543,-0.102028,0.081162*
%
%ADD11ROUNDEDRECTD11*%
%TA.AperFunction,SMDPad,CuDef*%
%ADD12R,0.023622X0.023622*%
%ADD13R,0.023622X0.023622*%
%ADD14R,0.098425X0.039370*%
%ADD15R,0.039370X0.037402*%
%ADD16R,0.011811X0.062992*%
%ADD17R,0.062992X0.011811*%
%ADD18R,0.037992X0.031496*%
%ADD19O,0.009842X0.033465*%
%ADD20O,0.033465X0.009842*%
%ADD21R,0.202756X0.202756*%
%ADD22R,0.070866X0.133858*%
%ADD23R,0.039370X0.043307*%
%ADD24R,0.059055X0.059055*%
%ADD25R,0.059055X0.059055*%
%ADD26R,0.047244X0.017716*%
%ADD27R,0.255905X0.118110*%
%TA.AperFunction,Conductor*%
%ADD28C,0.007874*%
%ADD29C,0.019685*%
%ADD30C,0.031496*%
%ADD31C,0.015748*%
%ADD32C,0.047244*%
%ADD33C,0.039370*%
%ADD34R,0.039370X0.125984*%
%ADD35R,0.271654X0.074803*%
%ADD36R,0.086614X0.015748*%
%ADD37R,0.023622X0.031496*%
%ADD38R,0.173228X0.039370*%
%ADD39R,0.287402X0.350394*%
%ADD40R,0.409449X0.122047*%
%ADD41R,0.413386X0.122047*%
%ADD42R,0.519685X0.122047*%
%ADD43R,0.417323X0.122047*%
%ADD44R,0.409449X0.122047*%
%ADD45R,0.417323X0.122047*%
%ADD46R,0.047244X0.062992*%
%ADD47R,0.098425X0.039370*%
%ADD48R,0.129921X0.129921*%
%ADD49R,0.019685X0.070866*%
%ADD50R,0.114173X0.086614*%
%TA.AperFunction,ComponentPad*%
%ADD51R,0.078740X0.078740*%
%ADD52C,0.078740*%
%ADD53C,0.060000*%
%ADD54R,0.060000X0.060000*%
%ADD55O,0.060000X0.043307*%
%ADD56R,0.060000X0.060000*%
%ADD57O,0.047244X0.078740*%
%ADD58R,0.047244X0.078740*%
%ADD59C,0.157480*%
%ADD60R,0.118110X0.157480*%
%ADD61R,0.078740X0.118110*%
%TA.AperFunction,ViaPad*%
%ADD62C,0.275591*%
%ADD63C,0.020079*%
%ADD64C,0.039370*%
%ADD65C,0.035433*%
G36*
X6086614Y5389764D02*
X6086614Y5228346D01*
X5396359Y5228346D01*
X5396359Y5204724D01*
X5374409D01*
Y5210449D01*
X5337008D01*
Y5169110D01*
X5329134D01*
Y5210449D01*
X5291733D01*
X5291732Y5210449D01*
X5287245Y5211686D01*
X5281697Y5215393D01*
X5279016Y5215926D01*
Y5196850D01*
Y5177774D01*
X5281697Y5178307D01*
X5286732Y5181672D01*
X5291732Y5179618D01*
Y5165354D01*
X5274253D01*
X5273243Y5166865D01*
X5268034Y5170346D01*
X5261890Y5171568D01*
X5222835D01*
Y5179134D01*
X5135591D01*
Y5171568D01*
X5053150D01*
X5047005Y5170346D01*
X5041796Y5166865D01*
X5041796Y5166865D01*
X5040284Y5165354D01*
X4977814D01*
X4977807Y5165389D01*
X4974252Y5170709D01*
X4968933Y5174264D01*
X4966929Y5174662D01*
Y5043307D01*
X4425590Y5043307D01*
X4390157Y5078740D01*
X4390158Y5165354D01*
X4386058D01*
Y5188976D01*
X4385827Y5190139D01*
Y5369770D01*
X4692605D01*
Y5356772D01*
X4669606D01*
Y5273150D01*
X4753228D01*
Y5356772D01*
X4724718D01*
Y5385518D01*
X4791030D01*
Y5351772D01*
X4790331Y5351483D01*
X4781597Y5344781D01*
X4774895Y5336047D01*
X4770682Y5325876D01*
X4769245Y5314961D01*
X4770682Y5304046D01*
X4774895Y5293875D01*
X4781597Y5285141D01*
X4790331Y5278439D01*
X4800502Y5274226D01*
X4811417Y5272789D01*
X4822332Y5274226D01*
X4832503Y5278439D01*
X4841237Y5285141D01*
X4847939Y5293875D01*
X4852152Y5304046D01*
X4853589Y5314961D01*
X4852152Y5325876D01*
X4847939Y5336047D01*
X4841237Y5344781D01*
X4832503Y5351483D01*
X4823143Y5355359D01*
Y5389764D01*
X6086614Y5389764D01*
D02*
G37*
G36*
X6086614Y5145985D02*
X6078740Y5141776D01*
X6077740Y5142444D01*
X6069291Y5144125D01*
X6051686D01*
X6050635Y5146258D01*
X6048600Y5151999D01*
X6052546Y5161526D01*
X6053464Y5168504D01*
X6011811D01*
X5970158D01*
X5971076Y5161526D01*
X5975022Y5151999D01*
X5972987Y5146258D01*
X5971935Y5144125D01*
X5804421D01*
X5743222Y5205324D01*
X5746235Y5212598D01*
X5982529Y5212599D01*
X5985202Y5204724D01*
X5981991Y5202261D01*
X5975289Y5193527D01*
X5971076Y5183356D01*
X5970158Y5176378D01*
X6011811D01*
X6053465D01*
X6052546Y5183356D01*
X6048333Y5193527D01*
X6041631Y5202261D01*
X6038420Y5204724D01*
X6041093Y5212599D01*
X6086614D01*
Y5145985D01*
D02*
G37*
G36*
X5734301Y5151799D02*
X5730027Y5144938D01*
X5729409Y5145060D01*
Y5130984D01*
X5743485D01*
X5743363Y5131602D01*
X5750224Y5135876D01*
X5779664Y5106436D01*
X5786827Y5101650D01*
X5795276Y5099970D01*
X5969253D01*
X5972881Y5092691D01*
X5969581Y5086923D01*
X5729485D01*
X5717061Y5099347D01*
X5719409Y5103740D01*
Y5120984D01*
X5702166D01*
X5697772Y5118636D01*
X5686944Y5129464D01*
X5681735Y5132944D01*
X5675591Y5134167D01*
X5675590Y5134167D01*
X5616087D01*
X5609313Y5138693D01*
X5600787Y5140389D01*
X5592913Y5138822D01*
X5591009Y5139028D01*
X5585039Y5142219D01*
Y5182647D01*
X5703453D01*
X5734301Y5151799D01*
D02*
G37*
G36*
X6043307Y4902511D02*
X6038823Y4900300D01*
X6037034Y4901672D01*
X6028894Y4905044D01*
X6020158Y4906194D01*
X6015748D01*
Y4872441D01*
Y4838688D01*
X6020158D01*
X6028894Y4839838D01*
X6037034Y4843210D01*
X6038823Y4844582D01*
X6043307Y4842371D01*
Y4802511D01*
X6038823Y4800300D01*
X6037034Y4801672D01*
X6028894Y4805044D01*
X6020158Y4806194D01*
X6003465D01*
X5994729Y4805044D01*
X5986588Y4801672D01*
X5979597Y4796308D01*
X5974233Y4789318D01*
X5970861Y4781177D01*
X5969711Y4772441D01*
X5970861Y4763705D01*
X5974233Y4755564D01*
X5979597Y4748574D01*
X5986588Y4743210D01*
X5994729Y4739838D01*
X6003465Y4738688D01*
X6020158D01*
X6028894Y4739838D01*
X6037034Y4743210D01*
X6038823Y4744582D01*
X6043307Y4742371D01*
Y4707277D01*
X6038307Y4704811D01*
X6032897Y4708963D01*
X6022726Y4713176D01*
X6011811Y4714613D01*
X6000896Y4713176D01*
X5990725Y4708963D01*
X5981991Y4702261D01*
X5975289Y4693527D01*
X5971076Y4683356D01*
X5969639Y4672441D01*
X5971076Y4661526D01*
X5975289Y4651355D01*
X5981991Y4642621D01*
X5990725Y4635919D01*
X6000896Y4631706D01*
X6011811Y4630269D01*
X6022726Y4631706D01*
X6032897Y4635919D01*
X6038307Y4640070D01*
X6043307Y4637605D01*
Y4607277D01*
X6038307Y4604811D01*
X6032897Y4608963D01*
X6022726Y4613176D01*
X6011811Y4614613D01*
X6000896Y4613176D01*
X5990725Y4608963D01*
X5981991Y4602261D01*
X5975289Y4593527D01*
X5971076Y4583356D01*
X5969639Y4572441D01*
X5971076Y4561526D01*
X5975289Y4551355D01*
X5981991Y4542621D01*
X5990725Y4535919D01*
X6000896Y4531706D01*
X6011811Y4530269D01*
X6022726Y4531706D01*
X6032897Y4535919D01*
X6038307Y4540070D01*
X6043307Y4537605D01*
Y4507277D01*
X6038307Y4504811D01*
X6032897Y4508963D01*
X6022726Y4513176D01*
X6011811Y4514613D01*
X6000896Y4513176D01*
X5990725Y4508963D01*
X5981991Y4502261D01*
X5975289Y4493527D01*
X5971076Y4483356D01*
X5969639Y4472441D01*
X5971076Y4461526D01*
X5975289Y4451355D01*
X5981991Y4442621D01*
X5990725Y4435919D01*
X6000896Y4431706D01*
X6011811Y4430269D01*
X6022726Y4431706D01*
X6032897Y4435919D01*
X6038307Y4440070D01*
X6043307Y4437605D01*
Y4407277D01*
X6038307Y4404811D01*
X6032897Y4408963D01*
X6022726Y4413176D01*
X6011811Y4414613D01*
X6000896Y4413176D01*
X5990725Y4408963D01*
X5981991Y4402261D01*
X5975289Y4393527D01*
X5971076Y4383356D01*
X5969639Y4372441D01*
X5971076Y4361526D01*
X5975289Y4351355D01*
X5975607Y4350941D01*
X5973395Y4346457D01*
X5876378D01*
X5871155Y4351680D01*
X5873068Y4356299D01*
X5874228D01*
Y4393700D01*
X5832890D01*
Y4397637D01*
X5828953D01*
Y4438976D01*
X5794764D01*
X5789764Y4443236D01*
Y4464567D01*
X5921654D01*
Y4531496D01*
X5781890D01*
Y4539370D01*
X5921654D01*
Y4594488D01*
X5925197D01*
Y4913386D01*
X6043307Y4913386D01*
Y4902511D01*
D02*
G37*
G36*
X4204724Y5188976D02*
X4374016D01*
X4374016Y5073229D01*
X4419685Y5027559D01*
X4738583Y5027559D01*
Y4976378D01*
X4907874D01*
X4907874Y4889764D01*
X4329134D01*
X4329134Y4917323D01*
X4186668D01*
X4120472D01*
D01*
X3783465Y4917323D01*
Y5389764D01*
X4204724D01*
Y5188976D01*
D02*
G37*
G36*
X5903937Y4897008D02*
X5911503Y4896263D01*
Y4787401D01*
X5831575D01*
X5829186Y4795275D01*
X5831515Y4796831D01*
X5835866Y4803343D01*
X5836399Y4806024D01*
X5817323D01*
Y4816024D01*
X5840678D01*
X5842229Y4817913D01*
X5850787D01*
Y4834645D01*
X5815355D01*
Y4838582D01*
X5811418D01*
Y4859252D01*
X5793932D01*
Y4873707D01*
X5860788D01*
X5864326Y4865833D01*
X5861772Y4862011D01*
X5861239Y4859331D01*
X5899391D01*
X5898858Y4862011D01*
X5894507Y4868523D01*
X5887996Y4872874D01*
X5886404Y4873190D01*
X5883812Y4881734D01*
X5891668Y4889591D01*
X5891669Y4889591D01*
X5895149Y4894800D01*
X5895588Y4897008D01*
X5903937D01*
Y4897008D01*
D02*
G37*
G36*
X4274016Y4838582D02*
X4313386Y4838583D01*
Y4704724D01*
X4120472D01*
Y4889764D01*
X4274016D01*
Y4838582D01*
D02*
G37*
G36*
X5857482Y4645264D02*
X5860595Y4637795D01*
X5857835Y4633665D01*
X5857302Y4630984D01*
X5876378D01*
Y4620984D01*
X5857302D01*
X5857835Y4618303D01*
X5860440Y4614404D01*
X5856977Y4606556D01*
X5856952Y4606530D01*
X5793701D01*
X5792538Y4606299D01*
X5769665D01*
X5769290Y4606704D01*
X5766177Y4614173D01*
X5768937Y4618303D01*
X5769470Y4620984D01*
X5750394D01*
Y4630984D01*
X5769470D01*
X5768937Y4633665D01*
X5766177Y4637795D01*
X5769290Y4645264D01*
X5769665Y4645669D01*
X5857107D01*
X5857482Y4645264D01*
D02*
G37*
G36*
X4768110Y4570866D02*
X4427559D01*
X4388189Y4610236D01*
X4388189Y4688976D01*
X4768110Y4688976D01*
X4768110Y4570866D01*
D02*
G37*
G36*
X4078740Y4688976D02*
X4372441D01*
X4372441Y4602362D01*
X4419685Y4555118D01*
X4738583Y4555118D01*
Y4503937D01*
X4907874D01*
X4907874Y4417323D01*
X4329134D01*
X4329134Y4444882D01*
X4120472Y4444882D01*
Y4444882D01*
X3783465D01*
Y4889764D01*
X4078740D01*
Y4688976D01*
D02*
G37*
G36*
X5780205Y4436282D02*
X5781248Y4434721D01*
X5781653Y4434450D01*
X5781954Y4434069D01*
X5786954Y4429809D01*
X5788594Y4428894D01*
X5790155Y4427850D01*
X5790632Y4427756D01*
X5791057Y4427519D01*
X5791551Y4427461D01*
Y4356299D01*
X5852003D01*
X5859111Y4351681D01*
X5859113Y4351680D01*
X5860029Y4347072D01*
X5862640Y4343165D01*
X5867863Y4337941D01*
X5871770Y4335331D01*
X5876378Y4334414D01*
X5876379Y4334414D01*
X5892197D01*
Y4318898D01*
X5844567D01*
Y4295276D01*
X5840630D01*
Y4291339D01*
X5817008D01*
Y4271654D01*
X5817008D01*
Y4267716D01*
X5817008D01*
Y4248032D01*
X5840630D01*
Y4244095D01*
X5844567D01*
Y4220472D01*
X5892197D01*
Y4098436D01*
X5872737Y4078976D01*
X5864148Y4080718D01*
X5863792Y4081167D01*
X5864875Y4086614D01*
Y4157929D01*
X5869401Y4164703D01*
X5871097Y4173228D01*
X5869401Y4181754D01*
X5864572Y4188981D01*
X5857345Y4193811D01*
X5848819Y4195507D01*
X5840293Y4193811D01*
X5833066Y4188981D01*
X5828236Y4181754D01*
X5827768Y4179401D01*
X5825539Y4172886D01*
X5819024Y4170657D01*
X5816671Y4170189D01*
X5809444Y4165359D01*
X5804614Y4158132D01*
X5802918Y4149606D01*
X5804614Y4141081D01*
X5809140Y4134307D01*
Y4132070D01*
X5804823Y4125984D01*
X5774331D01*
Y4167323D01*
Y4214567D01*
X5781389Y4216535D01*
X5804823D01*
Y4240157D01*
X5774016D01*
Y4248031D01*
X5804823D01*
Y4271653D01*
X5786142D01*
X5778268Y4271654D01*
Y4291339D01*
X5754646D01*
Y4295276D01*
X5750709D01*
Y4318898D01*
X5749980D01*
X5749605Y4319303D01*
X5746492Y4326771D01*
X5749252Y4330902D01*
X5749785Y4333583D01*
X5711633D01*
X5712166Y4330902D01*
X5714926Y4326771D01*
X5711812Y4319303D01*
X5711438Y4318898D01*
X5691024D01*
Y4309678D01*
X5687717D01*
X5681572Y4308456D01*
X5676363Y4304976D01*
X5676363Y4304975D01*
X5672111Y4300724D01*
X5669786Y4297244D01*
X5652277D01*
Y4334646D01*
X5651055Y4340790D01*
X5647574Y4345999D01*
X5647574Y4346000D01*
X5632907Y4360667D01*
Y4411417D01*
X5640472D01*
Y4418983D01*
X5653994D01*
X5656150Y4414535D01*
X5656980Y4411109D01*
X5653111Y4405318D01*
X5652578Y4402638D01*
X5671654D01*
Y4397638D01*
X5676654D01*
Y4378562D01*
X5679334Y4379095D01*
X5681677Y4380660D01*
X5689551Y4376452D01*
Y4356299D01*
X5709402D01*
X5713610Y4348425D01*
X5712166Y4346263D01*
X5711633Y4343583D01*
X5749785D01*
X5749252Y4346263D01*
X5747807Y4348425D01*
X5752016Y4356299D01*
X5772228D01*
Y4393700D01*
X5730890D01*
Y4401574D01*
X5772228D01*
Y4434047D01*
X5774545Y4435495D01*
X5780102Y4436412D01*
X5780205Y4436282D01*
D02*
G37*
G36*
X6047214Y4337741D02*
Y4307141D01*
X6039340Y4304019D01*
X6032897Y4308963D01*
X6022726Y4313176D01*
X6011811Y4314613D01*
X6000896Y4313176D01*
X5990725Y4308963D01*
X5981991Y4302261D01*
X5975289Y4293527D01*
X5971076Y4283356D01*
X5969639Y4272441D01*
X5971076Y4261526D01*
X5975289Y4251355D01*
X5981991Y4242621D01*
X5990725Y4235919D01*
X6000896Y4231706D01*
X6011811Y4230269D01*
X6022726Y4231706D01*
X6032897Y4235919D01*
X6039340Y4240863D01*
X6047214Y4237741D01*
Y4207141D01*
X6039340Y4204019D01*
X6032897Y4208963D01*
X6022726Y4213176D01*
X6011811Y4214613D01*
X6000896Y4213176D01*
X5990725Y4208963D01*
X5981991Y4202261D01*
X5975289Y4193527D01*
X5971076Y4183356D01*
X5969639Y4172441D01*
X5971076Y4161526D01*
X5975289Y4151355D01*
X5981991Y4142621D01*
X5990725Y4135919D01*
X6000896Y4131706D01*
X6011811Y4130269D01*
X6022726Y4131706D01*
X6032897Y4135919D01*
X6039340Y4140863D01*
X6047214Y4137741D01*
Y4107141D01*
X6039340Y4104019D01*
X6032897Y4108963D01*
X6022726Y4113176D01*
X6011811Y4114613D01*
X6000896Y4113176D01*
X5990725Y4108963D01*
X5981991Y4102261D01*
X5975289Y4093527D01*
X5971076Y4083356D01*
X5969639Y4072441D01*
X5971076Y4061526D01*
X5975289Y4051355D01*
X5981991Y4042621D01*
X5990725Y4035919D01*
X6000896Y4031706D01*
X6011811Y4030269D01*
X6022726Y4031706D01*
X6032897Y4035919D01*
X6039340Y4040863D01*
X6047214Y4037741D01*
Y4007141D01*
X6039340Y4004019D01*
X6032897Y4008963D01*
X6022726Y4013176D01*
X6011811Y4014613D01*
X6000896Y4013176D01*
X5990725Y4008963D01*
X5981991Y4002261D01*
X5975289Y3993527D01*
X5971076Y3983356D01*
X5969639Y3972441D01*
X5971076Y3961526D01*
X5975289Y3951355D01*
X5981991Y3942621D01*
X5990725Y3935919D01*
X6000896Y3931706D01*
X6011811Y3930269D01*
X6022726Y3931706D01*
X6032897Y3935919D01*
X6039340Y3940863D01*
X6047214Y3937741D01*
Y3914252D01*
X5970000D01*
Y3830630D01*
X6047214D01*
Y3750448D01*
X6039340Y3747326D01*
X6032897Y3752270D01*
X6022726Y3756483D01*
X6011811Y3757920D01*
X6000896Y3756483D01*
X5990725Y3752270D01*
X5981991Y3745568D01*
X5975289Y3736834D01*
X5971076Y3726663D01*
X5969639Y3715748D01*
X5971076Y3704833D01*
X5975289Y3694662D01*
X5981991Y3685928D01*
X5990725Y3679226D01*
X6000896Y3675013D01*
X6011811Y3673576D01*
X6022726Y3675013D01*
X6032897Y3679226D01*
X6039340Y3684170D01*
X6047214Y3681048D01*
Y3650448D01*
X6039340Y3647326D01*
X6032897Y3652270D01*
X6022726Y3656483D01*
X6011811Y3657920D01*
X6000896Y3656483D01*
X5990725Y3652270D01*
X5981991Y3645568D01*
X5975289Y3636834D01*
X5971076Y3626663D01*
X5969639Y3615748D01*
X5971076Y3604833D01*
X5975289Y3594662D01*
X5981991Y3585928D01*
X5990725Y3579226D01*
X6000896Y3575013D01*
X6011811Y3573576D01*
X6022726Y3575013D01*
X6032897Y3579226D01*
X6039340Y3584170D01*
X6047214Y3581048D01*
Y3550448D01*
X6039340Y3547326D01*
X6032897Y3552270D01*
X6022726Y3556483D01*
X6011811Y3557920D01*
X6000896Y3556483D01*
X5997537Y3555091D01*
X5939679Y3612950D01*
Y3660433D01*
X5938456Y3666578D01*
X5934976Y3671787D01*
X5893110Y3713652D01*
Y3735141D01*
X5896063Y3737564D01*
X5904589Y3739260D01*
X5911816Y3744089D01*
X5916646Y3751317D01*
X5918341Y3759843D01*
X5916646Y3768368D01*
X5911816Y3775596D01*
X5904589Y3780425D01*
X5900284Y3781281D01*
X5893110Y3788456D01*
Y3827756D01*
X5830118D01*
Y3766732D01*
X5868651D01*
X5873963Y3760741D01*
X5873785Y3759843D01*
X5873944Y3759039D01*
X5868949Y3752953D01*
X5830118D01*
Y3738497D01*
X5804528D01*
Y3755905D01*
X5773032D01*
Y3759842D01*
X5769095D01*
Y3790354D01*
X5741535D01*
Y3782109D01*
X5733661Y3777045D01*
X5731693Y3777943D01*
Y3827756D01*
X5719206D01*
Y3878401D01*
X5723732Y3885175D01*
X5725428Y3893701D01*
X5723732Y3902226D01*
X5718903Y3909454D01*
X5711675Y3914283D01*
X5703150Y3915979D01*
X5694624Y3914283D01*
X5687396Y3909454D01*
X5682567Y3902226D01*
X5680871Y3893701D01*
X5682567Y3885175D01*
X5687093Y3878401D01*
Y3827756D01*
X5668701D01*
Y3766732D01*
X5718426D01*
X5724410Y3759842D01*
X5718426Y3752953D01*
X5668701D01*
Y3691929D01*
X5705632D01*
X5712283Y3688976D01*
Y3674500D01*
X5704409Y3672111D01*
X5704088Y3672592D01*
X5701850Y3674088D01*
Y3665354D01*
X5696850D01*
Y3660354D01*
X5683232D01*
X5681644Y3658006D01*
X5680764Y3657480D01*
X5600472D01*
Y3649599D01*
X5581102D01*
Y3669606D01*
X5557480D01*
Y3677480D01*
X5581102D01*
Y3692598D01*
Y3729331D01*
X5607677D01*
Y3759843D01*
Y3790354D01*
X5580118D01*
Y3779842D01*
X5561417D01*
Y3756220D01*
X5557480D01*
Y3752283D01*
X5533858D01*
Y3732277D01*
X5525984D01*
X5522356Y3731555D01*
X5515905Y3735380D01*
X5514482Y3736945D01*
Y3740157D01*
X5514482Y3740157D01*
X5513260Y3746302D01*
X5509779Y3751511D01*
X5501905Y3759385D01*
X5496696Y3762865D01*
X5494488Y3763305D01*
Y3783150D01*
X5498425D01*
Y3802835D01*
X5478740D01*
Y3783464D01*
X5439240D01*
X5431496Y3783465D01*
X5431496Y3791338D01*
Y3802835D01*
X5407874D01*
Y3810709D01*
X5431496D01*
Y3823150D01*
Y3868110D01*
X5478740D01*
Y3823150D01*
Y3810709D01*
X5525984D01*
Y3821653D01*
X5530475Y3827161D01*
X5532071Y3828471D01*
X5533858Y3828115D01*
X5538955Y3829129D01*
X5542805Y3821867D01*
X5540942Y3820029D01*
X5540770Y3819860D01*
X5540537Y3819510D01*
X5536855Y3813999D01*
X5536474Y3812087D01*
X5548543D01*
Y3824156D01*
X5546631Y3823775D01*
Y3823776D01*
X5548543Y3824156D01*
Y3824460D01*
X5546432Y3824212D01*
X5545147Y3827028D01*
X5545358Y3831798D01*
X5549611Y3834640D01*
X5554441Y3841868D01*
X5556137Y3850394D01*
X5554441Y3858919D01*
X5553561Y3860236D01*
X5557770Y3868110D01*
X5581102D01*
Y3909871D01*
X5588976Y3915512D01*
X5592913Y3914729D01*
X5601439Y3916425D01*
X5608667Y3921255D01*
X5613496Y3928482D01*
X5615192Y3937008D01*
X5613496Y3945533D01*
X5608667Y3952761D01*
X5601439Y3957590D01*
X5598364Y3958202D01*
X5597904Y3958661D01*
X5598959Y3966535D01*
X5679527D01*
Y4007565D01*
X5687402D01*
Y3981968D01*
X5734646D01*
Y4007566D01*
X5828896D01*
Y3924644D01*
X5826008Y3917671D01*
X5824925Y3909449D01*
X5826008Y3901227D01*
X5829181Y3893565D01*
X5834230Y3886986D01*
X5840809Y3881937D01*
X5848471Y3878764D01*
X5856693Y3877681D01*
X5864915Y3878764D01*
X5872577Y3881937D01*
X5879156Y3886986D01*
X5884205Y3893565D01*
X5887378Y3901227D01*
X5888461Y3909449D01*
X5887378Y3917671D01*
X5884490Y3924644D01*
Y4012108D01*
X5939649Y4067267D01*
X5944066Y4073024D01*
X5946843Y4079728D01*
X5947790Y4086923D01*
Y4244094D01*
Y4334414D01*
X5973395D01*
X5975320Y4334797D01*
X5977266Y4335053D01*
X5977612Y4335253D01*
X5978004Y4335331D01*
X5979636Y4336421D01*
X5981335Y4337403D01*
X5981578Y4337719D01*
X5981910Y4337941D01*
X5989828Y4336607D01*
X5990725Y4335919D01*
X6000896Y4331706D01*
X6011811Y4330269D01*
X6022726Y4331706D01*
X6032897Y4335919D01*
X6039340Y4340863D01*
X6047214Y4337741D01*
D02*
G37*
G36*
X5600794Y4391309D02*
Y4354016D01*
X5600794Y4354016D01*
X5602016Y4347871D01*
X5605497Y4342662D01*
X5620164Y4327995D01*
Y4297244D01*
X5592913D01*
Y4275168D01*
X5585039Y4269527D01*
X5581102Y4270310D01*
X5572577Y4268614D01*
X5565349Y4263785D01*
X5562882Y4260092D01*
X5553715Y4259637D01*
X5551987Y4262224D01*
X5545476Y4266574D01*
X5542795Y4267108D01*
Y4248031D01*
Y4228955D01*
X5545476Y4229489D01*
X5551987Y4233839D01*
X5552877Y4235170D01*
X5560811Y4234810D01*
X5564178Y4228728D01*
X5562788Y4224519D01*
X5560520Y4221124D01*
X5558824Y4212598D01*
X5560520Y4204073D01*
X5565349Y4196845D01*
X5572577Y4192016D01*
X5581102Y4190320D01*
X5585039Y4191103D01*
X5592913Y4185462D01*
Y4163386D01*
Y4124016D01*
Y4084646D01*
Y4045276D01*
Y4002347D01*
X5585039Y3999085D01*
X5565663Y4018462D01*
Y4089018D01*
X5566252Y4089899D01*
X5567948Y4098425D01*
X5566252Y4106951D01*
X5561422Y4114178D01*
X5554195Y4119008D01*
X5545669Y4120703D01*
X5537144Y4119008D01*
X5529916Y4114178D01*
X5527893Y4111151D01*
X5523432Y4107449D01*
X5517803Y4109144D01*
X5514825Y4111134D01*
X5508537Y4112384D01*
X5508893Y4114173D01*
X5507197Y4122699D01*
X5502367Y4129926D01*
X5495140Y4134756D01*
X5486614Y4136452D01*
X5478089Y4134756D01*
X5476136Y4133451D01*
X5470459Y4139128D01*
X5471764Y4141081D01*
X5473459Y4149606D01*
X5471764Y4158132D01*
X5466934Y4165359D01*
X5459707Y4170189D01*
X5453344Y4171454D01*
X5452079Y4177817D01*
X5447249Y4185044D01*
X5440022Y4189874D01*
X5433659Y4191140D01*
X5432394Y4197502D01*
X5429589Y4201699D01*
X5432646Y4209909D01*
X5437739Y4211049D01*
X5442655Y4207764D01*
X5451181Y4206068D01*
X5459707Y4207764D01*
X5466934Y4212593D01*
X5471764Y4219821D01*
X5473459Y4228346D01*
X5474803Y4229690D01*
X5483329Y4231386D01*
X5490556Y4236215D01*
X5495386Y4243443D01*
X5497082Y4251968D01*
X5496726Y4253757D01*
X5503014Y4255008D01*
X5510241Y4259837D01*
X5515071Y4267065D01*
X5516292Y4273205D01*
X5518110Y4280871D01*
X5526636Y4282567D01*
X5530031Y4284836D01*
X5535827Y4286748D01*
X5541623Y4284836D01*
X5545018Y4282567D01*
X5553543Y4280871D01*
X5562069Y4282567D01*
X5569297Y4287396D01*
X5574126Y4294624D01*
X5575822Y4303150D01*
X5580668Y4309055D01*
X5581102D01*
Y4387953D01*
X5585691Y4388866D01*
X5592919Y4393696D01*
X5592920Y4393698D01*
X5600794Y4391309D01*
D02*
G37*
G36*
X5148032Y4393736D02*
Y4378267D01*
X5171654D01*
Y4370393D01*
X5148032D01*
Y4350709D01*
Y4310709D01*
X5195276D01*
X5196929Y4318274D01*
X5203074Y4319496D01*
X5208283Y4322977D01*
X5215930Y4330624D01*
X5222047Y4325605D01*
X5218000Y4319549D01*
X5216304Y4311024D01*
X5217479Y4305118D01*
X5212762Y4297244D01*
X5151969D01*
Y4251336D01*
X5150346Y4250719D01*
X5144095Y4250026D01*
X5140163Y4255911D01*
X5132935Y4260740D01*
X5124410Y4262436D01*
X5115884Y4260740D01*
X5108656Y4255911D01*
X5103827Y4248683D01*
X5102131Y4240157D01*
X5103827Y4231632D01*
X5104725Y4230289D01*
Y4193228D01*
Y4153228D01*
X5108353D01*
Y4133859D01*
X5108353Y4133858D01*
X5109575Y4127714D01*
X5113056Y4122505D01*
X5124867Y4110694D01*
X5124867Y4110693D01*
X5130076Y4107213D01*
X5136221Y4105991D01*
X5151969D01*
Y4071666D01*
X5144095Y4069278D01*
X5143458Y4070230D01*
X5141221Y4071725D01*
Y4062992D01*
Y4054259D01*
X5143458Y4055754D01*
X5144095Y4056706D01*
X5151969Y4054318D01*
Y4045405D01*
X5150000Y4038346D01*
X5130315D01*
Y4014724D01*
X5122441D01*
Y4038346D01*
X5090945D01*
Y4014724D01*
X5083071D01*
Y4038346D01*
X5063386D01*
X5061726Y4045533D01*
Y4310672D01*
X5135763Y4384709D01*
X5135763Y4384709D01*
X5139244Y4389918D01*
X5140158Y4394512D01*
X5148032Y4393736D01*
D02*
G37*
G36*
X4274016Y4370078D02*
X4313386Y4370079D01*
Y4236220D01*
X4120472D01*
Y4421260D01*
X4274016D01*
Y4370078D01*
D02*
G37*
G36*
X5402234Y4217378D02*
X5402451Y4215767D01*
X5400560Y4207738D01*
X5396058Y4204730D01*
X5391228Y4197502D01*
X5389533Y4188976D01*
X5390152Y4185863D01*
X5389534Y4182756D01*
X5389534Y4182755D01*
Y3954724D01*
X5328589D01*
X5326200Y3962598D01*
X5329139Y3964562D01*
X5333968Y3971789D01*
X5335664Y3980315D01*
X5333968Y3988840D01*
X5330458Y3994094D01*
X5333968Y3999348D01*
X5335664Y4007874D01*
X5333968Y4016400D01*
X5329139Y4023627D01*
X5328704Y4028044D01*
X5357229Y4056568D01*
X5365218Y4058157D01*
X5372446Y4062987D01*
X5377275Y4070215D01*
X5378971Y4078740D01*
X5377275Y4087266D01*
X5372446Y4094493D01*
X5365218Y4099323D01*
X5356693Y4101019D01*
X5348167Y4099323D01*
X5340940Y4094493D01*
X5336110Y4087266D01*
X5334521Y4079276D01*
X5303705Y4048460D01*
X5298289Y4052079D01*
X5289764Y4053774D01*
X5281238Y4052079D01*
X5274011Y4047249D01*
X5273938Y4047141D01*
X5266102Y4046369D01*
X5257810Y4054661D01*
X5252601Y4058141D01*
X5246457Y4059364D01*
X5246456Y4059363D01*
X5238583D01*
Y4112674D01*
X5245857Y4115687D01*
X5267592Y4093953D01*
X5269181Y4085963D01*
X5274011Y4078735D01*
X5281238Y4073905D01*
X5289764Y4072210D01*
X5298289Y4073905D01*
X5305517Y4078735D01*
X5310346Y4085963D01*
X5312042Y4094488D01*
X5310346Y4103014D01*
X5305517Y4110241D01*
X5298289Y4115071D01*
X5290299Y4116660D01*
X5259484Y4147476D01*
X5263102Y4152892D01*
X5264798Y4161417D01*
X5263346Y4168721D01*
X5269630Y4172920D01*
X5277952D01*
X5277953Y4172920D01*
X5284097Y4174142D01*
X5289306Y4177623D01*
X5328676Y4216993D01*
X5328677Y4216993D01*
X5331848Y4220164D01*
X5399677D01*
X5402234Y4217378D01*
D02*
G37*
G36*
X4768110Y4102362D02*
X4427559D01*
X4392126Y4137795D01*
X4392126Y4220472D01*
X4768110D01*
Y4102362D01*
D02*
G37*
G36*
X4078740Y4220472D02*
X4372440D01*
X4372441Y4133858D01*
X4419685Y4086614D01*
X4738583Y4086614D01*
Y4035433D01*
X4907874D01*
X4907874Y3948819D01*
X4329134D01*
X4329134Y3976378D01*
X4120472Y3976378D01*
Y3976378D01*
X3783465D01*
Y4421260D01*
X4078740D01*
Y4220472D01*
D02*
G37*
G36*
X5150000Y3951102D02*
X5150882Y3943593D01*
Y3942178D01*
X5150881Y3942177D01*
X5152104Y3936033D01*
X5155584Y3930824D01*
X5186344Y3900064D01*
X5186345Y3900064D01*
X5191554Y3896583D01*
X5197698Y3895361D01*
X5250394D01*
Y3874989D01*
X5247616Y3872857D01*
X5242567Y3866278D01*
X5239394Y3858616D01*
X5238311Y3850394D01*
X5239394Y3842172D01*
X5242567Y3834510D01*
X5247616Y3827930D01*
X5254195Y3822882D01*
X5261857Y3819708D01*
X5270079Y3818626D01*
X5278301Y3819708D01*
X5285963Y3822882D01*
X5289764Y3825799D01*
X5295466Y3823880D01*
X5297638Y3822207D01*
Y3810709D01*
X5321260D01*
Y3802835D01*
X5297638D01*
Y3783283D01*
X5295355D01*
Y3779799D01*
X5287174D01*
X5264983Y3801991D01*
X5258404Y3807039D01*
X5250742Y3810213D01*
X5242520Y3811295D01*
X5053543D01*
X5053543Y3932411D01*
X5057023Y3935890D01*
X5057023Y3935890D01*
X5060504Y3941099D01*
X5061114Y3944169D01*
X5063386Y3951102D01*
X5150000D01*
D02*
G37*
G36*
X4274016Y3901575D02*
X4313386Y3901575D01*
Y3767716D01*
X4120472D01*
Y3952756D01*
X4274016D01*
Y3901575D01*
D02*
G37*
G36*
X4767126Y3629921D02*
X4430512D01*
X4391142Y3669291D01*
X4391142Y3751968D01*
X4767126D01*
Y3629921D01*
D02*
G37*
G36*
X4078740Y3751968D02*
X4133858D01*
Y3751968D01*
X4372440D01*
X4372441Y3661417D01*
X4419685Y3614173D01*
X4738583Y3614173D01*
Y3562992D01*
X4907874D01*
X4907874Y3476378D01*
X4329134D01*
X4329134Y3503937D01*
X4120472Y3503937D01*
Y3503937D01*
X3783465D01*
Y3950787D01*
X4078740D01*
Y3751968D01*
D02*
G37*
G36*
X5903937Y3480000D02*
X5911425Y3479069D01*
Y3370079D01*
X5819764D01*
X5817375Y3377953D01*
X5819704Y3379509D01*
X5824055Y3386020D01*
X5825583Y3393701D01*
X5828006Y3396654D01*
X5843478D01*
X5850787Y3396653D01*
X5857983Y3398292D01*
X5860437Y3398780D01*
X5866948Y3403131D01*
X5871299Y3409642D01*
X5871832Y3412323D01*
X5852756D01*
Y3422323D01*
X5871832D01*
X5871299Y3425003D01*
X5866948Y3431515D01*
X5860437Y3435866D01*
X5857983Y3436354D01*
X5850788Y3437992D01*
X5843478Y3437992D01*
X5819291D01*
Y3417323D01*
X5811417D01*
Y3437992D01*
X5796356D01*
X5793932Y3440945D01*
Y3456384D01*
X5869133D01*
X5869134Y3456384D01*
X5875279Y3457606D01*
X5880488Y3461087D01*
X5891668Y3472268D01*
X5891669Y3472268D01*
X5895149Y3477477D01*
X5895651Y3480000D01*
X5903937D01*
Y3480000D01*
D02*
G37*
G36*
X4274016Y3429134D02*
X4313386Y3429134D01*
Y3295276D01*
X4120472D01*
Y3480315D01*
X4274016D01*
Y3429134D01*
D02*
G37*
G36*
X4766142Y3160433D02*
X4425590D01*
X4390157Y3195866D01*
X4390157Y3279528D01*
X4766142D01*
Y3160433D01*
D02*
G37*
G36*
X6086614Y3154099D02*
Y2122047D01*
X5990559D01*
X5988993Y2129921D01*
X5990310Y2130467D01*
X5997712Y2136146D01*
X6003391Y2143548D01*
X6006962Y2152167D01*
X6008180Y2161417D01*
Y2173228D01*
X5972441D01*
Y2177165D01*
X5968504D01*
Y2228134D01*
X5963191Y2227434D01*
X5954572Y2223864D01*
X5947170Y2218185D01*
X5941490Y2210783D01*
X5937920Y2202163D01*
X5937042Y2195493D01*
X5929100D01*
X5928222Y2202163D01*
X5924651Y2210783D01*
X5918972Y2218185D01*
X5911570Y2223864D01*
X5902951Y2227434D01*
X5893701Y2228652D01*
X5884451Y2227434D01*
X5875831Y2223864D01*
X5868430Y2218185D01*
X5862750Y2210783D01*
X5859180Y2202163D01*
X5858302Y2195493D01*
X5850360D01*
X5849481Y2202163D01*
X5845911Y2210783D01*
X5840232Y2218185D01*
X5832830Y2223864D01*
X5824211Y2227434D01*
X5814961Y2228652D01*
X5805711Y2227434D01*
X5797091Y2223864D01*
X5789690Y2218185D01*
X5784010Y2210783D01*
X5780440Y2202163D01*
X5779561Y2195493D01*
X5771619D01*
X5770741Y2202163D01*
X5767171Y2210783D01*
X5761492Y2218185D01*
X5754090Y2223864D01*
X5745470Y2227434D01*
X5736220Y2228652D01*
X5726971Y2227434D01*
X5718351Y2223864D01*
X5710949Y2218185D01*
X5705270Y2210783D01*
X5701699Y2202163D01*
X5700787Y2195235D01*
X5692913Y2195751D01*
Y2228347D01*
X5622047D01*
Y2129921D01*
X5615804Y2122047D01*
X5096850Y2122047D01*
Y2163410D01*
X5104724Y2167293D01*
X5106540Y2165900D01*
X5115160Y2162329D01*
X5120473Y2161630D01*
Y2212598D01*
Y2263567D01*
X5115160Y2262867D01*
X5106540Y2259297D01*
X5104724Y2257904D01*
X5096850Y2261787D01*
X5096850Y2425197D01*
X5061649Y2460398D01*
Y2472441D01*
X5060732Y2477049D01*
X5058122Y2480956D01*
X5054215Y2483567D01*
X5053543Y2483700D01*
Y2524537D01*
X5057023Y2528016D01*
X5057023Y2528016D01*
X5057564Y2528826D01*
X5063386Y2533779D01*
X5150000D01*
Y2541988D01*
X5155133Y2545418D01*
X5158928Y2549212D01*
X5198904D01*
Y2509843D01*
X5198904Y2509842D01*
X5200126Y2503698D01*
X5203607Y2498489D01*
X5219355Y2482741D01*
X5219355Y2482740D01*
X5224564Y2479260D01*
X5230709Y2478038D01*
X5230709Y2478038D01*
X5250394D01*
Y2450787D01*
X5297638D01*
Y2405827D01*
Y2393386D01*
X5321260D01*
Y2389449D01*
X5325197D01*
Y2365827D01*
X5360630D01*
Y2389449D01*
X5368504D01*
Y2365827D01*
X5403937D01*
Y2389449D01*
X5407874D01*
Y2393386D01*
X5431496D01*
Y2405827D01*
Y2450787D01*
X5461863D01*
X5468504Y2444882D01*
X5469283Y2440965D01*
X5471502Y2437644D01*
X5473740Y2436149D01*
Y2444882D01*
X5483740D01*
Y2431264D01*
X5486089Y2429675D01*
X5486614Y2428795D01*
Y2407795D01*
Y2395354D01*
X5533858D01*
Y2413077D01*
X5569291D01*
X5569291Y2413077D01*
X5575436Y2414300D01*
X5580645Y2417780D01*
X5592456Y2429591D01*
X5595937Y2434800D01*
X5597159Y2440945D01*
X5597159Y2440946D01*
Y2549212D01*
X5679528D01*
Y2590242D01*
X5687402D01*
Y2564645D01*
X5711024D01*
Y2556771D01*
X5687402D01*
Y2537086D01*
X5696051D01*
X5700189Y2530195D01*
X5697517Y2525568D01*
X5695850Y2523930D01*
X5684430D01*
X5684362Y2524274D01*
X5679533Y2531501D01*
X5672305Y2536331D01*
X5663779Y2538026D01*
X5655254Y2536331D01*
X5648026Y2531501D01*
X5643197Y2524274D01*
X5641501Y2515748D01*
X5640157Y2514404D01*
X5631632Y2512709D01*
X5624404Y2507879D01*
X5619575Y2500651D01*
X5617879Y2492126D01*
X5619575Y2483600D01*
X5624404Y2476373D01*
X5631632Y2471543D01*
X5640158Y2469847D01*
X5648683Y2471543D01*
X5655457Y2476069D01*
X5726771D01*
X5726772Y2476069D01*
X5732916Y2477292D01*
X5738125Y2480772D01*
X5773558Y2516205D01*
X5773558Y2516205D01*
X5777039Y2521414D01*
X5778261Y2527559D01*
X5778261Y2527559D01*
Y2547824D01*
X5784348Y2552819D01*
X5785827Y2552525D01*
X5794352Y2554220D01*
X5801126Y2558747D01*
X5946105D01*
X5973159Y2531692D01*
X5971076Y2526663D01*
X5970151Y2519638D01*
X5969573Y2516732D01*
X5969691Y2516141D01*
X5969639Y2515748D01*
X5971076Y2504833D01*
X5975289Y2494662D01*
X5981991Y2485928D01*
X5990725Y2479226D01*
X6000896Y2475013D01*
X6011811Y2473576D01*
X6022726Y2475013D01*
X6032897Y2479226D01*
X6041631Y2485928D01*
X6048333Y2494662D01*
X6052546Y2504833D01*
X6053983Y2515748D01*
X6052546Y2526663D01*
X6048333Y2536834D01*
X6041631Y2545568D01*
X6032897Y2552270D01*
X6022726Y2556483D01*
X6011811Y2557920D01*
X6000896Y2556483D01*
X5995867Y2554400D01*
X5975542Y2574725D01*
X5978150Y2581735D01*
X5985461Y2583266D01*
X5990725Y2579226D01*
X6000896Y2575013D01*
X6011811Y2573576D01*
X6022726Y2575013D01*
X6032897Y2579226D01*
X6041631Y2585928D01*
X6048333Y2594662D01*
X6052546Y2604833D01*
X6053983Y2615748D01*
X6052546Y2626663D01*
X6048333Y2636834D01*
X6041631Y2645568D01*
X6032897Y2652270D01*
X6022726Y2656483D01*
X6011811Y2657920D01*
X6000896Y2656483D01*
X5990725Y2652270D01*
X5981991Y2645568D01*
X5975289Y2636834D01*
X5971076Y2626663D01*
X5969639Y2615748D01*
X5968529Y2614482D01*
X5960863D01*
X5957850Y2621756D01*
X5958598Y2622505D01*
X5962078Y2627714D01*
X5963301Y2633858D01*
X5963301Y2633859D01*
Y2657129D01*
X5987711Y2681539D01*
X5990725Y2679226D01*
X6000896Y2675013D01*
X6011811Y2673576D01*
X6022726Y2675013D01*
X6032897Y2679226D01*
X6041631Y2685928D01*
X6048333Y2694662D01*
X6052546Y2704833D01*
X6053983Y2715748D01*
X6052546Y2726663D01*
X6048333Y2736834D01*
X6041631Y2745568D01*
X6032897Y2752270D01*
X6022726Y2756483D01*
X6011811Y2757920D01*
X6000896Y2756483D01*
X5990725Y2752270D01*
X5981991Y2745568D01*
X5975289Y2736834D01*
X5971076Y2726663D01*
X5963301Y2727744D01*
Y2747680D01*
X5993640Y2778019D01*
X6000896Y2775013D01*
X6011811Y2773576D01*
X6022726Y2775013D01*
X6032897Y2779226D01*
X6041631Y2785928D01*
X6048333Y2794662D01*
X6052546Y2804833D01*
X6053983Y2815748D01*
X6052546Y2826663D01*
X6048333Y2836834D01*
X6041631Y2845568D01*
X6032897Y2852270D01*
X6022726Y2856483D01*
X6011811Y2857920D01*
X6000896Y2856483D01*
X5990725Y2852270D01*
X5981991Y2845568D01*
X5975289Y2836834D01*
X5971076Y2826663D01*
X5969639Y2815748D01*
X5971076Y2804833D01*
X5972237Y2802031D01*
X5954827Y2784621D01*
X5947553Y2787635D01*
Y2827995D01*
X5996424Y2876866D01*
X6000896Y2875013D01*
X6011811Y2873576D01*
X6022726Y2875013D01*
X6032897Y2879226D01*
X6041631Y2885928D01*
X6048333Y2894662D01*
X6052546Y2904833D01*
X6053983Y2915748D01*
X6052546Y2926663D01*
X6048333Y2936834D01*
X6041631Y2945568D01*
X6032897Y2952270D01*
X6022726Y2956483D01*
X6011811Y2957920D01*
X6000896Y2956483D01*
X5990725Y2952270D01*
X5981991Y2945568D01*
X5975289Y2936834D01*
X5971076Y2926663D01*
X5969639Y2915748D01*
X5971076Y2904833D01*
X5973390Y2899247D01*
X5955146Y2881003D01*
X5954559Y2881072D01*
X5947553Y2884545D01*
Y2955948D01*
X5977807Y2986202D01*
X5981991Y2985928D01*
X5990725Y2979226D01*
X6000896Y2975013D01*
X6011811Y2973576D01*
X6022726Y2975013D01*
X6032897Y2979226D01*
X6041631Y2985928D01*
X6048333Y2994662D01*
X6052546Y3004833D01*
X6053983Y3015748D01*
X6052546Y3026663D01*
X6048333Y3036834D01*
X6041631Y3045568D01*
X6032897Y3052270D01*
X6022726Y3056483D01*
X6011811Y3057920D01*
X6000896Y3056483D01*
X5990725Y3052270D01*
X5981991Y3045568D01*
X5975289Y3036834D01*
X5971076Y3026663D01*
X5970807Y3024616D01*
X5939079Y2992889D01*
X5931805Y2995902D01*
Y3009097D01*
X5935969Y3013261D01*
X5943959Y3014850D01*
X5951186Y3019680D01*
X5956016Y3026907D01*
X5957712Y3035433D01*
X5956016Y3043959D01*
X5951186Y3051186D01*
X5943959Y3056016D01*
X5935433Y3057711D01*
X5929528Y3056537D01*
X5921654Y3061254D01*
Y3081978D01*
X5987139D01*
X5990725Y3079226D01*
X6000896Y3075013D01*
X6011811Y3073576D01*
X6022726Y3075013D01*
X6032897Y3079226D01*
X6041631Y3085928D01*
X6048333Y3094662D01*
X6052546Y3104833D01*
X6053983Y3115748D01*
X6052546Y3126663D01*
X6051227Y3129847D01*
X6078740Y3157360D01*
X6086614Y3154099D01*
D02*
G37*
G36*
X4078740Y3279528D02*
X4372441D01*
X4372441Y3192913D01*
X4419685Y3145669D01*
X4738583Y3145669D01*
Y3094488D01*
X4907874D01*
X4907874Y3007874D01*
X4329134D01*
X4329134Y3035433D01*
X4120472Y3035433D01*
Y3035433D01*
X3783465D01*
Y3480315D01*
X4078740D01*
Y3279528D01*
D02*
G37*
G36*
X5175275Y2937008D02*
X5211938D01*
X5225261Y2923686D01*
X5225261Y2923685D01*
X5230400Y2920251D01*
Y2879921D01*
X5217163D01*
X5215858Y2886478D01*
X5211029Y2893706D01*
X5203801Y2898535D01*
X5195276Y2900231D01*
X5186750Y2898535D01*
X5179523Y2893706D01*
X5174693Y2886478D01*
X5173389Y2879921D01*
X5151969D01*
Y2849368D01*
X5144095Y2845159D01*
X5140809Y2847354D01*
X5132283Y2849050D01*
X5123758Y2847354D01*
X5116530Y2842525D01*
X5111701Y2835297D01*
X5110005Y2826772D01*
X5107032Y2823149D01*
X5104725D01*
Y2775905D01*
Y2735905D01*
X5108353D01*
Y2716536D01*
X5108353Y2716535D01*
X5109575Y2710391D01*
X5113056Y2705182D01*
X5124867Y2693370D01*
X5130076Y2689890D01*
X5136221Y2688668D01*
X5136221Y2688668D01*
X5151969D01*
Y2667323D01*
Y2647635D01*
X5195276D01*
Y2643702D01*
X5151969D01*
Y2628082D01*
X5150000Y2621023D01*
X5130315D01*
Y2597401D01*
X5122441D01*
Y2621023D01*
X5090945D01*
Y2597401D01*
X5083071D01*
Y2621023D01*
X5063386D01*
X5061726Y2628210D01*
Y2881213D01*
X5067217Y2886390D01*
X5074798Y2885822D01*
X5082026Y2880992D01*
X5090551Y2879296D01*
X5099077Y2880992D01*
X5106304Y2885822D01*
X5111134Y2893049D01*
X5112830Y2901575D01*
X5111594Y2907785D01*
X5142838Y2939028D01*
X5147717Y2937008D01*
Y2937008D01*
X5167401D01*
Y2960630D01*
X5175275D01*
Y2937008D01*
D02*
G37*
G36*
X4274016Y2956693D02*
X4313386Y2956693D01*
Y2822835D01*
X4120472D01*
Y3007874D01*
X4274016D01*
Y2956693D01*
D02*
G37*
G36*
X5486614Y2798904D02*
X5486615Y2798904D01*
X5537548D01*
X5538709Y2793068D01*
X5542190Y2787859D01*
X5565046Y2765003D01*
Y2606300D01*
X5565046Y2606299D01*
X5565046Y2606297D01*
Y2592358D01*
X5557771Y2589345D01*
X5527200Y2619917D01*
X5530819Y2625333D01*
X5532515Y2633858D01*
X5530819Y2642384D01*
X5525989Y2649611D01*
X5518762Y2654441D01*
X5512474Y2655691D01*
X5512830Y2657480D01*
X5511134Y2666006D01*
X5506304Y2673233D01*
X5499077Y2678063D01*
X5492789Y2679314D01*
X5493145Y2681102D01*
X5491449Y2689628D01*
X5486619Y2696856D01*
X5479392Y2701685D01*
X5473104Y2702936D01*
X5473459Y2704724D01*
X5471764Y2713250D01*
X5466934Y2720478D01*
X5459707Y2725307D01*
X5453419Y2726558D01*
X5453775Y2728346D01*
X5452079Y2736872D01*
X5447249Y2744100D01*
X5440022Y2748929D01*
X5433734Y2750180D01*
X5434089Y2751968D01*
X5432394Y2760494D01*
X5427564Y2767722D01*
X5422142Y2771345D01*
X5424103Y2779219D01*
X5445711D01*
X5446592Y2778630D01*
X5455118Y2776934D01*
X5463644Y2778630D01*
X5470871Y2783459D01*
X5475701Y2790687D01*
X5476269Y2793545D01*
X5477145Y2794917D01*
X5484796Y2799260D01*
X5484823Y2799260D01*
X5486614Y2798904D01*
D02*
G37*
G36*
X4766142Y2687992D02*
X4425590D01*
X4390157Y2723425D01*
X4390157Y2807087D01*
X4766142D01*
Y2687992D01*
D02*
G37*
G36*
X5401480Y2771345D02*
X5396058Y2767722D01*
X5391228Y2760494D01*
X5389533Y2751968D01*
X5390278Y2748220D01*
X5389849Y2746063D01*
X5389849Y2746063D01*
Y2597308D01*
X5381975Y2590845D01*
X5380315Y2591176D01*
X5371789Y2589480D01*
X5364562Y2584651D01*
X5363449Y2582985D01*
X5344302D01*
X5339307Y2589072D01*
X5339601Y2590551D01*
X5337905Y2599077D01*
X5333076Y2606304D01*
X5325849Y2611134D01*
X5317858Y2612723D01*
X5293244Y2637338D01*
X5288035Y2640818D01*
X5281890Y2642041D01*
X5276125Y2646938D01*
X5275599Y2649586D01*
X5273380Y2652907D01*
X5271142Y2654402D01*
Y2645669D01*
X5261142D01*
Y2654402D01*
X5258904Y2652907D01*
X5256685Y2649586D01*
X5255906Y2645669D01*
X5252928Y2642041D01*
X5238583D01*
Y2693546D01*
X5240205Y2694163D01*
X5246457Y2694855D01*
X5250389Y2688971D01*
X5257616Y2684142D01*
X5266142Y2682446D01*
X5274667Y2684142D01*
X5281895Y2688971D01*
X5286724Y2696199D01*
X5288314Y2704189D01*
X5363344Y2779219D01*
X5399519D01*
X5401480Y2771345D01*
D02*
G37*
G36*
X5859117Y3014239D02*
X5864258Y3009097D01*
Y2943477D01*
X5856041Y2941842D01*
X5848814Y2937013D01*
X5843984Y2929785D01*
X5842288Y2921260D01*
X5843984Y2912734D01*
X5846253Y2909339D01*
X5848166Y2903543D01*
X5846253Y2897748D01*
X5843984Y2894352D01*
X5842288Y2885827D01*
X5843984Y2877301D01*
X5846253Y2873906D01*
X5848166Y2868110D01*
X5846253Y2862314D01*
X5843984Y2858919D01*
X5842288Y2850394D01*
X5843984Y2841868D01*
X5846253Y2838473D01*
X5848166Y2832677D01*
X5846253Y2826881D01*
X5843984Y2823486D01*
X5842288Y2814961D01*
X5843984Y2806435D01*
X5848814Y2799207D01*
X5856041Y2794378D01*
X5864567Y2792682D01*
X5873092Y2794378D01*
X5880320Y2799207D01*
X5885150Y2806435D01*
X5886739Y2814425D01*
X5907846Y2835532D01*
X5908433Y2835464D01*
X5915440Y2831990D01*
Y2701926D01*
X5904394Y2690881D01*
X5900914Y2685672D01*
X5899691Y2679528D01*
X5899691Y2679527D01*
Y2668068D01*
X5893349Y2661726D01*
X5816634D01*
Y2677165D01*
X5785827D01*
Y2681102D01*
X5781890D01*
Y2708661D01*
X5774331D01*
Y2750000D01*
Y2795276D01*
X5781890D01*
Y2822835D01*
X5785827D01*
Y2826772D01*
X5816634D01*
Y2850079D01*
X5825197D01*
Y2869764D01*
X5801575D01*
Y2877638D01*
X5825197D01*
Y2890079D01*
Y2937323D01*
X5817631D01*
Y2948819D01*
X5822478Y2954724D01*
X5850606D01*
Y2992126D01*
X5809267D01*
Y3000000D01*
X5850606D01*
Y3009733D01*
X5858480Y3014365D01*
X5859117Y3014239D01*
D02*
G37*
G36*
X4078740Y2807087D02*
X4372441D01*
X4372441Y2720472D01*
X4419685Y2673228D01*
X4738583Y2673228D01*
Y2622047D01*
X4907874D01*
X4907874Y2535433D01*
X4329134D01*
X4329134Y2562992D01*
X4120472Y2562992D01*
Y2562992D01*
X3783465D01*
Y3007874D01*
X4078740D01*
Y2807087D01*
D02*
G37*
G36*
X3950004Y2438717D02*
X3960085Y2434540D01*
X3969157Y2428477D01*
X3973015Y2424618D01*
X3973017Y2424620D01*
X4050522Y2347115D01*
X4055870Y2342023D01*
X4067283Y2332657D01*
X4079559Y2324455D01*
X4092579Y2317495D01*
X4106220Y2311845D01*
X4120348Y2307559D01*
X4134828Y2304679D01*
X4149521Y2303232D01*
X4156904Y2303051D01*
X4156904D01*
X4340033Y2303050D01*
X4345943Y2303051D01*
X4357706Y2301892D01*
X4369298Y2299586D01*
X4380609Y2296155D01*
X4391530Y2291632D01*
X4401954Y2286060D01*
X4411782Y2279493D01*
X4420919Y2271994D01*
X4425098Y2267815D01*
X4425098Y2267815D01*
X4464666Y2228247D01*
X4492225D01*
Y2153444D01*
X3980414Y2153444D01*
X3971107Y2153444D01*
X3952852Y2157075D01*
X3935657Y2164198D01*
X3920181Y2174538D01*
X3907020Y2187699D01*
X3896679Y2203175D01*
X3889557Y2220371D01*
X3885926Y2238626D01*
X3885926Y2247932D01*
Y2247932D01*
X3885926Y2393602D01*
Y2398255D01*
X3887741Y2407382D01*
X3891303Y2415980D01*
X3896473Y2423718D01*
X3903053Y2430298D01*
X3910791Y2435469D01*
X3919389Y2439030D01*
X3928517Y2440845D01*
X3933170Y2440845D01*
X3933846Y2440846D01*
X3939302Y2440846D01*
X3950004Y2438717D01*
D02*
G37*
G36*
X4274016Y2484252D02*
X4313386Y2484252D01*
Y2350394D01*
X4120472D01*
Y2535433D01*
X4274016D01*
Y2484252D01*
D02*
G37*
G36*
X4557480Y2291338D02*
X4462992D01*
Y2346457D01*
X4494488Y2377953D01*
X4557480D01*
Y2291338D01*
D02*
G37*
%LPC*%
G36*
X6015354Y5356614D02*
Y5318898D01*
X6053071D01*
X6052152Y5325876D01*
X6047939Y5336047D01*
X6041237Y5344781D01*
X6032503Y5351483D01*
X6022332Y5355695D01*
X6015354Y5356614D01*
D02*
G37*
G36*
X6007480D02*
X6000502Y5355695D01*
X5990331Y5351483D01*
X5981597Y5344781D01*
X5974895Y5336047D01*
X5970682Y5325876D01*
X5969764Y5318898D01*
X6007480D01*
Y5356614D01*
D02*
G37*
G36*
X5915354D02*
Y5318898D01*
X5953071D01*
X5952152Y5325876D01*
X5947939Y5336047D01*
X5941237Y5344781D01*
X5932503Y5351483D01*
X5922332Y5355695D01*
X5915354Y5356614D01*
D02*
G37*
G36*
X5907480D02*
X5900502Y5355695D01*
X5890331Y5351483D01*
X5881597Y5344781D01*
X5874895Y5336047D01*
X5870682Y5325876D01*
X5869764Y5318898D01*
X5907480D01*
Y5356614D01*
D02*
G37*
G36*
X5815354D02*
Y5318898D01*
X5853071D01*
X5852152Y5325876D01*
X5847939Y5336047D01*
X5841237Y5344781D01*
X5832503Y5351483D01*
X5822332Y5355695D01*
X5815354Y5356614D01*
D02*
G37*
G36*
X5807480D02*
X5800502Y5355695D01*
X5790331Y5351483D01*
X5781597Y5344781D01*
X5774895Y5336047D01*
X5770682Y5325876D01*
X5769764Y5318898D01*
X5807480D01*
Y5356614D01*
D02*
G37*
G36*
X5715354D02*
Y5318898D01*
X5753071D01*
X5752152Y5325876D01*
X5747939Y5336047D01*
X5741237Y5344781D01*
X5732503Y5351483D01*
X5722332Y5355695D01*
X5715354Y5356614D01*
D02*
G37*
G36*
X5707480D02*
X5700502Y5355695D01*
X5690331Y5351483D01*
X5681597Y5344781D01*
X5674895Y5336047D01*
X5670682Y5325876D01*
X5669764Y5318898D01*
X5707480D01*
Y5356614D01*
D02*
G37*
G36*
X5615354D02*
Y5318898D01*
X5653071D01*
X5652152Y5325876D01*
X5647939Y5336047D01*
X5641237Y5344781D01*
X5632503Y5351483D01*
X5622332Y5355695D01*
X5615354Y5356614D01*
D02*
G37*
G36*
X5607480D02*
X5600502Y5355695D01*
X5590331Y5351483D01*
X5581597Y5344781D01*
X5574895Y5336047D01*
X5570682Y5325876D01*
X5569764Y5318898D01*
X5607480D01*
Y5356614D01*
D02*
G37*
G36*
X5515354D02*
Y5318898D01*
X5553071D01*
X5552152Y5325876D01*
X5547939Y5336047D01*
X5541237Y5344781D01*
X5532503Y5351483D01*
X5522332Y5355695D01*
X5515354Y5356614D01*
D02*
G37*
G36*
X5507480D02*
X5500502Y5355695D01*
X5490331Y5351483D01*
X5481597Y5344781D01*
X5474895Y5336047D01*
X5470682Y5325876D01*
X5469764Y5318898D01*
X5507480D01*
Y5356614D01*
D02*
G37*
G36*
X6053071Y5311024D02*
X6015354D01*
Y5273307D01*
X6022332Y5274226D01*
X6032503Y5278439D01*
X6041237Y5285141D01*
X6047939Y5293875D01*
X6052152Y5304046D01*
X6053071Y5311024D01*
D02*
G37*
G36*
X6007480D02*
X5969764D01*
X5970682Y5304046D01*
X5974895Y5293875D01*
X5981597Y5285141D01*
X5990331Y5278439D01*
X6000502Y5274226D01*
X6007480Y5273307D01*
Y5311024D01*
D02*
G37*
G36*
X5953071D02*
X5915354D01*
Y5273307D01*
X5922332Y5274226D01*
X5932503Y5278439D01*
X5941237Y5285141D01*
X5947939Y5293875D01*
X5952152Y5304046D01*
X5953071Y5311024D01*
D02*
G37*
G36*
X5907480D02*
X5869764D01*
X5870682Y5304046D01*
X5874895Y5293875D01*
X5881597Y5285141D01*
X5890331Y5278439D01*
X5900502Y5274226D01*
X5907480Y5273307D01*
Y5311024D01*
D02*
G37*
G36*
X5853071D02*
X5815354D01*
Y5273307D01*
X5822332Y5274226D01*
X5832503Y5278439D01*
X5841237Y5285141D01*
X5847939Y5293875D01*
X5852152Y5304046D01*
X5853071Y5311024D01*
D02*
G37*
G36*
X5807480D02*
X5769764D01*
X5770682Y5304046D01*
X5774895Y5293875D01*
X5781597Y5285141D01*
X5790331Y5278439D01*
X5800502Y5274226D01*
X5807480Y5273307D01*
Y5311024D01*
D02*
G37*
G36*
X5753071D02*
X5715354D01*
Y5273307D01*
X5722332Y5274226D01*
X5732503Y5278439D01*
X5741237Y5285141D01*
X5747939Y5293875D01*
X5752152Y5304046D01*
X5753071Y5311024D01*
D02*
G37*
G36*
X5707480D02*
X5669764D01*
X5670682Y5304046D01*
X5674895Y5293875D01*
X5681597Y5285141D01*
X5690331Y5278439D01*
X5700502Y5274226D01*
X5707480Y5273307D01*
Y5311024D01*
D02*
G37*
G36*
X5653071D02*
X5615354D01*
Y5273307D01*
X5622332Y5274226D01*
X5632503Y5278439D01*
X5641237Y5285141D01*
X5647939Y5293875D01*
X5652152Y5304046D01*
X5653071Y5311024D01*
D02*
G37*
G36*
X5607480D02*
X5569764D01*
X5570682Y5304046D01*
X5574895Y5293875D01*
X5581597Y5285141D01*
X5590331Y5278439D01*
X5600502Y5274226D01*
X5607480Y5273307D01*
Y5311024D01*
D02*
G37*
G36*
X5553071D02*
X5515354D01*
Y5273307D01*
X5522332Y5274226D01*
X5532503Y5278439D01*
X5541237Y5285141D01*
X5547939Y5293875D01*
X5552152Y5304046D01*
X5553071Y5311024D01*
D02*
G37*
G36*
X5507480D02*
X5469764D01*
X5470682Y5304046D01*
X5474895Y5293875D01*
X5481597Y5285141D01*
X5490331Y5278439D01*
X5500502Y5274226D01*
X5507480Y5273307D01*
Y5311024D01*
D02*
G37*
G36*
X5411417Y5357132D02*
X5400502Y5355695D01*
X5390331Y5351483D01*
X5381597Y5344781D01*
X5374895Y5336047D01*
X5370682Y5325876D01*
X5369245Y5314961D01*
X5370682Y5304046D01*
X5374895Y5293875D01*
X5381597Y5285141D01*
X5390331Y5278439D01*
X5400502Y5274226D01*
X5411417Y5272789D01*
X5422332Y5274226D01*
X5432503Y5278439D01*
X5441237Y5285141D01*
X5447939Y5293875D01*
X5452152Y5304046D01*
X5453589Y5314961D01*
X5452152Y5325876D01*
X5447939Y5336047D01*
X5441237Y5344781D01*
X5432503Y5351483D01*
X5422332Y5355695D01*
X5411417Y5357132D01*
D02*
G37*
G36*
X5311417D02*
X5300502Y5355695D01*
X5290331Y5351483D01*
X5281597Y5344781D01*
X5274895Y5336047D01*
X5270682Y5325876D01*
X5269245Y5314961D01*
X5270682Y5304046D01*
X5274895Y5293875D01*
X5281597Y5285141D01*
X5290331Y5278439D01*
X5300502Y5274226D01*
X5311417Y5272789D01*
X5322332Y5274226D01*
X5332503Y5278439D01*
X5341237Y5285141D01*
X5347939Y5293875D01*
X5352152Y5304046D01*
X5353589Y5314961D01*
X5352152Y5325876D01*
X5347939Y5336047D01*
X5341237Y5344781D01*
X5332503Y5351483D01*
X5322332Y5355695D01*
X5311417Y5357132D01*
D02*
G37*
G36*
X5211417D02*
X5200502Y5355695D01*
X5190331Y5351483D01*
X5181597Y5344781D01*
X5174895Y5336047D01*
X5170682Y5325876D01*
X5169245Y5314961D01*
X5170682Y5304046D01*
X5174895Y5293875D01*
X5181597Y5285141D01*
X5190331Y5278439D01*
X5200502Y5274226D01*
X5211417Y5272789D01*
X5222332Y5274226D01*
X5232503Y5278439D01*
X5241237Y5285141D01*
X5247939Y5293875D01*
X5252152Y5304046D01*
X5253589Y5314961D01*
X5252152Y5325876D01*
X5247939Y5336047D01*
X5241237Y5344781D01*
X5232503Y5351483D01*
X5222332Y5355695D01*
X5211417Y5357132D01*
D02*
G37*
G36*
X5111417D02*
X5100502Y5355695D01*
X5090331Y5351483D01*
X5081597Y5344781D01*
X5074895Y5336047D01*
X5070682Y5325876D01*
X5069245Y5314961D01*
X5070682Y5304046D01*
X5074895Y5293875D01*
X5081597Y5285141D01*
X5090331Y5278439D01*
X5100502Y5274226D01*
X5111417Y5272789D01*
X5122332Y5274226D01*
X5132503Y5278439D01*
X5141237Y5285141D01*
X5147939Y5293875D01*
X5152152Y5304046D01*
X5153589Y5314961D01*
X5152152Y5325876D01*
X5147939Y5336047D01*
X5141237Y5344781D01*
X5132503Y5351483D01*
X5122332Y5355695D01*
X5111417Y5357132D01*
D02*
G37*
G36*
X5011417D02*
X5000502Y5355695D01*
X4990331Y5351483D01*
X4981597Y5344781D01*
X4974895Y5336047D01*
X4970682Y5325876D01*
X4969245Y5314961D01*
X4970682Y5304046D01*
X4974895Y5293875D01*
X4981597Y5285141D01*
X4990331Y5278439D01*
X5000502Y5274226D01*
X5011417Y5272789D01*
X5022332Y5274226D01*
X5032503Y5278439D01*
X5041237Y5285141D01*
X5047939Y5293875D01*
X5052152Y5304046D01*
X5053589Y5314961D01*
X5052152Y5325876D01*
X5047939Y5336047D01*
X5041237Y5344781D01*
X5032503Y5351483D01*
X5022332Y5355695D01*
X5011417Y5357132D01*
D02*
G37*
G36*
X4911417D02*
X4900502Y5355695D01*
X4890331Y5351483D01*
X4881597Y5344781D01*
X4874895Y5336047D01*
X4870682Y5325876D01*
X4869245Y5314961D01*
X4870682Y5304046D01*
X4874895Y5293875D01*
X4881597Y5285141D01*
X4890331Y5278439D01*
X4900502Y5274226D01*
X4911417Y5272789D01*
X4922332Y5274226D01*
X4932503Y5278439D01*
X4941237Y5285141D01*
X4947939Y5293875D01*
X4952152Y5304046D01*
X4953589Y5314961D01*
X4952152Y5325876D01*
X4947939Y5336047D01*
X4941237Y5344781D01*
X4932503Y5351483D01*
X4922332Y5355695D01*
X4911417Y5357132D01*
D02*
G37*
G36*
X5269016Y5215926D02*
X5266335Y5215393D01*
X5259824Y5211042D01*
X5255473Y5204531D01*
X5254940Y5201850D01*
X5269016D01*
Y5215926D01*
D02*
G37*
G36*
Y5191850D02*
X5254940D01*
X5255473Y5189170D01*
X5259824Y5182658D01*
X5266335Y5178307D01*
X5269016Y5177774D01*
Y5191850D01*
D02*
G37*
G36*
X5719409Y5145060D02*
X5716729Y5144527D01*
X5710217Y5140176D01*
X5705867Y5133665D01*
X5705333Y5130984D01*
X5719409D01*
Y5145060D01*
D02*
G37*
G36*
X5743485Y5120984D02*
X5729409D01*
Y5106908D01*
X5732090Y5107441D01*
X5738601Y5111792D01*
X5742952Y5118304D01*
X5743485Y5120984D01*
D02*
G37*
G36*
X6007874Y4906194D02*
X6003465D01*
X5994729Y4905044D01*
X5986588Y4901672D01*
X5979597Y4896308D01*
X5974233Y4889318D01*
X5970861Y4881177D01*
X5970230Y4876378D01*
X6007874D01*
Y4906194D01*
D02*
G37*
G36*
Y4868504D02*
X5970230D01*
X5970861Y4863705D01*
X5974233Y4855564D01*
X5979597Y4848574D01*
X5986588Y4843210D01*
X5994729Y4839838D01*
X6003465Y4838688D01*
X6007874D01*
Y4868504D01*
D02*
G37*
G36*
X5874228Y4438976D02*
X5836827D01*
Y4401574D01*
X5874228D01*
Y4438976D01*
D02*
G37*
G36*
X5850787Y4859252D02*
X5819292D01*
Y4842519D01*
X5850787D01*
Y4859252D01*
D02*
G37*
G36*
X5899391Y4849331D02*
X5885315D01*
Y4835255D01*
X5887996Y4835788D01*
X5894507Y4840139D01*
X5898858Y4846650D01*
X5899391Y4849331D01*
D02*
G37*
G36*
X5875315D02*
X5861239D01*
X5861772Y4846650D01*
X5866123Y4840139D01*
X5872634Y4835788D01*
X5875315Y4835255D01*
Y4849331D01*
D02*
G37*
G36*
X5666654Y4392638D02*
X5652578D01*
X5653111Y4389957D01*
X5657462Y4383446D01*
X5663973Y4379095D01*
X5666654Y4378562D01*
Y4392638D01*
D02*
G37*
G36*
X5778268Y4318898D02*
X5758583D01*
Y4299213D01*
X5778268D01*
Y4318898D01*
D02*
G37*
G36*
X5836693D02*
X5817008D01*
Y4299213D01*
X5836693D01*
Y4318898D01*
D02*
G37*
G36*
X5836693Y4240158D02*
X5817008D01*
Y4220472D01*
X5836693D01*
Y4240158D01*
D02*
G37*
G36*
X5734646Y3974094D02*
X5714961D01*
Y3954409D01*
X5734646D01*
Y3974094D01*
D02*
G37*
G36*
X5707087D02*
X5687402D01*
Y3954409D01*
X5707087D01*
Y3974094D01*
D02*
G37*
G36*
X5558543Y3824156D02*
Y3812087D01*
X5570612D01*
X5570232Y3813999D01*
X5566316Y3819860D01*
X5560456Y3823775D01*
X5558543Y3824156D01*
D02*
G37*
G36*
X5570612Y3802087D02*
X5558543D01*
Y3790018D01*
X5560456Y3790398D01*
X5566316Y3794314D01*
X5570232Y3800174D01*
X5570612Y3802087D01*
D02*
G37*
G36*
X5548543D02*
X5536474D01*
X5536855Y3800174D01*
X5540770Y3794314D01*
X5546631Y3790398D01*
X5548543Y3790018D01*
Y3802087D01*
D02*
G37*
G36*
X5525984Y3802835D02*
X5506299D01*
Y3783150D01*
X5525984D01*
Y3802835D01*
D02*
G37*
G36*
X5656968Y3768576D02*
Y3764842D01*
X5660702D01*
X5659206Y3767080D01*
X5656968Y3768576D01*
D02*
G37*
G36*
X5804528Y3790354D02*
X5776968D01*
Y3763779D01*
X5804528D01*
Y3790354D01*
D02*
G37*
G36*
X5553543Y3779842D02*
X5533858D01*
Y3760157D01*
X5553543D01*
Y3779842D01*
D02*
G37*
G36*
X5660702Y3754842D02*
X5656968D01*
Y3751109D01*
X5659206Y3752604D01*
X5660702Y3754842D01*
D02*
G37*
G36*
X5643110Y3790354D02*
X5615551D01*
Y3759843D01*
Y3729331D01*
X5643110D01*
Y3744217D01*
X5644253Y3745644D01*
X5646968Y3747322D01*
Y3759842D01*
Y3772363D01*
X5644253Y3774041D01*
X5643110Y3775468D01*
Y3790354D01*
D02*
G37*
G36*
X5691850Y3674088D02*
X5689613Y3672592D01*
X5688117Y3670354D01*
X5691850D01*
Y3674088D01*
D02*
G37*
G36*
X5605787Y4327631D02*
Y4323898D01*
X5609521D01*
X5608025Y4326136D01*
X5605787Y4327631D01*
D02*
G37*
G36*
X5595787D02*
X5593550Y4326136D01*
X5592054Y4323898D01*
X5595787D01*
Y4327631D01*
D02*
G37*
G36*
X5609521Y4313898D02*
X5605787D01*
Y4310164D01*
X5608025Y4311660D01*
X5609521Y4313898D01*
D02*
G37*
G36*
X5595787D02*
X5592054D01*
X5593550Y4311660D01*
X5595787Y4310164D01*
Y4313898D01*
D02*
G37*
G36*
X5532795Y4267108D02*
X5530115Y4266574D01*
X5523603Y4262224D01*
X5519252Y4255712D01*
X5518719Y4253031D01*
X5532795D01*
Y4267108D01*
D02*
G37*
G36*
Y4243031D02*
X5518719D01*
X5519252Y4240351D01*
X5523603Y4233839D01*
X5530115Y4229489D01*
X5532795Y4228955D01*
Y4243031D01*
D02*
G37*
G36*
X5131221Y4071725D02*
X5128983Y4070230D01*
X5127487Y4067992D01*
X5131221D01*
Y4071725D01*
D02*
G37*
G36*
Y4057992D02*
X5127487D01*
X5128983Y4055754D01*
X5131221Y4054259D01*
Y4057992D01*
D02*
G37*
G36*
X5160905Y3908840D02*
Y3894764D01*
X5174982D01*
X5174448Y3897444D01*
X5170098Y3903956D01*
X5163586Y3908307D01*
X5160905Y3908840D01*
D02*
G37*
G36*
X5150905D02*
X5148225Y3908307D01*
X5141713Y3903956D01*
X5137363Y3897444D01*
X5136829Y3894764D01*
X5150905D01*
Y3908840D01*
D02*
G37*
G36*
X5174982Y3884764D02*
X5160905D01*
Y3870688D01*
X5163586Y3871221D01*
X5170098Y3875572D01*
X5174448Y3882083D01*
X5174982Y3884764D01*
D02*
G37*
G36*
X5150905D02*
X5136829D01*
X5137363Y3882083D01*
X5141713Y3875572D01*
X5148225Y3871221D01*
X5150905Y3870688D01*
Y3884764D01*
D02*
G37*
G36*
X5818386Y2544166D02*
Y2540433D01*
X5822119D01*
X5820624Y2542671D01*
X5818386Y2544166D01*
D02*
G37*
G36*
X5808386D02*
X5806148Y2542671D01*
X5804653Y2540433D01*
X5808386D01*
Y2544166D01*
D02*
G37*
G36*
X5822119Y2530433D02*
X5818386D01*
Y2526700D01*
X5820624Y2528195D01*
X5822119Y2530433D01*
D02*
G37*
G36*
X5808386D02*
X5804653D01*
X5806148Y2528195D01*
X5808386Y2526700D01*
Y2530433D01*
D02*
G37*
G36*
X6053622Y2457559D02*
X6015748D01*
Y2419685D01*
X6053622D01*
Y2457559D01*
D02*
G37*
G36*
X6007874D02*
X5970000D01*
Y2419685D01*
X6007874D01*
Y2457559D01*
D02*
G37*
G36*
X6053622Y2411811D02*
X6015748D01*
Y2373937D01*
X6053622D01*
Y2411811D01*
D02*
G37*
G36*
X6007874D02*
X5970000D01*
Y2373937D01*
X6007874D01*
Y2411811D01*
D02*
G37*
G36*
X5533858Y2387480D02*
X5514173D01*
Y2367795D01*
X5533858D01*
Y2387480D01*
D02*
G37*
G36*
X5506299D02*
X5486614D01*
Y2367795D01*
X5506299D01*
Y2387480D01*
D02*
G37*
G36*
X5431496Y2385512D02*
X5411811D01*
Y2365827D01*
X5431496D01*
Y2385512D01*
D02*
G37*
G36*
X5317323D02*
X5297638D01*
Y2365827D01*
X5317323D01*
Y2385512D01*
D02*
G37*
G36*
X5834134Y2369470D02*
Y2355394D01*
X5848210D01*
X5847677Y2358074D01*
X5843326Y2364586D01*
X5836815Y2368937D01*
X5834134Y2369470D01*
D02*
G37*
G36*
X5824134D02*
X5821453Y2368937D01*
X5814942Y2364586D01*
X5810591Y2358074D01*
X5810058Y2355394D01*
X5824134D01*
Y2369470D01*
D02*
G37*
G36*
X5848210Y2345394D02*
X5834134D01*
Y2331318D01*
X5836815Y2331851D01*
X5843326Y2336202D01*
X5847677Y2342713D01*
X5848210Y2345394D01*
D02*
G37*
G36*
X5824134D02*
X5810058D01*
X5810591Y2342713D01*
X5814942Y2336202D01*
X5821453Y2331851D01*
X5824134Y2331318D01*
Y2345394D01*
D02*
G37*
G36*
X5360630Y2264085D02*
X5351380Y2262867D01*
X5342761Y2259297D01*
X5335359Y2253618D01*
X5329679Y2246216D01*
X5326109Y2237596D01*
X5325231Y2230926D01*
X5317289D01*
X5316411Y2237596D01*
X5312840Y2246216D01*
X5307161Y2253618D01*
X5299759Y2259297D01*
X5291140Y2262867D01*
X5281890Y2264085D01*
X5272640Y2262867D01*
X5264020Y2259297D01*
X5256619Y2253618D01*
X5250939Y2246216D01*
X5247369Y2237596D01*
X5246491Y2230926D01*
X5238549D01*
X5237671Y2237596D01*
X5234100Y2246216D01*
X5228421Y2253618D01*
X5221019Y2259297D01*
X5212400Y2262867D01*
X5203150Y2264085D01*
X5193900Y2262867D01*
X5185280Y2259297D01*
X5177878Y2253618D01*
X5172199Y2246216D01*
X5168629Y2237596D01*
X5167751Y2230926D01*
X5159809D01*
X5158930Y2237596D01*
X5155360Y2246216D01*
X5149681Y2253618D01*
X5142279Y2259297D01*
X5133659Y2262867D01*
X5128347Y2263567D01*
Y2212598D01*
Y2161630D01*
X5133659Y2162329D01*
X5142279Y2165900D01*
X5149681Y2171579D01*
X5155360Y2178981D01*
X5158930Y2187600D01*
X5159809Y2194271D01*
X5167751D01*
X5168629Y2187600D01*
X5172199Y2178981D01*
X5177878Y2171579D01*
X5185280Y2165900D01*
X5193900Y2162329D01*
X5203150Y2161112D01*
X5212400Y2162329D01*
X5221019Y2165900D01*
X5228421Y2171579D01*
X5234100Y2178981D01*
X5237671Y2187600D01*
X5238549Y2194271D01*
X5246491D01*
X5247369Y2187600D01*
X5250939Y2178981D01*
X5256619Y2171579D01*
X5264020Y2165900D01*
X5272640Y2162329D01*
X5281890Y2161112D01*
X5291140Y2162329D01*
X5299759Y2165900D01*
X5307161Y2171579D01*
X5312840Y2178981D01*
X5316411Y2187600D01*
X5317289Y2194271D01*
X5325231D01*
X5326109Y2187600D01*
X5329679Y2178981D01*
X5335359Y2171579D01*
X5342761Y2165900D01*
X5351380Y2162329D01*
X5360630Y2161112D01*
X5369880Y2162329D01*
X5378499Y2165900D01*
X5385901Y2171579D01*
X5391581Y2178981D01*
X5395151Y2187600D01*
X5396063Y2194529D01*
X5403937Y2194013D01*
Y2161417D01*
X5474803D01*
Y2263780D01*
X5403937D01*
Y2231184D01*
X5396063Y2230668D01*
X5395151Y2237596D01*
X5391581Y2246216D01*
X5385901Y2253618D01*
X5378499Y2259297D01*
X5369880Y2262867D01*
X5360630Y2264085D01*
D02*
G37*
G36*
X5976378Y2228134D02*
Y2181102D01*
X6008180D01*
Y2192914D01*
X6006962Y2202163D01*
X6003391Y2210783D01*
X5997712Y2218185D01*
X5990310Y2223864D01*
X5981691Y2227434D01*
X5976378Y2228134D01*
D02*
G37*
G36*
X5527047Y2774982D02*
Y2760905D01*
X5541123D01*
X5540590Y2763586D01*
X5536239Y2770098D01*
X5529728Y2774448D01*
X5527047Y2774982D01*
D02*
G37*
G36*
X5517047D02*
X5514367Y2774448D01*
X5507855Y2770098D01*
X5503504Y2763586D01*
X5502971Y2760905D01*
X5517047D01*
Y2774982D01*
D02*
G37*
G36*
X5541123Y2750905D02*
X5527047D01*
Y2736829D01*
X5529728Y2737363D01*
X5536239Y2741713D01*
X5540590Y2748225D01*
X5541123Y2750905D01*
D02*
G37*
G36*
X5517047D02*
X5502971D01*
X5503504Y2748225D01*
X5507855Y2741713D01*
X5514367Y2737363D01*
X5517047Y2736829D01*
Y2750905D01*
D02*
G37*
G36*
X5816634Y2818898D02*
X5789764D01*
Y2795276D01*
X5816634D01*
Y2818898D01*
D02*
G37*
G36*
X5818386Y2763171D02*
Y2749094D01*
X5832462D01*
X5831929Y2751775D01*
X5827578Y2758287D01*
X5821066Y2762637D01*
X5818386Y2763171D01*
D02*
G37*
G36*
X5808386D02*
X5805705Y2762637D01*
X5799194Y2758287D01*
X5794843Y2751775D01*
X5794310Y2749094D01*
X5808386D01*
Y2763171D01*
D02*
G37*
G36*
X5832462Y2739094D02*
X5818386D01*
Y2725018D01*
X5821066Y2725552D01*
X5827578Y2729902D01*
X5831929Y2736414D01*
X5832462Y2739094D01*
D02*
G37*
G36*
X5808386D02*
X5794310D01*
X5794843Y2736414D01*
X5799194Y2729902D01*
X5805705Y2725552D01*
X5808386Y2725018D01*
Y2739094D01*
D02*
G37*
G36*
X5816634Y2708661D02*
X5789764D01*
Y2685039D01*
X5816634D01*
Y2708661D01*
D02*
G37*
%LPD*%
D10*
X4151772Y2740945D02*
D03*
X4201772D02*
D03*
X4251772D02*
D03*
X4301772D02*
D03*
Y2518898D02*
D03*
X4251772D02*
D03*
X4201772D02*
D03*
X4151772D02*
D03*
Y4154331D02*
D03*
X4201772D02*
D03*
X4251772D02*
D03*
X4301772D02*
D03*
Y3932283D02*
D03*
X4251772D02*
D03*
X4201772D02*
D03*
X4151772D02*
D03*
X4785630Y2792126D02*
D03*
X4835630D02*
D03*
X4885630D02*
D03*
X4935630D02*
D03*
Y2570079D02*
D03*
X4885630D02*
D03*
X4835630D02*
D03*
X4785630D02*
D03*
Y4205512D02*
D03*
X4835630D02*
D03*
X4885630D02*
D03*
X4935630D02*
D03*
Y3983465D02*
D03*
X4885630D02*
D03*
X4835630D02*
D03*
X4785630D02*
D03*
X4151772Y3213386D02*
D03*
X4201772D02*
D03*
X4251772D02*
D03*
X4301772D02*
D03*
Y2991339D02*
D03*
X4251772D02*
D03*
X4201772D02*
D03*
X4151772D02*
D03*
Y4622835D02*
D03*
X4201772D02*
D03*
X4251772D02*
D03*
X4301772D02*
D03*
Y4400787D02*
D03*
X4251772D02*
D03*
X4201772D02*
D03*
X4151772D02*
D03*
X4785630Y3264567D02*
D03*
X4835630D02*
D03*
X4885630D02*
D03*
X4935630D02*
D03*
Y3042520D02*
D03*
X4885630D02*
D03*
X4835630D02*
D03*
X4785630D02*
D03*
Y4674016D02*
D03*
X4835630D02*
D03*
X4885630D02*
D03*
X4935630D02*
D03*
Y4451968D02*
D03*
X4885630D02*
D03*
X4835630D02*
D03*
X4785630D02*
D03*
X4151772Y3681890D02*
D03*
X4201772D02*
D03*
X4251772D02*
D03*
X4301772D02*
D03*
Y3459843D02*
D03*
X4251772D02*
D03*
X4201772D02*
D03*
X4151772D02*
D03*
Y5095275D02*
D03*
X4201772D02*
D03*
X4251772D02*
D03*
X4301772D02*
D03*
Y4873228D02*
D03*
X4251772D02*
D03*
X4201772D02*
D03*
X4151772D02*
D03*
X4785630Y3737008D02*
D03*
X4835630D02*
D03*
X4885630D02*
D03*
X4935630D02*
D03*
Y3514961D02*
D03*
X4885630D02*
D03*
X4835630D02*
D03*
X4785630D02*
D03*
Y5146457D02*
D03*
X4835630D02*
D03*
X4885630D02*
D03*
X4935630D02*
D03*
Y4924409D02*
D03*
X4885630D02*
D03*
X4835630D02*
D03*
X4785630D02*
D03*
D11*
X4226772Y2672441D02*
D03*
Y4085827D02*
D03*
X4860630Y2723622D02*
D03*
Y4137008D02*
D03*
X4226772Y3144882D02*
D03*
Y4554331D02*
D03*
X4860630Y3196063D02*
D03*
Y4605512D02*
D03*
X4226772Y3613386D02*
D03*
Y5026772D02*
D03*
X4860630Y3668504D02*
D03*
Y5077953D02*
D03*
D12*
X5735905Y3665354D02*
D03*
X5775905D02*
D03*
X5159528Y3236220D02*
D03*
X5199528D02*
D03*
X5199528Y3281496D02*
D03*
X5159528D02*
D03*
X5199528Y3336614D02*
D03*
X5159528D02*
D03*
X5750709Y2730315D02*
D03*
X5710709D02*
D03*
X5750709Y2773622D02*
D03*
X5710709D02*
D03*
X5199528Y3435039D02*
D03*
X5159528D02*
D03*
X5199528Y3379921D02*
D03*
X5159528D02*
D03*
X5297953Y3106299D02*
D03*
X5257953D02*
D03*
X5211339D02*
D03*
X5171339D02*
D03*
X5199213Y3690945D02*
D03*
X5159213D02*
D03*
X5297953Y3062992D02*
D03*
X5257953D02*
D03*
X5211339D02*
D03*
X5171339D02*
D03*
X5297953Y3019685D02*
D03*
X5257953D02*
D03*
X5211339D02*
D03*
X5171339D02*
D03*
X5576850Y3104330D02*
D03*
X5616850D02*
D03*
X5576850Y3061023D02*
D03*
X5616850D02*
D03*
X5576850Y3017716D02*
D03*
X5616850D02*
D03*
X5530236D02*
D03*
X5490236D02*
D03*
X5530236Y3061023D02*
D03*
X5490236D02*
D03*
X5530236Y3104330D02*
D03*
X5490236D02*
D03*
X5754646Y2921260D02*
D03*
X5714646D02*
D03*
X5360945Y3153543D02*
D03*
X5320945D02*
D03*
X5754646Y2875984D02*
D03*
X5714646D02*
D03*
X5171339Y2960630D02*
D03*
X5211339D02*
D03*
X5443622Y3104330D02*
D03*
X5403622D02*
D03*
X5443622Y3061023D02*
D03*
X5403622D02*
D03*
X5443622Y3017716D02*
D03*
X5403622D02*
D03*
X5443622Y3153543D02*
D03*
X5403622D02*
D03*
X5160158Y3651575D02*
D03*
X5120158D02*
D03*
X5199213Y3738189D02*
D03*
X5159213D02*
D03*
X5199528Y3149606D02*
D03*
X5159528D02*
D03*
X5199528Y3192913D02*
D03*
X5159528D02*
D03*
X5160158Y3564960D02*
D03*
X5120158D02*
D03*
X5160158Y3521653D02*
D03*
X5120158D02*
D03*
X5160158Y3608267D02*
D03*
X5120158D02*
D03*
Y3478346D02*
D03*
X5160158D02*
D03*
X5628032Y5051181D02*
D03*
X5668032D02*
D03*
X5120158Y4895669D02*
D03*
X5160158D02*
D03*
Y5025591D02*
D03*
X5120158D02*
D03*
X5160158Y4938976D02*
D03*
X5120158D02*
D03*
X5160158Y4982283D02*
D03*
X5120158D02*
D03*
X5199528Y4610236D02*
D03*
X5159528D02*
D03*
X5199528Y4566929D02*
D03*
X5159528D02*
D03*
X5199213Y5155512D02*
D03*
X5159213D02*
D03*
X5160158Y5068898D02*
D03*
X5120158D02*
D03*
X5443622Y4570866D02*
D03*
X5403622D02*
D03*
X5443622Y4435039D02*
D03*
X5403622D02*
D03*
X5443622Y4478346D02*
D03*
X5403622D02*
D03*
X5443622Y4521653D02*
D03*
X5403622D02*
D03*
X5754646Y4295275D02*
D03*
X5714646D02*
D03*
X5557795Y4570866D02*
D03*
X5517795D02*
D03*
X5360945D02*
D03*
X5320945D02*
D03*
X5840630Y4244094D02*
D03*
X5880630D02*
D03*
X5840630Y4295275D02*
D03*
X5880630D02*
D03*
X5530236Y4521653D02*
D03*
X5490236D02*
D03*
X5530236Y4478346D02*
D03*
X5490236D02*
D03*
X5530236Y4435039D02*
D03*
X5490236D02*
D03*
X5576850D02*
D03*
X5616850D02*
D03*
X5576850Y4478346D02*
D03*
X5616850D02*
D03*
X5576850Y4521653D02*
D03*
X5616850D02*
D03*
X5211339Y4437008D02*
D03*
X5171339D02*
D03*
X5297953D02*
D03*
X5257953D02*
D03*
X5211339Y4480315D02*
D03*
X5171339D02*
D03*
X5297953D02*
D03*
X5257953D02*
D03*
X5199213Y5108268D02*
D03*
X5159213D02*
D03*
X5211339Y4523622D02*
D03*
X5171339D02*
D03*
X5297953D02*
D03*
X5257953D02*
D03*
X5199528Y4797244D02*
D03*
X5159528D02*
D03*
X5199528Y4852362D02*
D03*
X5159528D02*
D03*
X5750709Y4190945D02*
D03*
X5710709D02*
D03*
X5750709Y4147638D02*
D03*
X5710709D02*
D03*
X5199528Y4753937D02*
D03*
X5159528D02*
D03*
X5199528Y4698819D02*
D03*
X5159528D02*
D03*
X5159528Y4653543D02*
D03*
X5199528D02*
D03*
X5624095Y3633858D02*
D03*
X5664095D02*
D03*
X5565669Y3153543D02*
D03*
X5525669D02*
D03*
D13*
X4248032Y5228032D02*
D03*
Y5268032D02*
D03*
X4303150D02*
D03*
Y5228032D02*
D03*
X4350394D02*
D03*
Y5268032D02*
D03*
X5407874Y3712913D02*
D03*
Y3672913D02*
D03*
X5403937Y5082362D02*
D03*
Y5122362D02*
D03*
X5128346Y2799528D02*
D03*
Y2759528D02*
D03*
Y4216850D02*
D03*
Y4176850D02*
D03*
X5364567Y2389449D02*
D03*
Y2429449D02*
D03*
X5801575Y2873701D02*
D03*
Y2913701D02*
D03*
X5407874Y2389449D02*
D03*
Y2429449D02*
D03*
X5557480Y3756220D02*
D03*
Y3716220D02*
D03*
X5362599Y3058031D02*
D03*
Y3018031D02*
D03*
X5321260Y2389449D02*
D03*
Y2429449D02*
D03*
X5711024Y2560708D02*
D03*
Y2600708D02*
D03*
X5126378Y2597401D02*
D03*
Y2557401D02*
D03*
X5510236Y2391417D02*
D03*
Y2431417D02*
D03*
X5087008Y2597401D02*
D03*
Y2557401D02*
D03*
X5246772Y3191260D02*
D03*
Y3151260D02*
D03*
X5203150Y3525275D02*
D03*
Y3565275D02*
D03*
Y3651890D02*
D03*
Y3611890D02*
D03*
X5080788Y3651260D02*
D03*
Y3691260D02*
D03*
X5730709Y4960945D02*
D03*
Y4920945D02*
D03*
X5777953Y4920630D02*
D03*
Y4960630D02*
D03*
X5080787Y5068583D02*
D03*
Y5108583D02*
D03*
X5203150Y5069212D02*
D03*
Y5029212D02*
D03*
Y4942598D02*
D03*
Y4982598D02*
D03*
X5246772Y4608583D02*
D03*
Y4568583D02*
D03*
X5561417Y5090866D02*
D03*
Y5050866D02*
D03*
X5880315Y4960630D02*
D03*
Y4920630D02*
D03*
X5829134Y4960630D02*
D03*
Y4920630D02*
D03*
X5087008Y4014724D02*
D03*
Y3974724D02*
D03*
X5502362Y3806772D02*
D03*
Y3846772D02*
D03*
X5171654Y4374331D02*
D03*
Y4334331D02*
D03*
X5126378Y4014724D02*
D03*
Y3974724D02*
D03*
X5711024Y3978031D02*
D03*
Y4018031D02*
D03*
X5321260Y3806772D02*
D03*
Y3846772D02*
D03*
X5362598Y4475354D02*
D03*
Y4435354D02*
D03*
X5561417Y5133543D02*
D03*
Y5173543D02*
D03*
X5407874Y3806772D02*
D03*
Y3846772D02*
D03*
X5364567Y3806772D02*
D03*
Y3846772D02*
D03*
X5557480Y3673543D02*
D03*
Y3633543D02*
D03*
X5726772Y3543622D02*
D03*
Y3503622D02*
D03*
X5777953D02*
D03*
Y3543622D02*
D03*
X5880315D02*
D03*
Y3503622D02*
D03*
X5829134Y3543622D02*
D03*
Y3503622D02*
D03*
D14*
X4510236Y2188976D02*
D03*
Y2299213D02*
D03*
X4667717Y3704724D02*
D03*
Y3814961D02*
D03*
X4671654Y2755905D02*
D03*
Y2866142D02*
D03*
Y4173228D02*
D03*
Y4283465D02*
D03*
Y3220472D02*
D03*
Y3330709D02*
D03*
Y4637795D02*
D03*
Y4748031D02*
D03*
D15*
X5861614Y3722441D02*
D03*
X5861614Y3797244D02*
D03*
X5773032Y3759843D02*
D03*
X5700197Y3722441D02*
D03*
X5700197Y3797244D02*
D03*
X5611614Y3759843D02*
D03*
D16*
X5268110Y2494094D02*
D03*
X5287795D02*
D03*
X5307480D02*
D03*
X5327165D02*
D03*
X5346850D02*
D03*
X5366535D02*
D03*
X5386221D02*
D03*
X5405906D02*
D03*
X5425591D02*
D03*
X5445276D02*
D03*
X5464961D02*
D03*
X5484646D02*
D03*
X5504331D02*
D03*
X5524016D02*
D03*
X5543701D02*
D03*
X5563386D02*
D03*
X5268110Y2935039D02*
D03*
X5287795D02*
D03*
X5307480D02*
D03*
X5327165D02*
D03*
X5346850D02*
D03*
X5366535D02*
D03*
X5386221D02*
D03*
X5405906D02*
D03*
X5425591D02*
D03*
X5445276D02*
D03*
X5464961D02*
D03*
X5484646D02*
D03*
X5504331D02*
D03*
X5524016D02*
D03*
X5543701D02*
D03*
X5563386D02*
D03*
X5268110Y3911417D02*
D03*
X5287795D02*
D03*
X5307480D02*
D03*
X5327165D02*
D03*
X5346850D02*
D03*
X5366535D02*
D03*
X5386220D02*
D03*
X5405905D02*
D03*
X5425591D02*
D03*
X5445276D02*
D03*
X5464961D02*
D03*
X5484646D02*
D03*
X5504331D02*
D03*
X5524016D02*
D03*
X5543701D02*
D03*
X5563386D02*
D03*
X5268110Y4352362D02*
D03*
X5287795D02*
D03*
X5307480D02*
D03*
X5327165D02*
D03*
X5346850D02*
D03*
X5366535D02*
D03*
X5386220D02*
D03*
X5405905D02*
D03*
X5425591D02*
D03*
X5445276D02*
D03*
X5464961D02*
D03*
X5484646D02*
D03*
X5504331D02*
D03*
X5524016D02*
D03*
X5543701D02*
D03*
X5563386D02*
D03*
D17*
X5636221Y2566929D02*
D03*
Y2586614D02*
D03*
Y2606299D02*
D03*
Y2625984D02*
D03*
Y2645669D02*
D03*
Y2665354D02*
D03*
Y2685039D02*
D03*
Y2704724D02*
D03*
Y2724409D02*
D03*
Y2744094D02*
D03*
Y2763779D02*
D03*
Y2783464D02*
D03*
Y2803149D02*
D03*
Y2822834D02*
D03*
Y2842519D02*
D03*
Y2862204D02*
D03*
X5195276Y2566929D02*
D03*
Y2586614D02*
D03*
Y2606299D02*
D03*
Y2625984D02*
D03*
Y2645669D02*
D03*
Y2665354D02*
D03*
Y2685039D02*
D03*
Y2704724D02*
D03*
Y2724409D02*
D03*
Y2744094D02*
D03*
Y2763779D02*
D03*
Y2783464D02*
D03*
Y2803149D02*
D03*
Y2822834D02*
D03*
Y2842519D02*
D03*
Y2862204D02*
D03*
X5636220Y3984252D02*
D03*
Y4003937D02*
D03*
Y4023622D02*
D03*
Y4043307D02*
D03*
Y4062992D02*
D03*
Y4082677D02*
D03*
Y4102362D02*
D03*
Y4122047D02*
D03*
Y4141732D02*
D03*
Y4161417D02*
D03*
Y4181102D02*
D03*
Y4200787D02*
D03*
Y4220472D02*
D03*
Y4240157D02*
D03*
Y4259842D02*
D03*
Y4279527D02*
D03*
X5195276Y3984252D02*
D03*
Y4003937D02*
D03*
Y4023622D02*
D03*
Y4043307D02*
D03*
Y4062992D02*
D03*
Y4082677D02*
D03*
Y4102362D02*
D03*
Y4122047D02*
D03*
Y4141732D02*
D03*
Y4161417D02*
D03*
Y4181102D02*
D03*
Y4200787D02*
D03*
Y4220472D02*
D03*
Y4240157D02*
D03*
Y4259842D02*
D03*
Y4279527D02*
D03*
D18*
X5785827Y2822835D02*
D03*
X5730709D02*
D03*
X5785827Y2681102D02*
D03*
X5730709D02*
D03*
X5774016Y4098425D02*
D03*
X5718898D02*
D03*
X5774016Y4244094D02*
D03*
X5718898D02*
D03*
D19*
X5343898Y3520669D02*
D03*
X5363583D02*
D03*
X5402953D02*
D03*
X5383268D02*
D03*
X5481693D02*
D03*
X5521063D02*
D03*
X5422638D02*
D03*
X5462008D02*
D03*
X5560433D02*
D03*
X5540748D02*
D03*
X5442323D02*
D03*
X5501378D02*
D03*
X5343898Y3250984D02*
D03*
X5363583D02*
D03*
X5383268D02*
D03*
X5402953D02*
D03*
X5422638D02*
D03*
X5481693D02*
D03*
X5501378D02*
D03*
X5442323D02*
D03*
X5462008D02*
D03*
X5521063D02*
D03*
X5540748D02*
D03*
X5560433D02*
D03*
X5343898Y4937992D02*
D03*
X5363583D02*
D03*
X5402953D02*
D03*
X5383268D02*
D03*
X5481693D02*
D03*
X5521063D02*
D03*
X5422638D02*
D03*
X5462008D02*
D03*
X5560433D02*
D03*
X5540748D02*
D03*
X5442323D02*
D03*
X5501378D02*
D03*
X5343898Y4668307D02*
D03*
X5363583D02*
D03*
X5383268D02*
D03*
X5402953D02*
D03*
X5422638D02*
D03*
X5481693D02*
D03*
X5501378D02*
D03*
X5442323D02*
D03*
X5462008D02*
D03*
X5521063D02*
D03*
X5540748D02*
D03*
X5560433D02*
D03*
D20*
X5317323Y3454724D02*
D03*
Y3474409D02*
D03*
Y3494094D02*
D03*
Y3415354D02*
D03*
Y3435039D02*
D03*
X5587008Y3494094D02*
D03*
Y3435039D02*
D03*
Y3474409D02*
D03*
Y3454724D02*
D03*
X5317323Y3375984D02*
D03*
Y3395669D02*
D03*
Y3336614D02*
D03*
Y3356299D02*
D03*
Y3277559D02*
D03*
Y3316929D02*
D03*
Y3297244D02*
D03*
X5587008Y3415354D02*
D03*
Y3375984D02*
D03*
Y3395669D02*
D03*
Y3336614D02*
D03*
Y3356299D02*
D03*
Y3277559D02*
D03*
Y3316929D02*
D03*
Y3297244D02*
D03*
X5317323Y4872047D02*
D03*
Y4891732D02*
D03*
Y4911417D02*
D03*
Y4832677D02*
D03*
Y4852362D02*
D03*
X5587008Y4911417D02*
D03*
Y4852362D02*
D03*
Y4891732D02*
D03*
Y4872047D02*
D03*
X5317323Y4793307D02*
D03*
Y4812992D02*
D03*
Y4753937D02*
D03*
Y4773622D02*
D03*
Y4694882D02*
D03*
Y4734252D02*
D03*
Y4714567D02*
D03*
X5587008Y4832677D02*
D03*
Y4793307D02*
D03*
Y4812992D02*
D03*
Y4753937D02*
D03*
Y4773622D02*
D03*
Y4694882D02*
D03*
Y4734252D02*
D03*
Y4714567D02*
D03*
D21*
X5452165Y3385827D02*
D03*
X5452165Y4803150D02*
D03*
D22*
X4325197Y3362205D02*
D03*
X4529921D02*
D03*
X4325197Y2889764D02*
D03*
X4529921D02*
D03*
X4325197Y2417323D02*
D03*
X4529921D02*
D03*
X4325197Y3834646D02*
D03*
X4529921D02*
D03*
X4325197Y4303150D02*
D03*
X4529921D02*
D03*
X4325197Y4771654D02*
D03*
X4529921D02*
D03*
D23*
X5462992Y3683071D02*
D03*
Y3750000D02*
D03*
X5466929Y5100394D02*
D03*
Y5167323D02*
D03*
D24*
X5336693Y3741945D02*
D03*
Y3639945D02*
D03*
X5333071Y5169110D02*
D03*
Y5067110D02*
D03*
D25*
X5832890Y4397638D02*
D03*
X5730890D02*
D03*
X5707268Y2996063D02*
D03*
X5809268D02*
D03*
D26*
X5740551Y4838583D02*
D03*
X5815354D02*
D03*
X5740551Y3417323D02*
D03*
X5815354D02*
D03*
D27*
X5781890Y4535433D02*
D03*
Y4716535D02*
D03*
Y3118110D02*
D03*
Y3299213D02*
D03*
D28*
X5728346Y4222047D02*
Y4232283D01*
Y4218898D02*
Y4222047D01*
Y4218898D02*
X5750709Y4196535D01*
X5696850Y3665354D02*
X5735905D01*
X5775905D02*
Y3722126D01*
X4244095Y5268032D02*
Y5409449D01*
X4220472Y5268032D02*
X4244095D01*
X4220472Y5200787D02*
Y5268032D01*
Y5200787D02*
X4350394D01*
Y5228032D01*
X4303150Y5268032D02*
X4350394D01*
X4303150Y5385827D02*
X4708661D01*
Y5307087D02*
Y5385827D01*
X4240158Y5413386D02*
X4244095Y5409449D01*
X4275591Y5401575D02*
X4807087D01*
X4275591Y5228032D02*
Y5401575D01*
X4303150Y5268032D02*
Y5385827D01*
X4807087Y5314961D02*
Y5401575D01*
X4275591Y5228032D02*
X4299213D01*
X4248032D02*
X4275591D01*
X4998425Y4842520D02*
X5045669Y4889764D01*
X4565354Y4842520D02*
X4998425D01*
X4541732Y4818898D02*
X4565354Y4842520D01*
X4990551Y4858268D02*
X5029921Y4897638D01*
X4380315Y4858268D02*
X4990551D01*
X4352756Y4830709D02*
X4380315Y4858268D01*
X5952756Y2574803D02*
X5998228Y2529331D01*
X5985630Y2516732D02*
X5998228Y2529331D01*
X5785827Y2574803D02*
X5952756D01*
X5992323Y2799409D02*
Y2807283D01*
X5947244Y2754331D02*
X5992323Y2799409D01*
X5947244Y2687402D02*
Y2754331D01*
X5931496Y2834646D02*
X5998228Y2901378D01*
X5931496Y2695276D02*
Y2834646D01*
X5915748Y2679528D02*
X5931496Y2695276D01*
X5915748Y2661417D02*
Y2679528D01*
X5931496Y2671654D02*
X5947244Y2687402D01*
X5931496Y2649606D02*
Y2671654D01*
X5947244Y2663780D02*
X5986614Y2703150D01*
X5947244Y2633858D02*
Y2663780D01*
X5997638Y2615748D02*
X6011811Y2615748D01*
X5980315Y2598425D02*
X5997638Y2615748D01*
X5777953Y2598425D02*
X5980315D01*
X5927559Y4586614D02*
Y4948819D01*
X5907874Y4968504D02*
X5927559Y4948819D01*
X5722835Y5070866D02*
X5988386D01*
X6003937Y4976378D02*
X6024606Y4955709D01*
X5976378Y4976378D02*
X6003937D01*
X5897638Y5055118D02*
X5976378Y4976378D01*
X5880630Y4244094D02*
X5919993D01*
X5049528Y5108583D02*
X5080787D01*
X5014173Y5073228D02*
X5049528Y5108583D01*
X5014173Y4905512D02*
Y5073228D01*
X5053150Y5155512D02*
X5159213D01*
X4982677Y5085039D02*
X5053150Y5155512D01*
X4982677Y4933071D02*
Y5085039D01*
X4998425Y5078740D02*
X5051575Y5131890D01*
X5246142D01*
X4998425Y4913386D02*
Y5078740D01*
X5124409Y4396063D02*
Y4547874D01*
X5045669Y4317323D02*
X5124409Y4396063D01*
X5045669Y3947244D02*
Y4317323D01*
X5108662Y4403937D02*
Y4581024D01*
X5029921Y4325197D02*
X5108662Y4403937D01*
X5029921Y3955118D02*
Y4325197D01*
X5092913Y4411811D02*
Y4663386D01*
X5014173Y4333071D02*
X5092913Y4411811D01*
X5014173Y3962992D02*
Y4333071D01*
X5077166Y4427559D02*
Y4673229D01*
X5062992Y4413386D02*
X5077166Y4427559D01*
X5061024Y4415354D02*
X5062992Y4413386D01*
X4998425Y4352756D02*
X5061024Y4415354D01*
X4998425Y3972441D02*
Y4352756D01*
X5044961Y3407166D02*
X5092913D01*
X4982677Y3344882D02*
X5044961Y3407166D01*
X4982677Y3090551D02*
Y3344882D01*
X5043307Y3358268D02*
X5124409D01*
X5014173Y3329134D02*
X5043307Y3358268D01*
X5014173Y3039370D02*
Y3329134D01*
X5039370Y3377953D02*
X5157560D01*
X4998425Y3337008D02*
X5039370Y3377953D01*
X4998425Y3059055D02*
Y3337008D01*
X5140158Y2959055D02*
Y2988504D01*
X5090551Y2909449D02*
X5140158Y2959055D01*
X5090551Y2901575D02*
Y2909449D01*
X5124410Y2966929D02*
Y3130551D01*
X5045669Y2888189D02*
X5124410Y2966929D01*
X5045669Y2539370D02*
Y2888189D01*
X5108662Y2974803D02*
Y3161417D01*
X5029921Y2896063D02*
X5108662Y2974803D01*
X5029921Y2547244D02*
Y2896063D01*
X5092914Y2982677D02*
Y3236220D01*
X5014173Y2903937D02*
X5092914Y2982677D01*
X5014173Y2555118D02*
Y2903937D01*
X5077166Y2997717D02*
Y3244094D01*
Y2997717D02*
Y3000000D01*
X5055827Y2976378D02*
X5077166Y2997717D01*
X4998425Y2918976D02*
X5055827Y2976378D01*
X4998425Y2562992D02*
Y2918976D01*
X4569291Y2488189D02*
X4994488D01*
X5045669Y2539370D01*
X4419685Y2503937D02*
X4986614D01*
X5029921Y2547244D01*
X4305709Y2519685D02*
X4978740D01*
X5014173Y2555118D01*
X4900000Y2539370D02*
X4974803D01*
X4998425Y2562992D01*
X5000000Y3901575D02*
X5045669Y3947244D01*
X4565354Y3901575D02*
X5000000D01*
X4376378Y3917323D02*
X4992126D01*
X5029921Y3955118D01*
X4344882Y3933071D02*
X4984252D01*
X5014173Y3962992D01*
X4885630Y3952756D02*
X4978740D01*
X4998425Y3972441D01*
X4982677Y4500000D02*
Y4767717D01*
X4885630Y4500000D02*
X4982677D01*
X4885630Y4444095D02*
Y4500000D01*
X4970866Y4452756D02*
X4998425Y4480315D01*
X4940354Y4452756D02*
X4970866D01*
X4935630Y4448032D02*
X4940354Y4452756D01*
X4982677Y2570866D02*
Y2937008D01*
X4940355Y2570866D02*
X4982677D01*
X4935630Y2566142D02*
X4940355Y2570866D01*
X4935630Y3043307D02*
X4982677D01*
X4935630Y3030709D02*
Y3043307D01*
X4982677D02*
X4998425Y3059055D01*
X4884252Y3090551D02*
X4982677D01*
X4884252Y3028149D02*
Y3090551D01*
X5789764Y3122047D02*
X5931496D01*
X5972441Y2292913D02*
X6011811Y2332283D01*
X5711024Y5055118D02*
X5897638D01*
X5972441Y2177165D02*
Y2292913D01*
X5923622Y3606299D02*
X6010236Y3519685D01*
X5443307Y2775590D02*
X5462992Y2755905D01*
X5368504Y2775590D02*
X5443307D01*
X5462992Y2755905D02*
X5522047D01*
X5451181Y2795276D02*
X5455118Y2799213D01*
X5356693Y2795276D02*
X5451181D01*
X5266142Y2704724D02*
X5356693Y2795276D01*
X5277953Y2803150D02*
X5289764Y2814961D01*
X5419685D01*
X5466929Y2834646D02*
X5486614Y2814961D01*
X5270079Y2834646D02*
X5466929D01*
X5246457Y2858268D02*
X5270079Y2834646D01*
X5474803Y2850394D02*
X5486614Y2838583D01*
X5348819Y2850394D02*
X5474803D01*
X5327165Y2872047D02*
X5348819Y2850394D01*
X5490551Y2866142D02*
X5494488Y2862205D01*
X5360630Y2866142D02*
X5490551D01*
X5346850Y2879921D02*
X5360630Y2866142D01*
X5557480Y5133543D02*
X5561417Y5129606D01*
X5576850Y5133543D02*
X5596850Y5153543D01*
X5561417Y5133543D02*
X5576850D01*
X5092913Y2645669D02*
X5195276D01*
X5092913D02*
Y2830709D01*
X5061417Y2598425D02*
X5126378D01*
X5061417Y2464567D02*
Y2598425D01*
X5813386Y2535433D02*
X5919685D01*
X5939370Y2515748D01*
X5540748Y3520669D02*
Y3553149D01*
X5094882Y3564960D02*
X5120158D01*
X5088976Y3559055D02*
X5094882Y3564960D01*
X5090945Y3521653D02*
X5120158D01*
X5088976Y3519685D02*
X5090945Y3521653D01*
X5683465Y3932756D02*
Y4003937D01*
X5636220D02*
X5683465D01*
X5852756Y4397638D02*
X5910157D01*
X5716614Y4023622D02*
X5856693D01*
X5848819Y4086614D02*
Y4173228D01*
X5813386Y4051181D02*
X5848819Y4086614D01*
X5687402Y4051181D02*
X5813386D01*
X5825197Y4090551D02*
Y4149606D01*
X5801575Y4066929D02*
X5825197Y4090551D01*
X5695276Y4066929D02*
X5801575D01*
X5880630Y4295275D02*
X5916056D01*
X5852756Y4381890D02*
Y4397638D01*
X5711024Y4018031D02*
X5716614Y4023622D01*
X5419685Y4228346D02*
X5451181D01*
X5411811Y4236220D02*
X5419685Y4228346D01*
X5325197Y4236220D02*
X5411811D01*
X5317323Y4228346D02*
X5325197Y4236220D01*
X5301575Y4062992D02*
X5360630Y4122047D01*
X5384252Y4208661D02*
X5423622D01*
X5384252Y4007874D02*
Y4208661D01*
X5337008Y3960630D02*
X5384252Y4007874D01*
X5309449Y4031496D02*
X5356693Y4078740D01*
Y4078740D01*
X5289764Y4031496D02*
X5309449D01*
X5301575Y3992126D02*
X5313386Y3980315D01*
X5270079Y3992126D02*
X5301575D01*
X5238583Y4023622D02*
X5270079Y3992126D01*
X5277953Y3960630D02*
X5337008D01*
X5234646Y4003937D02*
X5277953Y3960630D01*
X5195276Y4003937D02*
X5234646D01*
X5167717Y3984252D02*
X5195276D01*
X5153937D02*
X5167717D01*
X5166938Y3983473D02*
X5167717Y3984252D01*
X5166938Y3942177D02*
Y3983473D01*
Y3942177D02*
X5197698Y3911417D01*
X5268110D01*
X5281890Y4007874D02*
X5313386D01*
X5518110Y4303150D02*
X5520079D01*
X5522047Y4301181D01*
X5524016Y4303150D01*
X5549606D02*
X5553543D01*
X5543701Y4309055D02*
X5549606Y4303150D01*
X5543701Y4309055D02*
Y4336614D01*
X5455118Y4271654D02*
X5474803Y4251968D01*
X5348819Y4271654D02*
X5455118D01*
X5474803Y4275591D02*
X5494488D01*
X5462992Y4287401D02*
X5474803Y4275591D01*
X5356693Y4287401D02*
X5462992D01*
X5423622Y4208661D02*
X5439370Y4192913D01*
X5277953Y4188976D02*
X5317323Y4228346D01*
X5313386Y4251968D02*
X5427559D01*
X5274016Y4212598D02*
X5313386Y4251968D01*
X5327165Y4293307D02*
X5348819Y4271654D01*
X5346850Y4297244D02*
X5356693Y4287401D01*
X5470866Y4307087D02*
X5470866D01*
X5464646Y4313307D02*
X5470866Y4307087D01*
X5464646Y4313307D02*
Y4360236D01*
X5403937Y4307087D02*
X5405275D01*
X5405591Y4306771D01*
X5529921Y4192913D02*
X5537795Y4200787D01*
X5466929Y4129921D02*
X5529921Y4192913D01*
X5537795Y4200787D02*
Y4232283D01*
Y4192913D02*
Y4200787D01*
X5529921Y4192913D02*
X5537795D01*
X5439370D02*
X5529921D01*
X5128346Y4062992D02*
X5195276D01*
X5301575D01*
X5600788Y3204724D02*
X5616535Y3188976D01*
X5600788Y3204724D02*
Y3277559D01*
X5651968Y3196850D02*
X5864567D01*
X5640158Y3185039D02*
X5651968Y3196850D01*
X5659842Y3220472D02*
X5900000D01*
X5640158Y3240157D02*
Y3303149D01*
X5624409Y3224409D02*
X5640158Y3240157D01*
Y3248031D01*
X5537795Y3181417D02*
X5565669Y3153543D01*
X5537795Y3181417D02*
Y3196850D01*
X5565355Y3255905D02*
X5577165D01*
X5560433Y3250984D02*
X5565355Y3255905D01*
X5640158Y3127637D02*
Y3185039D01*
X5616850Y3104330D02*
X5640158Y3127637D01*
X5540748Y3231299D02*
X5614567Y3157480D01*
X5540748Y3231299D02*
Y3250984D01*
X5587008Y3277559D02*
X5600788D01*
X5805512Y3393701D02*
X5852756D01*
Y3417323D01*
X5466929Y3992126D02*
Y4129921D01*
X5447244Y4145669D02*
X5451181Y4149606D01*
X5447244Y3921575D02*
Y4145669D01*
X5427559Y3921575D02*
Y4165354D01*
X5431496Y4169291D01*
X5405591Y4182756D02*
X5411811Y4188976D01*
X5577165Y4015748D02*
Y4153543D01*
X5537795Y4192913D02*
X5577165Y4153543D01*
X5466929Y3992126D02*
X5484646Y3974410D01*
Y3911417D02*
Y3974410D01*
X5592913Y3937008D02*
Y3940945D01*
X5504016Y3850709D02*
Y3930118D01*
X5703150Y3802165D02*
Y3893701D01*
X5529921Y4240158D02*
X5537795Y4232283D01*
X5636220Y4279527D02*
Y4334646D01*
X5616850Y4354016D02*
X5636220Y4334646D01*
X5616850Y4354016D02*
Y4435039D01*
X5577165Y4015748D02*
X5588976Y4003937D01*
X5636220D01*
X5545669Y4098425D02*
X5549606Y4094488D01*
Y4011811D02*
Y4094488D01*
Y4011811D02*
X5581102Y3980315D01*
Y3952756D02*
Y3980315D01*
X5563386Y3915354D02*
Y3974409D01*
X5525984Y4011811D02*
X5563386Y3974409D01*
X5525984Y4011811D02*
Y4066929D01*
X5543701Y3915354D02*
Y3970472D01*
X5502362Y4011811D02*
X5543701Y3970472D01*
X5502362Y4011811D02*
Y4086614D01*
X5524016Y3915354D02*
Y3966535D01*
X5482677Y4007874D02*
X5524016Y3966535D01*
X5482677Y4007874D02*
Y4110236D01*
X5832890Y4397638D02*
Y4484433D01*
X5444961Y3919291D02*
X5447244Y3921575D01*
X5482677Y4110236D02*
X5486614Y4114173D01*
X5502362Y4086614D02*
X5506299Y4090551D01*
X5268110Y3852362D02*
Y3911417D01*
X5191339Y3952756D02*
X5246457D01*
X5319961Y3152559D02*
X5327166Y3145354D01*
X5319449Y3153071D02*
X5319961Y3152559D01*
X5318976Y3153543D02*
X5319449Y3153071D01*
X5319922Y3153543D02*
X5327166Y3160787D01*
X5319922Y3153543D02*
X5320945D01*
X5318976D02*
X5319922D01*
X5297638D02*
X5318976D01*
X5281890Y3137795D02*
X5297638Y3153543D01*
X5270079Y3157480D02*
Y3234251D01*
X5207402Y3157480D02*
X5270079D01*
X5199528Y3149606D02*
X5207402Y3157480D01*
X5297953Y3062992D02*
Y3106299D01*
X5250709Y3195197D02*
X5254331Y3198819D01*
X5207087Y3195197D02*
X5250709D01*
X5285827Y3248031D02*
X5297638Y3236220D01*
X5285827Y3248031D02*
Y3289370D01*
X5321260Y3271653D02*
X5325197Y3275590D01*
X5321260Y3255905D02*
Y3271653D01*
X5431496Y5204724D02*
X5529921D01*
X5431496Y5070866D02*
Y5204724D01*
X5403937Y5066929D02*
X5427559Y5043307D01*
X5403937Y5066929D02*
Y5082362D01*
Y5122362D02*
X5431181D01*
X5347032Y5159267D02*
X5376378Y5129921D01*
Y5063976D02*
Y5129921D01*
Y5063976D02*
X5462008Y4978346D01*
X5431496Y5070866D02*
X5459055Y5043307D01*
X5364567Y3806772D02*
X5407874D01*
Y3808740D02*
X5473150D01*
X5407874Y3806772D02*
Y3808740D01*
Y3712913D02*
Y3806772D01*
X5481693Y3520669D02*
Y3563976D01*
X5407874Y3637795D02*
X5481693Y3563976D01*
X5407874Y3637795D02*
Y3672913D01*
X5675591Y5118110D02*
X5722835Y5070866D01*
X5600787Y5118110D02*
X5675591D01*
X5679528Y5086614D02*
X5711024Y5055118D01*
X5600787Y5086614D02*
X5679528D01*
X5459055Y5007874D02*
X5481693Y4985236D01*
X5459055Y5007874D02*
Y5043307D01*
X5478740Y5015748D02*
Y5100394D01*
Y5015748D02*
X5501378Y4993110D01*
X5502362Y5015748D02*
Y5157480D01*
X5492520Y5167323D02*
X5502362Y5157480D01*
X5466929Y5167323D02*
X5492520D01*
X5502362Y5015748D02*
X5521063Y4997047D01*
Y4937992D02*
Y4997047D01*
X5541732Y5173543D02*
X5557480D01*
X5533858Y5165669D02*
X5541732Y5173543D01*
X5533858Y5114173D02*
Y5165669D01*
X5518110Y5098425D02*
X5533858Y5114173D01*
X5518110Y5027559D02*
Y5098425D01*
X5561417Y5090866D02*
Y5129606D01*
X5534173Y5090866D02*
X5561417D01*
X5534173Y5035118D02*
Y5090866D01*
Y5035118D02*
X5560433Y5008858D01*
X5540748Y4937992D02*
Y5004921D01*
X5518110Y5027559D02*
X5540748Y5004921D01*
X5560433Y4937992D02*
Y5008858D01*
X5561417Y5051181D02*
X5587008D01*
X5611614Y3759843D02*
X5773032D01*
X5478740Y3592204D02*
Y3673228D01*
Y3592204D02*
X5501378Y3569567D01*
X5498425Y3595472D02*
Y3740157D01*
X5490551Y3748031D02*
X5498425Y3740157D01*
X5462992Y3748031D02*
X5490551D01*
X5498425Y3595472D02*
X5521063Y3572834D01*
X5514173Y3704409D02*
X5525984Y3716220D01*
X5514173Y3602362D02*
Y3704409D01*
Y3602362D02*
X5540748Y3575787D01*
X5529921Y3673543D02*
X5545670D01*
X5529921Y3610236D02*
Y3673543D01*
X5557480Y3756220D02*
X5607992D01*
X5525984Y3716220D02*
X5557480D01*
X5687402Y3633858D02*
X5695276Y3625984D01*
X4982677Y4874016D02*
X5014173Y4905512D01*
X4305709Y4874016D02*
X4982677D01*
X4301772Y4870079D02*
X4305709Y4874016D01*
X4325197Y4830709D02*
X4352756D01*
X4376378Y4385827D02*
X4955118D01*
X4356693Y4366142D02*
X4376378Y4385827D01*
X4333071Y4366142D02*
X4356693D01*
X4356693Y3897638D02*
X4376378Y3917323D01*
X4337008Y3897638D02*
X4356693D01*
X4380315Y2976378D02*
X4974803D01*
X4356693Y2952756D02*
X4380315Y2976378D01*
X4348819Y2952756D02*
X4356693D01*
X4325197Y2929134D02*
X4348819Y2952756D01*
X4376378Y3444882D02*
X4974803D01*
X4356693Y3425197D02*
X4376378Y3444882D01*
X4340945Y3425197D02*
X4356693D01*
X4325197Y3409449D02*
X4340945Y3425197D01*
X4529921Y2448819D02*
X4569291Y2488189D01*
X4396063Y2480315D02*
X4419685Y2503937D01*
X4301772Y2515748D02*
X4305709Y2519685D01*
X4982677Y2960630D02*
X5045669Y3023622D01*
X4573229Y2960630D02*
X4982677D01*
X4553543Y2940945D02*
X4573229Y2960630D01*
X4974803Y2976378D02*
X5029921Y3031496D01*
X4966929Y2992126D02*
X5014173Y3039370D01*
X4309646Y2992126D02*
X4966929D01*
X4301772Y2984252D02*
X4309646Y2992126D01*
X4565354Y3429134D02*
X4982677D01*
X4549606Y3413386D02*
X4565354Y3429134D01*
X4549606Y3401575D02*
Y3413386D01*
X4982677Y3429134D02*
X5045669Y3492126D01*
X4974803Y3444882D02*
X5029921Y3500000D01*
X4301772Y3460630D02*
X4966929D01*
X4301772Y3448819D02*
Y3460630D01*
X4966929D02*
X5014173Y3507874D01*
X4888189Y3480315D02*
X4900000Y3492126D01*
X4888189Y3480315D02*
X4962992D01*
X4998425Y3515748D01*
X4936417Y3515748D02*
X4974803D01*
X4935630Y3514961D02*
X4936417Y3515748D01*
X4935630Y3503149D02*
Y3514961D01*
X4974803Y3515748D02*
X4982677Y3523622D01*
X4978740Y4893701D02*
X4998425Y4913386D01*
X4903937Y4893701D02*
X4978740D01*
X4900000Y4897638D02*
X4903937Y4893701D01*
X4541732Y4807087D02*
Y4818898D01*
X4301772Y4401575D02*
X4947244D01*
X4885630Y3952756D02*
Y3983465D01*
X4301772Y3933071D02*
X4344882D01*
X4344882Y3933071D02*
X4344882Y3933071D01*
X5321260Y3808740D02*
X5321260D01*
Y3806772D02*
X5364567D01*
X5277638Y4911417D02*
X5317323D01*
X5206772Y4982283D02*
X5277638Y4911417D01*
X5277638Y3494094D02*
X5317323D01*
X5206772Y3564960D02*
X5277638Y3494094D01*
X5223150Y4872047D02*
X5331102D01*
X5203465Y4852362D02*
X5223150Y4872047D01*
X5766142Y2614173D02*
X5927559D01*
X5746457Y2535433D02*
Y2594488D01*
X5766142Y2614173D01*
X5762205Y2582677D02*
X5777953Y2598425D01*
X5762205Y2527559D02*
Y2582677D01*
X5726772Y2492126D02*
X5762205Y2527559D01*
X5640158Y2492126D02*
X5726772D01*
X5671654Y2507874D02*
X5718898D01*
X5746457Y2535433D01*
X5907874Y4968504D02*
Y5015748D01*
X5900000Y2645669D02*
X5915748Y2661417D01*
X5911811Y2629921D02*
X5931496Y2649606D01*
X5695276Y2629921D02*
X5911811D01*
X5927559Y2614173D02*
X5947244Y2633858D01*
X5664095Y3633858D02*
X5687402D01*
X5632284Y3586614D02*
X5813386D01*
X5829134Y3570866D01*
Y3543307D02*
Y3570866D01*
X5616535Y3602362D02*
X5848819D01*
X5880315Y3543307D02*
Y3570866D01*
X5848819Y3602362D02*
X5880315Y3570866D01*
X5478740Y2389449D02*
X5508268D01*
X5407874D02*
X5478740D01*
Y2444882D01*
X5364567Y2389449D02*
X5407874D01*
X5321260D02*
X5364567D01*
X5386221Y2451102D02*
X5407874Y2429449D01*
X5386221Y2451102D02*
Y2494094D01*
X5321260Y2429449D02*
X5346850Y2455039D01*
Y2494094D01*
X5366535Y2431417D02*
Y2494094D01*
X5888189Y5035433D02*
X5907874Y5015748D01*
X5703150Y5035433D02*
X5888189D01*
X5632283Y5003937D02*
X5813386D01*
X5829134Y4988189D01*
X5880315Y4960630D02*
Y5003937D01*
X5616535Y5019685D02*
X5864567D01*
X5880315Y5003937D01*
X5336693Y5159267D02*
X5347032D01*
X5484646Y2450787D02*
Y2494094D01*
X5126378Y2598425D02*
Y2645669D01*
X5134252Y2596456D02*
X5144095D01*
X5126378Y2598425D02*
X5134252D01*
X5214961Y2509842D02*
Y2566929D01*
X5195276D02*
X5214961D01*
Y2509842D02*
X5230709Y2494094D01*
X5931496Y2962598D02*
X5986614Y3017716D01*
X5931496Y2881890D02*
Y2962598D01*
X5915748Y2901575D02*
Y3015748D01*
X5935433Y3035433D01*
X5793701Y3039370D02*
X5829134D01*
X5758268D02*
X5793701D01*
X5683465Y2948819D02*
X5801575D01*
X5675591Y2940945D02*
X5683465Y2948819D01*
X5801575Y2913701D02*
Y2948819D01*
X5675591Y2921260D02*
Y2940945D01*
X5092913Y2830709D02*
X5108661Y2846457D01*
X5081102Y4259842D02*
X5140158Y4318898D01*
X5081102Y4110236D02*
Y4259842D01*
Y4110236D02*
X5128346Y4062992D01*
X5660906Y3386890D02*
X5688465D01*
X5630315Y3356299D02*
X5660906Y3386890D01*
X5517795Y4547244D02*
Y4566929D01*
X5403622Y4547244D02*
X5517795D01*
X5258268Y2783464D02*
X5277953Y2803150D01*
X5195276Y2783464D02*
X5258268D01*
X4935630Y4921260D02*
X4970866D01*
X4982677Y4933071D01*
X5045669Y4992126D02*
X5079134Y5025591D01*
X5045669Y4889764D02*
Y4992126D01*
X5029921Y5003937D02*
X5069291Y5043307D01*
X5029921Y4897638D02*
Y5003937D01*
X5045669Y3582677D02*
X5071260Y3608267D01*
X5045669Y3492126D02*
Y3582677D01*
X5029921Y3590551D02*
X5065354Y3625984D01*
X5029921Y3500000D02*
Y3590551D01*
X5014173Y3645669D02*
X5059764Y3691260D01*
X5014173Y3507874D02*
Y3645669D01*
X4998425Y3653543D02*
X5059449Y3714567D01*
X4998425Y3515748D02*
Y3653543D01*
X4982677Y3665354D02*
X5057481Y3740157D01*
X4982677Y3523622D02*
Y3665354D01*
X5071260Y3608267D02*
X5110315D01*
X5065354Y3625984D02*
X5094567D01*
X5061417Y4444882D02*
Y4681102D01*
X4982677Y4366142D02*
X5061417Y4444882D01*
X4982677Y3983465D02*
Y4366142D01*
X5045669Y4452756D02*
Y4704724D01*
X4962992Y4370079D02*
X5045669Y4452756D01*
X4569291Y4370079D02*
X4962992D01*
X5029921Y4460630D02*
Y4724409D01*
X4955118Y4385827D02*
X5029921Y4460630D01*
Y3031496D02*
Y3279528D01*
X5045669Y3023622D02*
Y3259842D01*
X5061417Y3015748D02*
Y3251969D01*
X4982677Y2937008D02*
X5061417Y3015748D01*
X4529921Y2417323D02*
Y2448819D01*
X4947244Y4401575D02*
X5014173Y4468504D01*
X4557480Y4358268D02*
X4569291Y4370079D01*
X4557480Y3893701D02*
X4565354Y3901575D01*
X5687401Y5051181D02*
X5703150Y5035433D01*
X5668032Y5051181D02*
X5687401D01*
X5128347Y3236220D02*
X5159528D01*
X5128346Y3236220D02*
X5128347Y3236220D01*
X5059134Y3651260D02*
X5080788D01*
X5094882Y3478346D02*
X5120158D01*
X5285827Y5003937D02*
X5366220D01*
X5273701Y5016063D02*
X5285827Y5003937D01*
X5273701Y5016063D02*
Y5049212D01*
X5297008Y5023937D02*
X5369173D01*
X5289449Y5031496D02*
Y5057087D01*
Y5031496D02*
X5297008Y5023937D01*
X5366220Y5003937D02*
X5402953Y4967205D01*
X5369173Y5023937D02*
X5422638Y4970472D01*
X5373425Y5043307D02*
X5442323Y4974409D01*
X5350654Y5043307D02*
X5373425D01*
X5336693Y5057268D02*
X5350654Y5043307D01*
X5611614Y3759843D02*
Y3860905D01*
X5508268Y3806772D02*
X5611299D01*
X5611614Y3860905D02*
X5683465Y3932756D01*
X5923622Y3606299D02*
Y3660433D01*
X5861614Y3722441D02*
X5923622Y3660433D01*
X5700197Y3722441D02*
X5861614D01*
X5861614Y3797244D02*
X5896063Y3762795D01*
X5703150Y3802165D02*
X5712008Y3793307D01*
X5490551Y3159449D02*
X5501378Y3170275D01*
X5581102Y3952756D02*
X5592913Y3940945D01*
X5511890Y3850394D02*
X5533858D01*
X5405906Y2494094D02*
Y2746063D01*
X5411811Y2751968D01*
X5425276Y2722126D02*
X5431496Y2728346D01*
X5425276Y2501968D02*
Y2722126D01*
X5448228Y2697834D02*
Y2707677D01*
X5444961Y2694567D02*
X5448228Y2697834D01*
X5444961Y2501968D02*
Y2694567D01*
X5448228Y2707677D02*
X5451181Y2704724D01*
X5466929Y2685039D02*
X5470866Y2681102D01*
X5466929Y2610236D02*
Y2685039D01*
X5486614Y2661417D02*
X5490551Y2657480D01*
X5486614Y2614173D02*
Y2661417D01*
X5506299Y2629921D02*
X5510236Y2633858D01*
X5563386Y2498031D02*
Y2561023D01*
X5506299Y2618110D02*
X5563386Y2561023D01*
X5506299Y2618110D02*
Y2629921D01*
X5543701Y2498031D02*
Y2557086D01*
X5486614Y2614173D02*
X5543701Y2557086D01*
X5524016Y2498031D02*
Y2553149D01*
X5466929Y2610236D02*
X5524016Y2553149D01*
X5136221Y2704724D02*
X5195276D01*
X5124409Y2716535D02*
X5136221Y2704724D01*
X5124409Y2716535D02*
Y2755590D01*
X5132283Y2803465D02*
Y2826772D01*
X5148032Y2724409D02*
Y2728346D01*
Y2724409D02*
X5148032Y2724409D01*
X5124409Y2755590D02*
X5128346Y2759528D01*
X5242520Y4212598D02*
X5274016D01*
X5230709Y4200787D02*
X5242520Y4212598D01*
X5195276Y4200787D02*
X5230709D01*
X5151968Y4141732D02*
X5195276D01*
X5148032Y4145669D02*
X5151968Y4141732D01*
X5254331Y4188976D02*
X5277953D01*
X5246457Y4043307D02*
X5281890Y4007874D01*
X5195276Y4043307D02*
X5246457D01*
X5124409Y4212913D02*
Y4240157D01*
X5136221Y4122047D02*
X5195276D01*
X5124409Y4133858D02*
X5136221Y4122047D01*
X5124409Y4133858D02*
Y4180787D01*
X5427559Y4610236D02*
X5451181D01*
X5402953Y4634843D02*
X5427559Y4610236D01*
X5402953Y4634843D02*
Y4668307D01*
X5462008Y4634842D02*
Y4668307D01*
X5459055Y4637795D02*
X5462008Y4634842D01*
X5442323Y4637795D02*
Y4668307D01*
Y4637795D02*
X5459055D01*
X5428543D02*
X5442323D01*
X5422638Y4643701D02*
X5428543Y4637795D01*
X5383268Y4626969D02*
X5400000Y4610236D01*
Y4566220D02*
Y4610236D01*
Y4566220D02*
X5403307Y4569527D01*
X5383268Y4626969D02*
Y4668307D01*
X5422638Y4643701D02*
Y4668307D01*
X5307480Y4273622D02*
Y4352362D01*
X5246457Y4236220D02*
X5270079D01*
X5307480Y4273622D01*
X5258268Y4271654D02*
Y4275590D01*
X5242520Y4259842D02*
X5258268Y4275590D01*
X5195276Y4279527D02*
X5230709D01*
X5238583Y4287401D01*
Y4311024D01*
X5289764Y4094488D02*
Y4094488D01*
X5242520Y4141732D02*
X5289764Y4094488D01*
X5195276Y4141732D02*
X5242520D01*
X5195276Y4259842D02*
X5242520D01*
X5405591Y4306771D02*
Y4352047D01*
X5504016Y4391417D02*
X5514173Y4401575D01*
X5526299Y4438976D02*
X5568976D01*
X5576850Y4409764D02*
Y4435039D01*
X5543701Y4336614D02*
X5545669Y4338583D01*
X5484646Y4352362D02*
Y4395669D01*
X5478740Y4401575D02*
X5484646Y4395669D01*
X5405591Y3919291D02*
Y4182756D01*
X5425275Y3919291D02*
X5427559Y3921575D01*
X5458563Y3216535D02*
X5459055D01*
X5454626Y3212598D02*
X5458563Y3216535D01*
X5462008Y3219980D02*
Y3250984D01*
X5464646Y2935039D02*
Y2942913D01*
X5464961Y2895669D02*
X5474803Y2885827D01*
X5464961Y2895669D02*
Y2935039D01*
X5472834Y2984252D02*
X5484646Y2972441D01*
X5472834Y2984252D02*
X5478740D01*
X5543701Y2891732D02*
Y2935039D01*
X5518110Y2885827D02*
X5523386D01*
X5523701Y2886141D01*
X5422638Y3222441D02*
X5428051Y3217028D01*
X5442323D02*
Y3250984D01*
Y3217028D02*
X5454626D01*
X5428051D02*
X5442323D01*
X5402953Y3221457D02*
X5435433Y3188976D01*
X5402953Y3221457D02*
Y3250984D01*
X5422638Y3222441D02*
Y3250984D01*
X4352756Y2480315D02*
X4396063D01*
X4325197Y4767716D02*
Y4830709D01*
Y4358268D02*
X4333071Y4366142D01*
X4325197Y4303150D02*
Y4358268D01*
Y3885827D02*
X4337008Y3897638D01*
X4325197Y3834646D02*
Y3885827D01*
Y3350394D02*
Y3409449D01*
Y2885827D02*
Y2929134D01*
X4998425Y4480315D02*
Y4759842D01*
X5195276Y4023622D02*
X5238583D01*
X5138189Y3190945D02*
X5159843D01*
X5108662Y3161417D02*
X5138189Y3190945D01*
X5144095Y2874016D02*
Y2893701D01*
X5120472Y2850394D02*
X5144095Y2874016D01*
X5108661Y2850394D02*
X5120472D01*
X4860630Y3656693D02*
X4926772D01*
X5246142Y3659449D02*
Y3701102D01*
X5232677Y3714567D02*
X5246142Y3701102D01*
X5059449Y3714567D02*
X5232677D01*
X5223150Y3454724D02*
X5331102D01*
X5203465Y3435039D02*
X5223150Y3454724D01*
X5238583Y3281496D02*
Y3320866D01*
X5199528Y3281496D02*
X5238583D01*
X5711024Y2531496D02*
Y2560708D01*
X5377362Y3598425D02*
X5422638Y3553149D01*
X5291417Y3598425D02*
X5377362D01*
X5289449Y3600393D02*
X5291417Y3598425D01*
X5370157Y3582677D02*
X5402953Y3549882D01*
X5283543Y3582677D02*
X5370157D01*
X5273701Y3592519D02*
X5283543Y3582677D01*
X5361614Y3566929D02*
X5383268Y3545275D01*
X5275669Y3566929D02*
X5361614D01*
X5257953Y3584646D02*
X5275669Y3566929D01*
X5353740Y3551181D02*
X5363583Y3541338D01*
X5267795Y3551181D02*
X5353740D01*
X5242205Y3576771D02*
X5267795Y3551181D01*
X5092913Y3407166D02*
X5093228Y3407480D01*
X5128346Y4698819D02*
X5147716D01*
X5161496Y4748031D02*
X5163464Y4750000D01*
X5049606Y4846457D02*
X5073228Y4870079D01*
X5134252Y4818898D02*
X5140158Y4824803D01*
X5073228Y4870079D02*
X5159528D01*
X5140158Y4824803D02*
X5216929D01*
X5110315Y5025591D02*
X5120158D01*
X5079134D02*
X5110315D01*
X5159528Y4852362D02*
Y4870079D01*
X4935630Y3983465D02*
X4982677D01*
X5157244Y3740157D02*
X5159213Y3738189D01*
X5057481Y3740157D02*
X5157244D01*
X5152283Y4374331D02*
X5171654D01*
X5140158Y4362205D02*
X5152283Y4374331D01*
X5140158Y4318898D02*
Y4362205D01*
X5754646Y4291338D02*
Y4295275D01*
X5783858Y2824803D02*
X5785827Y2822835D01*
X5307480Y2887795D02*
Y2935039D01*
X5285827Y2866142D02*
X5307480Y2887795D01*
X5270079Y2866142D02*
X5285827D01*
X5211339Y2960315D02*
Y2960630D01*
Y2960315D02*
X5236614Y2935039D01*
X5268110D01*
X5246457Y2858268D02*
Y2935039D01*
X5268110Y2938976D02*
Y2984252D01*
X5411811Y2885827D02*
X5413780D01*
X5415748Y2887795D01*
X5553543Y2814961D02*
Y2838583D01*
Y2799213D02*
Y2814961D01*
X5486614D02*
X5553543D01*
X5250394D02*
Y2830709D01*
X5238583Y2842519D02*
X5250394Y2830709D01*
X5195276Y2842519D02*
X5238583D01*
X5486614Y2838583D02*
X5518110D01*
X5195276Y2586614D02*
X5218898D01*
X5484646Y3872362D02*
Y3911417D01*
X5470866Y3811024D02*
Y3858583D01*
X4879528Y5074016D02*
X4954528Y5149016D01*
X4860630Y5074016D02*
X4879528D01*
X5195276Y2744094D02*
X5266142D01*
X5679527Y2803149D02*
X5691339Y2814961D01*
X5636221Y2803149D02*
X5679527D01*
X5585040Y2822834D02*
X5636221D01*
X5581102Y4244094D02*
Y4251968D01*
X5585039Y4240157D02*
X5636220D01*
X5581102Y4244094D02*
X5585039Y4240157D01*
X5581102Y4212598D02*
X5588976Y4220472D01*
X5636220D01*
X5327165Y2872047D02*
Y2935039D01*
X5346850Y2879921D02*
Y2935039D01*
X5530236Y4521653D02*
X5572913D01*
X5526299Y4482283D02*
X5568976D01*
X5526299Y3021653D02*
X5568976D01*
X5526299Y3064960D02*
X5568976D01*
X5530236Y3104330D02*
X5572913D01*
X5160158Y3651575D02*
X5202835D01*
X5206772D02*
X5242205Y3616142D01*
X5202835Y3651575D02*
X5203150Y3651890D01*
X5327165Y4578110D02*
Y4588583D01*
X5363583Y4625000D02*
Y4668307D01*
X5327166Y3160787D02*
Y3171260D01*
X5363583Y3207677D01*
Y3250984D01*
X5148032Y2724409D02*
X5195276D01*
Y2862204D02*
Y2877953D01*
X5195276Y4161417D02*
X5242520D01*
X5211339Y2992441D02*
Y3019685D01*
X5140158Y2988504D02*
X5171339Y3019685D01*
X4935630Y5149016D02*
X4954528D01*
X5159213Y3738189D02*
X5159528D01*
X5159213Y5155512D02*
X5159527D01*
X4935630Y3731693D02*
X4954528D01*
X5256614Y3019685D02*
X5257953Y3018346D01*
X5211339Y3019685D02*
X5256614D01*
X5209370Y3018346D02*
X5210709Y3019685D01*
X5297953D02*
Y3062992D01*
X5148032D02*
X5171339D01*
X5141811Y3106299D02*
X5148032D01*
X5171339D01*
X5234646D02*
X5256614D01*
X5257953Y3104960D01*
X5210709Y3106299D02*
X5234646D01*
X5209370Y3104960D02*
X5210709Y3106299D01*
X5234646Y3062992D02*
X5256614D01*
X5257953Y3061653D01*
X5209370D02*
X5210709Y3062992D01*
X5257953Y3104960D02*
Y3106299D01*
Y3061653D02*
Y3062992D01*
Y3018346D02*
Y3019685D01*
X5124410Y3130551D02*
X5142126Y3148267D01*
X4860630Y3656693D02*
X4935630Y3731693D01*
Y3725197D02*
Y3731693D01*
X5142126Y3148267D02*
X5159528D01*
X5319292Y2978976D02*
X5358347Y3018031D01*
X5287795Y2976378D02*
X5290394Y2978976D01*
X5319292D01*
X5277953Y2994094D02*
X5314725D01*
X5327166Y3006535D01*
Y3145354D01*
X5358347Y3018031D02*
X5362599D01*
X5238583Y3320866D02*
X5274016Y3356299D01*
X5222835Y3309055D02*
Y3332677D01*
X5266142Y3375984D01*
X5254331Y3307086D02*
X5283858Y3336614D01*
X5270079Y3234252D02*
Y3299212D01*
X5287795Y3316929D01*
X5285827Y3289370D02*
X5293701Y3297244D01*
X5338977Y3218504D02*
X5343898Y3223425D01*
Y3250984D01*
X5274016Y3356299D02*
X5317323D01*
X5266142Y3375984D02*
X5317323D01*
X5199528Y3379921D02*
X5216929D01*
X5252362Y3415354D01*
X5317323D01*
X5199528Y3336614D02*
X5258583Y3395669D01*
X5317323D01*
X5283858Y3336614D02*
X5317323D01*
X5287795Y3316929D02*
X5317323D01*
X5216929Y3407480D02*
X5244488Y3435039D01*
X5160158Y3608267D02*
X5164094Y3612204D01*
X5522047Y3218503D02*
Y3250000D01*
X5521063Y3250984D02*
X5522047Y3250000D01*
X5230709Y2494094D02*
X5268110D01*
X5750709Y2726693D02*
Y2730315D01*
X5706772Y2734252D02*
X5710709Y2730315D01*
X5691339Y2734252D02*
X5706772D01*
X5681496Y2744094D02*
X5691339Y2734252D01*
X5636221Y2744094D02*
X5681496D01*
X5636221Y2763779D02*
X5681496D01*
X5691339Y2773622D01*
X5710709D01*
X5636221Y2862204D02*
Y2919291D01*
X5687717Y2876299D02*
X5711024D01*
X5683465Y2872047D02*
X5687717Y2876299D01*
X5683465Y2848425D02*
Y2872047D01*
X5677559Y2842519D02*
X5683465Y2848425D01*
X5636221Y2842519D02*
X5677559D01*
X5385905Y2505905D02*
Y2512795D01*
X5120472Y2556771D02*
X5143780D01*
X5153937Y2566929D01*
X5195276D01*
X5144095Y2596456D02*
X5153937Y2586614D01*
X5195276D01*
X5504016Y2512795D02*
X5504016Y2512795D01*
X5244488Y3435039D02*
X5331102D01*
X5159528Y3379921D02*
X5163465Y3383858D01*
X5616850Y3061023D02*
Y3104330D01*
Y3017716D02*
Y3061023D01*
X5443622Y3017716D02*
X5490236D01*
X5443622Y3061023D02*
X5490236D01*
X5466929Y3104330D02*
X5490236D01*
X5443622D02*
X5466929D01*
X5587008Y3277559D02*
X5600787D01*
X5317323Y3277559D02*
X5317323Y3277559D01*
X5293701Y3297244D02*
X5317323D01*
X5366221Y2942913D02*
Y2976693D01*
X5405591Y2897952D02*
X5415748Y2887795D01*
X5405591Y2897952D02*
Y2934724D01*
X5405906Y2935039D01*
X5445276D02*
Y3020000D01*
X5287795Y2935039D02*
Y2976378D01*
X5636221Y2606299D02*
X5705433D01*
X5711024Y2600708D01*
X5636221Y2586614D02*
X5677559D01*
X5683465Y2580708D01*
X5710709Y2561023D02*
X5711024Y2560708D01*
X5484646Y2935039D02*
Y2972441D01*
X5110315Y3608267D02*
X5110315Y3608267D01*
X5268110Y2984252D02*
X5277953Y2994094D01*
X5270079Y3234252D02*
X5270079Y3234251D01*
X5254331Y3198819D02*
Y3307086D01*
X5523701Y2886141D02*
Y2942913D01*
X5504016Y2931102D02*
Y2979646D01*
X5616536Y2938976D02*
Y3017401D01*
X5616850Y3017716D01*
X5356378Y2986220D02*
Y2986535D01*
X5366221Y2976693D01*
X5383622Y2990157D02*
X5387559Y2986220D01*
X5387874D01*
X5385905Y2942913D02*
Y2987874D01*
X5087008Y2556771D02*
X5120472D01*
Y2556771D02*
Y2556771D01*
X5363583Y3520669D02*
Y3541338D01*
X5383268Y3520669D02*
Y3545275D01*
X5402953Y3520669D02*
Y3549882D01*
X5422638Y3520669D02*
Y3553149D01*
X5160158Y3608267D02*
X5198898D01*
X5203150Y3611890D02*
X5226457Y3588582D01*
X5230394Y3651575D02*
X5257953Y3624015D01*
X5246142Y3659449D02*
X5273701Y3631890D01*
X5261890Y3667323D02*
X5289449Y3639764D01*
X5254016Y3474409D02*
X5317323D01*
X5206772Y3521653D02*
X5254016Y3474409D01*
X5163780Y3521653D02*
X5206772D01*
X5160158Y3564960D02*
X5206772D01*
X5274685Y3520669D02*
X5343898D01*
X5226457Y3568897D02*
X5274685Y3520669D01*
X5226457Y3568897D02*
Y3588582D01*
X5242205Y3576771D02*
Y3616142D01*
X5257953Y3584646D02*
Y3624015D01*
X5273701Y3592519D02*
Y3631890D01*
X5289449Y3600393D02*
Y3639764D01*
X5383268Y3616142D02*
X5442323Y3557086D01*
X5360496Y3616142D02*
X5383268D01*
X5336693Y3639945D02*
X5360496Y3616142D01*
X5442323Y3520669D02*
Y3557086D01*
X5380000Y3643031D02*
X5462008Y3561023D01*
X5380000Y3643031D02*
Y3698819D01*
X5462008Y3520669D02*
Y3561023D01*
X5379819Y3698819D02*
X5380000D01*
X5336693Y3741945D02*
X5379819Y3698819D01*
X5501378Y3520669D02*
Y3569567D01*
X5521063Y3520669D02*
Y3572834D01*
X5159528Y3281496D02*
X5160158Y3280808D01*
X5199213Y3238189D01*
X5199213Y3690945D02*
X5230394D01*
X5199213Y3690945D02*
X5199213Y3690945D01*
X5230394Y3651575D02*
Y3690945D01*
X5081102Y3690945D02*
X5159213D01*
X5080788Y3691260D02*
X5081102Y3690945D01*
X5210709Y3019685D02*
X5211024Y3019370D01*
X5211339Y3062992D02*
X5234646D01*
X5210709D02*
X5211339D01*
X5219213Y4374331D02*
X5242520Y4397638D01*
X5171654Y4374331D02*
X5219213D01*
X5214961Y4352362D02*
X5268110D01*
X5196929Y4334331D02*
X5214961Y4352362D01*
X5171654Y4334331D02*
X5196929D01*
X5210709Y4480315D02*
X5211339D01*
X5234646D01*
X5210709Y4437008D02*
X5211024Y4436693D01*
X5211339Y4421575D02*
Y4437008D01*
X5261890Y5084645D02*
Y5155512D01*
X5199213D02*
X5261890D01*
X5246142Y5076772D02*
Y5131890D01*
X5080787Y5108583D02*
X5081102Y5108268D01*
X5159213D01*
X5230394Y5068898D02*
Y5108268D01*
X5199213Y5108268D02*
X5199213Y5108268D01*
X5230394D01*
X5096535Y4982283D02*
X5120158D01*
X5100472Y5025590D02*
X5110315D01*
X5135905Y4608268D02*
X5159843D01*
X5160158Y4698131D02*
X5199213Y4655512D01*
X5462008Y4937992D02*
Y4978346D01*
X5442323Y4937992D02*
Y4974409D01*
X5257953Y5001968D02*
Y5041338D01*
Y5001968D02*
X5277638Y4982283D01*
X5363583D01*
X5242205Y4994094D02*
Y5033465D01*
Y4994094D02*
X5269764Y4966535D01*
X5355709D01*
X5226457Y4986220D02*
Y5005905D01*
Y4986220D02*
X5274685Y4937992D01*
X5343898D01*
X5160158Y4982283D02*
X5206772D01*
X5163779Y4938976D02*
X5206772D01*
X5254016Y4891732D01*
X5317323D01*
X5261890Y5084645D02*
X5289449Y5057087D01*
X5206772Y5068898D02*
X5242205Y5033465D01*
X5246142Y5076772D02*
X5273701Y5049212D01*
X5160158Y5068898D02*
X5206772D01*
X5230394D02*
X5257953Y5041338D01*
X5203150Y5029212D02*
X5226457Y5005905D01*
X5160158Y5025591D02*
X5198898D01*
X5422638Y4937992D02*
Y4970472D01*
X5402953Y4937992D02*
Y4967205D01*
X5383268Y4937992D02*
Y4962598D01*
X5363583Y4982283D02*
X5383268Y4962598D01*
X5363583Y4937992D02*
Y4958661D01*
X5355709Y4966535D02*
X5363583Y4958661D01*
X5160158Y5068897D02*
X5206772D01*
X5120472Y3974094D02*
Y3974094D01*
X5087008D02*
X5120472D01*
X5366043Y4721949D02*
X5447244Y4803150D01*
X5383268Y4668307D02*
Y4734252D01*
X5385905Y4360236D02*
Y4405197D01*
X5387559Y4403543D02*
X5387874D01*
X5383622Y4407480D02*
X5387559Y4403543D01*
X5356378Y4403858D02*
X5366220Y4394016D01*
X5356378Y4403543D02*
Y4403858D01*
X5616535Y4434724D02*
X5616850Y4435039D01*
X5504016Y4348425D02*
Y4391417D01*
X5523701Y4303464D02*
Y4360236D01*
X5207087Y4612520D02*
X5250709D01*
X5254331Y4616142D01*
Y4724409D01*
X5270079Y4651575D02*
X5270079Y4651574D01*
X5285827Y4630236D02*
X5303858Y4612205D01*
X5285827Y4630236D02*
Y4706693D01*
X5303858Y4608268D02*
Y4612205D01*
X5268110Y4401575D02*
X5277953Y4411417D01*
X5110315Y5025590D02*
X5110315Y5025591D01*
X5160158Y4852362D02*
Y4895669D01*
X5362598Y3850708D02*
X5364567Y3848740D01*
X5366535Y3858582D02*
Y3923228D01*
X5710709Y3978346D02*
X5711024Y3978031D01*
X5687402Y3978346D02*
X5710709D01*
X5705433Y4023622D02*
X5711024Y4018031D01*
X5636220Y4023622D02*
X5705433D01*
X5287795Y4352362D02*
Y4393701D01*
X5405591Y4352047D02*
X5405905Y4352362D01*
X5365591Y4478346D02*
X5403622D01*
X5366220Y4360236D02*
Y4394016D01*
X5203465Y4608268D02*
X5246772D01*
X5293701Y4714567D02*
X5317323D01*
X5305512Y4694882D02*
X5317323D01*
X5317323Y4694882D01*
X5403622Y4564645D02*
X5403937Y4564961D01*
X5443622Y4521653D02*
X5466929D01*
X5490236D01*
X5443622Y4478346D02*
X5490236D01*
X5616850Y4435039D02*
Y4478346D01*
Y4521653D01*
X5403622Y4435039D02*
Y4478346D01*
Y4521653D01*
X5159528Y4852362D02*
X5160158D01*
X5159527Y4797244D02*
X5163464Y4801181D01*
X5244488Y4852362D02*
X5331102D01*
X5560433Y4921260D02*
Y4937992D01*
X5447244Y4803150D02*
X5452165D01*
X5481693Y4773622D01*
X5587008D01*
Y4753937D02*
X5639173D01*
X5504016Y3930118D02*
X5504016Y3930118D01*
X5153937Y4003937D02*
X5195276D01*
X5144095Y4013779D02*
X5153937Y4003937D01*
X5120472Y4014094D02*
X5120787Y4013779D01*
X5143779Y3974094D02*
X5153937Y3984252D01*
X5120472Y3974094D02*
X5143779D01*
X5386220Y3870394D02*
X5407874Y3848740D01*
X5386220Y3870394D02*
Y3923228D01*
X5385905D02*
Y3930118D01*
X5321260Y3848740D02*
X5346850Y3874331D01*
Y3923228D01*
X5636220Y4259842D02*
X5677559D01*
X5683465Y4265748D01*
Y4289370D01*
X5687717Y4293622D01*
X5711024D01*
X5691339Y4190945D02*
X5710709D01*
X5681496Y4181102D02*
X5691339Y4190945D01*
X5636220Y4181102D02*
X5681496D01*
X5636220Y4161417D02*
X5681496D01*
X5691339Y4151575D01*
X5706772D01*
X5710709Y4147638D01*
X5750709Y4144016D02*
Y4147638D01*
X5730709Y4124016D02*
X5750709Y4144016D01*
X5730709Y4108268D02*
Y4124016D01*
X5160158Y5068898D02*
X5160158Y5068897D01*
X5160158Y5025591D02*
X5164094Y5029527D01*
X5216929Y4824803D02*
X5244488Y4852362D01*
X5287795Y4734252D02*
X5317323D01*
X5283858Y4753937D02*
X5317323D01*
X5258583Y4812992D02*
X5317323D01*
X5199528Y4753937D02*
X5258583Y4812992D01*
X5252362Y4832677D02*
X5317323D01*
X5216929Y4797244D02*
X5252362Y4832677D01*
X5199528Y4797244D02*
X5216929D01*
X5266142Y4793307D02*
X5317323D01*
X5274016Y4773622D02*
X5317323D01*
X5268110Y4352362D02*
Y4401575D01*
X5343898Y4640748D02*
Y4668307D01*
X5338976Y4635827D02*
X5343898Y4640748D01*
X5305512Y4694882D02*
X5309449Y4690945D01*
X5285827Y4706693D02*
X5293701Y4714567D01*
X5270079Y4716535D02*
X5287795Y4734252D01*
X5270079Y4651575D02*
Y4716535D01*
X5254331Y4724409D02*
X5283858Y4753937D01*
X5549606Y4900591D02*
Y4910433D01*
X5560433Y4921260D01*
X5452165Y4803150D02*
X5549606Y4900591D01*
X5199528Y4698819D02*
X5226772D01*
X5222835Y4750000D02*
X5266142Y4793307D01*
X5222835Y4726378D02*
Y4750000D01*
X5226772Y4698819D02*
X5238583Y4710630D01*
Y4738189D02*
X5274016Y4773622D01*
X5238583Y4710630D02*
Y4738189D01*
X5358346Y4435354D02*
X5362598D01*
Y4475354D02*
X5365591Y4478346D01*
X5317323Y4572520D02*
X5327165Y4562677D01*
X5317638Y4568583D02*
X5327165Y4578110D01*
Y4423858D02*
Y4562677D01*
X5314725Y4411417D02*
X5327165Y4423858D01*
X5277953Y4411417D02*
X5314725D01*
X5290394Y4396299D02*
X5319291D01*
X5287795Y4393701D02*
X5290394Y4396299D01*
X5319291D02*
X5358346Y4435354D01*
X5142126Y4565590D02*
X5159528D01*
X4935630Y5142520D02*
Y5149016D01*
X4860630Y5074016D02*
X4935630Y5149016D01*
X5124409Y4547874D02*
X5142126Y4565590D01*
X5108662Y4581024D02*
X5135905Y4608268D01*
X5270079Y4566929D02*
Y4651574D01*
X5199528Y4566929D02*
X5270079D01*
X5257953Y4435669D02*
Y4437008D01*
Y4478976D02*
Y4480315D01*
Y4522283D02*
Y4523622D01*
X5209370Y4478976D02*
X5210709Y4480315D01*
X5256614D02*
X5257953Y4478976D01*
X5234646Y4480315D02*
X5256614D01*
X5209370Y4522283D02*
X5210709Y4523622D01*
X5234646D01*
X5256614D02*
X5257953Y4522283D01*
X5234646Y4523622D02*
X5256614D01*
X5148032D02*
X5171339D01*
X5141811D02*
X5148032D01*
X5297953D02*
Y4539685D01*
Y4480315D02*
Y4523622D01*
Y4437008D02*
Y4480315D01*
X5287795Y4549842D02*
X5297953Y4539685D01*
X5209370Y4435669D02*
X5210709Y4437008D01*
X5211339D02*
X5256614D01*
X5257953Y4435669D01*
X5636221Y2645669D02*
X5679528D01*
X5695276Y2629921D01*
X5636221Y2665354D02*
X5683465D01*
X5703150Y2645669D01*
X5750709Y2773622D02*
Y2779212D01*
X5738583Y2791338D02*
X5750709Y2779212D01*
X5738583Y2791338D02*
Y2809055D01*
X5730709Y2816929D02*
X5738583Y2809055D01*
X5718898Y2679133D02*
X5734646Y2694881D01*
Y2710630D01*
X5750709Y2726693D01*
X5356693Y4618110D02*
X5364567Y4610236D01*
X5327165Y4588583D02*
X5356693Y4618110D01*
X5363583Y4625000D01*
X5443937Y4568898D02*
X5469213Y4594173D01*
X5481693Y4606653D01*
Y4668307D01*
X5510236Y3848740D02*
X5511890Y3850394D01*
X5587008Y3454724D02*
X5587008Y3454724D01*
X5581103Y2606299D02*
X5636221D01*
X5581102Y2606299D02*
X5581103Y2606299D01*
X5581102Y2606299D02*
Y2771653D01*
X5553543Y2799213D02*
X5581102Y2771653D01*
X5553543Y2838583D02*
X5577165Y2862205D01*
X5636220D01*
X5636221Y2862204D01*
X5581103Y2440945D02*
Y2606299D01*
X5569291Y2429134D02*
X5581103Y2440945D01*
X5512519Y2429134D02*
X5569291D01*
X5510236Y2431417D02*
X5512519Y2429134D01*
X5195276Y2566929D02*
X5380315D01*
X5380315Y2566929D01*
X5504016Y2433386D02*
Y2512795D01*
X5357323Y3152204D02*
Y3171890D01*
X5362913Y3151575D02*
X5403937D01*
X5362913D02*
Y3152204D01*
X5362599Y3058031D02*
X5365591Y3061023D01*
X5481693Y3356299D02*
X5587008D01*
X5452165Y3385827D02*
X5481693Y3356299D01*
X5447244Y3385827D02*
X5452165D01*
X5403622Y3061023D02*
Y3104330D01*
Y3017716D02*
Y3061023D01*
Y3147323D02*
X5403937Y3147637D01*
X5365591Y3061023D02*
X5403622D01*
X5383268Y3197834D02*
Y3250984D01*
X5357323Y3171890D02*
X5383268Y3197834D01*
Y3250984D02*
Y3316929D01*
X5366043Y3304626D02*
X5447244Y3385827D01*
X5560433Y3494094D02*
Y3520669D01*
X5540748D02*
Y3575787D01*
X5560433Y3520669D02*
Y3579724D01*
X5470866Y3858583D02*
X5484646Y3872362D01*
X5470866Y3811024D02*
X5473150Y3808740D01*
X5500394D01*
X5452165Y3385827D02*
X5560433Y3494094D01*
X5171339Y2920945D02*
Y2960630D01*
X5144095Y2893701D02*
X5171339Y2920945D01*
X5501378Y3170275D02*
Y3250984D01*
X5443937Y3151575D02*
Y3157480D01*
X5451181D01*
X5481693Y3187992D01*
Y3250984D01*
X5346850Y4297244D02*
Y4352362D01*
X5327165Y4293307D02*
Y4352362D01*
X5521063Y4630906D02*
Y4668307D01*
X5443622Y4435039D02*
X5445276D01*
X5490236D01*
X5445276Y4352362D02*
Y4435039D01*
X5195276Y2645669D02*
X5270079D01*
X5195276Y2606299D02*
X5258268D01*
X5274016Y2590551D01*
X5195276Y2625984D02*
X5281890D01*
X5317323Y2590551D01*
X5663779Y2515748D02*
X5671654Y2507874D01*
X5120158Y4938976D02*
Y4940945D01*
X5092913Y4663386D02*
X5128346Y4698819D01*
X5094882Y4895669D02*
X5120158D01*
X5092913Y4897638D02*
X5094882Y4895669D01*
X5132284Y4653543D02*
X5159528D01*
X5094567Y5043307D02*
X5120158Y5068898D01*
X5069291Y5043307D02*
X5094567D01*
X5059134Y5068583D02*
X5080787D01*
X5057480Y5066929D02*
X5059134Y5068583D01*
X5130315Y4726378D02*
X5222835D01*
X5077166Y4673229D02*
X5130315Y4726378D01*
X5061417Y4681102D02*
X5128346Y4748031D01*
X5161496D01*
X5092913Y4940945D02*
X5120158D01*
X5100787Y4818898D02*
X5134252D01*
X5077165Y4771654D02*
X5128346D01*
X5037795Y4732283D02*
X5077165Y4771654D01*
X5029921Y4724409D02*
X5037795Y4732283D01*
X5014173Y4468504D02*
Y4740157D01*
X5049606Y4775591D01*
X5159528Y3435039D02*
Y3477716D01*
X5160158Y3478346D01*
X5093228Y3407480D02*
X5216929D01*
X5094567Y3625984D02*
X5120158Y3651575D01*
X5059764Y3691260D02*
X5080788D01*
X5134252Y3435039D02*
X5159528D01*
X5132283Y3433071D02*
X5134252Y3435039D01*
X5092914Y3236220D02*
X5138189Y3281496D01*
X5159528D01*
X5077166Y3244094D02*
X5142126Y3309055D01*
X5222835D01*
X5159528Y3332677D02*
X5163465D01*
X5061417Y3251969D02*
X5146063Y3336614D01*
X5159528D01*
X5029921Y3279528D02*
X5049606Y3299213D01*
Y3330709D02*
X5053543D01*
X5128346Y3350394D02*
Y3354331D01*
X5053543Y3330709D02*
X5077165Y3307087D01*
X5045669Y3259842D02*
X5077165Y3291338D01*
Y3307087D01*
X5167402Y4476378D02*
X5171339Y4480315D01*
X5148032Y4476378D02*
X5167402D01*
X5167402Y4440945D02*
X5171339Y4437008D01*
X5148032Y4440945D02*
X5167402D01*
X5195276Y4405512D02*
X5211339Y4421575D01*
X5195276Y4405512D02*
X5195276Y4405512D01*
X5179528Y4405512D02*
X5195276D01*
X5045669Y4704724D02*
X5081102Y4740157D01*
X4998425Y4759842D02*
X5035827Y4797244D01*
X5159527D01*
X4982677Y4767717D02*
X5033858Y4818898D01*
X5100787D01*
X5486614Y4578740D02*
Y4586614D01*
X5501378Y4601378D01*
Y4668307D01*
X5740551Y4769685D02*
Y4838583D01*
X5608661Y4891732D02*
X5616535Y4899606D01*
X5587008Y4891732D02*
X5608661D01*
X5587008Y4872047D02*
X5610630D01*
X5632283Y4893701D01*
X5587008Y4852362D02*
X5614567D01*
X5648032Y4885827D01*
X5587008Y4832677D02*
X5618504D01*
X5667717Y4881890D01*
X5587008Y4812992D02*
X5622441D01*
X5587008Y4793307D02*
X5626378D01*
X5671654Y4838583D01*
X5740551D01*
X5587008Y4773622D02*
X5630315D01*
X5667717Y4811024D01*
X5718898Y4535433D02*
X5793701D01*
X5619488Y4714567D02*
X5620472Y4713583D01*
X5616535Y4709645D02*
X5620472Y4713583D01*
X5587008Y4714567D02*
X5619488D01*
X5521063Y4630906D02*
X5522047Y4629921D01*
X5560433Y4662402D02*
Y4668307D01*
Y4662402D02*
X5569291Y4653543D01*
X5624409Y4677165D02*
X5640158Y4692913D01*
X5569291Y4653543D02*
X5573228D01*
X5587008Y4679134D02*
X5600787Y4665354D01*
X5587008Y4679134D02*
Y4694882D01*
X5522047Y4629921D02*
X5525984Y4633858D01*
X5624409Y4657480D02*
Y4677165D01*
X5540748Y4650591D02*
X5600788Y4590551D01*
X5540748Y4650591D02*
Y4668307D01*
X5616535Y4709645D02*
Y4712598D01*
X5587008Y4734252D02*
X5626378D01*
X5640158Y4720472D01*
Y4692913D02*
Y4720472D01*
X5777953Y4960630D02*
Y4988189D01*
X5616850Y4435039D02*
X5657874D01*
X5667717Y4444882D01*
Y4484252D01*
X5718898Y4535433D01*
X5523701Y4303464D02*
X5524016Y4303150D01*
X5403622Y4521653D02*
Y4564645D01*
X5357323Y4569527D02*
X5403307D01*
X5549606Y4575118D02*
X5557795Y4566929D01*
X5549606Y4575118D02*
Y4582677D01*
X5529921Y4602362D02*
X5549606Y4582677D01*
X5608661Y4529842D02*
X5616850Y4521653D01*
X5608661Y4529842D02*
Y4539370D01*
X5592913Y4555118D02*
X5608661Y4539370D01*
X5620472Y4618110D02*
Y4618110D01*
X5600787Y4637795D02*
Y4665354D01*
Y4637795D02*
X5620472Y4618110D01*
X5616535Y4899606D02*
Y5019685D01*
X5632283Y4893701D02*
Y5003937D01*
X5648032Y4885827D02*
Y4988189D01*
X5777953D01*
Y4968504D02*
Y4988189D01*
X5667717Y4881890D02*
Y4968504D01*
X5722835D01*
X5730709Y4960630D01*
X5880315Y4900945D02*
Y4920630D01*
X5695276Y4937008D02*
X5711339Y4920945D01*
X5730709D01*
X5622441Y4812992D02*
X5687402Y4877953D01*
X5750394D02*
X5777953D01*
X5587008Y5051181D02*
X5628032D01*
X5587008Y4911417D02*
Y5051181D01*
X5667717Y4811024D02*
X5695276D01*
X5777953Y4889764D02*
X5869134D01*
X5777953Y4877953D02*
Y4889764D01*
Y4920630D01*
X5869134Y4889764D02*
X5880315Y4900945D01*
X5770079Y4889764D02*
X5777953D01*
X5817323Y4811024D02*
X5868504D01*
X5750709Y4190945D02*
Y4196535D01*
X5781890Y4106299D02*
X5789764Y4098425D01*
X5636220Y4062992D02*
X5675591D01*
X5636220Y4082677D02*
X5679528D01*
X5695276Y4066929D01*
X5675591Y4062992D02*
X5687402Y4051181D01*
X5829134Y4960630D02*
Y4988189D01*
X5781890Y4244094D02*
X5840630D01*
X5781890Y4106299D02*
Y4244094D01*
X5840630D02*
Y4295275D01*
Y4220787D02*
Y4244094D01*
X5762205D02*
X5774016D01*
X5671654Y4397638D02*
X5730890D01*
Y4338764D02*
Y4397638D01*
X5754646Y4295275D02*
Y4315008D01*
X5730890Y4338764D02*
X5754646Y4315008D01*
Y4291338D02*
X5762205D01*
Y4244094D02*
Y4291338D01*
X5868504Y4811024D02*
X5880315Y4822834D01*
Y4854331D01*
X5501378Y4937992D02*
Y4993110D01*
X5481693Y4937992D02*
Y4985236D01*
X5587008Y3336614D02*
X5639173D01*
X5740551Y3352362D02*
Y3421260D01*
X5608662Y3474409D02*
X5616535Y3482283D01*
X5587008Y3474409D02*
X5608662D01*
X5587008Y3454724D02*
X5610630D01*
X5632284Y3476378D01*
X5587008Y3435039D02*
X5614567D01*
X5648032Y3468504D01*
X5587008Y3415354D02*
X5618504D01*
X5667717Y3464567D01*
X5587008Y3395669D02*
X5622441D01*
X5587008Y3375984D02*
X5626378D01*
X5671654Y3421260D01*
X5740551D01*
X5587008Y3356299D02*
X5630315D01*
X5587008Y3316929D02*
X5626378D01*
X5777953Y3543307D02*
Y3570866D01*
X5616535Y3482283D02*
Y3602362D01*
X5632284Y3476378D02*
Y3586614D01*
X5648032Y3468504D02*
Y3570866D01*
X5777953D01*
Y3551181D02*
Y3570866D01*
X5667717Y3464567D02*
Y3551181D01*
X5722835D01*
X5730709Y3543307D01*
X5880315Y3483622D02*
Y3503307D01*
X5695276Y3519685D02*
X5711339Y3503622D01*
X5730709D01*
X5750394Y3460630D02*
X5777953D01*
Y3472441D02*
X5869134D01*
X5777953Y3460630D02*
Y3472441D01*
Y3503307D01*
X5869134Y3472441D02*
X5880315Y3483622D01*
X5770079Y3472441D02*
X5777953D01*
X5587008Y3297244D02*
X5619488D01*
X5671654Y3444882D02*
X5687402D01*
X5622441Y3395669D02*
X5671654Y3444882D01*
X5553543Y3633543D02*
X5624095D01*
Y3629921D02*
X5628032Y3633858D01*
X5587008Y3494094D02*
Y3629921D01*
X5529921Y3610236D02*
X5529921D01*
X5529921D02*
X5560433Y3579724D01*
X5626378Y3316929D02*
X5640158Y3303149D01*
X5403622Y3129921D02*
X5502047D01*
X5525669Y3153543D01*
X5403622Y3104330D02*
Y3129921D01*
Y3147323D01*
X5754646Y2875984D02*
Y2921260D01*
X5754646Y2875984D02*
X5799292D01*
X5781890Y2679133D02*
Y2824803D01*
X5783858Y2824803D02*
Y2830709D01*
X5616536Y2938976D02*
X5634252Y2921260D01*
X5675591D02*
X5714646D01*
X5636221Y2919291D02*
X5638189Y2921260D01*
X5634252D02*
X5638189D01*
X5675591D01*
X5872441D02*
X5880315Y2929134D01*
X5864567Y2921260D02*
X5872441D01*
X5801575Y2873701D02*
X5833071D01*
Y3003937D01*
X5864567Y2885827D02*
X5900000Y2921260D01*
X5864567Y2850394D02*
X5915748Y2901575D01*
X5864567Y2814961D02*
X5931496Y2881890D01*
X5703150Y2645669D02*
X5900000D01*
X5777953Y2830709D02*
X5797638D01*
Y2875984D01*
X5939370Y2417716D02*
Y2515748D01*
X5683465Y2543307D02*
Y2580708D01*
X5683465Y2580708D01*
Y2561023D02*
Y2580708D01*
Y2561023D02*
X5710709D01*
X5474803Y2566929D02*
X5478740D01*
X5504331Y2541338D01*
Y2494094D02*
Y2541338D01*
X5900000Y2921260D02*
Y3035433D01*
X5868504Y3027559D02*
Y3039370D01*
Y3027559D02*
X5880315Y3015748D01*
Y2929134D02*
Y3015748D01*
X5124409Y3358268D02*
X5128346Y3354331D01*
X5502362Y3806772D02*
X5508268D01*
X5502362Y3800866D02*
X5508268Y3806772D01*
X5199213Y3738189D02*
X5236614D01*
X5261890Y3712913D01*
Y3667323D02*
Y3712913D01*
X5128346Y4015748D02*
Y4062992D01*
X5120787Y4013779D02*
X5144095D01*
X5087008Y4014094D02*
X5120472D01*
X5309449Y4653543D02*
Y4690945D01*
D29*
X5795276Y5122047D02*
X6069291D01*
X5712598Y5204724D02*
X5795276Y5122047D01*
X5529921Y5204724D02*
X5712598D01*
X6069291Y3179134D02*
Y5122047D01*
X5990945Y3122047D02*
X6012205D01*
X6069291Y3179134D01*
X6007874Y3117716D02*
X6012205Y3122047D01*
X5707268Y3003937D02*
Y3122047D01*
D30*
X5919993Y4244094D02*
Y4358268D01*
X5856693Y4023622D02*
X5919993Y4086923D01*
Y4244094D01*
X5856693Y3909449D02*
Y4023622D01*
D31*
X5931496Y3122047D02*
Y3562992D01*
X5868504Y3625984D02*
X5931496Y3562992D01*
X5695276Y3625984D02*
X5868504D01*
D32*
X5782283Y3117716D02*
X6007874D01*
D33*
X5939370Y2417716D02*
X6011811D01*
Y2332283D02*
Y2417716D01*
X4926772Y3656693D02*
X5049606Y3779528D01*
X5330606Y3748031D02*
X5336693Y3741945D01*
X5049606Y3779528D02*
X5242520D01*
X5274016Y3748031D01*
X5330606D01*
D34*
X5104724Y2409449D02*
D03*
D35*
X4598819Y2190945D02*
D03*
D36*
X5793701Y3039370D02*
D03*
D37*
X5809449Y3023622D02*
D03*
D38*
X5813386Y4625984D02*
D03*
D39*
X4941339Y2297244D02*
D03*
D40*
X4762205Y3356299D02*
D03*
D41*
X4760236Y2883858D02*
D03*
D42*
X4789764Y2411417D02*
D03*
D43*
X4758268Y3828740D02*
D03*
D44*
X4762205Y4297244D02*
D03*
D45*
X4758268Y4765748D02*
D03*
D46*
X5683465Y4610236D02*
D03*
D47*
X5732677Y4877953D02*
D03*
Y3460630D02*
D03*
D48*
X5858661Y4529527D02*
D03*
D49*
X5740551Y4803150D02*
D03*
X5740551Y3385827D02*
D03*
D50*
X5986220Y4870079D02*
D03*
D51*
X3639764Y2389764D02*
D03*
D52*
X3935039D02*
D03*
D53*
X6011811Y4472441D02*
D03*
Y4572441D02*
D03*
Y4072441D02*
D03*
Y4272441D02*
D03*
Y4172441D02*
D03*
Y3972441D02*
D03*
Y4972441D02*
D03*
Y5172441D02*
D03*
Y5072441D02*
D03*
Y4672441D02*
D03*
Y4372441D02*
D03*
Y3615748D02*
D03*
Y3715748D02*
D03*
Y2715748D02*
D03*
Y2615748D02*
D03*
Y2515748D02*
D03*
Y2815748D02*
D03*
Y2915748D02*
D03*
Y3015748D02*
D03*
Y3115748D02*
D03*
Y3215748D02*
D03*
Y3315748D02*
D03*
Y3515748D02*
D03*
Y3415748D02*
D03*
X5911417Y5314961D02*
D03*
X6011417D02*
D03*
X5011417D02*
D03*
X4911417D02*
D03*
X4811417D02*
D03*
X5111417D02*
D03*
X5211417D02*
D03*
X5311417D02*
D03*
X5411417D02*
D03*
X5511417D02*
D03*
X5611417D02*
D03*
X5811417D02*
D03*
X5711417D02*
D03*
D54*
X6011811Y3872441D02*
D03*
Y2415748D02*
D03*
D55*
Y4872441D02*
D03*
Y4772441D02*
D03*
D56*
X4711417Y5314961D02*
D03*
D57*
X5972441Y2177165D02*
D03*
X5893701D02*
D03*
X5814961D02*
D03*
X5736220D02*
D03*
X5124409Y2212598D02*
D03*
X5203150D02*
D03*
X5281890D02*
D03*
X5360630D02*
D03*
D58*
X5657480Y2177165D02*
D03*
X5439370Y2212598D02*
D03*
D59*
X4911811Y2200787D02*
D03*
D60*
X4714961D02*
D03*
D61*
X4657874Y3545276D02*
D03*
X4457087Y3543307D02*
D03*
X4657874Y3076771D02*
D03*
X4457087Y3074803D02*
D03*
X4657874Y2604331D02*
D03*
X4457087Y2602362D02*
D03*
X4657874Y4017716D02*
D03*
X4457087Y4015748D02*
D03*
X4657874Y4486220D02*
D03*
X4457087Y4484252D02*
D03*
X4657874Y4958661D02*
D03*
X4457087Y4956693D02*
D03*
D62*
X3625984Y5775591D02*
D03*
X5976378Y5771654D02*
D03*
X4799213Y1610236D02*
D03*
D63*
X5555118Y4519685D02*
D03*
Y4480315D02*
D03*
Y3102362D02*
D03*
Y3027559D02*
D03*
Y3062992D02*
D03*
X5464567Y3059055D02*
D03*
Y4476378D02*
D03*
X5452756Y3602362D02*
D03*
X5696850Y3665354D02*
D03*
X4244095Y5409449D02*
D03*
X5848819Y4173228D02*
D03*
X5062992Y4413386D02*
D03*
X5090551Y2901575D02*
D03*
X5055827Y2976378D02*
D03*
X5380315Y2568897D02*
D03*
X5258268Y4271654D02*
D03*
X5128346Y4771654D02*
D03*
X5455118Y2799213D02*
D03*
X5419685Y2814961D02*
D03*
X5537795Y4814961D02*
D03*
X5451181Y4885827D02*
D03*
X5533858Y3468504D02*
D03*
X5813386Y2535433D02*
D03*
X5088976Y3559055D02*
D03*
Y3519685D02*
D03*
X5120472Y3716535D02*
D03*
X5533858Y3850394D02*
D03*
X5356693Y4078740D02*
D03*
X5313386Y3980315D02*
D03*
Y4007874D02*
D03*
X5600787Y4318898D02*
D03*
X5518110Y4303150D02*
D03*
X5553543D02*
D03*
X5581102Y4212598D02*
D03*
Y4248031D02*
D03*
X5451181Y4228346D02*
D03*
X5427559Y4251968D02*
D03*
X5470866Y4307087D02*
D03*
X5403937D02*
D03*
X5616535Y3188976D02*
D03*
X5659842Y3220472D02*
D03*
X5624409Y3224409D02*
D03*
X5537795Y3196850D02*
D03*
X5577165Y3255905D02*
D03*
X5864567Y3196850D02*
D03*
X5900000Y3220472D02*
D03*
X5616535Y3157480D02*
D03*
X5451181Y4149606D02*
D03*
X5431496Y4169291D02*
D03*
X5411811Y4188976D02*
D03*
X5592913Y3937008D02*
D03*
X5703150Y3893701D02*
D03*
X5545669Y4098425D02*
D03*
X5486614Y4114173D02*
D03*
X5506299Y4090551D02*
D03*
X5525984Y4066929D02*
D03*
X5191339Y3952756D02*
D03*
X5246457D02*
D03*
X5277953Y3135197D02*
D03*
X5297638Y3084646D02*
D03*
Y3236220D02*
D03*
X5321260Y3255905D02*
D03*
X5427559Y5043307D02*
D03*
X5600787Y5118110D02*
D03*
X5695276Y3625984D02*
D03*
X5136221Y4062992D02*
D03*
X5793701Y3039370D02*
D03*
X5829134D02*
D03*
X5758268D02*
D03*
X5675591Y2940945D02*
D03*
X5266142Y2744094D02*
D03*
X5600787Y5086614D02*
D03*
X5128346Y3236220D02*
D03*
X5053543Y3649606D02*
D03*
X5096850Y3407480D02*
D03*
X5092913Y3476378D02*
D03*
X5285827Y5003937D02*
D03*
X5651968Y3759842D02*
D03*
X5734646D02*
D03*
X5896063Y3759843D02*
D03*
X5411811Y2751968D02*
D03*
X5431496Y2728346D02*
D03*
X5451181Y2704724D02*
D03*
X5470866Y2681102D02*
D03*
X5490551Y2657480D02*
D03*
X5510236Y2633858D02*
D03*
X5132283Y2826772D02*
D03*
X5266142Y2704724D02*
D03*
X5148032Y2728346D02*
D03*
Y4145669D02*
D03*
X5254331Y4188976D02*
D03*
X5289764Y4031496D02*
D03*
X5124410Y4240157D02*
D03*
X5474803Y4251968D02*
D03*
X5451181Y4610236D02*
D03*
X5459055Y4637795D02*
D03*
X5246457Y4236220D02*
D03*
X5238583Y4311024D02*
D03*
X5289764Y4094488D02*
D03*
X5494488Y4275591D02*
D03*
X5514173Y4401575D02*
D03*
X5577165Y4409449D02*
D03*
X5478740Y4401575D02*
D03*
X5459055Y3216535D02*
D03*
X5474803Y2885827D02*
D03*
X5478740Y2984252D02*
D03*
X5510236D02*
D03*
X5549606Y2885827D02*
D03*
X5518110D02*
D03*
X5435433Y3188976D02*
D03*
X5096535Y4982283D02*
D03*
X5825197Y4149606D02*
D03*
X5411811Y2885827D02*
D03*
X5250394Y2814961D02*
D03*
X5518110Y2838583D02*
D03*
X5494488Y2862205D02*
D03*
X5711024Y2533465D02*
D03*
X5478740Y2444882D02*
D03*
X5266142Y2645669D02*
D03*
X5809449Y4920945D02*
D03*
X5691339Y2816929D02*
D03*
X5581102Y2824803D02*
D03*
X5195276Y2877953D02*
D03*
X5242520Y4161417D02*
D03*
X5211024Y2992126D02*
D03*
X5270079Y2866142D02*
D03*
X5234646Y3106299D02*
D03*
Y3062992D02*
D03*
X5148032Y3106299D02*
D03*
Y3062992D02*
D03*
X5338977Y3218504D02*
D03*
X5522047Y3218503D02*
D03*
X5368504Y3302165D02*
D03*
X5535827D02*
D03*
X5368504Y3469488D02*
D03*
X5466929Y3104330D02*
D03*
X5356378Y2986220D02*
D03*
X5387874D02*
D03*
X5242520Y4397638D02*
D03*
X5387874Y4403543D02*
D03*
X5356378D02*
D03*
X5303858Y4608268D02*
D03*
X5466929Y4521653D02*
D03*
X5368504Y4886811D02*
D03*
X5368504Y4719488D02*
D03*
X5338976Y4635827D02*
D03*
X5287795Y4549842D02*
D03*
X5148032Y4523622D02*
D03*
X5234646Y4480315D02*
D03*
Y4523622D02*
D03*
X5370473Y4604331D02*
D03*
X5474803Y2568897D02*
D03*
X5490551Y3159449D02*
D03*
X5274016Y2590551D02*
D03*
X5317323D02*
D03*
X5663779Y2515748D02*
D03*
X5640158Y2492126D02*
D03*
X5092913Y4940945D02*
D03*
Y4897638D02*
D03*
X5132283Y4653543D02*
D03*
X5053543Y5066929D02*
D03*
X5049606Y4842520D02*
D03*
Y4775591D02*
D03*
X5100787Y4818898D02*
D03*
X5081102Y4740157D02*
D03*
X5049606Y3299213D02*
D03*
Y3330709D02*
D03*
X5132283Y3437008D02*
D03*
X5128346Y3354331D02*
D03*
X5148032Y4476378D02*
D03*
Y4440945D02*
D03*
X5179528Y4405512D02*
D03*
X5486614Y4578740D02*
D03*
X5695276Y4810709D02*
D03*
X5592913Y4555118D02*
D03*
X5636221Y4751968D02*
D03*
X5573228Y4653543D02*
D03*
X5525984Y4633858D02*
D03*
X5624409Y4657480D02*
D03*
X5608661Y4584645D02*
D03*
X5616535Y4712598D02*
D03*
X5529921Y4602362D02*
D03*
X5620472Y4618110D02*
D03*
X5695276Y4937008D02*
D03*
X5809449Y3503622D02*
D03*
X5636221Y3334646D02*
D03*
X5695276Y3519685D02*
D03*
X5864567Y2850394D02*
D03*
Y2814961D02*
D03*
Y2885827D02*
D03*
Y2921260D02*
D03*
X5785827Y2574803D02*
D03*
X5935433Y3035433D02*
D03*
X5900000D02*
D03*
X5864567D02*
D03*
X5616535Y3295276D02*
D03*
X5309449Y4653543D02*
D03*
D64*
X5724409Y5125984D02*
D03*
X5829134Y2350394D02*
D03*
X5813386Y2744094D02*
D03*
X5522047Y2755905D02*
D03*
X5856693Y3909449D02*
D03*
X5805512Y3393701D02*
D03*
X5852756Y3417323D02*
D03*
X5537795Y4248031D02*
D03*
X5270079Y3850394D02*
D03*
X4789764Y2842520D02*
D03*
X4750394Y2870079D02*
D03*
Y2925197D02*
D03*
X4789764Y2897638D02*
D03*
X4829134Y2925197D02*
D03*
Y2870079D02*
D03*
X4907874Y2925197D02*
D03*
X4868504Y2842520D02*
D03*
X4947244D02*
D03*
X4907874Y2870079D02*
D03*
X4947244Y2897638D02*
D03*
X4868504D02*
D03*
X4585039Y3208661D02*
D03*
Y3259842D02*
D03*
X4498425Y3208661D02*
D03*
Y3259842D02*
D03*
X4541732Y3232283D02*
D03*
Y3181102D02*
D03*
X4411811Y3208661D02*
D03*
Y3259842D02*
D03*
X4455118Y3232283D02*
D03*
Y3181102D02*
D03*
X4789764Y3314961D02*
D03*
X4750394Y3342520D02*
D03*
Y3397638D02*
D03*
X4789764Y3370079D02*
D03*
X4829134Y3397638D02*
D03*
Y3342520D02*
D03*
X4907874Y3397638D02*
D03*
X4868504Y3314961D02*
D03*
X4947244D02*
D03*
X4907874Y3342520D02*
D03*
X4947244Y3370079D02*
D03*
X4868504D02*
D03*
X4455118Y3653543D02*
D03*
Y3704724D02*
D03*
X4411811Y3732283D02*
D03*
Y3681102D02*
D03*
X4541732Y3653543D02*
D03*
Y3704724D02*
D03*
X4498425Y3732283D02*
D03*
Y3681102D02*
D03*
X4585039Y3732283D02*
D03*
Y3681102D02*
D03*
Y5090551D02*
D03*
Y5141732D02*
D03*
X4498425Y5090551D02*
D03*
Y5141732D02*
D03*
X4541732Y5114173D02*
D03*
X4411811Y5090551D02*
D03*
Y5141732D02*
D03*
X4455118Y5114173D02*
D03*
Y5062992D02*
D03*
X4541732D02*
D03*
X4754331Y2452756D02*
D03*
Y2397638D02*
D03*
X4793701Y2425197D02*
D03*
X5155905Y3889764D02*
D03*
X5876378Y4625984D02*
D03*
X5750394D02*
D03*
X5695276Y3386890D02*
D03*
X4455118Y2708661D02*
D03*
Y2759843D02*
D03*
X4411811Y2787401D02*
D03*
Y2736220D02*
D03*
X4541732Y2708661D02*
D03*
Y2759843D02*
D03*
X4498425Y2787401D02*
D03*
Y2736220D02*
D03*
X4585039Y2787401D02*
D03*
Y2736220D02*
D03*
X4455118Y4590551D02*
D03*
Y4641732D02*
D03*
X4411811Y4669291D02*
D03*
Y4618110D02*
D03*
X4541732Y4590551D02*
D03*
Y4641732D02*
D03*
X4498425Y4669291D02*
D03*
Y4618110D02*
D03*
X4585039Y4669291D02*
D03*
Y4618110D02*
D03*
X4455118Y4122047D02*
D03*
Y4173228D02*
D03*
X4411811Y4200787D02*
D03*
Y4149606D02*
D03*
X4541732Y4122047D02*
D03*
Y4173228D02*
D03*
X4498425Y4200787D02*
D03*
Y4149606D02*
D03*
X4585039Y4200787D02*
D03*
Y4149606D02*
D03*
X4951181Y2425197D02*
D03*
X5029921D02*
D03*
X4990551Y2397638D02*
D03*
Y2452756D02*
D03*
X4911811Y2397638D02*
D03*
Y2452756D02*
D03*
X4872441Y2425197D02*
D03*
X4833071Y2452756D02*
D03*
Y2397638D02*
D03*
X4868504Y4779527D02*
D03*
X4947244D02*
D03*
X4907874Y4751968D02*
D03*
X4947244Y4724409D02*
D03*
X4868504D02*
D03*
X4907874Y4807086D02*
D03*
X4829134Y4751968D02*
D03*
Y4807087D02*
D03*
X4789764Y4779527D02*
D03*
X4750394Y4807087D02*
D03*
Y4751968D02*
D03*
X4789764Y4724409D02*
D03*
X4868504Y4311024D02*
D03*
X4947244D02*
D03*
X4907874Y4283464D02*
D03*
X4947244Y4255905D02*
D03*
X4868504D02*
D03*
X4907874Y4338583D02*
D03*
X4829134Y4283465D02*
D03*
Y4338583D02*
D03*
X4789764Y4311024D02*
D03*
X4750394Y4338583D02*
D03*
Y4283465D02*
D03*
X4789764Y4255905D02*
D03*
X4868504Y3842520D02*
D03*
X4947244D02*
D03*
X4907874Y3814961D02*
D03*
X4947244Y3787401D02*
D03*
X4868504D02*
D03*
X4907874Y3870079D02*
D03*
X4829134Y3814961D02*
D03*
Y3870079D02*
D03*
X4789764Y3842520D02*
D03*
X4750394Y3870079D02*
D03*
Y3814961D02*
D03*
X4789764Y3787401D02*
D03*
X5274016Y5196850D02*
D03*
X5683465Y4618110D02*
D03*
X5703150Y4877953D02*
D03*
X5750394D02*
D03*
X5817323Y4811024D02*
D03*
X5671654Y4397638D02*
D03*
X5730709Y4338583D02*
D03*
X5880315Y4854331D02*
D03*
X5703150Y3460630D02*
D03*
X5750394D02*
D03*
D65*
X5293701Y3748031D02*
D03*
X5553543Y3807087D02*
D03*
%TF.MD5,3B3259243A66C98526B0F3AEF8F1E1A4*%
M02*
