G04 Layer_Color=8421504*
%FSLAX26Y26*%
%MOIN*%
%TF.FileFunction,Paste,Top*%
%TF.Part,Single*%
G01*
G75*
%TA.AperFunction,SMDPad,CuDef*%
%ADD12R,0.023622X0.023622*%
%ADD13R,0.023622X0.023622*%
%ADD14R,0.098425X0.039370*%
%ADD15R,0.039370X0.037402*%
%ADD16R,0.011811X0.062992*%
%ADD17R,0.062992X0.011811*%
%ADD18R,0.037992X0.031496*%
%ADD19O,0.009842X0.033465*%
%ADD20O,0.033465X0.009842*%
%ADD21R,0.202756X0.202756*%
%ADD22R,0.070866X0.133858*%
%ADD23R,0.039370X0.043307*%
%ADD24R,0.059055X0.059055*%
%ADD25R,0.059055X0.059055*%
%ADD26R,0.047244X0.017716*%
%ADD27R,0.255905X0.118110*%
%TA.AperFunction,OtherPad,Pad Q6B-9 (4133.366mil,2597.244mil)*%
G04:AMPARAMS|DCode=77|XSize=9.842mil|YSize=21.85mil|CornerRadius=1.968mil|HoleSize=0mil|Usage=FLASHONLY|Rotation=90.000|XOffset=0mil|YOffset=0mil|HoleType=Round|Shape=RoundedRectangle|*
%AMROUNDEDRECTD77*
21,1,0.009842,0.017913,0,0,90.0*
21,1,0.005905,0.021850,0,0,90.0*
1,1,0.003937,0.008957,0.002953*
1,1,0.003937,0.008957,-0.002953*
1,1,0.003937,-0.008957,-0.002953*
1,1,0.003937,-0.008957,0.002953*
%
%ADD77ROUNDEDRECTD77*%
%TA.AperFunction,OtherPad,Pad Q6B-9 (4320.177mil,2597.244mil)*%
G04:AMPARAMS|DCode=78|XSize=9.842mil|YSize=21.85mil|CornerRadius=1.968mil|HoleSize=0mil|Usage=FLASHONLY|Rotation=90.000|XOffset=0mil|YOffset=0mil|HoleType=Round|Shape=RoundedRectangle|*
%AMROUNDEDRECTD78*
21,1,0.009842,0.017913,0,0,90.0*
21,1,0.005905,0.021850,0,0,90.0*
1,1,0.003937,0.008957,0.002953*
1,1,0.003937,0.008957,-0.002953*
1,1,0.003937,-0.008957,-0.002953*
1,1,0.003937,-0.008957,0.002953*
%
%ADD78ROUNDEDRECTD78*%
%TA.AperFunction,OtherPad,Pad Q6A-9 (4133.366mil,4010.63mil)*%
G04:AMPARAMS|DCode=80|XSize=9.842mil|YSize=21.85mil|CornerRadius=1.968mil|HoleSize=0mil|Usage=FLASHONLY|Rotation=90.000|XOffset=0mil|YOffset=0mil|HoleType=Round|Shape=RoundedRectangle|*
%AMROUNDEDRECTD80*
21,1,0.009842,0.017913,0,0,90.0*
21,1,0.005905,0.021850,0,0,90.0*
1,1,0.003937,0.008957,0.002953*
1,1,0.003937,0.008957,-0.002953*
1,1,0.003937,-0.008957,-0.002953*
1,1,0.003937,-0.008957,0.002953*
%
%ADD80ROUNDEDRECTD80*%
%TA.AperFunction,OtherPad,Pad Q6A-9 (4320.177mil,4010.63mil)*%
G04:AMPARAMS|DCode=81|XSize=9.842mil|YSize=21.85mil|CornerRadius=1.968mil|HoleSize=0mil|Usage=FLASHONLY|Rotation=90.000|XOffset=0mil|YOffset=0mil|HoleType=Round|Shape=RoundedRectangle|*
%AMROUNDEDRECTD81*
21,1,0.009842,0.017913,0,0,90.0*
21,1,0.005905,0.021850,0,0,90.0*
1,1,0.003937,0.008957,0.002953*
1,1,0.003937,0.008957,-0.002953*
1,1,0.003937,-0.008957,-0.002953*
1,1,0.003937,-0.008957,0.002953*
%
%ADD81ROUNDEDRECTD81*%
%TA.AperFunction,OtherPad,Pad Q5B-9 (4767.224mil,2648.425mil)*%
G04:AMPARAMS|DCode=83|XSize=9.842mil|YSize=21.85mil|CornerRadius=1.968mil|HoleSize=0mil|Usage=FLASHONLY|Rotation=90.000|XOffset=0mil|YOffset=0mil|HoleType=Round|Shape=RoundedRectangle|*
%AMROUNDEDRECTD83*
21,1,0.009842,0.017913,0,0,90.0*
21,1,0.005905,0.021850,0,0,90.0*
1,1,0.003937,0.008957,0.002953*
1,1,0.003937,0.008957,-0.002953*
1,1,0.003937,-0.008957,-0.002953*
1,1,0.003937,-0.008957,0.002953*
%
%ADD83ROUNDEDRECTD83*%
%TA.AperFunction,OtherPad,Pad Q5B-9 (4954.035mil,2648.425mil)*%
G04:AMPARAMS|DCode=84|XSize=9.842mil|YSize=21.85mil|CornerRadius=1.968mil|HoleSize=0mil|Usage=FLASHONLY|Rotation=90.000|XOffset=0mil|YOffset=0mil|HoleType=Round|Shape=RoundedRectangle|*
%AMROUNDEDRECTD84*
21,1,0.009842,0.017913,0,0,90.0*
21,1,0.005905,0.021850,0,0,90.0*
1,1,0.003937,0.008957,0.002953*
1,1,0.003937,0.008957,-0.002953*
1,1,0.003937,-0.008957,-0.002953*
1,1,0.003937,-0.008957,0.002953*
%
%ADD84ROUNDEDRECTD84*%
%TA.AperFunction,OtherPad,Pad Q5A-9 (4767.224mil,4061.811mil)*%
G04:AMPARAMS|DCode=86|XSize=9.842mil|YSize=21.85mil|CornerRadius=1.968mil|HoleSize=0mil|Usage=FLASHONLY|Rotation=90.000|XOffset=0mil|YOffset=0mil|HoleType=Round|Shape=RoundedRectangle|*
%AMROUNDEDRECTD86*
21,1,0.009842,0.017913,0,0,90.0*
21,1,0.005905,0.021850,0,0,90.0*
1,1,0.003937,0.008957,0.002953*
1,1,0.003937,0.008957,-0.002953*
1,1,0.003937,-0.008957,-0.002953*
1,1,0.003937,-0.008957,0.002953*
%
%ADD86ROUNDEDRECTD86*%
%TA.AperFunction,OtherPad,Pad Q5A-9 (4954.035mil,4061.811mil)*%
G04:AMPARAMS|DCode=87|XSize=9.842mil|YSize=21.85mil|CornerRadius=1.968mil|HoleSize=0mil|Usage=FLASHONLY|Rotation=90.000|XOffset=0mil|YOffset=0mil|HoleType=Round|Shape=RoundedRectangle|*
%AMROUNDEDRECTD87*
21,1,0.009842,0.017913,0,0,90.0*
21,1,0.005905,0.021850,0,0,90.0*
1,1,0.003937,0.008957,0.002953*
1,1,0.003937,0.008957,-0.002953*
1,1,0.003937,-0.008957,-0.002953*
1,1,0.003937,-0.008957,0.002953*
%
%ADD87ROUNDEDRECTD87*%
%TA.AperFunction,OtherPad,Pad Q4B-9 (4133.366mil,3069.685mil)*%
G04:AMPARAMS|DCode=89|XSize=9.842mil|YSize=21.85mil|CornerRadius=1.968mil|HoleSize=0mil|Usage=FLASHONLY|Rotation=90.000|XOffset=0mil|YOffset=0mil|HoleType=Round|Shape=RoundedRectangle|*
%AMROUNDEDRECTD89*
21,1,0.009842,0.017913,0,0,90.0*
21,1,0.005905,0.021850,0,0,90.0*
1,1,0.003937,0.008957,0.002953*
1,1,0.003937,0.008957,-0.002953*
1,1,0.003937,-0.008957,-0.002953*
1,1,0.003937,-0.008957,0.002953*
%
%ADD89ROUNDEDRECTD89*%
%TA.AperFunction,OtherPad,Pad Q4B-9 (4320.177mil,3069.685mil)*%
G04:AMPARAMS|DCode=90|XSize=9.842mil|YSize=21.85mil|CornerRadius=1.968mil|HoleSize=0mil|Usage=FLASHONLY|Rotation=90.000|XOffset=0mil|YOffset=0mil|HoleType=Round|Shape=RoundedRectangle|*
%AMROUNDEDRECTD90*
21,1,0.009842,0.017913,0,0,90.0*
21,1,0.005905,0.021850,0,0,90.0*
1,1,0.003937,0.008957,0.002953*
1,1,0.003937,0.008957,-0.002953*
1,1,0.003937,-0.008957,-0.002953*
1,1,0.003937,-0.008957,0.002953*
%
%ADD90ROUNDEDRECTD90*%
%TA.AperFunction,OtherPad,Pad Q4A-9 (4133.366mil,4479.134mil)*%
G04:AMPARAMS|DCode=92|XSize=9.842mil|YSize=21.85mil|CornerRadius=1.968mil|HoleSize=0mil|Usage=FLASHONLY|Rotation=90.000|XOffset=0mil|YOffset=0mil|HoleType=Round|Shape=RoundedRectangle|*
%AMROUNDEDRECTD92*
21,1,0.009842,0.017913,0,0,90.0*
21,1,0.005905,0.021850,0,0,90.0*
1,1,0.003937,0.008957,0.002953*
1,1,0.003937,0.008957,-0.002953*
1,1,0.003937,-0.008957,-0.002953*
1,1,0.003937,-0.008957,0.002953*
%
%ADD92ROUNDEDRECTD92*%
%TA.AperFunction,OtherPad,Pad Q4A-9 (4320.177mil,4479.134mil)*%
G04:AMPARAMS|DCode=93|XSize=9.842mil|YSize=21.85mil|CornerRadius=1.968mil|HoleSize=0mil|Usage=FLASHONLY|Rotation=90.000|XOffset=0mil|YOffset=0mil|HoleType=Round|Shape=RoundedRectangle|*
%AMROUNDEDRECTD93*
21,1,0.009842,0.017913,0,0,90.0*
21,1,0.005905,0.021850,0,0,90.0*
1,1,0.003937,0.008957,0.002953*
1,1,0.003937,0.008957,-0.002953*
1,1,0.003937,-0.008957,-0.002953*
1,1,0.003937,-0.008957,0.002953*
%
%ADD93ROUNDEDRECTD93*%
%TA.AperFunction,OtherPad,Pad Q3B-9 (4767.224mil,3120.866mil)*%
G04:AMPARAMS|DCode=95|XSize=9.842mil|YSize=21.85mil|CornerRadius=1.968mil|HoleSize=0mil|Usage=FLASHONLY|Rotation=90.000|XOffset=0mil|YOffset=0mil|HoleType=Round|Shape=RoundedRectangle|*
%AMROUNDEDRECTD95*
21,1,0.009842,0.017913,0,0,90.0*
21,1,0.005905,0.021850,0,0,90.0*
1,1,0.003937,0.008957,0.002953*
1,1,0.003937,0.008957,-0.002953*
1,1,0.003937,-0.008957,-0.002953*
1,1,0.003937,-0.008957,0.002953*
%
%ADD95ROUNDEDRECTD95*%
%TA.AperFunction,OtherPad,Pad Q3B-9 (4954.035mil,3120.866mil)*%
G04:AMPARAMS|DCode=96|XSize=9.842mil|YSize=21.85mil|CornerRadius=1.968mil|HoleSize=0mil|Usage=FLASHONLY|Rotation=90.000|XOffset=0mil|YOffset=0mil|HoleType=Round|Shape=RoundedRectangle|*
%AMROUNDEDRECTD96*
21,1,0.009842,0.017913,0,0,90.0*
21,1,0.005905,0.021850,0,0,90.0*
1,1,0.003937,0.008957,0.002953*
1,1,0.003937,0.008957,-0.002953*
1,1,0.003937,-0.008957,-0.002953*
1,1,0.003937,-0.008957,0.002953*
%
%ADD96ROUNDEDRECTD96*%
%TA.AperFunction,OtherPad,Pad Q3A-9 (4767.224mil,4530.315mil)*%
G04:AMPARAMS|DCode=98|XSize=9.842mil|YSize=21.85mil|CornerRadius=1.968mil|HoleSize=0mil|Usage=FLASHONLY|Rotation=90.000|XOffset=0mil|YOffset=0mil|HoleType=Round|Shape=RoundedRectangle|*
%AMROUNDEDRECTD98*
21,1,0.009842,0.017913,0,0,90.0*
21,1,0.005905,0.021850,0,0,90.0*
1,1,0.003937,0.008957,0.002953*
1,1,0.003937,0.008957,-0.002953*
1,1,0.003937,-0.008957,-0.002953*
1,1,0.003937,-0.008957,0.002953*
%
%ADD98ROUNDEDRECTD98*%
%TA.AperFunction,OtherPad,Pad Q3A-9 (4954.035mil,4530.315mil)*%
G04:AMPARAMS|DCode=99|XSize=9.842mil|YSize=21.85mil|CornerRadius=1.968mil|HoleSize=0mil|Usage=FLASHONLY|Rotation=90.000|XOffset=0mil|YOffset=0mil|HoleType=Round|Shape=RoundedRectangle|*
%AMROUNDEDRECTD99*
21,1,0.009842,0.017913,0,0,90.0*
21,1,0.005905,0.021850,0,0,90.0*
1,1,0.003937,0.008957,0.002953*
1,1,0.003937,0.008957,-0.002953*
1,1,0.003937,-0.008957,-0.002953*
1,1,0.003937,-0.008957,0.002953*
%
%ADD99ROUNDEDRECTD99*%
%TA.AperFunction,OtherPad,Pad Q2B-9 (4133.366mil,3538.189mil)*%
G04:AMPARAMS|DCode=101|XSize=9.842mil|YSize=21.85mil|CornerRadius=1.968mil|HoleSize=0mil|Usage=FLASHONLY|Rotation=90.000|XOffset=0mil|YOffset=0mil|HoleType=Round|Shape=RoundedRectangle|*
%AMROUNDEDRECTD101*
21,1,0.009842,0.017913,0,0,90.0*
21,1,0.005905,0.021850,0,0,90.0*
1,1,0.003937,0.008957,0.002953*
1,1,0.003937,0.008957,-0.002953*
1,1,0.003937,-0.008957,-0.002953*
1,1,0.003937,-0.008957,0.002953*
%
%ADD101ROUNDEDRECTD101*%
%TA.AperFunction,OtherPad,Pad Q2B-9 (4320.177mil,3538.189mil)*%
G04:AMPARAMS|DCode=102|XSize=9.842mil|YSize=21.85mil|CornerRadius=1.968mil|HoleSize=0mil|Usage=FLASHONLY|Rotation=90.000|XOffset=0mil|YOffset=0mil|HoleType=Round|Shape=RoundedRectangle|*
%AMROUNDEDRECTD102*
21,1,0.009842,0.017913,0,0,90.0*
21,1,0.005905,0.021850,0,0,90.0*
1,1,0.003937,0.008957,0.002953*
1,1,0.003937,0.008957,-0.002953*
1,1,0.003937,-0.008957,-0.002953*
1,1,0.003937,-0.008957,0.002953*
%
%ADD102ROUNDEDRECTD102*%
%TA.AperFunction,OtherPad,Pad Q2A-9 (4133.366mil,4951.575mil)*%
G04:AMPARAMS|DCode=104|XSize=9.842mil|YSize=21.85mil|CornerRadius=1.968mil|HoleSize=0mil|Usage=FLASHONLY|Rotation=90.000|XOffset=0mil|YOffset=0mil|HoleType=Round|Shape=RoundedRectangle|*
%AMROUNDEDRECTD104*
21,1,0.009842,0.017913,0,0,90.0*
21,1,0.005905,0.021850,0,0,90.0*
1,1,0.003937,0.008957,0.002953*
1,1,0.003937,0.008957,-0.002953*
1,1,0.003937,-0.008957,-0.002953*
1,1,0.003937,-0.008957,0.002953*
%
%ADD104ROUNDEDRECTD104*%
%TA.AperFunction,OtherPad,Pad Q2A-9 (4320.177mil,4951.575mil)*%
G04:AMPARAMS|DCode=105|XSize=9.842mil|YSize=21.85mil|CornerRadius=1.968mil|HoleSize=0mil|Usage=FLASHONLY|Rotation=90.000|XOffset=0mil|YOffset=0mil|HoleType=Round|Shape=RoundedRectangle|*
%AMROUNDEDRECTD105*
21,1,0.009842,0.017913,0,0,90.0*
21,1,0.005905,0.021850,0,0,90.0*
1,1,0.003937,0.008957,0.002953*
1,1,0.003937,0.008957,-0.002953*
1,1,0.003937,-0.008957,-0.002953*
1,1,0.003937,-0.008957,0.002953*
%
%ADD105ROUNDEDRECTD105*%
%TA.AperFunction,OtherPad,Pad Q1B-9 (4767.224mil,3593.307mil)*%
G04:AMPARAMS|DCode=107|XSize=9.842mil|YSize=21.85mil|CornerRadius=1.968mil|HoleSize=0mil|Usage=FLASHONLY|Rotation=90.000|XOffset=0mil|YOffset=0mil|HoleType=Round|Shape=RoundedRectangle|*
%AMROUNDEDRECTD107*
21,1,0.009842,0.017913,0,0,90.0*
21,1,0.005905,0.021850,0,0,90.0*
1,1,0.003937,0.008957,0.002953*
1,1,0.003937,0.008957,-0.002953*
1,1,0.003937,-0.008957,-0.002953*
1,1,0.003937,-0.008957,0.002953*
%
%ADD107ROUNDEDRECTD107*%
%TA.AperFunction,OtherPad,Pad Q1B-9 (4954.035mil,3593.307mil)*%
G04:AMPARAMS|DCode=108|XSize=9.842mil|YSize=21.85mil|CornerRadius=1.968mil|HoleSize=0mil|Usage=FLASHONLY|Rotation=90.000|XOffset=0mil|YOffset=0mil|HoleType=Round|Shape=RoundedRectangle|*
%AMROUNDEDRECTD108*
21,1,0.009842,0.017913,0,0,90.0*
21,1,0.005905,0.021850,0,0,90.0*
1,1,0.003937,0.008957,0.002953*
1,1,0.003937,0.008957,-0.002953*
1,1,0.003937,-0.008957,-0.002953*
1,1,0.003937,-0.008957,0.002953*
%
%ADD108ROUNDEDRECTD108*%
%TA.AperFunction,OtherPad,Pad Q1A-9 (4767.224mil,5002.756mil)*%
G04:AMPARAMS|DCode=110|XSize=9.842mil|YSize=21.85mil|CornerRadius=1.968mil|HoleSize=0mil|Usage=FLASHONLY|Rotation=90.000|XOffset=0mil|YOffset=0mil|HoleType=Round|Shape=RoundedRectangle|*
%AMROUNDEDRECTD110*
21,1,0.009842,0.017913,0,0,90.0*
21,1,0.005905,0.021850,0,0,90.0*
1,1,0.003937,0.008957,0.002953*
1,1,0.003937,0.008957,-0.002953*
1,1,0.003937,-0.008957,-0.002953*
1,1,0.003937,-0.008957,0.002953*
%
%ADD110ROUNDEDRECTD110*%
%TA.AperFunction,OtherPad,Pad Q1A-9 (4954.035mil,5002.756mil)*%
G04:AMPARAMS|DCode=111|XSize=9.842mil|YSize=21.85mil|CornerRadius=1.968mil|HoleSize=0mil|Usage=FLASHONLY|Rotation=90.000|XOffset=0mil|YOffset=0mil|HoleType=Round|Shape=RoundedRectangle|*
%AMROUNDEDRECTD111*
21,1,0.009842,0.017913,0,0,90.0*
21,1,0.005905,0.021850,0,0,90.0*
1,1,0.003937,0.008957,0.002953*
1,1,0.003937,0.008957,-0.002953*
1,1,0.003937,-0.008957,-0.002953*
1,1,0.003937,-0.008957,0.002953*
%
%ADD111ROUNDEDRECTD111*%
%TA.AperFunction,SMDPad,SMDef*%
G04:AMPARAMS|DCode=114|XSize=29.921mil|YSize=16.142mil|CornerRadius=1.947mil|HoleSize=0mil|Usage=FLASHONLY|Rotation=90.000|XOffset=0mil|YOffset=0mil|HoleType=Round|Shape=RoundedRectangle|*
%AMROUNDEDRECTD114*
21,1,0.029921,0.012248,0,0,90.0*
21,1,0.026028,0.016142,0,0,90.0*
1,1,0.003894,0.006124,0.013014*
1,1,0.003894,0.006124,-0.013014*
1,1,0.003894,-0.006124,-0.013014*
1,1,0.003894,-0.006124,0.013014*
%
%ADD114ROUNDEDRECTD114*%
%TA.AperFunction,OtherPad,Pad Q6B-9 (4226.772mil,2654.134mil)*%
G04:AMPARAMS|DCode=143|XSize=37.402mil|YSize=44.488mil|CornerRadius=2.057mil|HoleSize=0mil|Usage=FLASHONLY|Rotation=90.000|XOffset=0mil|YOffset=0mil|HoleType=Round|Shape=RoundedRectangle|*
%AMROUNDEDRECTD143*
21,1,0.037402,0.040374,0,0,90.0*
21,1,0.033287,0.044488,0,0,90.0*
1,1,0.004114,0.020187,0.016644*
1,1,0.004114,0.020187,-0.016644*
1,1,0.004114,-0.020187,-0.016644*
1,1,0.004114,-0.020187,0.016644*
%
%ADD143ROUNDEDRECTD143*%
%TA.AperFunction,OtherPad,Pad Q6B-9 (4226.772mil,2608.858mil)*%
G04:AMPARAMS|DCode=144|XSize=37.402mil|YSize=44.488mil|CornerRadius=2.057mil|HoleSize=0mil|Usage=FLASHONLY|Rotation=90.000|XOffset=0mil|YOffset=0mil|HoleType=Round|Shape=RoundedRectangle|*
%AMROUNDEDRECTD144*
21,1,0.037402,0.040374,0,0,90.0*
21,1,0.033287,0.044488,0,0,90.0*
1,1,0.004114,0.020187,0.016644*
1,1,0.004114,0.020187,-0.016644*
1,1,0.004114,-0.020187,-0.016644*
1,1,0.004114,-0.020187,0.016644*
%
%ADD144ROUNDEDRECTD144*%
%TA.AperFunction,OtherPad,Pad Q6B-9 (4226.772mil,2699.409mil)*%
G04:AMPARAMS|DCode=145|XSize=37.402mil|YSize=44.488mil|CornerRadius=2.057mil|HoleSize=0mil|Usage=FLASHONLY|Rotation=90.000|XOffset=0mil|YOffset=0mil|HoleType=Round|Shape=RoundedRectangle|*
%AMROUNDEDRECTD145*
21,1,0.037402,0.040374,0,0,90.0*
21,1,0.033287,0.044488,0,0,90.0*
1,1,0.004114,0.020187,0.016644*
1,1,0.004114,0.020187,-0.016644*
1,1,0.004114,-0.020187,-0.016644*
1,1,0.004114,-0.020187,0.016644*
%
%ADD145ROUNDEDRECTD145*%
%TA.AperFunction,OtherPad,Pad Q6B-9 (4174.409mil,2699.409mil)*%
G04:AMPARAMS|DCode=146|XSize=37.402mil|YSize=44.488mil|CornerRadius=2.057mil|HoleSize=0mil|Usage=FLASHONLY|Rotation=90.000|XOffset=0mil|YOffset=0mil|HoleType=Round|Shape=RoundedRectangle|*
%AMROUNDEDRECTD146*
21,1,0.037402,0.040374,0,0,90.0*
21,1,0.033287,0.044488,0,0,90.0*
1,1,0.004114,0.020187,0.016644*
1,1,0.004114,0.020187,-0.016644*
1,1,0.004114,-0.020187,-0.016644*
1,1,0.004114,-0.020187,0.016644*
%
%ADD146ROUNDEDRECTD146*%
%TA.AperFunction,OtherPad,Pad Q6B-9 (4174.409mil,2608.858mil)*%
G04:AMPARAMS|DCode=147|XSize=37.402mil|YSize=44.488mil|CornerRadius=2.057mil|HoleSize=0mil|Usage=FLASHONLY|Rotation=90.000|XOffset=0mil|YOffset=0mil|HoleType=Round|Shape=RoundedRectangle|*
%AMROUNDEDRECTD147*
21,1,0.037402,0.040374,0,0,90.0*
21,1,0.033287,0.044488,0,0,90.0*
1,1,0.004114,0.020187,0.016644*
1,1,0.004114,0.020187,-0.016644*
1,1,0.004114,-0.020187,-0.016644*
1,1,0.004114,-0.020187,0.016644*
%
%ADD147ROUNDEDRECTD147*%
%TA.AperFunction,OtherPad,Pad Q6B-9 (4174.409mil,2654.134mil)*%
G04:AMPARAMS|DCode=148|XSize=37.402mil|YSize=44.488mil|CornerRadius=2.057mil|HoleSize=0mil|Usage=FLASHONLY|Rotation=90.000|XOffset=0mil|YOffset=0mil|HoleType=Round|Shape=RoundedRectangle|*
%AMROUNDEDRECTD148*
21,1,0.037402,0.040374,0,0,90.0*
21,1,0.033287,0.044488,0,0,90.0*
1,1,0.004114,0.020187,0.016644*
1,1,0.004114,0.020187,-0.016644*
1,1,0.004114,-0.020187,-0.016644*
1,1,0.004114,-0.020187,0.016644*
%
%ADD148ROUNDEDRECTD148*%
%TA.AperFunction,OtherPad,Pad Q6B-9 (4279.134mil,2699.409mil)*%
G04:AMPARAMS|DCode=149|XSize=37.402mil|YSize=44.488mil|CornerRadius=2.057mil|HoleSize=0mil|Usage=FLASHONLY|Rotation=90.000|XOffset=0mil|YOffset=0mil|HoleType=Round|Shape=RoundedRectangle|*
%AMROUNDEDRECTD149*
21,1,0.037402,0.040374,0,0,90.0*
21,1,0.033287,0.044488,0,0,90.0*
1,1,0.004114,0.020187,0.016644*
1,1,0.004114,0.020187,-0.016644*
1,1,0.004114,-0.020187,-0.016644*
1,1,0.004114,-0.020187,0.016644*
%
%ADD149ROUNDEDRECTD149*%
%TA.AperFunction,OtherPad,Pad Q6B-9 (4279.134mil,2608.858mil)*%
G04:AMPARAMS|DCode=150|XSize=37.402mil|YSize=44.488mil|CornerRadius=2.057mil|HoleSize=0mil|Usage=FLASHONLY|Rotation=90.000|XOffset=0mil|YOffset=0mil|HoleType=Round|Shape=RoundedRectangle|*
%AMROUNDEDRECTD150*
21,1,0.037402,0.040374,0,0,90.0*
21,1,0.033287,0.044488,0,0,90.0*
1,1,0.004114,0.020187,0.016644*
1,1,0.004114,0.020187,-0.016644*
1,1,0.004114,-0.020187,-0.016644*
1,1,0.004114,-0.020187,0.016644*
%
%ADD150ROUNDEDRECTD150*%
%TA.AperFunction,OtherPad,Pad Q6B-9 (4279.134mil,2654.134mil)*%
G04:AMPARAMS|DCode=151|XSize=37.402mil|YSize=44.488mil|CornerRadius=2.057mil|HoleSize=0mil|Usage=FLASHONLY|Rotation=90.000|XOffset=0mil|YOffset=0mil|HoleType=Round|Shape=RoundedRectangle|*
%AMROUNDEDRECTD151*
21,1,0.037402,0.040374,0,0,90.0*
21,1,0.033287,0.044488,0,0,90.0*
1,1,0.004114,0.020187,0.016644*
1,1,0.004114,0.020187,-0.016644*
1,1,0.004114,-0.020187,-0.016644*
1,1,0.004114,-0.020187,0.016644*
%
%ADD151ROUNDEDRECTD151*%
%TA.AperFunction,OtherPad,Pad Q6A-9 (4226.772mil,4067.52mil)*%
G04:AMPARAMS|DCode=152|XSize=37.402mil|YSize=44.488mil|CornerRadius=2.057mil|HoleSize=0mil|Usage=FLASHONLY|Rotation=90.000|XOffset=0mil|YOffset=0mil|HoleType=Round|Shape=RoundedRectangle|*
%AMROUNDEDRECTD152*
21,1,0.037402,0.040374,0,0,90.0*
21,1,0.033287,0.044488,0,0,90.0*
1,1,0.004114,0.020187,0.016644*
1,1,0.004114,0.020187,-0.016644*
1,1,0.004114,-0.020187,-0.016644*
1,1,0.004114,-0.020187,0.016644*
%
%ADD152ROUNDEDRECTD152*%
%TA.AperFunction,OtherPad,Pad Q6A-9 (4226.772mil,4022.244mil)*%
G04:AMPARAMS|DCode=153|XSize=37.402mil|YSize=44.488mil|CornerRadius=2.057mil|HoleSize=0mil|Usage=FLASHONLY|Rotation=90.000|XOffset=0mil|YOffset=0mil|HoleType=Round|Shape=RoundedRectangle|*
%AMROUNDEDRECTD153*
21,1,0.037402,0.040374,0,0,90.0*
21,1,0.033287,0.044488,0,0,90.0*
1,1,0.004114,0.020187,0.016644*
1,1,0.004114,0.020187,-0.016644*
1,1,0.004114,-0.020187,-0.016644*
1,1,0.004114,-0.020187,0.016644*
%
%ADD153ROUNDEDRECTD153*%
%TA.AperFunction,OtherPad,Pad Q6A-9 (4226.772mil,4112.795mil)*%
G04:AMPARAMS|DCode=154|XSize=37.402mil|YSize=44.488mil|CornerRadius=2.057mil|HoleSize=0mil|Usage=FLASHONLY|Rotation=90.000|XOffset=0mil|YOffset=0mil|HoleType=Round|Shape=RoundedRectangle|*
%AMROUNDEDRECTD154*
21,1,0.037402,0.040374,0,0,90.0*
21,1,0.033287,0.044488,0,0,90.0*
1,1,0.004114,0.020187,0.016644*
1,1,0.004114,0.020187,-0.016644*
1,1,0.004114,-0.020187,-0.016644*
1,1,0.004114,-0.020187,0.016644*
%
%ADD154ROUNDEDRECTD154*%
%TA.AperFunction,OtherPad,Pad Q6A-9 (4174.409mil,4112.795mil)*%
G04:AMPARAMS|DCode=155|XSize=37.402mil|YSize=44.488mil|CornerRadius=2.057mil|HoleSize=0mil|Usage=FLASHONLY|Rotation=90.000|XOffset=0mil|YOffset=0mil|HoleType=Round|Shape=RoundedRectangle|*
%AMROUNDEDRECTD155*
21,1,0.037402,0.040374,0,0,90.0*
21,1,0.033287,0.044488,0,0,90.0*
1,1,0.004114,0.020187,0.016644*
1,1,0.004114,0.020187,-0.016644*
1,1,0.004114,-0.020187,-0.016644*
1,1,0.004114,-0.020187,0.016644*
%
%ADD155ROUNDEDRECTD155*%
%TA.AperFunction,OtherPad,Pad Q6A-9 (4174.409mil,4022.244mil)*%
G04:AMPARAMS|DCode=156|XSize=37.402mil|YSize=44.488mil|CornerRadius=2.057mil|HoleSize=0mil|Usage=FLASHONLY|Rotation=90.000|XOffset=0mil|YOffset=0mil|HoleType=Round|Shape=RoundedRectangle|*
%AMROUNDEDRECTD156*
21,1,0.037402,0.040374,0,0,90.0*
21,1,0.033287,0.044488,0,0,90.0*
1,1,0.004114,0.020187,0.016644*
1,1,0.004114,0.020187,-0.016644*
1,1,0.004114,-0.020187,-0.016644*
1,1,0.004114,-0.020187,0.016644*
%
%ADD156ROUNDEDRECTD156*%
%TA.AperFunction,OtherPad,Pad Q6A-9 (4174.409mil,4067.52mil)*%
G04:AMPARAMS|DCode=157|XSize=37.402mil|YSize=44.488mil|CornerRadius=2.057mil|HoleSize=0mil|Usage=FLASHONLY|Rotation=90.000|XOffset=0mil|YOffset=0mil|HoleType=Round|Shape=RoundedRectangle|*
%AMROUNDEDRECTD157*
21,1,0.037402,0.040374,0,0,90.0*
21,1,0.033287,0.044488,0,0,90.0*
1,1,0.004114,0.020187,0.016644*
1,1,0.004114,0.020187,-0.016644*
1,1,0.004114,-0.020187,-0.016644*
1,1,0.004114,-0.020187,0.016644*
%
%ADD157ROUNDEDRECTD157*%
%TA.AperFunction,OtherPad,Pad Q6A-9 (4279.134mil,4112.795mil)*%
G04:AMPARAMS|DCode=158|XSize=37.402mil|YSize=44.488mil|CornerRadius=2.057mil|HoleSize=0mil|Usage=FLASHONLY|Rotation=90.000|XOffset=0mil|YOffset=0mil|HoleType=Round|Shape=RoundedRectangle|*
%AMROUNDEDRECTD158*
21,1,0.037402,0.040374,0,0,90.0*
21,1,0.033287,0.044488,0,0,90.0*
1,1,0.004114,0.020187,0.016644*
1,1,0.004114,0.020187,-0.016644*
1,1,0.004114,-0.020187,-0.016644*
1,1,0.004114,-0.020187,0.016644*
%
%ADD158ROUNDEDRECTD158*%
%TA.AperFunction,OtherPad,Pad Q6A-9 (4279.134mil,4022.244mil)*%
G04:AMPARAMS|DCode=159|XSize=37.402mil|YSize=44.488mil|CornerRadius=2.057mil|HoleSize=0mil|Usage=FLASHONLY|Rotation=90.000|XOffset=0mil|YOffset=0mil|HoleType=Round|Shape=RoundedRectangle|*
%AMROUNDEDRECTD159*
21,1,0.037402,0.040374,0,0,90.0*
21,1,0.033287,0.044488,0,0,90.0*
1,1,0.004114,0.020187,0.016644*
1,1,0.004114,0.020187,-0.016644*
1,1,0.004114,-0.020187,-0.016644*
1,1,0.004114,-0.020187,0.016644*
%
%ADD159ROUNDEDRECTD159*%
%TA.AperFunction,OtherPad,Pad Q6A-9 (4279.134mil,4067.52mil)*%
G04:AMPARAMS|DCode=160|XSize=37.402mil|YSize=44.488mil|CornerRadius=2.057mil|HoleSize=0mil|Usage=FLASHONLY|Rotation=90.000|XOffset=0mil|YOffset=0mil|HoleType=Round|Shape=RoundedRectangle|*
%AMROUNDEDRECTD160*
21,1,0.037402,0.040374,0,0,90.0*
21,1,0.033287,0.044488,0,0,90.0*
1,1,0.004114,0.020187,0.016644*
1,1,0.004114,0.020187,-0.016644*
1,1,0.004114,-0.020187,-0.016644*
1,1,0.004114,-0.020187,0.016644*
%
%ADD160ROUNDEDRECTD160*%
%TA.AperFunction,OtherPad,Pad Q5B-9 (4860.63mil,2705.315mil)*%
G04:AMPARAMS|DCode=161|XSize=37.402mil|YSize=44.488mil|CornerRadius=2.057mil|HoleSize=0mil|Usage=FLASHONLY|Rotation=90.000|XOffset=0mil|YOffset=0mil|HoleType=Round|Shape=RoundedRectangle|*
%AMROUNDEDRECTD161*
21,1,0.037402,0.040374,0,0,90.0*
21,1,0.033287,0.044488,0,0,90.0*
1,1,0.004114,0.020187,0.016644*
1,1,0.004114,0.020187,-0.016644*
1,1,0.004114,-0.020187,-0.016644*
1,1,0.004114,-0.020187,0.016644*
%
%ADD161ROUNDEDRECTD161*%
%TA.AperFunction,OtherPad,Pad Q5B-9 (4860.63mil,2660.039mil)*%
G04:AMPARAMS|DCode=162|XSize=37.402mil|YSize=44.488mil|CornerRadius=2.057mil|HoleSize=0mil|Usage=FLASHONLY|Rotation=90.000|XOffset=0mil|YOffset=0mil|HoleType=Round|Shape=RoundedRectangle|*
%AMROUNDEDRECTD162*
21,1,0.037402,0.040374,0,0,90.0*
21,1,0.033287,0.044488,0,0,90.0*
1,1,0.004114,0.020187,0.016644*
1,1,0.004114,0.020187,-0.016644*
1,1,0.004114,-0.020187,-0.016644*
1,1,0.004114,-0.020187,0.016644*
%
%ADD162ROUNDEDRECTD162*%
%TA.AperFunction,OtherPad,Pad Q5B-9 (4860.63mil,2750.59mil)*%
G04:AMPARAMS|DCode=163|XSize=37.402mil|YSize=44.488mil|CornerRadius=2.057mil|HoleSize=0mil|Usage=FLASHONLY|Rotation=90.000|XOffset=0mil|YOffset=0mil|HoleType=Round|Shape=RoundedRectangle|*
%AMROUNDEDRECTD163*
21,1,0.037402,0.040374,0,0,90.0*
21,1,0.033287,0.044488,0,0,90.0*
1,1,0.004114,0.020187,0.016644*
1,1,0.004114,0.020187,-0.016644*
1,1,0.004114,-0.020187,-0.016644*
1,1,0.004114,-0.020187,0.016644*
%
%ADD163ROUNDEDRECTD163*%
%TA.AperFunction,OtherPad,Pad Q5B-9 (4808.268mil,2750.59mil)*%
G04:AMPARAMS|DCode=164|XSize=37.402mil|YSize=44.488mil|CornerRadius=2.057mil|HoleSize=0mil|Usage=FLASHONLY|Rotation=90.000|XOffset=0mil|YOffset=0mil|HoleType=Round|Shape=RoundedRectangle|*
%AMROUNDEDRECTD164*
21,1,0.037402,0.040374,0,0,90.0*
21,1,0.033287,0.044488,0,0,90.0*
1,1,0.004114,0.020187,0.016644*
1,1,0.004114,0.020187,-0.016644*
1,1,0.004114,-0.020187,-0.016644*
1,1,0.004114,-0.020187,0.016644*
%
%ADD164ROUNDEDRECTD164*%
%TA.AperFunction,OtherPad,Pad Q5B-9 (4808.268mil,2660.039mil)*%
G04:AMPARAMS|DCode=165|XSize=37.402mil|YSize=44.488mil|CornerRadius=2.057mil|HoleSize=0mil|Usage=FLASHONLY|Rotation=90.000|XOffset=0mil|YOffset=0mil|HoleType=Round|Shape=RoundedRectangle|*
%AMROUNDEDRECTD165*
21,1,0.037402,0.040374,0,0,90.0*
21,1,0.033287,0.044488,0,0,90.0*
1,1,0.004114,0.020187,0.016644*
1,1,0.004114,0.020187,-0.016644*
1,1,0.004114,-0.020187,-0.016644*
1,1,0.004114,-0.020187,0.016644*
%
%ADD165ROUNDEDRECTD165*%
%TA.AperFunction,OtherPad,Pad Q5B-9 (4808.268mil,2705.315mil)*%
G04:AMPARAMS|DCode=166|XSize=37.402mil|YSize=44.488mil|CornerRadius=2.057mil|HoleSize=0mil|Usage=FLASHONLY|Rotation=90.000|XOffset=0mil|YOffset=0mil|HoleType=Round|Shape=RoundedRectangle|*
%AMROUNDEDRECTD166*
21,1,0.037402,0.040374,0,0,90.0*
21,1,0.033287,0.044488,0,0,90.0*
1,1,0.004114,0.020187,0.016644*
1,1,0.004114,0.020187,-0.016644*
1,1,0.004114,-0.020187,-0.016644*
1,1,0.004114,-0.020187,0.016644*
%
%ADD166ROUNDEDRECTD166*%
%TA.AperFunction,OtherPad,Pad Q5B-9 (4912.992mil,2750.59mil)*%
G04:AMPARAMS|DCode=167|XSize=37.402mil|YSize=44.488mil|CornerRadius=2.057mil|HoleSize=0mil|Usage=FLASHONLY|Rotation=90.000|XOffset=0mil|YOffset=0mil|HoleType=Round|Shape=RoundedRectangle|*
%AMROUNDEDRECTD167*
21,1,0.037402,0.040374,0,0,90.0*
21,1,0.033287,0.044488,0,0,90.0*
1,1,0.004114,0.020187,0.016644*
1,1,0.004114,0.020187,-0.016644*
1,1,0.004114,-0.020187,-0.016644*
1,1,0.004114,-0.020187,0.016644*
%
%ADD167ROUNDEDRECTD167*%
%TA.AperFunction,OtherPad,Pad Q5B-9 (4912.992mil,2660.039mil)*%
G04:AMPARAMS|DCode=168|XSize=37.402mil|YSize=44.488mil|CornerRadius=2.057mil|HoleSize=0mil|Usage=FLASHONLY|Rotation=90.000|XOffset=0mil|YOffset=0mil|HoleType=Round|Shape=RoundedRectangle|*
%AMROUNDEDRECTD168*
21,1,0.037402,0.040374,0,0,90.0*
21,1,0.033287,0.044488,0,0,90.0*
1,1,0.004114,0.020187,0.016644*
1,1,0.004114,0.020187,-0.016644*
1,1,0.004114,-0.020187,-0.016644*
1,1,0.004114,-0.020187,0.016644*
%
%ADD168ROUNDEDRECTD168*%
%TA.AperFunction,OtherPad,Pad Q5B-9 (4912.992mil,2705.315mil)*%
G04:AMPARAMS|DCode=169|XSize=37.402mil|YSize=44.488mil|CornerRadius=2.057mil|HoleSize=0mil|Usage=FLASHONLY|Rotation=90.000|XOffset=0mil|YOffset=0mil|HoleType=Round|Shape=RoundedRectangle|*
%AMROUNDEDRECTD169*
21,1,0.037402,0.040374,0,0,90.0*
21,1,0.033287,0.044488,0,0,90.0*
1,1,0.004114,0.020187,0.016644*
1,1,0.004114,0.020187,-0.016644*
1,1,0.004114,-0.020187,-0.016644*
1,1,0.004114,-0.020187,0.016644*
%
%ADD169ROUNDEDRECTD169*%
%TA.AperFunction,OtherPad,Pad Q5A-9 (4860.63mil,4118.701mil)*%
G04:AMPARAMS|DCode=170|XSize=37.402mil|YSize=44.488mil|CornerRadius=2.057mil|HoleSize=0mil|Usage=FLASHONLY|Rotation=90.000|XOffset=0mil|YOffset=0mil|HoleType=Round|Shape=RoundedRectangle|*
%AMROUNDEDRECTD170*
21,1,0.037402,0.040374,0,0,90.0*
21,1,0.033287,0.044488,0,0,90.0*
1,1,0.004114,0.020187,0.016644*
1,1,0.004114,0.020187,-0.016644*
1,1,0.004114,-0.020187,-0.016644*
1,1,0.004114,-0.020187,0.016644*
%
%ADD170ROUNDEDRECTD170*%
%TA.AperFunction,OtherPad,Pad Q5A-9 (4860.63mil,4073.425mil)*%
G04:AMPARAMS|DCode=171|XSize=37.402mil|YSize=44.488mil|CornerRadius=2.057mil|HoleSize=0mil|Usage=FLASHONLY|Rotation=90.000|XOffset=0mil|YOffset=0mil|HoleType=Round|Shape=RoundedRectangle|*
%AMROUNDEDRECTD171*
21,1,0.037402,0.040374,0,0,90.0*
21,1,0.033287,0.044488,0,0,90.0*
1,1,0.004114,0.020187,0.016644*
1,1,0.004114,0.020187,-0.016644*
1,1,0.004114,-0.020187,-0.016644*
1,1,0.004114,-0.020187,0.016644*
%
%ADD171ROUNDEDRECTD171*%
%TA.AperFunction,OtherPad,Pad Q5A-9 (4860.63mil,4163.976mil)*%
G04:AMPARAMS|DCode=172|XSize=37.402mil|YSize=44.488mil|CornerRadius=2.057mil|HoleSize=0mil|Usage=FLASHONLY|Rotation=90.000|XOffset=0mil|YOffset=0mil|HoleType=Round|Shape=RoundedRectangle|*
%AMROUNDEDRECTD172*
21,1,0.037402,0.040374,0,0,90.0*
21,1,0.033287,0.044488,0,0,90.0*
1,1,0.004114,0.020187,0.016644*
1,1,0.004114,0.020187,-0.016644*
1,1,0.004114,-0.020187,-0.016644*
1,1,0.004114,-0.020187,0.016644*
%
%ADD172ROUNDEDRECTD172*%
%TA.AperFunction,OtherPad,Pad Q5A-9 (4808.268mil,4163.976mil)*%
G04:AMPARAMS|DCode=173|XSize=37.402mil|YSize=44.488mil|CornerRadius=2.057mil|HoleSize=0mil|Usage=FLASHONLY|Rotation=90.000|XOffset=0mil|YOffset=0mil|HoleType=Round|Shape=RoundedRectangle|*
%AMROUNDEDRECTD173*
21,1,0.037402,0.040374,0,0,90.0*
21,1,0.033287,0.044488,0,0,90.0*
1,1,0.004114,0.020187,0.016644*
1,1,0.004114,0.020187,-0.016644*
1,1,0.004114,-0.020187,-0.016644*
1,1,0.004114,-0.020187,0.016644*
%
%ADD173ROUNDEDRECTD173*%
%TA.AperFunction,OtherPad,Pad Q5A-9 (4808.268mil,4073.425mil)*%
G04:AMPARAMS|DCode=174|XSize=37.402mil|YSize=44.488mil|CornerRadius=2.057mil|HoleSize=0mil|Usage=FLASHONLY|Rotation=90.000|XOffset=0mil|YOffset=0mil|HoleType=Round|Shape=RoundedRectangle|*
%AMROUNDEDRECTD174*
21,1,0.037402,0.040374,0,0,90.0*
21,1,0.033287,0.044488,0,0,90.0*
1,1,0.004114,0.020187,0.016644*
1,1,0.004114,0.020187,-0.016644*
1,1,0.004114,-0.020187,-0.016644*
1,1,0.004114,-0.020187,0.016644*
%
%ADD174ROUNDEDRECTD174*%
%TA.AperFunction,OtherPad,Pad Q5A-9 (4808.268mil,4118.701mil)*%
G04:AMPARAMS|DCode=175|XSize=37.402mil|YSize=44.488mil|CornerRadius=2.057mil|HoleSize=0mil|Usage=FLASHONLY|Rotation=90.000|XOffset=0mil|YOffset=0mil|HoleType=Round|Shape=RoundedRectangle|*
%AMROUNDEDRECTD175*
21,1,0.037402,0.040374,0,0,90.0*
21,1,0.033287,0.044488,0,0,90.0*
1,1,0.004114,0.020187,0.016644*
1,1,0.004114,0.020187,-0.016644*
1,1,0.004114,-0.020187,-0.016644*
1,1,0.004114,-0.020187,0.016644*
%
%ADD175ROUNDEDRECTD175*%
%TA.AperFunction,OtherPad,Pad Q5A-9 (4912.992mil,4163.976mil)*%
G04:AMPARAMS|DCode=176|XSize=37.402mil|YSize=44.488mil|CornerRadius=2.057mil|HoleSize=0mil|Usage=FLASHONLY|Rotation=90.000|XOffset=0mil|YOffset=0mil|HoleType=Round|Shape=RoundedRectangle|*
%AMROUNDEDRECTD176*
21,1,0.037402,0.040374,0,0,90.0*
21,1,0.033287,0.044488,0,0,90.0*
1,1,0.004114,0.020187,0.016644*
1,1,0.004114,0.020187,-0.016644*
1,1,0.004114,-0.020187,-0.016644*
1,1,0.004114,-0.020187,0.016644*
%
%ADD176ROUNDEDRECTD176*%
%TA.AperFunction,OtherPad,Pad Q5A-9 (4912.992mil,4073.425mil)*%
G04:AMPARAMS|DCode=177|XSize=37.402mil|YSize=44.488mil|CornerRadius=2.057mil|HoleSize=0mil|Usage=FLASHONLY|Rotation=90.000|XOffset=0mil|YOffset=0mil|HoleType=Round|Shape=RoundedRectangle|*
%AMROUNDEDRECTD177*
21,1,0.037402,0.040374,0,0,90.0*
21,1,0.033287,0.044488,0,0,90.0*
1,1,0.004114,0.020187,0.016644*
1,1,0.004114,0.020187,-0.016644*
1,1,0.004114,-0.020187,-0.016644*
1,1,0.004114,-0.020187,0.016644*
%
%ADD177ROUNDEDRECTD177*%
%TA.AperFunction,OtherPad,Pad Q5A-9 (4912.992mil,4118.701mil)*%
G04:AMPARAMS|DCode=178|XSize=37.402mil|YSize=44.488mil|CornerRadius=2.057mil|HoleSize=0mil|Usage=FLASHONLY|Rotation=90.000|XOffset=0mil|YOffset=0mil|HoleType=Round|Shape=RoundedRectangle|*
%AMROUNDEDRECTD178*
21,1,0.037402,0.040374,0,0,90.0*
21,1,0.033287,0.044488,0,0,90.0*
1,1,0.004114,0.020187,0.016644*
1,1,0.004114,0.020187,-0.016644*
1,1,0.004114,-0.020187,-0.016644*
1,1,0.004114,-0.020187,0.016644*
%
%ADD178ROUNDEDRECTD178*%
%TA.AperFunction,OtherPad,Pad Q4B-9 (4226.772mil,3126.575mil)*%
G04:AMPARAMS|DCode=179|XSize=37.402mil|YSize=44.488mil|CornerRadius=2.057mil|HoleSize=0mil|Usage=FLASHONLY|Rotation=90.000|XOffset=0mil|YOffset=0mil|HoleType=Round|Shape=RoundedRectangle|*
%AMROUNDEDRECTD179*
21,1,0.037402,0.040374,0,0,90.0*
21,1,0.033287,0.044488,0,0,90.0*
1,1,0.004114,0.020187,0.016644*
1,1,0.004114,0.020187,-0.016644*
1,1,0.004114,-0.020187,-0.016644*
1,1,0.004114,-0.020187,0.016644*
%
%ADD179ROUNDEDRECTD179*%
%TA.AperFunction,OtherPad,Pad Q4B-9 (4226.772mil,3081.299mil)*%
G04:AMPARAMS|DCode=180|XSize=37.402mil|YSize=44.488mil|CornerRadius=2.057mil|HoleSize=0mil|Usage=FLASHONLY|Rotation=90.000|XOffset=0mil|YOffset=0mil|HoleType=Round|Shape=RoundedRectangle|*
%AMROUNDEDRECTD180*
21,1,0.037402,0.040374,0,0,90.0*
21,1,0.033287,0.044488,0,0,90.0*
1,1,0.004114,0.020187,0.016644*
1,1,0.004114,0.020187,-0.016644*
1,1,0.004114,-0.020187,-0.016644*
1,1,0.004114,-0.020187,0.016644*
%
%ADD180ROUNDEDRECTD180*%
%TA.AperFunction,OtherPad,Pad Q4B-9 (4226.772mil,3171.85mil)*%
G04:AMPARAMS|DCode=181|XSize=37.402mil|YSize=44.488mil|CornerRadius=2.057mil|HoleSize=0mil|Usage=FLASHONLY|Rotation=90.000|XOffset=0mil|YOffset=0mil|HoleType=Round|Shape=RoundedRectangle|*
%AMROUNDEDRECTD181*
21,1,0.037402,0.040374,0,0,90.0*
21,1,0.033287,0.044488,0,0,90.0*
1,1,0.004114,0.020187,0.016644*
1,1,0.004114,0.020187,-0.016644*
1,1,0.004114,-0.020187,-0.016644*
1,1,0.004114,-0.020187,0.016644*
%
%ADD181ROUNDEDRECTD181*%
%TA.AperFunction,OtherPad,Pad Q4B-9 (4174.409mil,3171.85mil)*%
G04:AMPARAMS|DCode=182|XSize=37.402mil|YSize=44.488mil|CornerRadius=2.057mil|HoleSize=0mil|Usage=FLASHONLY|Rotation=90.000|XOffset=0mil|YOffset=0mil|HoleType=Round|Shape=RoundedRectangle|*
%AMROUNDEDRECTD182*
21,1,0.037402,0.040374,0,0,90.0*
21,1,0.033287,0.044488,0,0,90.0*
1,1,0.004114,0.020187,0.016644*
1,1,0.004114,0.020187,-0.016644*
1,1,0.004114,-0.020187,-0.016644*
1,1,0.004114,-0.020187,0.016644*
%
%ADD182ROUNDEDRECTD182*%
%TA.AperFunction,OtherPad,Pad Q4B-9 (4174.409mil,3081.299mil)*%
G04:AMPARAMS|DCode=183|XSize=37.402mil|YSize=44.488mil|CornerRadius=2.057mil|HoleSize=0mil|Usage=FLASHONLY|Rotation=90.000|XOffset=0mil|YOffset=0mil|HoleType=Round|Shape=RoundedRectangle|*
%AMROUNDEDRECTD183*
21,1,0.037402,0.040374,0,0,90.0*
21,1,0.033287,0.044488,0,0,90.0*
1,1,0.004114,0.020187,0.016644*
1,1,0.004114,0.020187,-0.016644*
1,1,0.004114,-0.020187,-0.016644*
1,1,0.004114,-0.020187,0.016644*
%
%ADD183ROUNDEDRECTD183*%
%TA.AperFunction,OtherPad,Pad Q4B-9 (4174.409mil,3126.575mil)*%
G04:AMPARAMS|DCode=184|XSize=37.402mil|YSize=44.488mil|CornerRadius=2.057mil|HoleSize=0mil|Usage=FLASHONLY|Rotation=90.000|XOffset=0mil|YOffset=0mil|HoleType=Round|Shape=RoundedRectangle|*
%AMROUNDEDRECTD184*
21,1,0.037402,0.040374,0,0,90.0*
21,1,0.033287,0.044488,0,0,90.0*
1,1,0.004114,0.020187,0.016644*
1,1,0.004114,0.020187,-0.016644*
1,1,0.004114,-0.020187,-0.016644*
1,1,0.004114,-0.020187,0.016644*
%
%ADD184ROUNDEDRECTD184*%
%TA.AperFunction,OtherPad,Pad Q4B-9 (4279.134mil,3171.85mil)*%
G04:AMPARAMS|DCode=185|XSize=37.402mil|YSize=44.488mil|CornerRadius=2.057mil|HoleSize=0mil|Usage=FLASHONLY|Rotation=90.000|XOffset=0mil|YOffset=0mil|HoleType=Round|Shape=RoundedRectangle|*
%AMROUNDEDRECTD185*
21,1,0.037402,0.040374,0,0,90.0*
21,1,0.033287,0.044488,0,0,90.0*
1,1,0.004114,0.020187,0.016644*
1,1,0.004114,0.020187,-0.016644*
1,1,0.004114,-0.020187,-0.016644*
1,1,0.004114,-0.020187,0.016644*
%
%ADD185ROUNDEDRECTD185*%
%TA.AperFunction,OtherPad,Pad Q4B-9 (4279.134mil,3081.299mil)*%
G04:AMPARAMS|DCode=186|XSize=37.402mil|YSize=44.488mil|CornerRadius=2.057mil|HoleSize=0mil|Usage=FLASHONLY|Rotation=90.000|XOffset=0mil|YOffset=0mil|HoleType=Round|Shape=RoundedRectangle|*
%AMROUNDEDRECTD186*
21,1,0.037402,0.040374,0,0,90.0*
21,1,0.033287,0.044488,0,0,90.0*
1,1,0.004114,0.020187,0.016644*
1,1,0.004114,0.020187,-0.016644*
1,1,0.004114,-0.020187,-0.016644*
1,1,0.004114,-0.020187,0.016644*
%
%ADD186ROUNDEDRECTD186*%
%TA.AperFunction,OtherPad,Pad Q4B-9 (4279.134mil,3126.575mil)*%
G04:AMPARAMS|DCode=187|XSize=37.402mil|YSize=44.488mil|CornerRadius=2.057mil|HoleSize=0mil|Usage=FLASHONLY|Rotation=90.000|XOffset=0mil|YOffset=0mil|HoleType=Round|Shape=RoundedRectangle|*
%AMROUNDEDRECTD187*
21,1,0.037402,0.040374,0,0,90.0*
21,1,0.033287,0.044488,0,0,90.0*
1,1,0.004114,0.020187,0.016644*
1,1,0.004114,0.020187,-0.016644*
1,1,0.004114,-0.020187,-0.016644*
1,1,0.004114,-0.020187,0.016644*
%
%ADD187ROUNDEDRECTD187*%
%TA.AperFunction,OtherPad,Pad Q4A-9 (4226.772mil,4536.024mil)*%
G04:AMPARAMS|DCode=188|XSize=37.402mil|YSize=44.488mil|CornerRadius=2.057mil|HoleSize=0mil|Usage=FLASHONLY|Rotation=90.000|XOffset=0mil|YOffset=0mil|HoleType=Round|Shape=RoundedRectangle|*
%AMROUNDEDRECTD188*
21,1,0.037402,0.040374,0,0,90.0*
21,1,0.033287,0.044488,0,0,90.0*
1,1,0.004114,0.020187,0.016644*
1,1,0.004114,0.020187,-0.016644*
1,1,0.004114,-0.020187,-0.016644*
1,1,0.004114,-0.020187,0.016644*
%
%ADD188ROUNDEDRECTD188*%
%TA.AperFunction,OtherPad,Pad Q4A-9 (4226.772mil,4490.748mil)*%
G04:AMPARAMS|DCode=189|XSize=37.402mil|YSize=44.488mil|CornerRadius=2.057mil|HoleSize=0mil|Usage=FLASHONLY|Rotation=90.000|XOffset=0mil|YOffset=0mil|HoleType=Round|Shape=RoundedRectangle|*
%AMROUNDEDRECTD189*
21,1,0.037402,0.040374,0,0,90.0*
21,1,0.033287,0.044488,0,0,90.0*
1,1,0.004114,0.020187,0.016644*
1,1,0.004114,0.020187,-0.016644*
1,1,0.004114,-0.020187,-0.016644*
1,1,0.004114,-0.020187,0.016644*
%
%ADD189ROUNDEDRECTD189*%
%TA.AperFunction,OtherPad,Pad Q4A-9 (4226.772mil,4581.299mil)*%
G04:AMPARAMS|DCode=190|XSize=37.402mil|YSize=44.488mil|CornerRadius=2.057mil|HoleSize=0mil|Usage=FLASHONLY|Rotation=90.000|XOffset=0mil|YOffset=0mil|HoleType=Round|Shape=RoundedRectangle|*
%AMROUNDEDRECTD190*
21,1,0.037402,0.040374,0,0,90.0*
21,1,0.033287,0.044488,0,0,90.0*
1,1,0.004114,0.020187,0.016644*
1,1,0.004114,0.020187,-0.016644*
1,1,0.004114,-0.020187,-0.016644*
1,1,0.004114,-0.020187,0.016644*
%
%ADD190ROUNDEDRECTD190*%
%TA.AperFunction,OtherPad,Pad Q4A-9 (4174.409mil,4581.299mil)*%
G04:AMPARAMS|DCode=191|XSize=37.402mil|YSize=44.488mil|CornerRadius=2.057mil|HoleSize=0mil|Usage=FLASHONLY|Rotation=90.000|XOffset=0mil|YOffset=0mil|HoleType=Round|Shape=RoundedRectangle|*
%AMROUNDEDRECTD191*
21,1,0.037402,0.040374,0,0,90.0*
21,1,0.033287,0.044488,0,0,90.0*
1,1,0.004114,0.020187,0.016644*
1,1,0.004114,0.020187,-0.016644*
1,1,0.004114,-0.020187,-0.016644*
1,1,0.004114,-0.020187,0.016644*
%
%ADD191ROUNDEDRECTD191*%
%TA.AperFunction,OtherPad,Pad Q4A-9 (4174.409mil,4490.748mil)*%
G04:AMPARAMS|DCode=192|XSize=37.402mil|YSize=44.488mil|CornerRadius=2.057mil|HoleSize=0mil|Usage=FLASHONLY|Rotation=90.000|XOffset=0mil|YOffset=0mil|HoleType=Round|Shape=RoundedRectangle|*
%AMROUNDEDRECTD192*
21,1,0.037402,0.040374,0,0,90.0*
21,1,0.033287,0.044488,0,0,90.0*
1,1,0.004114,0.020187,0.016644*
1,1,0.004114,0.020187,-0.016644*
1,1,0.004114,-0.020187,-0.016644*
1,1,0.004114,-0.020187,0.016644*
%
%ADD192ROUNDEDRECTD192*%
%TA.AperFunction,OtherPad,Pad Q4A-9 (4174.409mil,4536.024mil)*%
G04:AMPARAMS|DCode=193|XSize=37.402mil|YSize=44.488mil|CornerRadius=2.057mil|HoleSize=0mil|Usage=FLASHONLY|Rotation=90.000|XOffset=0mil|YOffset=0mil|HoleType=Round|Shape=RoundedRectangle|*
%AMROUNDEDRECTD193*
21,1,0.037402,0.040374,0,0,90.0*
21,1,0.033287,0.044488,0,0,90.0*
1,1,0.004114,0.020187,0.016644*
1,1,0.004114,0.020187,-0.016644*
1,1,0.004114,-0.020187,-0.016644*
1,1,0.004114,-0.020187,0.016644*
%
%ADD193ROUNDEDRECTD193*%
%TA.AperFunction,OtherPad,Pad Q4A-9 (4279.134mil,4581.299mil)*%
G04:AMPARAMS|DCode=194|XSize=37.402mil|YSize=44.488mil|CornerRadius=2.057mil|HoleSize=0mil|Usage=FLASHONLY|Rotation=90.000|XOffset=0mil|YOffset=0mil|HoleType=Round|Shape=RoundedRectangle|*
%AMROUNDEDRECTD194*
21,1,0.037402,0.040374,0,0,90.0*
21,1,0.033287,0.044488,0,0,90.0*
1,1,0.004114,0.020187,0.016644*
1,1,0.004114,0.020187,-0.016644*
1,1,0.004114,-0.020187,-0.016644*
1,1,0.004114,-0.020187,0.016644*
%
%ADD194ROUNDEDRECTD194*%
%TA.AperFunction,OtherPad,Pad Q4A-9 (4279.134mil,4490.748mil)*%
G04:AMPARAMS|DCode=195|XSize=37.402mil|YSize=44.488mil|CornerRadius=2.057mil|HoleSize=0mil|Usage=FLASHONLY|Rotation=90.000|XOffset=0mil|YOffset=0mil|HoleType=Round|Shape=RoundedRectangle|*
%AMROUNDEDRECTD195*
21,1,0.037402,0.040374,0,0,90.0*
21,1,0.033287,0.044488,0,0,90.0*
1,1,0.004114,0.020187,0.016644*
1,1,0.004114,0.020187,-0.016644*
1,1,0.004114,-0.020187,-0.016644*
1,1,0.004114,-0.020187,0.016644*
%
%ADD195ROUNDEDRECTD195*%
%TA.AperFunction,OtherPad,Pad Q4A-9 (4279.134mil,4536.024mil)*%
G04:AMPARAMS|DCode=196|XSize=37.402mil|YSize=44.488mil|CornerRadius=2.057mil|HoleSize=0mil|Usage=FLASHONLY|Rotation=90.000|XOffset=0mil|YOffset=0mil|HoleType=Round|Shape=RoundedRectangle|*
%AMROUNDEDRECTD196*
21,1,0.037402,0.040374,0,0,90.0*
21,1,0.033287,0.044488,0,0,90.0*
1,1,0.004114,0.020187,0.016644*
1,1,0.004114,0.020187,-0.016644*
1,1,0.004114,-0.020187,-0.016644*
1,1,0.004114,-0.020187,0.016644*
%
%ADD196ROUNDEDRECTD196*%
%TA.AperFunction,OtherPad,Pad Q3B-9 (4860.63mil,3177.756mil)*%
G04:AMPARAMS|DCode=197|XSize=37.402mil|YSize=44.488mil|CornerRadius=2.057mil|HoleSize=0mil|Usage=FLASHONLY|Rotation=90.000|XOffset=0mil|YOffset=0mil|HoleType=Round|Shape=RoundedRectangle|*
%AMROUNDEDRECTD197*
21,1,0.037402,0.040374,0,0,90.0*
21,1,0.033287,0.044488,0,0,90.0*
1,1,0.004114,0.020187,0.016644*
1,1,0.004114,0.020187,-0.016644*
1,1,0.004114,-0.020187,-0.016644*
1,1,0.004114,-0.020187,0.016644*
%
%ADD197ROUNDEDRECTD197*%
%TA.AperFunction,OtherPad,Pad Q3B-9 (4860.63mil,3132.48mil)*%
G04:AMPARAMS|DCode=198|XSize=37.402mil|YSize=44.488mil|CornerRadius=2.057mil|HoleSize=0mil|Usage=FLASHONLY|Rotation=90.000|XOffset=0mil|YOffset=0mil|HoleType=Round|Shape=RoundedRectangle|*
%AMROUNDEDRECTD198*
21,1,0.037402,0.040374,0,0,90.0*
21,1,0.033287,0.044488,0,0,90.0*
1,1,0.004114,0.020187,0.016644*
1,1,0.004114,0.020187,-0.016644*
1,1,0.004114,-0.020187,-0.016644*
1,1,0.004114,-0.020187,0.016644*
%
%ADD198ROUNDEDRECTD198*%
%TA.AperFunction,OtherPad,Pad Q3B-9 (4860.63mil,3223.032mil)*%
G04:AMPARAMS|DCode=199|XSize=37.402mil|YSize=44.488mil|CornerRadius=2.057mil|HoleSize=0mil|Usage=FLASHONLY|Rotation=90.000|XOffset=0mil|YOffset=0mil|HoleType=Round|Shape=RoundedRectangle|*
%AMROUNDEDRECTD199*
21,1,0.037402,0.040374,0,0,90.0*
21,1,0.033287,0.044488,0,0,90.0*
1,1,0.004114,0.020187,0.016644*
1,1,0.004114,0.020187,-0.016644*
1,1,0.004114,-0.020187,-0.016644*
1,1,0.004114,-0.020187,0.016644*
%
%ADD199ROUNDEDRECTD199*%
%TA.AperFunction,OtherPad,Pad Q3B-9 (4808.268mil,3223.032mil)*%
G04:AMPARAMS|DCode=200|XSize=37.402mil|YSize=44.488mil|CornerRadius=2.057mil|HoleSize=0mil|Usage=FLASHONLY|Rotation=90.000|XOffset=0mil|YOffset=0mil|HoleType=Round|Shape=RoundedRectangle|*
%AMROUNDEDRECTD200*
21,1,0.037402,0.040374,0,0,90.0*
21,1,0.033287,0.044488,0,0,90.0*
1,1,0.004114,0.020187,0.016644*
1,1,0.004114,0.020187,-0.016644*
1,1,0.004114,-0.020187,-0.016644*
1,1,0.004114,-0.020187,0.016644*
%
%ADD200ROUNDEDRECTD200*%
%TA.AperFunction,OtherPad,Pad Q3B-9 (4808.268mil,3132.48mil)*%
G04:AMPARAMS|DCode=201|XSize=37.402mil|YSize=44.488mil|CornerRadius=2.057mil|HoleSize=0mil|Usage=FLASHONLY|Rotation=90.000|XOffset=0mil|YOffset=0mil|HoleType=Round|Shape=RoundedRectangle|*
%AMROUNDEDRECTD201*
21,1,0.037402,0.040374,0,0,90.0*
21,1,0.033287,0.044488,0,0,90.0*
1,1,0.004114,0.020187,0.016644*
1,1,0.004114,0.020187,-0.016644*
1,1,0.004114,-0.020187,-0.016644*
1,1,0.004114,-0.020187,0.016644*
%
%ADD201ROUNDEDRECTD201*%
%TA.AperFunction,OtherPad,Pad Q3B-9 (4808.268mil,3177.756mil)*%
G04:AMPARAMS|DCode=202|XSize=37.402mil|YSize=44.488mil|CornerRadius=2.057mil|HoleSize=0mil|Usage=FLASHONLY|Rotation=90.000|XOffset=0mil|YOffset=0mil|HoleType=Round|Shape=RoundedRectangle|*
%AMROUNDEDRECTD202*
21,1,0.037402,0.040374,0,0,90.0*
21,1,0.033287,0.044488,0,0,90.0*
1,1,0.004114,0.020187,0.016644*
1,1,0.004114,0.020187,-0.016644*
1,1,0.004114,-0.020187,-0.016644*
1,1,0.004114,-0.020187,0.016644*
%
%ADD202ROUNDEDRECTD202*%
%TA.AperFunction,OtherPad,Pad Q3B-9 (4912.992mil,3223.032mil)*%
G04:AMPARAMS|DCode=203|XSize=37.402mil|YSize=44.488mil|CornerRadius=2.057mil|HoleSize=0mil|Usage=FLASHONLY|Rotation=90.000|XOffset=0mil|YOffset=0mil|HoleType=Round|Shape=RoundedRectangle|*
%AMROUNDEDRECTD203*
21,1,0.037402,0.040374,0,0,90.0*
21,1,0.033287,0.044488,0,0,90.0*
1,1,0.004114,0.020187,0.016644*
1,1,0.004114,0.020187,-0.016644*
1,1,0.004114,-0.020187,-0.016644*
1,1,0.004114,-0.020187,0.016644*
%
%ADD203ROUNDEDRECTD203*%
%TA.AperFunction,OtherPad,Pad Q3B-9 (4912.992mil,3132.48mil)*%
G04:AMPARAMS|DCode=204|XSize=37.402mil|YSize=44.488mil|CornerRadius=2.057mil|HoleSize=0mil|Usage=FLASHONLY|Rotation=90.000|XOffset=0mil|YOffset=0mil|HoleType=Round|Shape=RoundedRectangle|*
%AMROUNDEDRECTD204*
21,1,0.037402,0.040374,0,0,90.0*
21,1,0.033287,0.044488,0,0,90.0*
1,1,0.004114,0.020187,0.016644*
1,1,0.004114,0.020187,-0.016644*
1,1,0.004114,-0.020187,-0.016644*
1,1,0.004114,-0.020187,0.016644*
%
%ADD204ROUNDEDRECTD204*%
%TA.AperFunction,OtherPad,Pad Q3B-9 (4912.992mil,3177.756mil)*%
G04:AMPARAMS|DCode=205|XSize=37.402mil|YSize=44.488mil|CornerRadius=2.057mil|HoleSize=0mil|Usage=FLASHONLY|Rotation=90.000|XOffset=0mil|YOffset=0mil|HoleType=Round|Shape=RoundedRectangle|*
%AMROUNDEDRECTD205*
21,1,0.037402,0.040374,0,0,90.0*
21,1,0.033287,0.044488,0,0,90.0*
1,1,0.004114,0.020187,0.016644*
1,1,0.004114,0.020187,-0.016644*
1,1,0.004114,-0.020187,-0.016644*
1,1,0.004114,-0.020187,0.016644*
%
%ADD205ROUNDEDRECTD205*%
%TA.AperFunction,OtherPad,Pad Q3A-9 (4860.63mil,4587.205mil)*%
G04:AMPARAMS|DCode=206|XSize=37.402mil|YSize=44.488mil|CornerRadius=2.057mil|HoleSize=0mil|Usage=FLASHONLY|Rotation=90.000|XOffset=0mil|YOffset=0mil|HoleType=Round|Shape=RoundedRectangle|*
%AMROUNDEDRECTD206*
21,1,0.037402,0.040374,0,0,90.0*
21,1,0.033287,0.044488,0,0,90.0*
1,1,0.004114,0.020187,0.016644*
1,1,0.004114,0.020187,-0.016644*
1,1,0.004114,-0.020187,-0.016644*
1,1,0.004114,-0.020187,0.016644*
%
%ADD206ROUNDEDRECTD206*%
%TA.AperFunction,OtherPad,Pad Q3A-9 (4860.63mil,4541.929mil)*%
G04:AMPARAMS|DCode=207|XSize=37.402mil|YSize=44.488mil|CornerRadius=2.057mil|HoleSize=0mil|Usage=FLASHONLY|Rotation=90.000|XOffset=0mil|YOffset=0mil|HoleType=Round|Shape=RoundedRectangle|*
%AMROUNDEDRECTD207*
21,1,0.037402,0.040374,0,0,90.0*
21,1,0.033287,0.044488,0,0,90.0*
1,1,0.004114,0.020187,0.016644*
1,1,0.004114,0.020187,-0.016644*
1,1,0.004114,-0.020187,-0.016644*
1,1,0.004114,-0.020187,0.016644*
%
%ADD207ROUNDEDRECTD207*%
%TA.AperFunction,OtherPad,Pad Q3A-9 (4860.63mil,4632.48mil)*%
G04:AMPARAMS|DCode=208|XSize=37.402mil|YSize=44.488mil|CornerRadius=2.057mil|HoleSize=0mil|Usage=FLASHONLY|Rotation=90.000|XOffset=0mil|YOffset=0mil|HoleType=Round|Shape=RoundedRectangle|*
%AMROUNDEDRECTD208*
21,1,0.037402,0.040374,0,0,90.0*
21,1,0.033287,0.044488,0,0,90.0*
1,1,0.004114,0.020187,0.016644*
1,1,0.004114,0.020187,-0.016644*
1,1,0.004114,-0.020187,-0.016644*
1,1,0.004114,-0.020187,0.016644*
%
%ADD208ROUNDEDRECTD208*%
%TA.AperFunction,OtherPad,Pad Q3A-9 (4808.268mil,4632.48mil)*%
G04:AMPARAMS|DCode=209|XSize=37.402mil|YSize=44.488mil|CornerRadius=2.057mil|HoleSize=0mil|Usage=FLASHONLY|Rotation=90.000|XOffset=0mil|YOffset=0mil|HoleType=Round|Shape=RoundedRectangle|*
%AMROUNDEDRECTD209*
21,1,0.037402,0.040374,0,0,90.0*
21,1,0.033287,0.044488,0,0,90.0*
1,1,0.004114,0.020187,0.016644*
1,1,0.004114,0.020187,-0.016644*
1,1,0.004114,-0.020187,-0.016644*
1,1,0.004114,-0.020187,0.016644*
%
%ADD209ROUNDEDRECTD209*%
%TA.AperFunction,OtherPad,Pad Q3A-9 (4808.268mil,4541.929mil)*%
G04:AMPARAMS|DCode=210|XSize=37.402mil|YSize=44.488mil|CornerRadius=2.057mil|HoleSize=0mil|Usage=FLASHONLY|Rotation=90.000|XOffset=0mil|YOffset=0mil|HoleType=Round|Shape=RoundedRectangle|*
%AMROUNDEDRECTD210*
21,1,0.037402,0.040374,0,0,90.0*
21,1,0.033287,0.044488,0,0,90.0*
1,1,0.004114,0.020187,0.016644*
1,1,0.004114,0.020187,-0.016644*
1,1,0.004114,-0.020187,-0.016644*
1,1,0.004114,-0.020187,0.016644*
%
%ADD210ROUNDEDRECTD210*%
%TA.AperFunction,OtherPad,Pad Q3A-9 (4808.268mil,4587.205mil)*%
G04:AMPARAMS|DCode=211|XSize=37.402mil|YSize=44.488mil|CornerRadius=2.057mil|HoleSize=0mil|Usage=FLASHONLY|Rotation=90.000|XOffset=0mil|YOffset=0mil|HoleType=Round|Shape=RoundedRectangle|*
%AMROUNDEDRECTD211*
21,1,0.037402,0.040374,0,0,90.0*
21,1,0.033287,0.044488,0,0,90.0*
1,1,0.004114,0.020187,0.016644*
1,1,0.004114,0.020187,-0.016644*
1,1,0.004114,-0.020187,-0.016644*
1,1,0.004114,-0.020187,0.016644*
%
%ADD211ROUNDEDRECTD211*%
%TA.AperFunction,OtherPad,Pad Q3A-9 (4912.992mil,4632.48mil)*%
G04:AMPARAMS|DCode=212|XSize=37.402mil|YSize=44.488mil|CornerRadius=2.057mil|HoleSize=0mil|Usage=FLASHONLY|Rotation=90.000|XOffset=0mil|YOffset=0mil|HoleType=Round|Shape=RoundedRectangle|*
%AMROUNDEDRECTD212*
21,1,0.037402,0.040374,0,0,90.0*
21,1,0.033287,0.044488,0,0,90.0*
1,1,0.004114,0.020187,0.016644*
1,1,0.004114,0.020187,-0.016644*
1,1,0.004114,-0.020187,-0.016644*
1,1,0.004114,-0.020187,0.016644*
%
%ADD212ROUNDEDRECTD212*%
%TA.AperFunction,OtherPad,Pad Q3A-9 (4912.992mil,4541.929mil)*%
G04:AMPARAMS|DCode=213|XSize=37.402mil|YSize=44.488mil|CornerRadius=2.057mil|HoleSize=0mil|Usage=FLASHONLY|Rotation=90.000|XOffset=0mil|YOffset=0mil|HoleType=Round|Shape=RoundedRectangle|*
%AMROUNDEDRECTD213*
21,1,0.037402,0.040374,0,0,90.0*
21,1,0.033287,0.044488,0,0,90.0*
1,1,0.004114,0.020187,0.016644*
1,1,0.004114,0.020187,-0.016644*
1,1,0.004114,-0.020187,-0.016644*
1,1,0.004114,-0.020187,0.016644*
%
%ADD213ROUNDEDRECTD213*%
%TA.AperFunction,OtherPad,Pad Q3A-9 (4912.992mil,4587.205mil)*%
G04:AMPARAMS|DCode=214|XSize=37.402mil|YSize=44.488mil|CornerRadius=2.057mil|HoleSize=0mil|Usage=FLASHONLY|Rotation=90.000|XOffset=0mil|YOffset=0mil|HoleType=Round|Shape=RoundedRectangle|*
%AMROUNDEDRECTD214*
21,1,0.037402,0.040374,0,0,90.0*
21,1,0.033287,0.044488,0,0,90.0*
1,1,0.004114,0.020187,0.016644*
1,1,0.004114,0.020187,-0.016644*
1,1,0.004114,-0.020187,-0.016644*
1,1,0.004114,-0.020187,0.016644*
%
%ADD214ROUNDEDRECTD214*%
%TA.AperFunction,OtherPad,Pad Q2B-9 (4226.772mil,3595.079mil)*%
G04:AMPARAMS|DCode=215|XSize=37.402mil|YSize=44.488mil|CornerRadius=2.057mil|HoleSize=0mil|Usage=FLASHONLY|Rotation=90.000|XOffset=0mil|YOffset=0mil|HoleType=Round|Shape=RoundedRectangle|*
%AMROUNDEDRECTD215*
21,1,0.037402,0.040374,0,0,90.0*
21,1,0.033287,0.044488,0,0,90.0*
1,1,0.004114,0.020187,0.016644*
1,1,0.004114,0.020187,-0.016644*
1,1,0.004114,-0.020187,-0.016644*
1,1,0.004114,-0.020187,0.016644*
%
%ADD215ROUNDEDRECTD215*%
%TA.AperFunction,OtherPad,Pad Q2B-9 (4226.772mil,3549.803mil)*%
G04:AMPARAMS|DCode=216|XSize=37.402mil|YSize=44.488mil|CornerRadius=2.057mil|HoleSize=0mil|Usage=FLASHONLY|Rotation=90.000|XOffset=0mil|YOffset=0mil|HoleType=Round|Shape=RoundedRectangle|*
%AMROUNDEDRECTD216*
21,1,0.037402,0.040374,0,0,90.0*
21,1,0.033287,0.044488,0,0,90.0*
1,1,0.004114,0.020187,0.016644*
1,1,0.004114,0.020187,-0.016644*
1,1,0.004114,-0.020187,-0.016644*
1,1,0.004114,-0.020187,0.016644*
%
%ADD216ROUNDEDRECTD216*%
%TA.AperFunction,OtherPad,Pad Q2B-9 (4226.772mil,3640.354mil)*%
G04:AMPARAMS|DCode=217|XSize=37.402mil|YSize=44.488mil|CornerRadius=2.057mil|HoleSize=0mil|Usage=FLASHONLY|Rotation=90.000|XOffset=0mil|YOffset=0mil|HoleType=Round|Shape=RoundedRectangle|*
%AMROUNDEDRECTD217*
21,1,0.037402,0.040374,0,0,90.0*
21,1,0.033287,0.044488,0,0,90.0*
1,1,0.004114,0.020187,0.016644*
1,1,0.004114,0.020187,-0.016644*
1,1,0.004114,-0.020187,-0.016644*
1,1,0.004114,-0.020187,0.016644*
%
%ADD217ROUNDEDRECTD217*%
%TA.AperFunction,OtherPad,Pad Q2B-9 (4174.409mil,3640.354mil)*%
G04:AMPARAMS|DCode=218|XSize=37.402mil|YSize=44.488mil|CornerRadius=2.057mil|HoleSize=0mil|Usage=FLASHONLY|Rotation=90.000|XOffset=0mil|YOffset=0mil|HoleType=Round|Shape=RoundedRectangle|*
%AMROUNDEDRECTD218*
21,1,0.037402,0.040374,0,0,90.0*
21,1,0.033287,0.044488,0,0,90.0*
1,1,0.004114,0.020187,0.016644*
1,1,0.004114,0.020187,-0.016644*
1,1,0.004114,-0.020187,-0.016644*
1,1,0.004114,-0.020187,0.016644*
%
%ADD218ROUNDEDRECTD218*%
%TA.AperFunction,OtherPad,Pad Q2B-9 (4174.409mil,3549.803mil)*%
G04:AMPARAMS|DCode=219|XSize=37.402mil|YSize=44.488mil|CornerRadius=2.057mil|HoleSize=0mil|Usage=FLASHONLY|Rotation=90.000|XOffset=0mil|YOffset=0mil|HoleType=Round|Shape=RoundedRectangle|*
%AMROUNDEDRECTD219*
21,1,0.037402,0.040374,0,0,90.0*
21,1,0.033287,0.044488,0,0,90.0*
1,1,0.004114,0.020187,0.016644*
1,1,0.004114,0.020187,-0.016644*
1,1,0.004114,-0.020187,-0.016644*
1,1,0.004114,-0.020187,0.016644*
%
%ADD219ROUNDEDRECTD219*%
%TA.AperFunction,OtherPad,Pad Q2B-9 (4174.409mil,3595.079mil)*%
G04:AMPARAMS|DCode=220|XSize=37.402mil|YSize=44.488mil|CornerRadius=2.057mil|HoleSize=0mil|Usage=FLASHONLY|Rotation=90.000|XOffset=0mil|YOffset=0mil|HoleType=Round|Shape=RoundedRectangle|*
%AMROUNDEDRECTD220*
21,1,0.037402,0.040374,0,0,90.0*
21,1,0.033287,0.044488,0,0,90.0*
1,1,0.004114,0.020187,0.016644*
1,1,0.004114,0.020187,-0.016644*
1,1,0.004114,-0.020187,-0.016644*
1,1,0.004114,-0.020187,0.016644*
%
%ADD220ROUNDEDRECTD220*%
%TA.AperFunction,OtherPad,Pad Q2B-9 (4279.134mil,3640.354mil)*%
G04:AMPARAMS|DCode=221|XSize=37.402mil|YSize=44.488mil|CornerRadius=2.057mil|HoleSize=0mil|Usage=FLASHONLY|Rotation=90.000|XOffset=0mil|YOffset=0mil|HoleType=Round|Shape=RoundedRectangle|*
%AMROUNDEDRECTD221*
21,1,0.037402,0.040374,0,0,90.0*
21,1,0.033287,0.044488,0,0,90.0*
1,1,0.004114,0.020187,0.016644*
1,1,0.004114,0.020187,-0.016644*
1,1,0.004114,-0.020187,-0.016644*
1,1,0.004114,-0.020187,0.016644*
%
%ADD221ROUNDEDRECTD221*%
%TA.AperFunction,OtherPad,Pad Q2B-9 (4279.134mil,3549.803mil)*%
G04:AMPARAMS|DCode=222|XSize=37.402mil|YSize=44.488mil|CornerRadius=2.057mil|HoleSize=0mil|Usage=FLASHONLY|Rotation=90.000|XOffset=0mil|YOffset=0mil|HoleType=Round|Shape=RoundedRectangle|*
%AMROUNDEDRECTD222*
21,1,0.037402,0.040374,0,0,90.0*
21,1,0.033287,0.044488,0,0,90.0*
1,1,0.004114,0.020187,0.016644*
1,1,0.004114,0.020187,-0.016644*
1,1,0.004114,-0.020187,-0.016644*
1,1,0.004114,-0.020187,0.016644*
%
%ADD222ROUNDEDRECTD222*%
%TA.AperFunction,OtherPad,Pad Q2B-9 (4279.134mil,3595.079mil)*%
G04:AMPARAMS|DCode=223|XSize=37.402mil|YSize=44.488mil|CornerRadius=2.057mil|HoleSize=0mil|Usage=FLASHONLY|Rotation=90.000|XOffset=0mil|YOffset=0mil|HoleType=Round|Shape=RoundedRectangle|*
%AMROUNDEDRECTD223*
21,1,0.037402,0.040374,0,0,90.0*
21,1,0.033287,0.044488,0,0,90.0*
1,1,0.004114,0.020187,0.016644*
1,1,0.004114,0.020187,-0.016644*
1,1,0.004114,-0.020187,-0.016644*
1,1,0.004114,-0.020187,0.016644*
%
%ADD223ROUNDEDRECTD223*%
%TA.AperFunction,OtherPad,Pad Q2A-9 (4226.772mil,5008.465mil)*%
G04:AMPARAMS|DCode=224|XSize=37.402mil|YSize=44.488mil|CornerRadius=2.057mil|HoleSize=0mil|Usage=FLASHONLY|Rotation=90.000|XOffset=0mil|YOffset=0mil|HoleType=Round|Shape=RoundedRectangle|*
%AMROUNDEDRECTD224*
21,1,0.037402,0.040374,0,0,90.0*
21,1,0.033287,0.044488,0,0,90.0*
1,1,0.004114,0.020187,0.016644*
1,1,0.004114,0.020187,-0.016644*
1,1,0.004114,-0.020187,-0.016644*
1,1,0.004114,-0.020187,0.016644*
%
%ADD224ROUNDEDRECTD224*%
%TA.AperFunction,OtherPad,Pad Q2A-9 (4226.772mil,4963.189mil)*%
G04:AMPARAMS|DCode=225|XSize=37.402mil|YSize=44.488mil|CornerRadius=2.057mil|HoleSize=0mil|Usage=FLASHONLY|Rotation=90.000|XOffset=0mil|YOffset=0mil|HoleType=Round|Shape=RoundedRectangle|*
%AMROUNDEDRECTD225*
21,1,0.037402,0.040374,0,0,90.0*
21,1,0.033287,0.044488,0,0,90.0*
1,1,0.004114,0.020187,0.016644*
1,1,0.004114,0.020187,-0.016644*
1,1,0.004114,-0.020187,-0.016644*
1,1,0.004114,-0.020187,0.016644*
%
%ADD225ROUNDEDRECTD225*%
%TA.AperFunction,OtherPad,Pad Q2A-9 (4226.772mil,5053.74mil)*%
G04:AMPARAMS|DCode=226|XSize=37.402mil|YSize=44.488mil|CornerRadius=2.057mil|HoleSize=0mil|Usage=FLASHONLY|Rotation=90.000|XOffset=0mil|YOffset=0mil|HoleType=Round|Shape=RoundedRectangle|*
%AMROUNDEDRECTD226*
21,1,0.037402,0.040374,0,0,90.0*
21,1,0.033287,0.044488,0,0,90.0*
1,1,0.004114,0.020187,0.016644*
1,1,0.004114,0.020187,-0.016644*
1,1,0.004114,-0.020187,-0.016644*
1,1,0.004114,-0.020187,0.016644*
%
%ADD226ROUNDEDRECTD226*%
%TA.AperFunction,OtherPad,Pad Q2A-9 (4174.409mil,5053.74mil)*%
G04:AMPARAMS|DCode=227|XSize=37.402mil|YSize=44.488mil|CornerRadius=2.057mil|HoleSize=0mil|Usage=FLASHONLY|Rotation=90.000|XOffset=0mil|YOffset=0mil|HoleType=Round|Shape=RoundedRectangle|*
%AMROUNDEDRECTD227*
21,1,0.037402,0.040374,0,0,90.0*
21,1,0.033287,0.044488,0,0,90.0*
1,1,0.004114,0.020187,0.016644*
1,1,0.004114,0.020187,-0.016644*
1,1,0.004114,-0.020187,-0.016644*
1,1,0.004114,-0.020187,0.016644*
%
%ADD227ROUNDEDRECTD227*%
%TA.AperFunction,OtherPad,Pad Q2A-9 (4174.409mil,4963.189mil)*%
G04:AMPARAMS|DCode=228|XSize=37.402mil|YSize=44.488mil|CornerRadius=2.057mil|HoleSize=0mil|Usage=FLASHONLY|Rotation=90.000|XOffset=0mil|YOffset=0mil|HoleType=Round|Shape=RoundedRectangle|*
%AMROUNDEDRECTD228*
21,1,0.037402,0.040374,0,0,90.0*
21,1,0.033287,0.044488,0,0,90.0*
1,1,0.004114,0.020187,0.016644*
1,1,0.004114,0.020187,-0.016644*
1,1,0.004114,-0.020187,-0.016644*
1,1,0.004114,-0.020187,0.016644*
%
%ADD228ROUNDEDRECTD228*%
%TA.AperFunction,OtherPad,Pad Q2A-9 (4174.409mil,5008.465mil)*%
G04:AMPARAMS|DCode=229|XSize=37.402mil|YSize=44.488mil|CornerRadius=2.057mil|HoleSize=0mil|Usage=FLASHONLY|Rotation=90.000|XOffset=0mil|YOffset=0mil|HoleType=Round|Shape=RoundedRectangle|*
%AMROUNDEDRECTD229*
21,1,0.037402,0.040374,0,0,90.0*
21,1,0.033287,0.044488,0,0,90.0*
1,1,0.004114,0.020187,0.016644*
1,1,0.004114,0.020187,-0.016644*
1,1,0.004114,-0.020187,-0.016644*
1,1,0.004114,-0.020187,0.016644*
%
%ADD229ROUNDEDRECTD229*%
%TA.AperFunction,OtherPad,Pad Q2A-9 (4279.134mil,5053.74mil)*%
G04:AMPARAMS|DCode=230|XSize=37.402mil|YSize=44.488mil|CornerRadius=2.057mil|HoleSize=0mil|Usage=FLASHONLY|Rotation=90.000|XOffset=0mil|YOffset=0mil|HoleType=Round|Shape=RoundedRectangle|*
%AMROUNDEDRECTD230*
21,1,0.037402,0.040374,0,0,90.0*
21,1,0.033287,0.044488,0,0,90.0*
1,1,0.004114,0.020187,0.016644*
1,1,0.004114,0.020187,-0.016644*
1,1,0.004114,-0.020187,-0.016644*
1,1,0.004114,-0.020187,0.016644*
%
%ADD230ROUNDEDRECTD230*%
%TA.AperFunction,OtherPad,Pad Q2A-9 (4279.134mil,4963.189mil)*%
G04:AMPARAMS|DCode=231|XSize=37.402mil|YSize=44.488mil|CornerRadius=2.057mil|HoleSize=0mil|Usage=FLASHONLY|Rotation=90.000|XOffset=0mil|YOffset=0mil|HoleType=Round|Shape=RoundedRectangle|*
%AMROUNDEDRECTD231*
21,1,0.037402,0.040374,0,0,90.0*
21,1,0.033287,0.044488,0,0,90.0*
1,1,0.004114,0.020187,0.016644*
1,1,0.004114,0.020187,-0.016644*
1,1,0.004114,-0.020187,-0.016644*
1,1,0.004114,-0.020187,0.016644*
%
%ADD231ROUNDEDRECTD231*%
%TA.AperFunction,OtherPad,Pad Q2A-9 (4279.134mil,5008.465mil)*%
G04:AMPARAMS|DCode=232|XSize=37.402mil|YSize=44.488mil|CornerRadius=2.057mil|HoleSize=0mil|Usage=FLASHONLY|Rotation=90.000|XOffset=0mil|YOffset=0mil|HoleType=Round|Shape=RoundedRectangle|*
%AMROUNDEDRECTD232*
21,1,0.037402,0.040374,0,0,90.0*
21,1,0.033287,0.044488,0,0,90.0*
1,1,0.004114,0.020187,0.016644*
1,1,0.004114,0.020187,-0.016644*
1,1,0.004114,-0.020187,-0.016644*
1,1,0.004114,-0.020187,0.016644*
%
%ADD232ROUNDEDRECTD232*%
%TA.AperFunction,OtherPad,Pad Q1B-9 (4860.63mil,3650.197mil)*%
G04:AMPARAMS|DCode=233|XSize=37.402mil|YSize=44.488mil|CornerRadius=2.057mil|HoleSize=0mil|Usage=FLASHONLY|Rotation=90.000|XOffset=0mil|YOffset=0mil|HoleType=Round|Shape=RoundedRectangle|*
%AMROUNDEDRECTD233*
21,1,0.037402,0.040374,0,0,90.0*
21,1,0.033287,0.044488,0,0,90.0*
1,1,0.004114,0.020187,0.016644*
1,1,0.004114,0.020187,-0.016644*
1,1,0.004114,-0.020187,-0.016644*
1,1,0.004114,-0.020187,0.016644*
%
%ADD233ROUNDEDRECTD233*%
%TA.AperFunction,OtherPad,Pad Q1B-9 (4860.63mil,3604.921mil)*%
G04:AMPARAMS|DCode=234|XSize=37.402mil|YSize=44.488mil|CornerRadius=2.057mil|HoleSize=0mil|Usage=FLASHONLY|Rotation=90.000|XOffset=0mil|YOffset=0mil|HoleType=Round|Shape=RoundedRectangle|*
%AMROUNDEDRECTD234*
21,1,0.037402,0.040374,0,0,90.0*
21,1,0.033287,0.044488,0,0,90.0*
1,1,0.004114,0.020187,0.016644*
1,1,0.004114,0.020187,-0.016644*
1,1,0.004114,-0.020187,-0.016644*
1,1,0.004114,-0.020187,0.016644*
%
%ADD234ROUNDEDRECTD234*%
%TA.AperFunction,OtherPad,Pad Q1B-9 (4860.63mil,3695.472mil)*%
G04:AMPARAMS|DCode=235|XSize=37.402mil|YSize=44.488mil|CornerRadius=2.057mil|HoleSize=0mil|Usage=FLASHONLY|Rotation=90.000|XOffset=0mil|YOffset=0mil|HoleType=Round|Shape=RoundedRectangle|*
%AMROUNDEDRECTD235*
21,1,0.037402,0.040374,0,0,90.0*
21,1,0.033287,0.044488,0,0,90.0*
1,1,0.004114,0.020187,0.016644*
1,1,0.004114,0.020187,-0.016644*
1,1,0.004114,-0.020187,-0.016644*
1,1,0.004114,-0.020187,0.016644*
%
%ADD235ROUNDEDRECTD235*%
%TA.AperFunction,OtherPad,Pad Q1B-9 (4808.268mil,3695.472mil)*%
G04:AMPARAMS|DCode=236|XSize=37.402mil|YSize=44.488mil|CornerRadius=2.057mil|HoleSize=0mil|Usage=FLASHONLY|Rotation=90.000|XOffset=0mil|YOffset=0mil|HoleType=Round|Shape=RoundedRectangle|*
%AMROUNDEDRECTD236*
21,1,0.037402,0.040374,0,0,90.0*
21,1,0.033287,0.044488,0,0,90.0*
1,1,0.004114,0.020187,0.016644*
1,1,0.004114,0.020187,-0.016644*
1,1,0.004114,-0.020187,-0.016644*
1,1,0.004114,-0.020187,0.016644*
%
%ADD236ROUNDEDRECTD236*%
%TA.AperFunction,OtherPad,Pad Q1B-9 (4808.268mil,3604.921mil)*%
G04:AMPARAMS|DCode=237|XSize=37.402mil|YSize=44.488mil|CornerRadius=2.057mil|HoleSize=0mil|Usage=FLASHONLY|Rotation=90.000|XOffset=0mil|YOffset=0mil|HoleType=Round|Shape=RoundedRectangle|*
%AMROUNDEDRECTD237*
21,1,0.037402,0.040374,0,0,90.0*
21,1,0.033287,0.044488,0,0,90.0*
1,1,0.004114,0.020187,0.016644*
1,1,0.004114,0.020187,-0.016644*
1,1,0.004114,-0.020187,-0.016644*
1,1,0.004114,-0.020187,0.016644*
%
%ADD237ROUNDEDRECTD237*%
%TA.AperFunction,OtherPad,Pad Q1B-9 (4808.268mil,3650.197mil)*%
G04:AMPARAMS|DCode=238|XSize=37.402mil|YSize=44.488mil|CornerRadius=2.057mil|HoleSize=0mil|Usage=FLASHONLY|Rotation=90.000|XOffset=0mil|YOffset=0mil|HoleType=Round|Shape=RoundedRectangle|*
%AMROUNDEDRECTD238*
21,1,0.037402,0.040374,0,0,90.0*
21,1,0.033287,0.044488,0,0,90.0*
1,1,0.004114,0.020187,0.016644*
1,1,0.004114,0.020187,-0.016644*
1,1,0.004114,-0.020187,-0.016644*
1,1,0.004114,-0.020187,0.016644*
%
%ADD238ROUNDEDRECTD238*%
%TA.AperFunction,OtherPad,Pad Q1B-9 (4912.992mil,3695.472mil)*%
G04:AMPARAMS|DCode=239|XSize=37.402mil|YSize=44.488mil|CornerRadius=2.057mil|HoleSize=0mil|Usage=FLASHONLY|Rotation=90.000|XOffset=0mil|YOffset=0mil|HoleType=Round|Shape=RoundedRectangle|*
%AMROUNDEDRECTD239*
21,1,0.037402,0.040374,0,0,90.0*
21,1,0.033287,0.044488,0,0,90.0*
1,1,0.004114,0.020187,0.016644*
1,1,0.004114,0.020187,-0.016644*
1,1,0.004114,-0.020187,-0.016644*
1,1,0.004114,-0.020187,0.016644*
%
%ADD239ROUNDEDRECTD239*%
%TA.AperFunction,OtherPad,Pad Q1B-9 (4912.992mil,3604.921mil)*%
G04:AMPARAMS|DCode=240|XSize=37.402mil|YSize=44.488mil|CornerRadius=2.057mil|HoleSize=0mil|Usage=FLASHONLY|Rotation=90.000|XOffset=0mil|YOffset=0mil|HoleType=Round|Shape=RoundedRectangle|*
%AMROUNDEDRECTD240*
21,1,0.037402,0.040374,0,0,90.0*
21,1,0.033287,0.044488,0,0,90.0*
1,1,0.004114,0.020187,0.016644*
1,1,0.004114,0.020187,-0.016644*
1,1,0.004114,-0.020187,-0.016644*
1,1,0.004114,-0.020187,0.016644*
%
%ADD240ROUNDEDRECTD240*%
%TA.AperFunction,OtherPad,Pad Q1B-9 (4912.992mil,3650.197mil)*%
G04:AMPARAMS|DCode=241|XSize=37.402mil|YSize=44.488mil|CornerRadius=2.057mil|HoleSize=0mil|Usage=FLASHONLY|Rotation=90.000|XOffset=0mil|YOffset=0mil|HoleType=Round|Shape=RoundedRectangle|*
%AMROUNDEDRECTD241*
21,1,0.037402,0.040374,0,0,90.0*
21,1,0.033287,0.044488,0,0,90.0*
1,1,0.004114,0.020187,0.016644*
1,1,0.004114,0.020187,-0.016644*
1,1,0.004114,-0.020187,-0.016644*
1,1,0.004114,-0.020187,0.016644*
%
%ADD241ROUNDEDRECTD241*%
%TA.AperFunction,OtherPad,Pad Q1A-9 (4860.63mil,5059.646mil)*%
G04:AMPARAMS|DCode=242|XSize=37.402mil|YSize=44.488mil|CornerRadius=2.057mil|HoleSize=0mil|Usage=FLASHONLY|Rotation=90.000|XOffset=0mil|YOffset=0mil|HoleType=Round|Shape=RoundedRectangle|*
%AMROUNDEDRECTD242*
21,1,0.037402,0.040374,0,0,90.0*
21,1,0.033287,0.044488,0,0,90.0*
1,1,0.004114,0.020187,0.016644*
1,1,0.004114,0.020187,-0.016644*
1,1,0.004114,-0.020187,-0.016644*
1,1,0.004114,-0.020187,0.016644*
%
%ADD242ROUNDEDRECTD242*%
%TA.AperFunction,OtherPad,Pad Q1A-9 (4860.63mil,5014.37mil)*%
G04:AMPARAMS|DCode=243|XSize=37.402mil|YSize=44.488mil|CornerRadius=2.057mil|HoleSize=0mil|Usage=FLASHONLY|Rotation=90.000|XOffset=0mil|YOffset=0mil|HoleType=Round|Shape=RoundedRectangle|*
%AMROUNDEDRECTD243*
21,1,0.037402,0.040374,0,0,90.0*
21,1,0.033287,0.044488,0,0,90.0*
1,1,0.004114,0.020187,0.016644*
1,1,0.004114,0.020187,-0.016644*
1,1,0.004114,-0.020187,-0.016644*
1,1,0.004114,-0.020187,0.016644*
%
%ADD243ROUNDEDRECTD243*%
%TA.AperFunction,OtherPad,Pad Q1A-9 (4860.63mil,5104.921mil)*%
G04:AMPARAMS|DCode=244|XSize=37.402mil|YSize=44.488mil|CornerRadius=2.057mil|HoleSize=0mil|Usage=FLASHONLY|Rotation=90.000|XOffset=0mil|YOffset=0mil|HoleType=Round|Shape=RoundedRectangle|*
%AMROUNDEDRECTD244*
21,1,0.037402,0.040374,0,0,90.0*
21,1,0.033287,0.044488,0,0,90.0*
1,1,0.004114,0.020187,0.016644*
1,1,0.004114,0.020187,-0.016644*
1,1,0.004114,-0.020187,-0.016644*
1,1,0.004114,-0.020187,0.016644*
%
%ADD244ROUNDEDRECTD244*%
%TA.AperFunction,OtherPad,Pad Q1A-9 (4808.268mil,5104.921mil)*%
G04:AMPARAMS|DCode=245|XSize=37.402mil|YSize=44.488mil|CornerRadius=2.057mil|HoleSize=0mil|Usage=FLASHONLY|Rotation=90.000|XOffset=0mil|YOffset=0mil|HoleType=Round|Shape=RoundedRectangle|*
%AMROUNDEDRECTD245*
21,1,0.037402,0.040374,0,0,90.0*
21,1,0.033287,0.044488,0,0,90.0*
1,1,0.004114,0.020187,0.016644*
1,1,0.004114,0.020187,-0.016644*
1,1,0.004114,-0.020187,-0.016644*
1,1,0.004114,-0.020187,0.016644*
%
%ADD245ROUNDEDRECTD245*%
%TA.AperFunction,OtherPad,Pad Q1A-9 (4808.268mil,5014.37mil)*%
G04:AMPARAMS|DCode=246|XSize=37.402mil|YSize=44.488mil|CornerRadius=2.057mil|HoleSize=0mil|Usage=FLASHONLY|Rotation=90.000|XOffset=0mil|YOffset=0mil|HoleType=Round|Shape=RoundedRectangle|*
%AMROUNDEDRECTD246*
21,1,0.037402,0.040374,0,0,90.0*
21,1,0.033287,0.044488,0,0,90.0*
1,1,0.004114,0.020187,0.016644*
1,1,0.004114,0.020187,-0.016644*
1,1,0.004114,-0.020187,-0.016644*
1,1,0.004114,-0.020187,0.016644*
%
%ADD246ROUNDEDRECTD246*%
%TA.AperFunction,OtherPad,Pad Q1A-9 (4808.268mil,5059.646mil)*%
G04:AMPARAMS|DCode=247|XSize=37.402mil|YSize=44.488mil|CornerRadius=2.057mil|HoleSize=0mil|Usage=FLASHONLY|Rotation=90.000|XOffset=0mil|YOffset=0mil|HoleType=Round|Shape=RoundedRectangle|*
%AMROUNDEDRECTD247*
21,1,0.037402,0.040374,0,0,90.0*
21,1,0.033287,0.044488,0,0,90.0*
1,1,0.004114,0.020187,0.016644*
1,1,0.004114,0.020187,-0.016644*
1,1,0.004114,-0.020187,-0.016644*
1,1,0.004114,-0.020187,0.016644*
%
%ADD247ROUNDEDRECTD247*%
%TA.AperFunction,OtherPad,Pad Q1A-9 (4912.992mil,5104.921mil)*%
G04:AMPARAMS|DCode=248|XSize=37.402mil|YSize=44.488mil|CornerRadius=2.057mil|HoleSize=0mil|Usage=FLASHONLY|Rotation=90.000|XOffset=0mil|YOffset=0mil|HoleType=Round|Shape=RoundedRectangle|*
%AMROUNDEDRECTD248*
21,1,0.037402,0.040374,0,0,90.0*
21,1,0.033287,0.044488,0,0,90.0*
1,1,0.004114,0.020187,0.016644*
1,1,0.004114,0.020187,-0.016644*
1,1,0.004114,-0.020187,-0.016644*
1,1,0.004114,-0.020187,0.016644*
%
%ADD248ROUNDEDRECTD248*%
%TA.AperFunction,OtherPad,Pad Q1A-9 (4912.992mil,5014.37mil)*%
G04:AMPARAMS|DCode=249|XSize=37.402mil|YSize=44.488mil|CornerRadius=2.057mil|HoleSize=0mil|Usage=FLASHONLY|Rotation=90.000|XOffset=0mil|YOffset=0mil|HoleType=Round|Shape=RoundedRectangle|*
%AMROUNDEDRECTD249*
21,1,0.037402,0.040374,0,0,90.0*
21,1,0.033287,0.044488,0,0,90.0*
1,1,0.004114,0.020187,0.016644*
1,1,0.004114,0.020187,-0.016644*
1,1,0.004114,-0.020187,-0.016644*
1,1,0.004114,-0.020187,0.016644*
%
%ADD249ROUNDEDRECTD249*%
%TA.AperFunction,OtherPad,Pad Q1A-9 (4912.992mil,5059.646mil)*%
G04:AMPARAMS|DCode=250|XSize=37.402mil|YSize=44.488mil|CornerRadius=2.057mil|HoleSize=0mil|Usage=FLASHONLY|Rotation=90.000|XOffset=0mil|YOffset=0mil|HoleType=Round|Shape=RoundedRectangle|*
%AMROUNDEDRECTD250*
21,1,0.037402,0.040374,0,0,90.0*
21,1,0.033287,0.044488,0,0,90.0*
1,1,0.004114,0.020187,0.016644*
1,1,0.004114,0.020187,-0.016644*
1,1,0.004114,-0.020187,-0.016644*
1,1,0.004114,-0.020187,0.016644*
%
%ADD250ROUNDEDRECTD250*%
D12*
X5735905Y3665354D02*
D03*
X5775905D02*
D03*
X5159528Y3236220D02*
D03*
X5199528D02*
D03*
X5199528Y3281496D02*
D03*
X5159528D02*
D03*
X5199528Y3336614D02*
D03*
X5159528D02*
D03*
X5750709Y2730315D02*
D03*
X5710709D02*
D03*
X5750709Y2773622D02*
D03*
X5710709D02*
D03*
X5199528Y3435039D02*
D03*
X5159528D02*
D03*
X5199528Y3379921D02*
D03*
X5159528D02*
D03*
X5297953Y3106299D02*
D03*
X5257953D02*
D03*
X5211339D02*
D03*
X5171339D02*
D03*
X5199213Y3690945D02*
D03*
X5159213D02*
D03*
X5297953Y3062992D02*
D03*
X5257953D02*
D03*
X5211339D02*
D03*
X5171339D02*
D03*
X5297953Y3019685D02*
D03*
X5257953D02*
D03*
X5211339D02*
D03*
X5171339D02*
D03*
X5576850Y3104330D02*
D03*
X5616850D02*
D03*
X5576850Y3061023D02*
D03*
X5616850D02*
D03*
X5576850Y3017716D02*
D03*
X5616850D02*
D03*
X5530236D02*
D03*
X5490236D02*
D03*
X5530236Y3061023D02*
D03*
X5490236D02*
D03*
X5530236Y3104330D02*
D03*
X5490236D02*
D03*
X5754646Y2921260D02*
D03*
X5714646D02*
D03*
X5360945Y3153543D02*
D03*
X5320945D02*
D03*
X5754646Y2875984D02*
D03*
X5714646D02*
D03*
X5171339Y2960630D02*
D03*
X5211339D02*
D03*
X5443622Y3104330D02*
D03*
X5403622D02*
D03*
X5443622Y3061023D02*
D03*
X5403622D02*
D03*
X5443622Y3017716D02*
D03*
X5403622D02*
D03*
X5443622Y3153543D02*
D03*
X5403622D02*
D03*
X5160158Y3651575D02*
D03*
X5120158D02*
D03*
X5199213Y3738189D02*
D03*
X5159213D02*
D03*
X5199528Y3149606D02*
D03*
X5159528D02*
D03*
X5199528Y3192913D02*
D03*
X5159528D02*
D03*
X5160158Y3564960D02*
D03*
X5120158D02*
D03*
X5160158Y3521653D02*
D03*
X5120158D02*
D03*
X5160158Y3608267D02*
D03*
X5120158D02*
D03*
Y3478346D02*
D03*
X5160158D02*
D03*
X5628032Y5051181D02*
D03*
X5668032D02*
D03*
X5120158Y4895669D02*
D03*
X5160158D02*
D03*
Y5025591D02*
D03*
X5120158D02*
D03*
X5160158Y4938976D02*
D03*
X5120158D02*
D03*
X5160158Y4982283D02*
D03*
X5120158D02*
D03*
X5199528Y4610236D02*
D03*
X5159528D02*
D03*
X5199528Y4566929D02*
D03*
X5159528D02*
D03*
X5199213Y5155512D02*
D03*
X5159213D02*
D03*
X5160158Y5068898D02*
D03*
X5120158D02*
D03*
X5443622Y4570866D02*
D03*
X5403622D02*
D03*
X5443622Y4435039D02*
D03*
X5403622D02*
D03*
X5443622Y4478346D02*
D03*
X5403622D02*
D03*
X5443622Y4521653D02*
D03*
X5403622D02*
D03*
X5754646Y4295275D02*
D03*
X5714646D02*
D03*
X5557795Y4570866D02*
D03*
X5517795D02*
D03*
X5360945D02*
D03*
X5320945D02*
D03*
X5840630Y4244094D02*
D03*
X5880630D02*
D03*
X5840630Y4295275D02*
D03*
X5880630D02*
D03*
X5530236Y4521653D02*
D03*
X5490236D02*
D03*
X5530236Y4478346D02*
D03*
X5490236D02*
D03*
X5530236Y4435039D02*
D03*
X5490236D02*
D03*
X5576850D02*
D03*
X5616850D02*
D03*
X5576850Y4478346D02*
D03*
X5616850D02*
D03*
X5576850Y4521653D02*
D03*
X5616850D02*
D03*
X5211339Y4437008D02*
D03*
X5171339D02*
D03*
X5297953D02*
D03*
X5257953D02*
D03*
X5211339Y4480315D02*
D03*
X5171339D02*
D03*
X5297953D02*
D03*
X5257953D02*
D03*
X5199213Y5108268D02*
D03*
X5159213D02*
D03*
X5211339Y4523622D02*
D03*
X5171339D02*
D03*
X5297953D02*
D03*
X5257953D02*
D03*
X5199528Y4797244D02*
D03*
X5159528D02*
D03*
X5199528Y4852362D02*
D03*
X5159528D02*
D03*
X5750709Y4190945D02*
D03*
X5710709D02*
D03*
X5750709Y4147638D02*
D03*
X5710709D02*
D03*
X5199528Y4753937D02*
D03*
X5159528D02*
D03*
X5199528Y4698819D02*
D03*
X5159528D02*
D03*
X5159528Y4653543D02*
D03*
X5199528D02*
D03*
X5624095Y3633858D02*
D03*
X5664095D02*
D03*
X5565669Y3153543D02*
D03*
X5525669D02*
D03*
D13*
X4248032Y5228032D02*
D03*
Y5268032D02*
D03*
X4303150D02*
D03*
Y5228032D02*
D03*
X4350394D02*
D03*
Y5268032D02*
D03*
X5407874Y3712913D02*
D03*
Y3672913D02*
D03*
X5403937Y5082362D02*
D03*
Y5122362D02*
D03*
X5128346Y2799528D02*
D03*
Y2759528D02*
D03*
Y4216850D02*
D03*
Y4176850D02*
D03*
X5364567Y2389449D02*
D03*
Y2429449D02*
D03*
X5801575Y2873701D02*
D03*
Y2913701D02*
D03*
X5407874Y2389449D02*
D03*
Y2429449D02*
D03*
X5557480Y3756220D02*
D03*
Y3716220D02*
D03*
X5362599Y3058031D02*
D03*
Y3018031D02*
D03*
X5321260Y2389449D02*
D03*
Y2429449D02*
D03*
X5711024Y2560708D02*
D03*
Y2600708D02*
D03*
X5126378Y2597401D02*
D03*
Y2557401D02*
D03*
X5510236Y2391417D02*
D03*
Y2431417D02*
D03*
X5087008Y2597401D02*
D03*
Y2557401D02*
D03*
X5246772Y3191260D02*
D03*
Y3151260D02*
D03*
X5203150Y3525275D02*
D03*
Y3565275D02*
D03*
Y3651890D02*
D03*
Y3611890D02*
D03*
X5080788Y3651260D02*
D03*
Y3691260D02*
D03*
X5730709Y4960945D02*
D03*
Y4920945D02*
D03*
X5777953Y4920630D02*
D03*
Y4960630D02*
D03*
X5080787Y5068583D02*
D03*
Y5108583D02*
D03*
X5203150Y5069212D02*
D03*
Y5029212D02*
D03*
Y4942598D02*
D03*
Y4982598D02*
D03*
X5246772Y4608583D02*
D03*
Y4568583D02*
D03*
X5561417Y5090866D02*
D03*
Y5050866D02*
D03*
X5880315Y4960630D02*
D03*
Y4920630D02*
D03*
X5829134Y4960630D02*
D03*
Y4920630D02*
D03*
X5087008Y4014724D02*
D03*
Y3974724D02*
D03*
X5502362Y3806772D02*
D03*
Y3846772D02*
D03*
X5171654Y4374331D02*
D03*
Y4334331D02*
D03*
X5126378Y4014724D02*
D03*
Y3974724D02*
D03*
X5711024Y3978031D02*
D03*
Y4018031D02*
D03*
X5321260Y3806772D02*
D03*
Y3846772D02*
D03*
X5362598Y4475354D02*
D03*
Y4435354D02*
D03*
X5561417Y5133543D02*
D03*
Y5173543D02*
D03*
X5407874Y3806772D02*
D03*
Y3846772D02*
D03*
X5364567Y3806772D02*
D03*
Y3846772D02*
D03*
X5557480Y3673543D02*
D03*
Y3633543D02*
D03*
X5726772Y3543622D02*
D03*
Y3503622D02*
D03*
X5777953D02*
D03*
Y3543622D02*
D03*
X5880315D02*
D03*
Y3503622D02*
D03*
X5829134Y3543622D02*
D03*
Y3503622D02*
D03*
D14*
X4510236Y2188976D02*
D03*
Y2299213D02*
D03*
X4667717Y3704724D02*
D03*
Y3814961D02*
D03*
X4671654Y2755905D02*
D03*
Y2866142D02*
D03*
Y4173228D02*
D03*
Y4283465D02*
D03*
Y3220472D02*
D03*
Y3330709D02*
D03*
Y4637795D02*
D03*
Y4748031D02*
D03*
D15*
X5861614Y3722441D02*
D03*
X5861614Y3797244D02*
D03*
X5773032Y3759843D02*
D03*
X5700197Y3722441D02*
D03*
X5700197Y3797244D02*
D03*
X5611614Y3759843D02*
D03*
D16*
X5268110Y2494094D02*
D03*
X5287795D02*
D03*
X5307480D02*
D03*
X5327165D02*
D03*
X5346850D02*
D03*
X5366535D02*
D03*
X5386221D02*
D03*
X5405906D02*
D03*
X5425591D02*
D03*
X5445276D02*
D03*
X5464961D02*
D03*
X5484646D02*
D03*
X5504331D02*
D03*
X5524016D02*
D03*
X5543701D02*
D03*
X5563386D02*
D03*
X5268110Y2935039D02*
D03*
X5287795D02*
D03*
X5307480D02*
D03*
X5327165D02*
D03*
X5346850D02*
D03*
X5366535D02*
D03*
X5386221D02*
D03*
X5405906D02*
D03*
X5425591D02*
D03*
X5445276D02*
D03*
X5464961D02*
D03*
X5484646D02*
D03*
X5504331D02*
D03*
X5524016D02*
D03*
X5543701D02*
D03*
X5563386D02*
D03*
X5268110Y3911417D02*
D03*
X5287795D02*
D03*
X5307480D02*
D03*
X5327165D02*
D03*
X5346850D02*
D03*
X5366535D02*
D03*
X5386220D02*
D03*
X5405905D02*
D03*
X5425591D02*
D03*
X5445276D02*
D03*
X5464961D02*
D03*
X5484646D02*
D03*
X5504331D02*
D03*
X5524016D02*
D03*
X5543701D02*
D03*
X5563386D02*
D03*
X5268110Y4352362D02*
D03*
X5287795D02*
D03*
X5307480D02*
D03*
X5327165D02*
D03*
X5346850D02*
D03*
X5366535D02*
D03*
X5386220D02*
D03*
X5405905D02*
D03*
X5425591D02*
D03*
X5445276D02*
D03*
X5464961D02*
D03*
X5484646D02*
D03*
X5504331D02*
D03*
X5524016D02*
D03*
X5543701D02*
D03*
X5563386D02*
D03*
D17*
X5636221Y2566929D02*
D03*
Y2586614D02*
D03*
Y2606299D02*
D03*
Y2625984D02*
D03*
Y2645669D02*
D03*
Y2665354D02*
D03*
Y2685039D02*
D03*
Y2704724D02*
D03*
Y2724409D02*
D03*
Y2744094D02*
D03*
Y2763779D02*
D03*
Y2783464D02*
D03*
Y2803149D02*
D03*
Y2822834D02*
D03*
Y2842519D02*
D03*
Y2862204D02*
D03*
X5195276Y2566929D02*
D03*
Y2586614D02*
D03*
Y2606299D02*
D03*
Y2625984D02*
D03*
Y2645669D02*
D03*
Y2665354D02*
D03*
Y2685039D02*
D03*
Y2704724D02*
D03*
Y2724409D02*
D03*
Y2744094D02*
D03*
Y2763779D02*
D03*
Y2783464D02*
D03*
Y2803149D02*
D03*
Y2822834D02*
D03*
Y2842519D02*
D03*
Y2862204D02*
D03*
X5636220Y3984252D02*
D03*
Y4003937D02*
D03*
Y4023622D02*
D03*
Y4043307D02*
D03*
Y4062992D02*
D03*
Y4082677D02*
D03*
Y4102362D02*
D03*
Y4122047D02*
D03*
Y4141732D02*
D03*
Y4161417D02*
D03*
Y4181102D02*
D03*
Y4200787D02*
D03*
Y4220472D02*
D03*
Y4240157D02*
D03*
Y4259842D02*
D03*
Y4279527D02*
D03*
X5195276Y3984252D02*
D03*
Y4003937D02*
D03*
Y4023622D02*
D03*
Y4043307D02*
D03*
Y4062992D02*
D03*
Y4082677D02*
D03*
Y4102362D02*
D03*
Y4122047D02*
D03*
Y4141732D02*
D03*
Y4161417D02*
D03*
Y4181102D02*
D03*
Y4200787D02*
D03*
Y4220472D02*
D03*
Y4240157D02*
D03*
Y4259842D02*
D03*
Y4279527D02*
D03*
D18*
X5785827Y2822835D02*
D03*
X5730709D02*
D03*
X5785827Y2681102D02*
D03*
X5730709D02*
D03*
X5774016Y4098425D02*
D03*
X5718898D02*
D03*
X5774016Y4244094D02*
D03*
X5718898D02*
D03*
D19*
X5343898Y3520669D02*
D03*
X5363583D02*
D03*
X5402953D02*
D03*
X5383268D02*
D03*
X5481693D02*
D03*
X5521063D02*
D03*
X5422638D02*
D03*
X5462008D02*
D03*
X5560433D02*
D03*
X5540748D02*
D03*
X5442323D02*
D03*
X5501378D02*
D03*
X5343898Y3250984D02*
D03*
X5363583D02*
D03*
X5383268D02*
D03*
X5402953D02*
D03*
X5422638D02*
D03*
X5481693D02*
D03*
X5501378D02*
D03*
X5442323D02*
D03*
X5462008D02*
D03*
X5521063D02*
D03*
X5540748D02*
D03*
X5560433D02*
D03*
X5343898Y4937992D02*
D03*
X5363583D02*
D03*
X5402953D02*
D03*
X5383268D02*
D03*
X5481693D02*
D03*
X5521063D02*
D03*
X5422638D02*
D03*
X5462008D02*
D03*
X5560433D02*
D03*
X5540748D02*
D03*
X5442323D02*
D03*
X5501378D02*
D03*
X5343898Y4668307D02*
D03*
X5363583D02*
D03*
X5383268D02*
D03*
X5402953D02*
D03*
X5422638D02*
D03*
X5481693D02*
D03*
X5501378D02*
D03*
X5442323D02*
D03*
X5462008D02*
D03*
X5521063D02*
D03*
X5540748D02*
D03*
X5560433D02*
D03*
D20*
X5317323Y3454724D02*
D03*
Y3474409D02*
D03*
Y3494094D02*
D03*
Y3415354D02*
D03*
Y3435039D02*
D03*
X5587008Y3494094D02*
D03*
Y3435039D02*
D03*
Y3474409D02*
D03*
Y3454724D02*
D03*
X5317323Y3375984D02*
D03*
Y3395669D02*
D03*
Y3336614D02*
D03*
Y3356299D02*
D03*
Y3277559D02*
D03*
Y3316929D02*
D03*
Y3297244D02*
D03*
X5587008Y3415354D02*
D03*
Y3375984D02*
D03*
Y3395669D02*
D03*
Y3336614D02*
D03*
Y3356299D02*
D03*
Y3277559D02*
D03*
Y3316929D02*
D03*
Y3297244D02*
D03*
X5317323Y4872047D02*
D03*
Y4891732D02*
D03*
Y4911417D02*
D03*
Y4832677D02*
D03*
Y4852362D02*
D03*
X5587008Y4911417D02*
D03*
Y4852362D02*
D03*
Y4891732D02*
D03*
Y4872047D02*
D03*
X5317323Y4793307D02*
D03*
Y4812992D02*
D03*
Y4753937D02*
D03*
Y4773622D02*
D03*
Y4694882D02*
D03*
Y4734252D02*
D03*
Y4714567D02*
D03*
X5587008Y4832677D02*
D03*
Y4793307D02*
D03*
Y4812992D02*
D03*
Y4753937D02*
D03*
Y4773622D02*
D03*
Y4694882D02*
D03*
Y4734252D02*
D03*
Y4714567D02*
D03*
D21*
X5452165Y3385827D02*
D03*
X5452165Y4803150D02*
D03*
D22*
X4325197Y3362205D02*
D03*
X4529921D02*
D03*
X4325197Y2889764D02*
D03*
X4529921D02*
D03*
X4325197Y2417323D02*
D03*
X4529921D02*
D03*
X4325197Y3834646D02*
D03*
X4529921D02*
D03*
X4325197Y4303150D02*
D03*
X4529921D02*
D03*
X4325197Y4771654D02*
D03*
X4529921D02*
D03*
D23*
X5462992Y3683071D02*
D03*
Y3750000D02*
D03*
X5466929Y5100394D02*
D03*
Y5167323D02*
D03*
D24*
X5336693Y3741945D02*
D03*
Y3639945D02*
D03*
X5333071Y5169110D02*
D03*
Y5067110D02*
D03*
D25*
X5832890Y4397638D02*
D03*
X5730890D02*
D03*
X5707268Y2996063D02*
D03*
X5809268D02*
D03*
D26*
X5740551Y4838583D02*
D03*
X5815354D02*
D03*
X5740551Y3417323D02*
D03*
X5815354D02*
D03*
D27*
X5781890Y4535433D02*
D03*
Y4716535D02*
D03*
Y3118110D02*
D03*
Y3299213D02*
D03*
D77*
X4133366Y2597244D02*
D03*
D78*
X4320177D02*
D03*
D80*
X4133366Y4010630D02*
D03*
D81*
X4320177D02*
D03*
D83*
X4767224Y2648425D02*
D03*
D84*
X4954035D02*
D03*
D86*
X4767224Y4061811D02*
D03*
D87*
X4954035D02*
D03*
D89*
X4133366Y3069685D02*
D03*
D90*
X4320177D02*
D03*
D92*
X4133366Y4479134D02*
D03*
D93*
X4320177D02*
D03*
D95*
X4767224Y3120866D02*
D03*
D96*
X4954035D02*
D03*
D98*
X4767224Y4530315D02*
D03*
D99*
X4954035D02*
D03*
D101*
X4133366Y3538189D02*
D03*
D102*
X4320177D02*
D03*
D104*
X4133366Y4951575D02*
D03*
D105*
X4320177D02*
D03*
D107*
X4767224Y3593307D02*
D03*
D108*
X4954035D02*
D03*
D110*
X4767224Y5002756D02*
D03*
D111*
X4954035D02*
D03*
D114*
X4151772Y2740945D02*
D03*
X4201772D02*
D03*
X4251772D02*
D03*
X4301772D02*
D03*
Y2518898D02*
D03*
X4251772D02*
D03*
X4201772D02*
D03*
X4151772D02*
D03*
Y4154331D02*
D03*
X4201772D02*
D03*
X4251772D02*
D03*
X4301772D02*
D03*
Y3932283D02*
D03*
X4251772D02*
D03*
X4201772D02*
D03*
X4151772D02*
D03*
X4785630Y2792126D02*
D03*
X4835630D02*
D03*
X4885630D02*
D03*
X4935630D02*
D03*
Y2570079D02*
D03*
X4885630D02*
D03*
X4835630D02*
D03*
X4785630D02*
D03*
Y4205512D02*
D03*
X4835630D02*
D03*
X4885630D02*
D03*
X4935630D02*
D03*
Y3983465D02*
D03*
X4885630D02*
D03*
X4835630D02*
D03*
X4785630D02*
D03*
X4151772Y3213386D02*
D03*
X4201772D02*
D03*
X4251772D02*
D03*
X4301772D02*
D03*
Y2991339D02*
D03*
X4251772D02*
D03*
X4201772D02*
D03*
X4151772D02*
D03*
Y4622835D02*
D03*
X4201772D02*
D03*
X4251772D02*
D03*
X4301772D02*
D03*
Y4400787D02*
D03*
X4251772D02*
D03*
X4201772D02*
D03*
X4151772D02*
D03*
X4785630Y3264567D02*
D03*
X4835630D02*
D03*
X4885630D02*
D03*
X4935630D02*
D03*
Y3042520D02*
D03*
X4885630D02*
D03*
X4835630D02*
D03*
X4785630D02*
D03*
Y4674016D02*
D03*
X4835630D02*
D03*
X4885630D02*
D03*
X4935630D02*
D03*
Y4451968D02*
D03*
X4885630D02*
D03*
X4835630D02*
D03*
X4785630D02*
D03*
X4151772Y3681890D02*
D03*
X4201772D02*
D03*
X4251772D02*
D03*
X4301772D02*
D03*
Y3459843D02*
D03*
X4251772D02*
D03*
X4201772D02*
D03*
X4151772D02*
D03*
Y5095275D02*
D03*
X4201772D02*
D03*
X4251772D02*
D03*
X4301772D02*
D03*
Y4873228D02*
D03*
X4251772D02*
D03*
X4201772D02*
D03*
X4151772D02*
D03*
X4785630Y3737008D02*
D03*
X4835630D02*
D03*
X4885630D02*
D03*
X4935630D02*
D03*
Y3514961D02*
D03*
X4885630D02*
D03*
X4835630D02*
D03*
X4785630D02*
D03*
Y5146457D02*
D03*
X4835630D02*
D03*
X4885630D02*
D03*
X4935630D02*
D03*
Y4924409D02*
D03*
X4885630D02*
D03*
X4835630D02*
D03*
X4785630D02*
D03*
D143*
X4226772Y2654134D02*
D03*
D144*
Y2608858D02*
D03*
D145*
Y2699409D02*
D03*
D146*
X4174409D02*
D03*
D147*
Y2608858D02*
D03*
D148*
Y2654134D02*
D03*
D149*
X4279134Y2699409D02*
D03*
D150*
Y2608858D02*
D03*
D151*
Y2654134D02*
D03*
D152*
X4226772Y4067520D02*
D03*
D153*
Y4022244D02*
D03*
D154*
Y4112795D02*
D03*
D155*
X4174409D02*
D03*
D156*
Y4022244D02*
D03*
D157*
Y4067520D02*
D03*
D158*
X4279134Y4112795D02*
D03*
D159*
Y4022244D02*
D03*
D160*
Y4067520D02*
D03*
D161*
X4860630Y2705315D02*
D03*
D162*
Y2660039D02*
D03*
D163*
Y2750590D02*
D03*
D164*
X4808268D02*
D03*
D165*
Y2660039D02*
D03*
D166*
Y2705315D02*
D03*
D167*
X4912992Y2750590D02*
D03*
D168*
Y2660039D02*
D03*
D169*
Y2705315D02*
D03*
D170*
X4860630Y4118701D02*
D03*
D171*
Y4073425D02*
D03*
D172*
Y4163976D02*
D03*
D173*
X4808268D02*
D03*
D174*
Y4073425D02*
D03*
D175*
Y4118701D02*
D03*
D176*
X4912992Y4163976D02*
D03*
D177*
Y4073425D02*
D03*
D178*
Y4118701D02*
D03*
D179*
X4226772Y3126575D02*
D03*
D180*
Y3081299D02*
D03*
D181*
Y3171850D02*
D03*
D182*
X4174409D02*
D03*
D183*
Y3081299D02*
D03*
D184*
Y3126575D02*
D03*
D185*
X4279134Y3171850D02*
D03*
D186*
Y3081299D02*
D03*
D187*
Y3126575D02*
D03*
D188*
X4226772Y4536024D02*
D03*
D189*
Y4490748D02*
D03*
D190*
Y4581299D02*
D03*
D191*
X4174409D02*
D03*
D192*
Y4490748D02*
D03*
D193*
Y4536024D02*
D03*
D194*
X4279134Y4581299D02*
D03*
D195*
Y4490748D02*
D03*
D196*
Y4536024D02*
D03*
D197*
X4860630Y3177756D02*
D03*
D198*
Y3132480D02*
D03*
D199*
Y3223032D02*
D03*
D200*
X4808268D02*
D03*
D201*
Y3132480D02*
D03*
D202*
Y3177756D02*
D03*
D203*
X4912992Y3223032D02*
D03*
D204*
Y3132480D02*
D03*
D205*
Y3177756D02*
D03*
D206*
X4860630Y4587205D02*
D03*
D207*
Y4541929D02*
D03*
D208*
Y4632480D02*
D03*
D209*
X4808268D02*
D03*
D210*
Y4541929D02*
D03*
D211*
Y4587205D02*
D03*
D212*
X4912992Y4632480D02*
D03*
D213*
Y4541929D02*
D03*
D214*
Y4587205D02*
D03*
D215*
X4226772Y3595079D02*
D03*
D216*
Y3549803D02*
D03*
D217*
Y3640354D02*
D03*
D218*
X4174409D02*
D03*
D219*
Y3549803D02*
D03*
D220*
Y3595079D02*
D03*
D221*
X4279134Y3640354D02*
D03*
D222*
Y3549803D02*
D03*
D223*
Y3595079D02*
D03*
D224*
X4226772Y5008465D02*
D03*
D225*
Y4963189D02*
D03*
D226*
Y5053740D02*
D03*
D227*
X4174409D02*
D03*
D228*
Y4963189D02*
D03*
D229*
Y5008465D02*
D03*
D230*
X4279134Y5053740D02*
D03*
D231*
Y4963189D02*
D03*
D232*
Y5008465D02*
D03*
D233*
X4860630Y3650197D02*
D03*
D234*
Y3604921D02*
D03*
D235*
Y3695472D02*
D03*
D236*
X4808268D02*
D03*
D237*
Y3604921D02*
D03*
D238*
Y3650197D02*
D03*
D239*
X4912992Y3695472D02*
D03*
D240*
Y3604921D02*
D03*
D241*
Y3650197D02*
D03*
D242*
X4860630Y5059646D02*
D03*
D243*
Y5014370D02*
D03*
D244*
Y5104921D02*
D03*
D245*
X4808268D02*
D03*
D246*
Y5014370D02*
D03*
D247*
Y5059646D02*
D03*
D248*
X4912992Y5104921D02*
D03*
D249*
Y5014370D02*
D03*
D250*
Y5059646D02*
D03*
%TF.MD5,BCF9636DB453BF061C1316336DB2F74B*%
M02*
