G04 Layer_Color=255*
%FSLAX26Y26*%
%MOIN*%
%TF.FileFunction,Pads,Bot*%
%TF.Part,Single*%
G01*
G75*
%TA.AperFunction,ComponentPad*%
%ADD51R,0.078740X0.078740*%
%ADD52C,0.078740*%
%ADD53C,0.060000*%
%ADD54R,0.060000X0.060000*%
%ADD55O,0.060000X0.043307*%
%ADD56R,0.060000X0.060000*%
%ADD57O,0.047244X0.078740*%
%ADD58R,0.047244X0.078740*%
%ADD59C,0.157480*%
%ADD60R,0.118110X0.157480*%
%ADD61R,0.078740X0.118110*%
%TA.AperFunction,ViaPad*%
%ADD62C,0.275591*%
D51*
X3639764Y2389764D02*
D03*
D52*
X3935039D02*
D03*
D53*
X6011811Y4472441D02*
D03*
Y4572441D02*
D03*
Y4072441D02*
D03*
Y4272441D02*
D03*
Y4172441D02*
D03*
Y3972441D02*
D03*
Y4972441D02*
D03*
Y5172441D02*
D03*
Y5072441D02*
D03*
Y4672441D02*
D03*
Y4372441D02*
D03*
Y3615748D02*
D03*
Y3715748D02*
D03*
Y2715748D02*
D03*
Y2615748D02*
D03*
Y2515748D02*
D03*
Y2815748D02*
D03*
Y2915748D02*
D03*
Y3015748D02*
D03*
Y3115748D02*
D03*
Y3215748D02*
D03*
Y3315748D02*
D03*
Y3515748D02*
D03*
Y3415748D02*
D03*
X5911417Y5314961D02*
D03*
X6011417D02*
D03*
X5011417D02*
D03*
X4911417D02*
D03*
X4811417D02*
D03*
X5111417D02*
D03*
X5211417D02*
D03*
X5311417D02*
D03*
X5411417D02*
D03*
X5511417D02*
D03*
X5611417D02*
D03*
X5811417D02*
D03*
X5711417D02*
D03*
D54*
X6011811Y3872441D02*
D03*
Y2415748D02*
D03*
D55*
Y4872441D02*
D03*
Y4772441D02*
D03*
D56*
X4711417Y5314961D02*
D03*
D57*
X5972441Y2177165D02*
D03*
X5893701D02*
D03*
X5814961D02*
D03*
X5736220D02*
D03*
X5124409Y2212598D02*
D03*
X5203150D02*
D03*
X5281890D02*
D03*
X5360630D02*
D03*
D58*
X5657480Y2177165D02*
D03*
X5439370Y2212598D02*
D03*
D59*
X4911811Y2200787D02*
D03*
D60*
X4714961D02*
D03*
D61*
X4657874Y3545276D02*
D03*
X4457087Y3543307D02*
D03*
X4657874Y3076771D02*
D03*
X4457087Y3074803D02*
D03*
X4657874Y2604331D02*
D03*
X4457087Y2602362D02*
D03*
X4657874Y4017716D02*
D03*
X4457087Y4015748D02*
D03*
X4657874Y4486220D02*
D03*
X4457087Y4484252D02*
D03*
X4657874Y4958661D02*
D03*
X4457087Y4956693D02*
D03*
D62*
X3625984Y5775591D02*
D03*
X5976378Y5771654D02*
D03*
X4799213Y1610236D02*
D03*
%TF.MD5,75D5996230954919647C1D5D102984E2*%
M02*
