G04 Layer_Color=16711935*
%FSLAX26Y26*%
%MOIN*%
%TF.FileFunction,Mechanical*%
%TF.Part,Single*%
G01*
G75*
%TA.AperFunction,NonConductor*%
%ADD75C,0.003937*%
%ADD252C,0.007000*%
D75*
X4171654Y2543307D02*
G03*
X4171654Y2543307I-15748J0D01*
G01*
Y3956693D02*
G03*
X4171654Y3956693I-15748J0D01*
G01*
X4805512Y2594488D02*
G03*
X4805512Y2594488I-15748J0D01*
G01*
Y4007874D02*
G03*
X4805512Y4007874I-15748J0D01*
G01*
X4171654Y3015748D02*
G03*
X4171654Y3015748I-15748J0D01*
G01*
Y4425197D02*
G03*
X4171654Y4425197I-15748J0D01*
G01*
X4805512Y3066929D02*
G03*
X4805512Y3066929I-15748J0D01*
G01*
Y4476378D02*
G03*
X4805512Y4476378I-15748J0D01*
G01*
X4171654Y3484252D02*
G03*
X4171654Y3484252I-15748J0D01*
G01*
Y4897638D02*
G03*
X4171654Y4897638I-15748J0D01*
G01*
X4805512Y3539370D02*
G03*
X4805512Y3539370I-15748J0D01*
G01*
Y4948819D02*
G03*
X4805512Y4948819I-15748J0D01*
G01*
X4327165Y2509843D02*
Y2750000D01*
X4126378D02*
X4327165D01*
X4126378Y2509843D02*
X4327165D01*
X4126378D02*
Y2750000D01*
X4327165Y3923228D02*
Y4163386D01*
X4126378D02*
X4327165D01*
X4126378Y3923228D02*
X4327165D01*
X4126378D02*
Y4163386D01*
X4961024Y2561024D02*
Y2801181D01*
X4760236D02*
X4961024D01*
X4760236Y2561024D02*
X4961024D01*
X4760236D02*
Y2801181D01*
X4961024Y3974410D02*
Y4214567D01*
X4760236D02*
X4961024D01*
X4760236Y3974410D02*
X4961024D01*
X4760236D02*
Y4214567D01*
X4327165Y2982284D02*
Y3222441D01*
X4126378D02*
X4327165D01*
X4126378Y2982284D02*
X4327165D01*
X4126378D02*
Y3222441D01*
X4327165Y4391732D02*
Y4631890D01*
X4126378D02*
X4327165D01*
X4126378Y4391732D02*
X4327165D01*
X4126378D02*
Y4631890D01*
X4961024Y3033465D02*
Y3273622D01*
X4760236D02*
X4961024D01*
X4760236Y3033465D02*
X4961024D01*
X4760236D02*
Y3273622D01*
X4961024Y4442913D02*
Y4683071D01*
X4760236D02*
X4961024D01*
X4760236Y4442913D02*
X4961024D01*
X4760236D02*
Y4683071D01*
X4327165Y3450787D02*
Y3690945D01*
X4126378D02*
X4327165D01*
X4126378Y3450787D02*
X4327165D01*
X4126378D02*
Y3690945D01*
X4327165Y4864173D02*
Y5104331D01*
X4126378D02*
X4327165D01*
X4126378Y4864173D02*
X4327165D01*
X4126378D02*
Y5104331D01*
X4961024Y3505905D02*
Y3746063D01*
X4760236D02*
X4961024D01*
X4760236Y3505905D02*
X4961024D01*
X4760236D02*
Y3746063D01*
X4961024Y4915354D02*
Y5155512D01*
X4760236D02*
X4961024D01*
X4760236Y4915354D02*
X4961024D01*
X4760236D02*
Y5155512D01*
D252*
X4240107Y2596579D02*
X4213449D01*
X4206785Y2589915D01*
Y2576586D01*
X4213449Y2569921D01*
X4240107D01*
X4246772Y2576586D01*
Y2589915D01*
X4233443Y2583250D02*
X4246772Y2596579D01*
Y2589915D02*
X4240107Y2596579D01*
X4206785Y2636566D02*
X4213449Y2623237D01*
X4226778Y2609908D01*
X4240107D01*
X4246772Y2616573D01*
Y2629902D01*
X4240107Y2636566D01*
X4233443D01*
X4226778Y2629902D01*
Y2609908D01*
X4206785Y2649895D02*
X4246772D01*
Y2669889D01*
X4240107Y2676553D01*
X4233443D01*
X4226778Y2669889D01*
Y2649895D01*
Y2669889D01*
X4220114Y2676553D01*
X4213449D01*
X4206785Y2669889D01*
Y2649895D01*
X4240107Y4009965D02*
X4213449D01*
X4206785Y4003300D01*
Y3989972D01*
X4213449Y3983307D01*
X4240107D01*
X4246772Y3989972D01*
Y4003300D01*
X4233443Y3996636D02*
X4246772Y4009965D01*
Y4003300D02*
X4240107Y4009965D01*
X4206785Y4049952D02*
X4213449Y4036623D01*
X4226778Y4023294D01*
X4240107D01*
X4246772Y4029959D01*
Y4043288D01*
X4240107Y4049952D01*
X4233443D01*
X4226778Y4043288D01*
Y4023294D01*
X4246772Y4063281D02*
X4220114D01*
X4206785Y4076610D01*
X4220114Y4089939D01*
X4246772D01*
X4226778D01*
Y4063281D01*
X4873965Y2647760D02*
X4847307D01*
X4840643Y2641096D01*
Y2627767D01*
X4847307Y2621102D01*
X4873965D01*
X4880630Y2627767D01*
Y2641096D01*
X4867301Y2634431D02*
X4880630Y2647760D01*
Y2641096D02*
X4873965Y2647760D01*
X4840643Y2687747D02*
Y2661089D01*
X4860636D01*
X4853972Y2674418D01*
Y2681083D01*
X4860636Y2687747D01*
X4873965D01*
X4880630Y2681083D01*
Y2667754D01*
X4873965Y2661089D01*
X4840643Y2701077D02*
X4880630D01*
Y2721070D01*
X4873965Y2727735D01*
X4867301D01*
X4860636Y2721070D01*
Y2701077D01*
Y2721070D01*
X4853972Y2727735D01*
X4847307D01*
X4840643Y2721070D01*
Y2701077D01*
X4873965Y4061146D02*
X4847307D01*
X4840643Y4054482D01*
Y4041153D01*
X4847307Y4034488D01*
X4873965D01*
X4880630Y4041153D01*
Y4054482D01*
X4867301Y4047817D02*
X4880630Y4061146D01*
Y4054482D02*
X4873965Y4061146D01*
X4840643Y4101133D02*
Y4074475D01*
X4860636D01*
X4853972Y4087804D01*
Y4094469D01*
X4860636Y4101133D01*
X4873965D01*
X4880630Y4094469D01*
Y4081140D01*
X4873965Y4074475D01*
X4880630Y4114462D02*
X4853972D01*
X4840643Y4127791D01*
X4853972Y4141120D01*
X4880630D01*
X4860636D01*
Y4114462D01*
X4240107Y3069020D02*
X4213449D01*
X4206785Y3062356D01*
Y3049027D01*
X4213449Y3042362D01*
X4240107D01*
X4246772Y3049027D01*
Y3062356D01*
X4233443Y3055691D02*
X4246772Y3069020D01*
Y3062356D02*
X4240107Y3069020D01*
X4246772Y3102343D02*
X4206785D01*
X4226778Y3082349D01*
Y3109007D01*
X4206785Y3122336D02*
X4246772D01*
Y3142330D01*
X4240107Y3148994D01*
X4233443D01*
X4226778Y3142330D01*
Y3122336D01*
Y3142330D01*
X4220114Y3148994D01*
X4213449D01*
X4206785Y3142330D01*
Y3122336D01*
X4240107Y4478469D02*
X4213449D01*
X4206785Y4471805D01*
Y4458475D01*
X4213449Y4451811D01*
X4240107D01*
X4246772Y4458475D01*
Y4471805D01*
X4233443Y4465140D02*
X4246772Y4478469D01*
Y4471805D02*
X4240107Y4478469D01*
X4246772Y4511792D02*
X4206785D01*
X4226778Y4491798D01*
Y4518456D01*
X4246772Y4531785D02*
X4220114D01*
X4206785Y4545114D01*
X4220114Y4558443D01*
X4246772D01*
X4226778D01*
Y4531785D01*
X4873965Y3120201D02*
X4847307D01*
X4840643Y3113537D01*
Y3100208D01*
X4847307Y3093543D01*
X4873965D01*
X4880630Y3100208D01*
Y3113537D01*
X4867301Y3106872D02*
X4880630Y3120201D01*
Y3113537D02*
X4873965Y3120201D01*
X4847307Y3133530D02*
X4840643Y3140195D01*
Y3153524D01*
X4847307Y3160188D01*
X4853972D01*
X4860636Y3153524D01*
Y3146859D01*
Y3153524D01*
X4867301Y3160188D01*
X4873965D01*
X4880630Y3153524D01*
Y3140195D01*
X4873965Y3133530D01*
X4840643Y3173517D02*
X4880630D01*
Y3193511D01*
X4873965Y3200175D01*
X4867301D01*
X4860636Y3193511D01*
Y3173517D01*
Y3193511D01*
X4853972Y3200175D01*
X4847307D01*
X4840643Y3193511D01*
Y3173517D01*
X4873965Y4529650D02*
X4847307D01*
X4840643Y4522986D01*
Y4509657D01*
X4847307Y4502992D01*
X4873965D01*
X4880630Y4509657D01*
Y4522986D01*
X4867301Y4516321D02*
X4880630Y4529650D01*
Y4522986D02*
X4873965Y4529650D01*
X4847307Y4542979D02*
X4840643Y4549644D01*
Y4562973D01*
X4847307Y4569637D01*
X4853972D01*
X4860636Y4562973D01*
Y4556308D01*
Y4562973D01*
X4867301Y4569637D01*
X4873965D01*
X4880630Y4562973D01*
Y4549644D01*
X4873965Y4542979D01*
X4880630Y4582966D02*
X4853972D01*
X4840643Y4596295D01*
X4853972Y4609624D01*
X4880630D01*
X4860636D01*
Y4582966D01*
X4240107Y3537524D02*
X4213449D01*
X4206785Y3530860D01*
Y3517531D01*
X4213449Y3510866D01*
X4240107D01*
X4246772Y3517531D01*
Y3530860D01*
X4233443Y3524195D02*
X4246772Y3537524D01*
Y3530860D02*
X4240107Y3537524D01*
X4246772Y3577511D02*
Y3550853D01*
X4220114Y3577511D01*
X4213449D01*
X4206785Y3570847D01*
Y3557518D01*
X4213449Y3550853D01*
X4206785Y3590840D02*
X4246772D01*
Y3610834D01*
X4240107Y3617498D01*
X4233443D01*
X4226778Y3610834D01*
Y3590840D01*
Y3610834D01*
X4220114Y3617498D01*
X4213449D01*
X4206785Y3610834D01*
Y3590840D01*
X4240107Y4950910D02*
X4213449D01*
X4206785Y4944245D01*
Y4930916D01*
X4213449Y4924252D01*
X4240107D01*
X4246772Y4930916D01*
Y4944245D01*
X4233443Y4937581D02*
X4246772Y4950910D01*
Y4944245D02*
X4240107Y4950910D01*
X4246772Y4990897D02*
Y4964239D01*
X4220114Y4990897D01*
X4213449D01*
X4206785Y4984233D01*
Y4970904D01*
X4213449Y4964239D01*
X4246772Y5004226D02*
X4220114D01*
X4206785Y5017555D01*
X4220114Y5030884D01*
X4246772D01*
X4226778D01*
Y5004226D01*
X4873965Y3592642D02*
X4847307D01*
X4840643Y3585978D01*
Y3572649D01*
X4847307Y3565984D01*
X4873965D01*
X4880630Y3572649D01*
Y3585978D01*
X4867301Y3579313D02*
X4880630Y3592642D01*
Y3585978D02*
X4873965Y3592642D01*
X4880630Y3605971D02*
Y3619300D01*
Y3612636D01*
X4840643D01*
X4847307Y3605971D01*
X4840643Y3639294D02*
X4880630D01*
Y3659287D01*
X4873965Y3665952D01*
X4867301D01*
X4860636Y3659287D01*
Y3639294D01*
Y3659287D01*
X4853972Y3665952D01*
X4847307D01*
X4840643Y3659287D01*
Y3639294D01*
X4873965Y5002091D02*
X4847307D01*
X4840643Y4995426D01*
Y4982097D01*
X4847307Y4975433D01*
X4873965D01*
X4880630Y4982097D01*
Y4995426D01*
X4867301Y4988762D02*
X4880630Y5002091D01*
Y4995426D02*
X4873965Y5002091D01*
X4880630Y5015420D02*
Y5028749D01*
Y5022085D01*
X4840643D01*
X4847307Y5015420D01*
X4880630Y5048743D02*
X4853972D01*
X4840643Y5062072D01*
X4853972Y5075401D01*
X4880630D01*
X4860636D01*
Y5048743D01*
%TF.MD5,A7EA70656FC831B13AE745FF4D6A5FF8*%
M02*
